<svg width="144" height="60" viewBox="0 0 144 60" fill="none" xmlns="http://www.w3.org/2000/svg">
<path d="M125.061 31.0607C125.646 30.4749 125.646 29.5251 125.061 28.9393L115.515 19.3934C114.929 18.8076 113.979 18.8076 113.393 19.3934C112.808 19.9792 112.808 20.9289 113.393 21.5147L121.879 30L113.393 38.4853C112.808 39.0711 112.808 40.0208 113.393 40.6066C113.979 41.1924 114.929 41.1924 115.515 40.6066L125.061 31.0607ZM103 31.5H124V28.5H103V31.5Z" fill="black"/>
<circle cx="114" cy="30" r="29.5" stroke="black"/>
<path d="M18.9393 31.0607C18.3536 30.4749 18.3536 29.5251 18.9393 28.9393L28.4853 19.3934C29.0711 18.8076 30.0208 18.8076 30.6066 19.3934C31.1924 19.9792 31.1924 20.9289 30.6066 21.5147L22.1213 30L30.6066 38.4853C31.1924 39.0711 31.1924 40.0208 30.6066 40.6066C30.0208 41.1924 29.0711 41.1924 28.4853 40.6066L18.9393 31.0607ZM41 31.5H20V28.5H41V31.5Z" fill="black"/>
<circle cx="30" cy="30" r="29.5" transform="matrix(-1 0 0 1 60 0)" stroke="black"/>
</svg>
