<svg width="654" height="395" viewBox="0 0 654 395" fill="none" xmlns="http://www.w3.org/2000/svg">
<path d="M168.745 317.503C172.571 317.931 176.343 318.761 179.996 319.98L180.143 320.034L180.545 320.173C200.968 327.464 210.34 326.094 218.374 323.625C240.027 316.961 252.91 288.27 288.017 293.827C302.911 296.149 314.897 299.384 324.238 305.901C324.3 305.963 324.37 306.002 324.432 306.056C325.769 307 327.076 307.96 328.298 308.943C346.563 320.87 364.751 305.321 369.979 301.799C370.357 301.52 370.752 299.307 371.146 299.028L371.479 298.78C394.361 282.635 430.759 266.274 465.821 270.298C526.137 277.194 550.372 345.629 550.372 345.629H99.8828C106.92 329.43 135.068 313.648 168.745 317.503Z" fill="#03FFEE"/>
<path d="M123.025 143.475H158.543C159.371 143.475 160.043 142.803 160.043 141.974V132.098C160.043 131.269 159.371 130.596 158.543 130.596H123.025C122.197 130.596 121.525 131.269 121.525 132.098V141.974C121.525 142.803 122.197 143.475 123.025 143.475Z" fill="#03FFEE"/>
<path d="M129.074 135.596H154.299" stroke="white" stroke-width="0.62" stroke-miterlimit="10"/>
<path d="M129.074 138.475H136.498" stroke="white" stroke-width="0.62" stroke-miterlimit="10"/>
<path d="M155.461 141.765V147.593L148.045 141.765H155.461Z" fill="#03FFEE"/>
<path d="M539.594 204.526C541.977 204.526 543.909 202.565 543.909 200.145C543.909 197.726 541.977 195.765 539.594 195.765C537.211 195.765 535.279 197.726 535.279 200.145C535.279 202.565 537.211 204.526 539.594 204.526Z" stroke="white" stroke-width="1.09" stroke-miterlimit="10"/>
<path d="M105.569 234.007C108.973 234.007 111.733 231.207 111.733 227.753C111.733 224.299 108.973 221.499 105.569 221.499C102.166 221.499 99.4062 224.299 99.4062 227.753C99.4062 231.207 102.166 234.007 105.569 234.007Z" stroke="white" stroke-width="1.09" stroke-miterlimit="10"/>
<path d="M340.144 97.4317C340.148 98.0545 339.907 98.6539 339.473 99.1001C339.038 99.5463 338.446 99.8033 337.824 99.8155C337.202 99.8033 336.609 99.5463 336.175 99.1001C335.741 98.6539 335.5 98.0545 335.504 97.4317C335.5 96.8088 335.741 96.2094 336.175 95.7632C336.609 95.3171 337.202 95.0601 337.824 95.0479C338.446 95.0601 339.038 95.3171 339.473 95.7632C339.907 96.2094 340.148 96.8088 340.144 97.4317Z" stroke="white" stroke-width="1.09" stroke-miterlimit="10"/>
<path d="M138.031 84.6224H238.621C238.621 84.6224 238.134 80.621 226.96 77.4244C215.786 74.2279 207.767 82.4243 195.131 77.4244C182.496 72.4246 175.799 65.2576 159.513 69.2513C143.228 73.245 138.031 84.6224 138.031 84.6224Z" stroke="#FAFAFA" stroke-width="1.1" stroke-linecap="round" stroke-linejoin="round"/>
<path d="M456.889 119.923H508.908C508.908 119.923 508.661 117.408 502.884 115.395C497.108 113.383 492.955 118.546 486.421 115.395C479.886 112.245 476.422 107.741 468.001 110.256C465.56 110.967 463.303 112.2 461.384 113.869C459.466 115.538 457.932 117.603 456.889 119.923Z" stroke="#FAFAFA" stroke-width="1.1" stroke-linecap="round" stroke-linejoin="round"/>
<path d="M429.35 71.1986C430.848 61.8932 424.525 53.1347 415.228 51.6359C405.931 50.1371 397.18 56.4656 395.682 65.771C394.185 75.0764 400.508 83.8349 409.805 85.3337C419.102 86.8325 427.853 80.504 429.35 71.1986Z" fill="#03FFEE"/>
<path d="M403.015 166.981H226.008V344.708H403.015V166.981Z" fill="#E9FFFD"/>
<path d="M403.015 139.025V166.981H226.008V139.025C226.008 136.356 227.067 133.797 228.952 131.91C230.837 130.023 233.394 128.963 236.061 128.963H392.977C395.641 128.967 398.194 130.029 400.076 131.916C401.958 133.802 403.015 136.359 403.015 139.025Z" fill="#03FFEE"/>
<path d="M375.586 154.659C380.186 154.659 383.915 150.927 383.915 146.323C383.915 141.72 380.186 137.988 375.586 137.988C370.987 137.988 367.258 141.72 367.258 146.323C367.258 150.927 370.987 154.659 375.586 154.659Z" fill="#008C7B"/>
<path d="M375.586 149.458C376.851 149.458 378.065 148.955 378.959 148.059C379.854 147.164 380.357 145.949 380.357 144.683V123.104C380.357 121.838 379.854 120.623 378.959 119.728C378.065 118.832 376.851 118.329 375.586 118.329C374.32 118.329 373.107 118.832 372.212 119.728C371.317 120.623 370.814 121.838 370.814 123.104V144.683C370.814 145.949 371.317 147.164 372.212 148.059C373.107 148.955 374.32 149.458 375.586 149.458Z" fill="#008C7B"/>
<path d="M316.817 154.659C321.416 154.659 325.145 150.927 325.145 146.323C325.145 141.72 321.416 137.988 316.817 137.988C312.217 137.988 308.488 141.72 308.488 146.323C308.488 150.927 312.217 154.659 316.817 154.659Z" fill="#008C7B"/>
<path d="M316.816 149.458C318.082 149.458 319.295 148.955 320.19 148.059C321.085 147.164 321.587 145.949 321.587 144.683V123.104C321.587 121.838 321.085 120.623 320.19 119.728C319.295 118.832 318.082 118.329 316.816 118.329C315.551 118.329 314.337 118.832 313.442 119.728C312.548 120.623 312.045 121.838 312.045 123.104V144.683C312.045 145.949 312.548 147.164 313.442 148.059C314.337 148.955 315.551 149.458 316.816 149.458Z" fill="#008C7B"/>
<path d="M258.045 154.659C262.645 154.659 266.374 150.927 266.374 146.323C266.374 141.72 262.645 137.988 258.045 137.988C253.446 137.988 249.717 141.72 249.717 146.323C249.717 150.927 253.446 154.659 258.045 154.659Z" fill="#008C7B"/>
<path d="M258.045 149.458C259.31 149.458 260.524 148.955 261.418 148.059C262.313 147.164 262.816 145.949 262.816 144.683V123.104C262.816 121.838 262.313 120.623 261.418 119.728C260.524 118.832 259.31 118.329 258.045 118.329C256.779 118.329 255.566 118.832 254.671 119.728C253.776 120.623 253.273 121.838 253.273 123.104V144.683C253.273 145.949 253.776 147.164 254.671 148.059C255.566 148.955 256.779 149.458 258.045 149.458Z" fill="#008C7B"/>
<path d="M343.21 229.231H376.863V195.548H343.21V229.231Z" stroke="#E8DFF0" stroke-width="2.21" stroke-miterlimit="10"/>
<path d="M298.426 229.231H332.08V195.548H298.426V229.231Z" stroke="#E8DFF0" stroke-width="2.21" stroke-miterlimit="10"/>
<path d="M253.651 229.231H287.305V195.548H253.651V229.231Z" stroke="#E8DFF0" stroke-width="2.21" stroke-miterlimit="10"/>
<path d="M343.21 271.986H376.863V238.302H343.21V271.986Z" stroke="#E8DFF0" stroke-width="2.21" stroke-miterlimit="10"/>
<path d="M298.426 271.986H332.08V238.302H298.426V271.986Z" stroke="#E8DFF0" stroke-width="2.21" stroke-miterlimit="10"/>
<path d="M253.651 271.986H287.305V238.302H253.651V271.986Z" fill="#1BFDEA"/>
<path d="M265.809 250.33L275.142 259.958" stroke="white" stroke-width="2.02" stroke-miterlimit="10"/>
<path d="M275.142 250.33L265.809 259.958" stroke="white" stroke-width="2.02" stroke-miterlimit="10"/>
<path d="M343.21 314.747H376.863V281.064H343.21V314.747Z" stroke="#E8DFF0" stroke-width="2.21" stroke-miterlimit="10"/>
<path d="M298.426 314.747H332.08V281.064H298.426V314.747Z" stroke="#E8DFF0" stroke-width="2.21" stroke-miterlimit="10"/>
<path d="M253.651 314.747H287.305V281.064H253.651V314.747Z" stroke="#E8DFF0" stroke-width="2.21" stroke-miterlimit="10"/>
<path d="M399.976 227.598H383.598V238.395H399.976V227.598Z" fill="#045E51"/>
<path d="M402.504 230.4H381.076C379.904 230.398 378.781 229.931 377.953 229.101C377.125 228.271 376.66 227.146 376.66 225.973C376.66 224.801 377.125 223.677 377.953 222.848C378.781 222.019 379.905 221.553 381.076 221.553H402.504C403.675 221.553 404.798 222.019 405.626 222.848C406.454 223.677 406.919 224.801 406.919 225.973C406.919 227.146 406.454 228.271 405.626 229.101C404.798 229.931 403.675 230.398 402.504 230.4Z" fill="#008C7B"/>
<path d="M352.085 243.978L342.85 253.222L349.362 259.74L358.597 250.496L352.085 243.978Z" fill="#045E51"/>
<path d="M354.963 243.596L342.057 256.506C341.432 257.131 340.585 257.481 339.702 257.481C338.819 257.481 337.972 257.131 337.347 256.506C336.723 255.881 336.373 255.033 336.373 254.149C336.373 253.266 336.723 252.418 337.347 251.793L350.323 238.883C350.948 238.258 351.795 237.908 352.678 237.908C353.561 237.908 354.408 238.258 355.032 238.883C355.647 239.517 355.985 240.37 355.972 241.254C355.959 242.138 355.596 242.98 354.963 243.596Z" fill="#008C7B"/>
<path d="M391.592 344.561C422.167 344.561 446.953 319.754 446.953 289.152C446.953 258.551 422.167 233.744 391.592 233.744C361.018 233.744 336.232 258.551 336.232 289.152C336.232 319.754 361.018 344.561 391.592 344.561Z" fill="#008C7B"/>
<path d="M391.594 341.581C420.524 341.581 443.977 318.108 443.977 289.152C443.977 260.197 420.524 236.723 391.594 236.723C362.664 236.723 339.211 260.197 339.211 289.152C339.211 318.108 362.664 341.581 391.594 341.581Z" fill="#1BFDEA"/>
<path d="M391.594 335.66C417.257 335.66 438.061 314.838 438.061 289.152C438.061 263.466 417.257 242.644 391.594 242.644C365.931 242.644 345.127 263.466 345.127 289.152C345.127 314.838 365.931 335.66 391.594 335.66Z" fill="#F6F6F6"/>
<g opacity="0.71">
<mask id="mask0_342_1690" style="mask-type:luminance" maskUnits="userSpaceOnUse" x="345" y="242" width="94" height="94">
<path d="M391.6 335.66C417.263 335.66 438.067 314.838 438.067 289.152C438.067 263.467 417.263 242.644 391.6 242.644C365.937 242.644 345.133 263.467 345.133 289.152C345.133 314.838 365.937 335.66 391.6 335.66Z" fill="white"/>
</mask>
<g mask="url(#mask0_342_1690)">
<path d="M340.764 252.358L411.187 361.588L443.008 334.197L373.327 236.429L340.764 252.358Z" fill="white"/>
<path d="M378.291 226.043L448.723 335.273L452.813 321.582L383.132 223.814L378.291 226.043Z" fill="white"/>
</g>
</g>
<path d="M391.832 253.124C391.521 253.124 391.223 253.001 391.003 252.782C390.783 252.563 390.658 252.266 390.656 251.955V249.208C390.656 249.053 390.687 248.901 390.746 248.759C390.805 248.616 390.892 248.487 391.001 248.378C391.11 248.27 391.24 248.184 391.382 248.126C391.525 248.067 391.678 248.038 391.832 248.039C392.141 248.039 392.438 248.162 392.657 248.381C392.876 248.6 392.999 248.898 392.999 249.208V251.955C392.997 252.264 392.874 252.561 392.655 252.779C392.437 252.998 392.141 253.122 391.832 253.124Z" fill="#0BFFEE"/>
<path d="M391.832 330.823C391.678 330.824 391.525 330.794 391.382 330.736C391.24 330.678 391.11 330.592 391.001 330.483C390.892 330.375 390.805 330.245 390.746 330.103C390.687 329.961 390.656 329.808 390.656 329.654V326.906C390.658 326.596 390.783 326.299 391.003 326.08C391.223 325.861 391.521 325.738 391.832 325.738C392.141 325.74 392.437 325.864 392.655 326.082C392.874 326.301 392.997 326.597 392.999 326.906V329.623C393.003 329.779 392.976 329.935 392.919 330.08C392.863 330.225 392.777 330.358 392.668 330.47C392.56 330.581 392.43 330.67 392.286 330.731C392.142 330.792 391.988 330.823 391.832 330.823Z" fill="#0BFFEE"/>
<path d="M365.356 264.099C365.203 264.099 365.051 264.069 364.909 264.011C364.767 263.953 364.638 263.867 364.529 263.758L362.588 261.816C362.479 261.707 362.392 261.578 362.333 261.436C362.274 261.294 362.244 261.141 362.244 260.987C362.244 260.834 362.274 260.681 362.333 260.539C362.392 260.397 362.479 260.268 362.588 260.159C362.696 260.051 362.824 259.964 362.965 259.905C363.107 259.846 363.258 259.816 363.411 259.816C363.565 259.816 363.716 259.846 363.858 259.905C363.999 259.964 364.127 260.051 364.235 260.159L366.176 262.102C366.285 262.211 366.371 262.34 366.43 262.482C366.489 262.624 366.52 262.776 366.52 262.93C366.52 263.084 366.489 263.236 366.43 263.379C366.371 263.521 366.285 263.65 366.176 263.758C365.958 263.975 365.664 264.098 365.356 264.099Z" fill="#0BFFEE"/>
<path d="M420.251 319.043C420.097 319.043 419.945 319.014 419.803 318.955C419.661 318.897 419.532 318.811 419.423 318.702L417.482 316.76C417.373 316.651 417.287 316.522 417.228 316.38C417.169 316.238 417.139 316.086 417.139 315.932C417.139 315.778 417.169 315.625 417.228 315.483C417.287 315.341 417.373 315.212 417.482 315.103C417.591 314.994 417.72 314.908 417.862 314.849C418.004 314.79 418.156 314.759 418.31 314.759C418.464 314.759 418.616 314.79 418.758 314.849C418.9 314.908 419.029 314.994 419.137 315.103L421.078 317.046C421.187 317.155 421.274 317.284 421.333 317.426C421.392 317.568 421.422 317.72 421.422 317.874C421.422 318.028 421.392 318.181 421.333 318.323C421.274 318.465 421.187 318.594 421.078 318.702C420.857 318.919 420.56 319.041 420.251 319.043Z" fill="#0BFFEE"/>
<path d="M363.415 319.043C363.262 319.043 363.11 319.014 362.968 318.955C362.826 318.897 362.697 318.811 362.588 318.702C362.479 318.594 362.392 318.465 362.333 318.323C362.274 318.181 362.244 318.028 362.244 317.874C362.244 317.72 362.274 317.568 362.333 317.426C362.392 317.284 362.479 317.155 362.588 317.046L364.529 315.103C364.637 314.995 364.765 314.908 364.906 314.849C365.048 314.79 365.199 314.76 365.352 314.76C365.506 314.76 365.657 314.79 365.798 314.849C365.94 314.908 366.068 314.995 366.176 315.103C366.285 315.212 366.371 315.341 366.43 315.483C366.489 315.625 366.52 315.778 366.52 315.932C366.52 316.085 366.489 316.238 366.43 316.38C366.371 316.522 366.285 316.651 366.176 316.76L364.235 318.702C364.017 318.919 363.723 319.042 363.415 319.043Z" fill="#0BFFEE"/>
<path d="M418.31 264.099C418.156 264.099 418.004 264.069 417.862 264.011C417.72 263.952 417.591 263.867 417.482 263.758C417.373 263.65 417.287 263.52 417.228 263.378C417.169 263.236 417.139 263.084 417.139 262.93C417.139 262.776 417.169 262.624 417.228 262.482C417.287 262.339 417.373 262.21 417.482 262.102L419.423 260.159C419.532 260.05 419.661 259.964 419.803 259.904C419.945 259.845 420.097 259.815 420.251 259.815C420.405 259.815 420.557 259.845 420.699 259.904C420.841 259.964 420.97 260.05 421.078 260.159C421.187 260.268 421.274 260.397 421.333 260.539C421.392 260.681 421.422 260.833 421.422 260.987C421.422 261.141 421.392 261.294 421.333 261.436C421.274 261.578 421.187 261.707 421.078 261.815L419.145 263.758C418.922 263.976 418.622 264.098 418.31 264.099Z" fill="#0BFFEE"/>
<path d="M354.382 290.6H351.636C351.327 290.598 351.032 290.474 350.813 290.255C350.594 290.036 350.471 289.74 350.469 289.431C350.469 289.121 350.592 288.824 350.811 288.605C351.03 288.385 351.327 288.262 351.636 288.262H354.382C354.535 288.261 354.688 288.291 354.83 288.349C354.972 288.407 355.101 288.494 355.21 288.602C355.318 288.711 355.404 288.84 355.462 288.982C355.521 289.125 355.55 289.277 355.549 289.431C355.549 289.741 355.426 290.038 355.207 290.257C354.988 290.477 354.691 290.6 354.382 290.6Z" fill="#0BFFEE"/>
<path d="M432.022 290.6H429.277C428.968 290.598 428.672 290.474 428.454 290.255C428.235 290.036 428.111 289.74 428.109 289.431C428.109 289.121 428.232 288.824 428.451 288.605C428.67 288.385 428.967 288.262 429.277 288.262H432.022C432.332 288.262 432.629 288.385 432.848 288.605C433.067 288.824 433.19 289.121 433.19 289.431C433.188 289.74 433.064 290.036 432.846 290.255C432.627 290.474 432.331 290.598 432.022 290.6Z" fill="#0BFFEE"/>
<path d="M394.626 288.99H389.035V264.757C389.035 264.014 389.33 263.301 389.855 262.775C390.38 262.25 391.092 261.955 391.834 261.955C392.576 261.957 393.286 262.253 393.809 262.778C394.332 263.303 394.626 264.015 394.626 264.757V288.99Z" fill="#0BFFEE"/>
<path d="M391.825 295.398C395.361 295.398 398.228 292.529 398.228 288.99C398.228 285.45 395.361 282.581 391.825 282.581C388.289 282.581 385.422 285.45 385.422 288.99C385.422 292.529 388.289 295.398 391.825 295.398Z" fill="#008C7B"/>
<path d="M200.714 231.375L210.836 276.033C211.15 278.102 210.921 280.216 210.171 282.169C209.421 284.121 208.177 285.845 206.56 287.171L176.332 310.808L176.889 289.036L191.976 276.715L176.332 230.145L200.714 231.375Z" fill="#1BFDEA"/>
<path d="M161.631 310.994L176.169 303.378L170.431 295.267L154.633 303.865L159.675 310.258L161.631 310.994Z" fill="#F4B882"/>
<path d="M158.167 300.444C158.167 300.444 160.626 309.461 167.702 308.958L170.432 330.444L149.553 303.943L158.167 300.444Z" fill="#184220"/>
<path d="M170.422 330.451L149.539 303.948L147.037 305.922L167.92 332.425L170.422 330.451Z" fill="white"/>
<path d="M168.056 311.768C166.731 311.414 165.357 311.276 163.988 311.358" stroke="white" stroke-width="1.5" stroke-linecap="round" stroke-linejoin="round"/>
<path d="M168.659 314.918C167.334 314.564 165.961 314.426 164.592 314.508" stroke="white" stroke-width="1.5" stroke-linecap="round" stroke-linejoin="round"/>
<path d="M169.271 318.06C167.946 317.702 166.572 317.563 165.203 317.65" stroke="white" stroke-width="1.5" stroke-linecap="round" stroke-linejoin="round"/>
<path d="M174.607 337.301L176.084 321.156L166.163 320.645L164.686 338.385H172.821L174.607 337.301Z" fill="#F4B882"/>
<path d="M163.419 333.493C163.419 333.493 172.01 337.146 176 331.272L194.559 342.425H160.836L163.419 333.493Z" fill="#184220"/>
<path d="M194.542 342.425H160.818V345.614H194.542V342.425Z" fill="white"/>
<path d="M178.42 332.719C177.323 333.541 176.365 334.534 175.582 335.66" stroke="white" stroke-width="1.5" stroke-linecap="round" stroke-linejoin="round"/>
<path d="M181.266 334.197C180.164 335.02 179.203 336.016 178.42 337.146" stroke="white" stroke-width="1.5" stroke-linecap="round" stroke-linejoin="round"/>
<path d="M184.102 335.668C183.003 336.492 182.045 337.487 181.264 338.617" stroke="white" stroke-width="1.5" stroke-linecap="round" stroke-linejoin="round"/>
<path d="M167.314 230.284L162.76 324.469H180.02L192.593 230.594L167.314 230.284Z" fill="#03FFEE"/>
<path d="M200.714 231.375L190.251 247.791L188.07 230.965L200.714 231.375Z" fill="#03FFEE"/>
<path d="M245.572 215.424L235.264 216.229L237.112 205.865L247.876 206.771L245.572 215.424Z" fill="#F4B882"/>
<path d="M254.256 214.921C252.802 216.17 250.911 216.79 249 216.645C247.089 216.5 245.314 215.601 244.064 214.147C242.816 212.691 242.196 210.799 242.341 208.886C242.486 206.973 243.384 205.196 244.837 203.946C246.293 202.698 248.183 202.079 250.093 202.224C252.004 202.369 253.779 203.267 255.029 204.72C256.278 206.175 256.897 208.067 256.752 209.98C256.607 211.893 255.71 213.67 254.256 214.921Z" fill="#F4B882"/>
<path d="M249.926 202.204C249.926 202.204 248.611 199.178 245.549 201.43C242.487 203.682 239.78 208.257 244.064 214.139L249.926 202.204Z" fill="#F4B882"/>
<path d="M249.926 202.166L258.223 200.076C258.557 199.968 258.919 199.993 259.234 200.146C259.55 200.299 259.794 200.568 259.917 200.896C260.019 201.174 260.012 201.481 259.897 201.754C259.782 202.027 259.568 202.246 259.298 202.367L250.861 206.144L249.926 202.166Z" fill="#F4B882"/>
<path d="M206.652 187.746L220.27 209.317C221.197 210.984 221.458 212.941 221.002 214.793C220.546 216.646 219.406 218.256 217.811 219.301C216.142 220.392 214.11 220.776 212.159 220.369C210.208 219.963 208.498 218.8 207.402 217.134L192.385 196.415C191.326 194.809 190.855 192.886 191.051 190.972C191.247 189.058 192.098 187.27 193.46 185.912C194.372 184.999 195.484 184.311 196.708 183.9C197.931 183.489 199.233 183.368 200.511 183.546C201.79 183.724 203.009 184.196 204.075 184.924C205.14 185.653 206.022 186.619 206.652 187.746Z" fill="#008C7B"/>
<path d="M202.383 210.308L203.187 198.505L206.11 215.462L202.383 210.308Z" fill="#046053"/>
<path d="M213.202 207.158L243.183 203.628L243.09 217.335L215.205 220.934C214.176 221.134 213.115 221.099 212.101 220.831C211.088 220.564 210.147 220.07 209.351 219.388C208.555 218.705 207.923 217.852 207.502 216.89C207.082 215.929 206.884 214.885 206.923 213.837C206.984 212.151 207.654 210.545 208.809 209.317C209.964 208.089 211.525 207.321 213.202 207.158Z" fill="#008C7B"/>
<path d="M161.307 247.791C161.307 247.791 164.656 248.054 164.107 244.231C163.558 240.407 160.743 235.764 153.412 236.808L161.307 247.791Z" fill="#F4B882"/>
<path d="M137.108 278.464H170.762V244.78H137.108V278.464Z" fill="#008C7B"/>
<path d="M138.674 278.464H172.328V244.78H138.674V278.464Z" fill="#008C7B"/>
<path d="M147.82 245.593C147.399 243.686 147.751 241.69 148.799 240.043C149.848 238.395 151.506 237.232 153.411 236.809C154.354 236.597 155.33 236.575 156.281 236.741C157.233 236.908 158.143 237.261 158.958 237.78C159.773 238.299 160.478 238.974 161.033 239.766C161.587 240.558 161.98 241.452 162.188 242.397C162.612 244.304 162.262 246.301 161.215 247.95C160.168 249.599 158.51 250.764 156.605 251.189C154.699 251.611 152.703 251.259 151.056 250.21C149.409 249.161 148.245 247.5 147.82 245.593Z" fill="#F4B882"/>
<path d="M162.189 209.023L161.865 239.208L148.634 238.589L148.286 209.232C148.219 208.185 148.389 207.137 148.784 206.165C149.179 205.193 149.788 204.323 150.566 203.62C151.343 202.917 152.27 202.399 153.275 202.104C154.281 201.809 155.34 201.746 156.374 201.918C158.04 202.195 159.548 203.068 160.618 204.375C161.687 205.682 162.246 207.334 162.189 209.023Z" fill="#008C7B"/>
<path d="M179.177 196.368L160.935 214.17C159.5 215.427 157.642 216.092 155.736 216.032C153.83 215.972 152.018 215.19 150.665 213.845C149.251 212.439 148.452 210.53 148.442 208.535C148.431 206.54 149.211 204.623 150.611 203.203L167.732 184.194C169.083 182.824 170.864 181.963 172.776 181.756C174.688 181.548 176.613 182.008 178.225 183.056C179.31 183.76 180.217 184.706 180.875 185.819C181.532 186.933 181.922 188.185 182.015 189.475C182.107 190.766 181.898 192.06 181.406 193.256C180.913 194.452 180.15 195.518 179.177 196.368Z" fill="#008C7B"/>
<path d="M199.531 183.435L173.595 181.725C171.275 181.57 167.083 185.827 167.331 188.157V230.284L200.729 231.375L204.124 188.613C204.198 187.318 203.756 186.046 202.896 185.075C202.035 184.105 200.825 183.515 199.531 183.435Z" fill="#008C7B"/>
<path d="M167.314 207.955L174.846 200.594L167.314 220.524V207.955Z" fill="#046053"/>
<path d="M195.306 166.006C195.206 166.929 195.475 167.854 196.054 168.579C196.634 169.304 197.477 169.77 198.399 169.875C198.856 169.909 199.315 169.852 199.75 169.708C200.186 169.563 200.588 169.334 200.934 169.033C201.281 168.733 201.564 168.366 201.769 167.956C201.973 167.545 202.095 167.098 202.126 166.64C202.224 165.717 201.954 164.793 201.375 164.069C200.795 163.344 199.954 162.877 199.033 162.77C198.575 162.736 198.116 162.792 197.68 162.936C197.245 163.08 196.842 163.309 196.495 163.61C196.149 163.911 195.865 164.278 195.661 164.689C195.457 165.1 195.336 165.547 195.306 166.006Z" fill="#CE986B"/>
<path d="M193.344 174.341L193.181 182.855C193.135 185.835 191.333 187.39 188.495 187.313C186.075 187.243 183.43 186.013 183.585 183.389L184.458 170.061L193.344 174.341Z" fill="#F4B882"/>
<path d="M193.219 179.976C193.219 179.976 186.306 180.432 184.31 172.615C183.684 170.146 193.343 173.467 193.343 173.467L193.219 179.976Z" fill="#2E2531"/>
<path d="M190.723 176.764C195.564 176.864 199.624 172.995 199.848 168.916L200.25 160.402C200.418 157.979 199.639 155.586 198.078 153.726C196.518 151.867 194.297 150.686 191.883 150.433C186.834 149.977 181.483 153.761 181.057 158.993L180.818 165.65C180.692 168.43 181.658 171.149 183.509 173.226C185.36 175.303 187.949 176.573 190.723 176.764Z" fill="#F4B882"/>
<path d="M194.805 165.17L195.036 167.964L193.838 167.987" stroke="#2E2531" stroke-width="0.6" stroke-linecap="round" stroke-linejoin="round"/>
<path d="M189.561 159.512C189.561 159.512 191.549 159.38 191.549 160.216C191.549 160.216 191.549 160.781 189.809 160.859C188.069 160.936 187.628 160.804 187.489 160.27C187.35 159.736 188.633 159.504 189.561 159.512Z" fill="#2E2531"/>
<path d="M197.844 161.47C197.844 161.47 196.213 161.269 196.066 162.051C196.066 162.051 195.973 162.577 197.403 162.724C198.834 162.871 199.306 162.724 199.453 162.267C199.6 161.811 198.625 161.501 197.844 161.47Z" fill="#2E2531"/>
<path d="M196.598 164.651C196.583 164.872 196.655 165.091 196.8 165.259C196.945 165.427 197.15 165.531 197.371 165.549C197.588 165.556 197.799 165.479 197.961 165.336C198.124 165.192 198.225 164.991 198.245 164.775C198.26 164.553 198.187 164.334 198.043 164.164C197.898 163.995 197.693 163.889 197.471 163.869C197.253 163.861 197.04 163.938 196.877 164.083C196.714 164.229 196.614 164.433 196.598 164.651Z" fill="#2E2531"/>
<path d="M189.307 164.264C189.292 164.486 189.364 164.705 189.509 164.875C189.653 165.044 189.858 165.15 190.08 165.17C190.191 165.174 190.302 165.156 190.407 165.117C190.511 165.078 190.607 165.018 190.688 164.942C190.769 164.866 190.834 164.774 190.88 164.672C190.926 164.57 190.951 164.461 190.954 164.349C190.969 164.128 190.896 163.91 190.751 163.741C190.606 163.573 190.401 163.469 190.18 163.451C190.07 163.447 189.959 163.465 189.855 163.504C189.752 163.542 189.656 163.601 189.575 163.676C189.494 163.752 189.429 163.843 189.382 163.943C189.336 164.044 189.311 164.153 189.307 164.264Z" fill="#2E2531"/>
<path d="M191.318 169.194C191.652 169.595 192.091 169.893 192.587 170.054C193.082 170.216 193.612 170.234 194.118 170.108" stroke="#2E2531" stroke-width="0.6" stroke-linecap="round" stroke-linejoin="round"/>
<path d="M198.26 146.254C196.405 145.48 191.672 144.574 190.628 148.761C185.919 148.405 178.433 148.491 177.675 152.577C176.57 158.575 180.83 164.527 180.83 164.527L182.029 165.139C182.029 165.139 185.068 163.591 184.279 156.37C184.279 156.37 195.16 158.993 200.263 156.23C205.367 153.467 203.828 148.645 198.26 146.254Z" fill="#2E2531"/>
<path d="M176.332 165.363C176.241 166.278 176.515 167.192 177.094 167.905C177.674 168.618 178.511 169.073 179.425 169.171C179.877 169.206 180.332 169.151 180.763 169.008C181.194 168.866 181.592 168.64 181.935 168.343C182.278 168.045 182.559 167.683 182.761 167.277C182.963 166.87 183.083 166.428 183.113 165.975C183.204 165.06 182.93 164.146 182.351 163.433C181.771 162.719 180.934 162.264 180.02 162.167C179.568 162.133 179.114 162.189 178.683 162.332C178.253 162.474 177.855 162.7 177.512 162.997C177.169 163.295 176.888 163.656 176.686 164.062C176.483 164.468 176.363 164.91 176.332 165.363Z" fill="#F4B882"/>
<path d="M180.833 166.617C180.833 166.617 181.05 164.078 178.668 164.295" stroke="#2E2531" stroke-width="0.6" stroke-linecap="round" stroke-linejoin="round"/>
<path d="M180.281 182.166L195.801 183.188C195.801 183.188 196.296 188.544 189.391 188.172C181.619 187.762 180.281 182.166 180.281 182.166Z" fill="#F4B882"/>
<path d="M504.948 311.713L489.645 304.577L495.166 295.963L511.807 304.059L506.928 310.87L504.948 311.713Z" fill="#F4B882"/>
<path d="M508.02 300.715C508.02 300.715 505.916 310.096 498.616 309.918L496.822 332.123L517.036 303.896L508.02 300.715Z" fill="#184220"/>
<path d="M499.041 335.139L519.166 307.01L516.51 305.106L496.386 333.236L499.041 335.139Z" fill="white"/>
<path d="M498.385 312.82C499.728 312.388 501.134 312.179 502.545 312.201" stroke="white" stroke-width="1.55" stroke-linecap="round" stroke-linejoin="round"/>
<path d="M497.914 316.079C499.259 315.652 500.664 315.445 502.074 315.467" stroke="white" stroke-width="1.55" stroke-linecap="round" stroke-linejoin="round"/>
<path d="M497.434 319.337C498.779 318.911 500.183 318.705 501.594 318.726" stroke="white" stroke-width="1.55" stroke-linecap="round" stroke-linejoin="round"/>
<path d="M469.41 218.45C469.41 218.45 459.411 255.802 457.934 263.17C456.457 270.538 453.519 285.267 459.705 290.569C465.891 295.87 489.631 308.594 489.631 308.594L498.37 292.898L484.218 284.384L469.41 218.45Z" fill="#046053"/>
<path d="M482.911 337.247L479.795 320.637L490.002 320.111L493.126 338.361H484.752L482.911 337.247Z" fill="#F4B882"/>
<path d="M493.629 333.33C493.629 333.33 484.783 337.084 480.685 331.047L461.607 342.525H496.305L493.629 333.33Z" fill="#184220"/>
<path d="M461.599 345.807H496.297V342.525H461.599V345.807Z" fill="white"/>
<path d="M478.188 332.549C479.32 333.392 480.307 334.414 481.111 335.575" stroke="white" stroke-width="1.55" stroke-linecap="round" stroke-linejoin="round"/>
<path d="M475.262 334.058C476.392 334.903 477.379 335.925 478.185 337.084" stroke="white" stroke-width="1.55" stroke-linecap="round" stroke-linejoin="round"/>
<path d="M472.342 335.575C473.474 336.418 474.461 337.44 475.265 338.601" stroke="white" stroke-width="1.55" stroke-linecap="round" stroke-linejoin="round"/>
<path d="M469.409 218.45L468.419 274.803C468.382 276.823 468.542 278.843 468.899 280.832L477.266 324.298H494.773L489.886 275.283C490.095 266.266 493.08 256.165 494.201 245.175C494.201 245.175 497.627 224.781 488.223 218.55L469.409 218.45Z" fill="#008C7B"/>
<path d="M458.218 210.71L429.606 200.231L426.281 205.811L454.182 220.609C455.236 221.009 456.377 221.123 457.489 220.938C458.601 220.753 459.645 220.277 460.513 219.557C461.381 218.837 462.044 217.9 462.433 216.841C462.821 215.782 462.923 214.639 462.727 213.527C462.317 211.252 460.376 211.476 458.218 210.71Z" fill="#F4B882"/>
<path d="M426.104 195.982C425.854 195.713 425.539 195.514 425.19 195.405C424.84 195.295 424.468 195.277 424.109 195.355C423.903 195.396 423.71 195.489 423.549 195.625C423.387 195.76 423.262 195.934 423.186 196.131C423.109 196.327 423.082 196.539 423.108 196.749C423.135 196.958 423.213 197.157 423.336 197.328L423.746 198.009C422.826 198.365 420.931 198.45 417.459 194.913C417.189 194.629 416.83 194.443 416.442 194.387C416.053 194.331 415.657 194.407 415.317 194.604C415.098 194.756 414.943 194.985 414.883 195.245C414.823 195.506 414.862 195.779 414.992 196.012C414.992 196.012 414.992 196.059 415.031 196.082C414.804 196 414.562 195.971 414.322 195.996C414.082 196.022 413.851 196.101 413.647 196.229C413.426 196.381 413.27 196.609 413.208 196.869C413.147 197.13 413.185 197.404 413.314 197.638C413.351 197.708 413.392 197.775 413.438 197.839C413.203 197.857 412.977 197.934 412.781 198.064C412.561 198.217 412.406 198.447 412.346 198.709C412.286 198.971 412.325 199.245 412.456 199.48C412.532 199.633 412.634 199.772 412.757 199.89L412.889 200.022L412.827 200.06C412.606 200.212 412.45 200.44 412.39 200.701C412.33 200.962 412.37 201.236 412.502 201.469C412.578 201.623 412.677 201.764 412.796 201.887C413.666 202.777 414.616 203.585 415.634 204.302H415.68C416.102 204.583 416.538 204.841 416.987 205.076C418.99 206.244 423.282 205.261 426.97 205.85L429.847 200.432L426.104 195.982Z" fill="#F4B882"/>
<path d="M415.977 215.501L429.812 183.865L398.204 170.017L384.368 201.653L415.977 215.501Z" fill="#008C7B"/>
<path d="M426.553 196.554L423.784 193.28C423.677 193.156 423.544 193.056 423.394 192.988C423.245 192.919 423.083 192.884 422.918 192.884C422.754 192.884 422.591 192.919 422.442 192.988C422.293 193.056 422.16 193.156 422.052 193.28C421.905 193.452 421.811 193.663 421.784 193.888C421.756 194.112 421.796 194.34 421.897 194.542L423.313 197.328C422.99 198.555 422.973 199.843 423.264 201.078C423.556 202.313 424.146 203.457 424.983 204.41L426.553 196.554Z" fill="#F4B882"/>
<path d="M470.912 211.314L460.488 219.642C459.462 220.463 458.208 220.947 456.897 221.027C455.586 221.107 454.283 220.78 453.165 220.091C449.94 218.094 447.968 216.26 450.296 213.264L461.74 201.655L470.912 211.314Z" fill="#F4B882"/>
<path d="M478.976 201.345C478.976 201.345 477.592 208.187 469.41 214.402L456.705 202.429L466.959 190.989L478.976 201.345Z" fill="#1BFDEA"/>
<path d="M498.795 210.385L520.826 238.202L525.814 234.897C525.814 234.897 513.171 211.345 507.293 203.938C506.588 203.051 505.659 202.369 504.602 201.961C503.545 201.553 502.399 201.434 501.281 201.617C500.163 201.8 499.115 202.278 498.243 203.001C497.371 203.725 496.707 204.668 496.32 205.733C495.493 207.846 497.287 208.636 498.795 210.385Z" fill="#F4B882"/>
<path d="M521.852 243.797C521.941 244.143 522.118 244.46 522.366 244.717C522.614 244.974 522.925 245.161 523.267 245.26C523.463 245.325 523.673 245.34 523.876 245.303C524.079 245.265 524.269 245.178 524.43 245.047C524.59 244.917 524.715 244.748 524.793 244.557C524.871 244.366 524.899 244.158 524.876 243.952L524.837 243.178C525.788 243.302 527.451 244.115 528.781 248.72C528.879 249.096 529.103 249.427 529.416 249.658C529.728 249.888 530.11 250.005 530.498 249.989C530.757 249.962 530.996 249.839 531.169 249.645C531.343 249.45 531.437 249.197 531.433 248.937V248.851C531.588 249.029 531.782 249.168 531.999 249.26C532.216 249.351 532.451 249.391 532.686 249.378C532.934 249.343 533.161 249.221 533.326 249.034C533.492 248.846 533.586 248.606 533.591 248.356C533.591 248.279 533.591 248.201 533.591 248.124C533.799 248.22 534.028 248.26 534.256 248.24C534.514 248.211 534.751 248.088 534.923 247.893C535.094 247.698 535.187 247.447 535.184 247.187C535.193 247.02 535.172 246.852 535.122 246.692C535.108 246.632 535.089 246.572 535.068 246.514C535.091 246.518 535.114 246.518 535.137 246.514C535.397 246.487 535.636 246.364 535.809 246.169C535.982 245.975 536.076 245.722 536.073 245.461C536.082 245.297 536.061 245.131 536.011 244.974C535.686 243.805 535.251 242.67 534.712 241.584V241.537C534.48 241.092 534.222 240.66 533.939 240.245C532.763 238.318 528.65 237.149 525.773 234.928L520.785 238.233L521.852 243.797Z" fill="#F4B882"/>
<path d="M495.471 193.242L505.524 202.042C506.513 202.909 507.209 204.061 507.518 205.34C507.827 206.619 507.733 207.962 507.249 209.185C505.857 212.707 504.395 214.975 501.062 213.21L487.568 203.977L495.471 193.242Z" fill="#F4B882"/>
<path d="M482.557 187.104C488.592 187.582 494.285 190.098 498.704 194.24L491.883 206.941L478.459 202.297L482.557 187.104Z" fill="#03FFEE"/>
<path d="M471.73 187.862C471.73 187.862 463.402 190.184 463.371 201.345C463.371 207.452 469.457 218.45 469.457 218.45L488.271 218.55C488.271 218.55 491.032 210.88 492.687 203.946C494.341 197.011 489.013 190.432 482.556 187.104L471.73 187.862Z" fill="#03FFEE"/>
<path d="M491.881 206.949L484.504 201.647L490.195 212.684L491.881 206.949Z" fill="#1BFDEA"/>
<path d="M476.439 191.438C479.053 191.051 479.981 189.302 479.586 186.694L476.687 171.733L468.814 172.994L471.011 187.429C471.199 188.681 471.877 189.807 472.895 190.559C473.913 191.31 475.188 191.627 476.439 191.438Z" fill="#F4B882"/>
<path d="M474.886 174.682C474.886 174.682 477.438 182.661 470.671 185.378L470.045 180.61L477.005 175.347" fill="#2D2932"/>
<path d="M469.053 181.64C473.963 181.175 477.613 177.236 477.195 172.847L475.842 158.467H467.552C464.459 158.761 460.299 162.817 460.554 165.541L462 174.465C462.302 177.685 464.923 182.034 469.053 181.64Z" fill="#F4B882"/>
<path d="M462.381 169.272L460.502 174.094C460.434 174.209 460.401 174.341 460.407 174.474C460.412 174.608 460.456 174.736 460.532 174.846C460.609 174.955 460.715 175.04 460.839 175.09C460.962 175.141 461.098 175.155 461.229 175.131L464.469 174.829L462.381 169.272Z" fill="#F4B882"/>
<path d="M464.033 167.035C464.033 167.035 462.262 167.089 462.332 167.809C462.332 167.809 462.386 168.304 463.925 168.235C465.464 168.165 465.851 168.002 465.936 167.515C466.021 167.027 464.853 166.95 464.033 167.035Z" fill="#2E2531"/>
<path d="M464.127 170.526C464.152 170.722 464.101 170.92 463.985 171.08C463.868 171.24 463.695 171.349 463.501 171.385C463.306 171.403 463.112 171.347 462.957 171.228C462.802 171.109 462.698 170.935 462.666 170.742C462.638 170.546 462.687 170.347 462.802 170.185C462.917 170.024 463.09 169.913 463.284 169.875C463.481 169.855 463.678 169.911 463.835 170.032C463.992 170.153 464.097 170.33 464.127 170.526Z" fill="#2E2531"/>
<path d="M463.562 176.129C463.972 176.094 464.363 175.938 464.684 175.68C465.004 175.422 465.241 175.075 465.364 174.682" stroke="#2E2531" stroke-width="0.6" stroke-linecap="round" stroke-linejoin="round"/>
<path d="M477.237 186.253L482.565 187.104C482.565 187.104 476.966 196.183 471.453 194.008C465.096 191.492 473.525 186.717 473.525 186.717L477.237 186.253Z" fill="#F4B882"/>
<path d="M474.991 169.93C473.795 169.623 472.704 169 471.832 168.126C470.96 167.251 470.339 166.158 470.034 164.961L459.015 167.136C459.015 167.136 457.314 156.145 470.498 154.079C477.118 153.042 481.324 156.238 483.567 159.435C484.587 160.959 485.2 162.72 485.349 164.548C485.498 166.377 485.177 168.213 484.418 169.883C482.968 172.949 480.629 175.505 477.705 177.22L476.685 171.725C476.685 171.725 475.734 170.115 474.991 169.93Z" fill="#2D2932"/>
<path d="M480.282 169.132C480.286 170.059 479.925 170.95 479.276 171.611C478.627 172.272 477.744 172.649 476.818 172.662C476.36 172.654 475.909 172.555 475.489 172.371C475.07 172.188 474.691 171.923 474.375 171.592C474.059 171.261 473.811 170.87 473.646 170.443C473.481 170.015 473.403 169.559 473.415 169.101C473.409 168.64 473.494 168.182 473.665 167.753C473.836 167.324 474.089 166.934 474.411 166.603C474.732 166.272 475.116 166.009 475.54 165.826C475.963 165.644 476.419 165.547 476.88 165.541C477.34 165.55 477.793 165.65 478.214 165.836C478.635 166.022 479.015 166.29 479.331 166.624C479.648 166.959 479.895 167.352 480.058 167.783C480.222 168.213 480.298 168.672 480.282 169.132Z" fill="#F4B882"/>
<path d="M475.67 169.968C475.67 169.968 475.67 167.391 478.075 167.809" stroke="#2E2531" stroke-width="0.6" stroke-linecap="round" stroke-linejoin="round"/>
<path d="M497.822 155.046C498.01 156.157 497.978 157.293 497.727 158.391C497.476 159.49 497.011 160.527 496.359 161.445C495.707 162.363 494.88 163.144 493.926 163.741C492.973 164.339 491.91 164.743 490.801 164.93C488.56 165.308 486.261 164.781 484.409 163.463C482.557 162.145 481.304 160.145 480.926 157.902C480.738 156.79 480.772 155.652 481.025 154.553C481.278 153.454 481.745 152.416 482.4 151.498C483.054 150.58 483.883 149.8 484.839 149.203C485.795 148.606 486.859 148.203 487.97 148.018C490.208 147.644 492.502 148.174 494.349 149.492C496.196 150.81 497.445 152.807 497.822 155.046Z" fill="#2D2932"/>
<path d="M573 346.078H81" stroke="#1F2028" stroke-width="0.76" stroke-miterlimit="10"/>
</svg>
