<svg width="51" height="50" viewBox="0 0 51 50" fill="none" xmlns="http://www.w3.org/2000/svg">
<path d="M0.5 6.8C0.5 3.04446 3.54446 0 7.3 0H43.7C47.4555 0 50.5 3.04446 50.5 6.8V43.2C50.5 46.9555 47.4555 50 43.7 50H7.3C3.54446 50 0.5 46.9555 0.5 43.2V6.8Z" fill="#06FFF2"/>
<path d="M12.5 24.9948C13.1752 24.051 13.8504 23.0988 14.5543 22.1685C14.7681 21.8999 14.8767 21.5626 14.8598 21.2197C14.8328 20.1948 14.8395 19.1717 14.8362 18.1469C14.8362 17.6286 15.005 17.3854 15.4996 17.2318C16.5545 16.8941 17.6112 16.5717 18.6611 16.2188C18.8243 16.1636 18.9672 16.0607 19.0713 15.9233C19.7229 15.037 20.3559 14.1388 20.9939 13.2439C21.3214 12.7864 21.5864 12.702 22.1299 12.8826C23.1782 13.2321 24.2264 13.5867 25.2797 13.9243C25.4285 13.9682 25.5867 13.9682 25.7355 13.9243C26.7888 13.5867 27.837 13.2287 28.8852 12.8776C29.4051 12.7087 29.6769 12.7948 29.9993 13.2439C30.6441 14.1438 31.2822 15.0505 31.9371 15.9453C32.0318 16.069 32.161 16.1619 32.3085 16.212C33.3584 16.5497 34.4151 16.8874 35.4684 17.225C36.0018 17.3939 36.1621 17.6151 36.1604 18.1688C36.1604 19.2696 36.1402 20.3637 36.147 21.4695C36.1512 21.6421 36.2051 21.8097 36.3023 21.9524C36.9471 22.8523 37.6104 23.7403 38.2671 24.6335C38.576 25.0539 38.5777 25.3426 38.2671 25.763C37.6121 26.6561 36.9488 27.5442 36.3023 28.444C36.2048 28.5866 36.1509 28.7543 36.147 28.9269C36.147 30.0345 36.1469 31.1437 36.1604 32.2529C36.1604 32.7696 35.9917 33.0076 35.4937 33.1663C34.4404 33.504 33.3871 33.8417 32.3287 34.1658C32.1522 34.2165 31.9999 34.3292 31.9 34.4832C31.2704 35.3764 30.634 36.2627 29.9993 37.1491C29.6769 37.5999 29.4035 37.6894 28.8869 37.5155C27.837 37.166 26.7888 36.8098 25.7372 36.4704C25.5881 36.4249 25.4288 36.4249 25.2797 36.4704C24.2264 36.8081 23.1799 37.1609 22.1299 37.5104C21.578 37.6945 21.3248 37.61 20.9804 37.1289C20.3474 36.2425 19.7178 35.3494 19.073 34.4714C18.9683 34.3348 18.8256 34.232 18.6628 34.176C17.6112 33.8383 16.5545 33.5006 15.4996 33.163C15.0151 33.0093 14.8345 32.7645 14.8362 32.2462C14.8362 31.1302 14.8547 30.0125 14.8497 28.8965C14.8464 28.7397 14.7978 28.5872 14.7096 28.4576C14.0816 27.5864 13.4385 26.7253 12.8038 25.8592C12.6941 25.7106 12.6013 25.5519 12.5 25.3983V24.9948ZM28.9832 14.4882L28.735 14.5676C27.7813 14.8833 26.8259 15.1974 25.8739 15.5215C25.6269 15.611 25.3563 15.611 25.1092 15.5215C24.2804 15.2328 23.4432 14.9627 22.611 14.6773L22.0152 14.4815C21.3788 15.3729 20.7509 16.2441 20.1314 17.1221C19.9808 17.3479 19.7555 17.5135 19.495 17.5897C18.5413 17.8835 17.596 18.1958 16.6423 18.4862C16.602 18.4913 16.5632 18.5046 16.5281 18.5251C16.4931 18.5456 16.4626 18.5731 16.4385 18.6057C16.4143 18.6384 16.3971 18.6756 16.3877 18.7152C16.3783 18.7547 16.3771 18.7957 16.3841 18.8357C16.4026 19.8251 16.3959 20.8161 16.4127 21.8055C16.4211 22.0941 16.3273 22.3763 16.1477 22.6024C15.5502 23.401 14.9661 24.2131 14.3669 25.01C14.3418 25.0338 14.3219 25.0625 14.3082 25.0942C14.2946 25.126 14.2875 25.1603 14.2875 25.1948C14.2875 25.2294 14.2946 25.2637 14.3082 25.2954C14.3219 25.3272 14.3418 25.3559 14.3669 25.3797C14.9661 26.1783 15.5485 26.9887 16.1477 27.7856C16.3301 28.0199 16.4239 28.3111 16.4127 28.6078C16.3959 29.5989 16.4009 30.5899 16.3857 31.5793C16.3795 31.6155 16.3807 31.6526 16.3891 31.6884C16.3975 31.7242 16.413 31.7579 16.4348 31.7875C16.4565 31.8171 16.484 31.8421 16.5156 31.8608C16.5472 31.8796 16.5823 31.8918 16.6187 31.8967C17.5623 32.1854 18.5025 32.4944 19.4477 32.7814C19.7409 32.8663 19.9941 33.0531 20.1618 33.3082C20.7188 34.105 21.2893 34.8935 21.8497 35.6853C21.9038 35.7596 21.9595 35.8322 22.0185 35.9116C22.925 35.6077 23.8331 35.3342 24.7193 34.9965C25.2209 34.7922 25.7825 34.7922 26.2841 34.9965C27.1686 35.3342 28.0733 35.6043 28.973 35.9065C29.0372 35.8204 29.0946 35.7478 29.1418 35.6718C29.7124 34.8732 30.2863 34.078 30.8501 33.2744C31.0053 33.0419 31.238 32.872 31.5067 32.7949C32.4604 32.5045 33.4074 32.1905 34.3594 31.8984C34.398 31.8931 34.4351 31.88 34.4685 31.86C34.502 31.84 34.531 31.8134 34.5538 31.7818C34.5767 31.7503 34.593 31.7144 34.6016 31.6764C34.6102 31.6384 34.6111 31.5991 34.6041 31.5607C34.5873 30.5714 34.594 29.5803 34.5771 28.5909C34.5663 28.3023 34.6571 28.0191 34.8337 27.7907C35.438 26.987 36.0271 26.1699 36.6297 25.3645C36.6534 25.342 36.6722 25.3149 36.685 25.2848C36.6979 25.2548 36.7045 25.2224 36.7045 25.1898C36.7045 25.1571 36.6979 25.1248 36.685 25.0947C36.6722 25.0647 36.6534 25.0376 36.6297 25.015C36.0305 24.2165 35.4481 23.406 34.8472 22.6092C34.6595 22.3689 34.5631 22.0697 34.5754 21.765C34.5923 20.7841 34.5856 19.8014 34.6024 18.8188C34.6097 18.7806 34.609 18.7413 34.6006 18.7033C34.5922 18.6653 34.5761 18.6294 34.5534 18.5978C34.5306 18.5662 34.5017 18.5396 34.4683 18.5196C34.435 18.4995 34.3979 18.4864 34.3594 18.4812C33.4209 18.1958 32.4925 17.8852 31.554 17.6032C31.2526 17.5166 30.9918 17.3257 30.818 17.0646C30.2221 16.2103 29.606 15.3544 28.9832 14.4882Z" fill="black"/>
<path d="M24.0357 27.0833C24.1058 26.9825 24.1813 26.8856 24.2619 26.793C25.9116 25.1429 27.5574 23.4951 29.1992 21.8495C29.2797 21.7513 29.3806 21.6718 29.4948 21.6165C29.6091 21.5611 29.734 21.5311 29.8609 21.5287C30.0008 21.5295 30.1378 21.5687 30.257 21.6419C30.3762 21.7152 30.473 21.8198 30.5369 21.9443C30.6008 22.0688 30.6293 22.2084 30.6193 22.348C30.6094 22.4875 30.5613 22.6217 30.4804 22.7359C30.4202 22.8175 30.3524 22.8933 30.2778 22.9621L24.7109 28.5269C24.2416 28.9962 23.8432 28.9962 23.3774 28.5269C22.4625 27.6118 21.5476 26.6962 20.6327 25.78C20.2191 25.3612 20.2951 24.7467 20.8015 24.5036C20.9544 24.4266 21.1286 24.4029 21.2965 24.4362C21.4644 24.4695 21.6163 24.558 21.7282 24.6876C22.4304 25.3854 23.1298 26.085 23.8264 26.7862C23.9023 26.8807 23.9722 26.98 24.0357 27.0833Z" fill="black"/>
</svg>
