<svg width="474" height="275" viewBox="0 0 474 275" fill="none" xmlns="http://www.w3.org/2000/svg">
<path d="M23.2299 273.564C23.2299 273.564 -4.17593 235.306 0.547192 181.137C9.24742 81.3485 100.22 41.8021 189.285 49.847C209.484 51.6724 233.656 53.9143 244.471 42.8937C268.939 17.9437 306.048 -0.131062 358.404 0.000715892C396.883 0.0983293 432.305 25.4502 453.536 62.5091C478.259 105.664 475.478 167.587 468.326 200.079C457.024 251.377 442.304 273.564 442.304 273.564H23.2299Z" fill="#CAFFFB"/>
<path d="M125.883 108.238C113.019 107.117 81.6294 104.834 62.6491 107.315C59.9056 107.675 58.1487 104.431 59.9804 102.356C61.3018 100.86 63.6243 99.6249 67.6746 99.5159C67.6746 99.5159 64.2419 81.8625 81.2637 80.5057C98.7568 79.1114 98.6707 97.6108 98.6707 97.6108C98.6707 97.6108 109.051 88.0919 113.786 100.185C113.786 100.185 124.653 95.652 129.441 101.602C131.694 104.405 129.459 108.55 125.883 108.238Z" fill="white"/>
<path d="M209.91 272.796C209.91 272.796 271.509 141.705 295.835 190.204C295.835 190.204 315.057 155.569 330.676 167.836C346.296 180.102 322.506 243.598 322.506 243.598C322.506 243.598 348.217 218.826 339.806 255.624C339.806 255.624 350.619 247.42 357.588 250.08C364.557 252.74 358.549 273.434 358.549 273.434H282.379L209.91 272.796Z" fill="#06FFFD"/>
<path d="M125.595 272.864C125.595 272.864 79.5342 155.787 61.3357 199.101C61.3357 199.101 46.9583 168.171 35.2789 179.125C23.5995 190.079 41.4339 241.856 41.4339 241.856C41.4339 241.856 26.3527 224.111 20.4675 238.548C15.1333 251.63 35.695 273.434 35.695 273.434H71.3979L125.595 272.864Z" fill="#06FFFD"/>
<path d="M259.63 151.071H51.6582V273.187H259.63V151.071Z" fill="#A6FFF8"/>
<path d="M259.629 151.071H224.113V273.187H259.629V151.071Z" fill="#9AEFE7"/>
<path d="M264.431 261.595H201.66V272.736H264.431V261.595Z" fill="#0FB2A6"/>
<path d="M229.431 261.595H43.666V272.736H229.431V261.595Z" fill="#0FB2A6"/>
<path opacity="0.25" d="M51.6578 224.361C51.6205 224.361 51.5836 224.353 51.5492 224.339C51.5148 224.324 51.4835 224.303 51.4573 224.277C51.431 224.251 51.4102 224.219 51.3961 224.185C51.3819 224.15 51.3748 224.113 51.375 224.076V150.788H241.872C241.943 150.793 242.01 150.825 242.059 150.878C242.107 150.931 242.134 151 242.134 151.071C242.134 151.143 242.107 151.212 242.059 151.265C242.01 151.318 241.943 151.35 241.872 151.355H51.9422V224.077C51.9418 224.153 51.9116 224.225 51.8583 224.278C51.8051 224.331 51.733 224.361 51.6578 224.361Z" fill="black"/>
<path opacity="0.25" d="M224.115 196.323C224.039 196.323 223.967 196.293 223.913 196.239C223.86 196.186 223.83 196.113 223.83 196.038V151.071C223.835 150.999 223.868 150.932 223.92 150.883C223.973 150.834 224.042 150.807 224.114 150.807C224.185 150.807 224.254 150.834 224.307 150.883C224.36 150.932 224.392 150.999 224.397 151.071V196.038C224.398 196.075 224.39 196.112 224.376 196.147C224.362 196.181 224.341 196.213 224.315 196.239C224.289 196.266 224.258 196.287 224.223 196.301C224.189 196.315 224.152 196.323 224.115 196.323Z" fill="black"/>
<path d="M123.025 187.461H103.541V200.809H123.025V187.461Z" fill="#E2F2F1"/>
<path d="M123.025 202.493H103.541V237.606H123.025V202.493Z" fill="#E2F2F1"/>
<path d="M124.269 238.548H102.295V186.162H124.269V238.548ZM102.417 238.423H124.149V186.283H102.417V238.423Z" fill="#21111D"/>
<path d="M123.087 200.87H103.482V187.401H123.087V200.87ZM103.604 200.749H122.967V187.523H103.604V200.749Z" fill="#21111D"/>
<path d="M123.087 237.667H103.482V202.431H123.087V237.667ZM103.604 237.545H122.967V202.553H103.604V237.545Z" fill="#21111D"/>
<path d="M107.635 194.676L107.559 194.582L114.11 189.218L114.187 189.312L107.635 194.676Z" fill="#21111D"/>
<path d="M109.357 195.18L109.279 195.086L113.243 191.792L113.321 191.886L109.357 195.18Z" fill="#21111D"/>
<path d="M115.032 218.167L114.939 218.09L119.004 213.133L119.097 213.21L115.032 218.167Z" fill="#21111D"/>
<path d="M116.922 217.682L116.826 217.607L119.313 214.433L119.409 214.508L116.922 217.682Z" fill="#21111D"/>
<path d="M97.7732 187.461H78.2891V200.809H97.7732V187.461Z" fill="#E2F2F1"/>
<path d="M97.7732 202.493H78.2891V237.606H97.7732V202.493Z" fill="#E2F2F1"/>
<path d="M99.019 238.548H77.0449V186.162H99.019V238.548ZM77.1668 238.423H98.902V186.283H77.1668V238.423Z" fill="#21111D"/>
<path d="M97.8368 200.87H78.2324V187.401H97.8368V200.87ZM78.3543 200.749H97.7165V187.523H78.3543V200.749Z" fill="#21111D"/>
<path d="M97.8368 237.667H78.2324V202.431H97.8368V237.667ZM78.3543 237.545H97.7165V202.553H78.3543V237.545Z" fill="#21111D"/>
<path d="M82.3869 194.676L82.3105 194.582L88.8621 189.218L88.9385 189.312L82.3869 194.676Z" fill="#21111D"/>
<path d="M84.1073 195.18L84.0293 195.086L87.9934 191.792L88.0714 191.886L84.1073 195.18Z" fill="#21111D"/>
<path d="M89.7821 218.167L89.6895 218.09L93.7543 213.133L93.847 213.21L89.7821 218.167Z" fill="#21111D"/>
<path d="M91.6721 217.682L91.5762 217.607L94.0629 214.433L94.1588 214.508L91.6721 217.682Z" fill="#21111D"/>
<path d="M200.412 187.461H180.928V200.809H200.412V187.461Z" fill="#E2F2F1"/>
<path d="M200.412 202.493H180.928V237.606H200.412V202.493Z" fill="#E2F2F1"/>
<path d="M201.659 238.548H179.68V186.162H201.654L201.659 238.548ZM179.805 238.426H201.537V186.283H179.805V238.426Z" fill="#21111D"/>
<path d="M200.474 200.87H180.869V187.401H200.474V200.87ZM180.989 200.749H200.352V187.523H180.989V200.749Z" fill="#21111D"/>
<path d="M200.474 237.667H180.869V202.431H200.474V237.667ZM180.989 237.545H200.352V202.553H180.989V237.545Z" fill="#21111D"/>
<path d="M185.024 194.676L184.947 194.582L191.499 189.218L191.575 189.312L185.024 194.676Z" fill="#21111D"/>
<path d="M186.746 195.18L186.67 195.086L190.634 191.792L190.71 191.886L186.746 195.18Z" fill="#21111D"/>
<path d="M192.42 218.167L192.326 218.09L196.391 213.133L196.485 213.21L192.42 218.167Z" fill="#21111D"/>
<path d="M194.309 217.682L194.215 217.607L196.702 214.433L196.796 214.508L194.309 217.682Z" fill="#21111D"/>
<path d="M175.164 187.461H155.68V200.809H175.164V187.461Z" fill="#E2F2F1"/>
<path d="M175.164 202.493H155.68V237.606H175.164V202.493Z" fill="#E2F2F1"/>
<path d="M176.408 238.548H154.434V186.162H176.408V238.548ZM154.554 238.426H176.286V186.283H154.554V238.426Z" fill="#21111D"/>
<path d="M175.223 200.87H155.625V187.401H175.229L175.223 200.87ZM155.739 200.749H175.101V187.523H155.739V200.749Z" fill="#21111D"/>
<path d="M175.223 237.667H155.625V202.431H175.229L175.223 237.667ZM155.739 237.545H175.101V202.553H155.739V237.545Z" fill="#21111D"/>
<path d="M159.772 194.676L159.695 194.582L166.247 189.218L166.323 189.312L159.772 194.676Z" fill="#21111D"/>
<path d="M161.494 195.18L161.418 195.086L165.382 191.792L165.46 191.886L161.494 195.18Z" fill="#21111D"/>
<path d="M167.17 218.167L167.076 218.09L171.141 213.133L171.235 213.21L167.17 218.167Z" fill="#21111D"/>
<path d="M169.059 217.682L168.963 217.607L171.45 214.433L171.544 214.508L169.059 217.682Z" fill="#21111D"/>
<path d="M275.541 154.386H209.129L137.602 91.8354H164.783L275.541 154.386Z" fill="#06FFFD"/>
<path d="M137.603 91.8354L40.8652 154.386H237.84L137.603 91.8354Z" fill="#06FFFD"/>
<path opacity="0.25" d="M71.3413 134.681C71.3199 134.648 71.3052 134.612 71.298 134.574C71.2908 134.535 71.2913 134.496 71.2995 134.458C71.3077 134.42 71.3233 134.383 71.3456 134.351C71.3678 134.319 71.3962 134.292 71.429 134.271L137.6 91.4839L182.561 119.54C182.627 119.582 182.674 119.649 182.692 119.725C182.709 119.802 182.696 119.883 182.655 119.95C182.613 120.016 182.547 120.063 182.47 120.081C182.394 120.098 182.314 120.085 182.247 120.044L137.606 92.1867L71.7508 134.769C71.7182 134.79 71.6817 134.805 71.6434 134.812C71.6052 134.819 71.5659 134.818 71.5278 134.81C71.4898 134.802 71.4537 134.786 71.4217 134.764C71.3897 134.742 71.3624 134.714 71.3413 134.681Z" fill="black"/>
<path opacity="0.25" d="M276.669 154.684H237.755L230.226 149.984C230.193 149.963 230.164 149.937 230.141 149.905C230.119 149.873 230.102 149.838 230.093 149.8C230.085 149.762 230.083 149.722 230.09 149.684C230.096 149.645 230.11 149.609 230.13 149.575C230.151 149.542 230.178 149.513 230.21 149.491C230.241 149.468 230.277 149.452 230.315 149.443C230.353 149.434 230.393 149.433 230.431 149.44C230.47 149.446 230.507 149.46 230.54 149.481L237.925 154.09H274.413L221.996 124.481C221.928 124.441 221.878 124.377 221.857 124.301C221.836 124.225 221.845 124.144 221.883 124.076C221.923 124.007 221.987 123.957 222.063 123.936C222.139 123.915 222.22 123.925 222.288 123.963L276.669 154.684Z" fill="black"/>
<path opacity="0.25" d="M173.711 97.1634L164.705 92.0777H137.602V91.4839H164.861L174.002 96.646C174.036 96.6651 174.066 96.6908 174.09 96.7216C174.114 96.7523 174.132 96.7875 174.142 96.8252C174.153 96.8628 174.155 96.9022 174.151 96.941C174.146 96.9797 174.133 97.0172 174.114 97.0511C174.075 97.1192 174.011 97.1692 173.935 97.1902C173.86 97.2112 173.779 97.2016 173.711 97.1634Z" fill="black"/>
<path d="M176.408 273.863C177.803 272.466 188.686 252.914 196.221 262.963C196.221 262.963 208.534 234.611 224.125 240.162C224.125 240.162 234.067 245.925 226.846 260.274C226.846 260.274 250.915 258.738 250.602 273.857L176.408 273.863Z" fill="#24C6BA"/>
<path d="M276.932 274.132C277.629 273.574 289.071 251.227 296.606 261.702C296.606 261.702 307.907 223.295 323.394 225.11C338.882 226.926 325.767 255.418 325.767 255.418C325.767 255.418 339.021 249.969 335.951 264.356C335.951 264.356 352.835 261.283 351.578 273.434L276.932 274.132Z" fill="#24C6BA"/>
<path d="M340.355 237.284C338.289 239.778 337.697 242.699 339.032 243.807C340.366 244.915 343.123 243.789 345.188 241.295C347.254 238.801 347.846 235.882 346.511 234.774C345.177 233.666 342.421 234.782 340.355 237.284Z" fill="#06FFFD"/>
<path d="M343.509 247.091C342.285 248.568 341.934 250.296 342.726 250.952C343.517 251.607 345.148 250.942 346.37 249.466C347.592 247.991 347.943 246.261 347.153 245.606C346.363 244.95 344.728 245.616 343.509 247.091Z" fill="#06FFFD"/>
<path opacity="0.25" d="M317.548 230.873C317.506 230.873 317.466 230.856 317.436 230.827C317.406 230.797 317.389 230.755 317.389 230.712C317.389 230.669 317.406 230.628 317.436 230.598C317.55 230.481 320.24 227.726 323.124 227.726C323.168 227.726 323.209 227.743 323.239 227.774C323.27 227.804 323.287 227.846 323.287 227.889C323.287 227.932 323.27 227.974 323.239 228.004C323.209 228.035 323.168 228.052 323.124 228.052C320.378 228.052 317.694 230.798 317.668 230.817C317.653 230.835 317.635 230.848 317.614 230.858C317.593 230.867 317.571 230.872 317.548 230.873Z" fill="black"/>
<path opacity="0.25" d="M319.71 230.651C319.667 230.652 319.627 230.635 319.596 230.606C319.566 230.575 319.549 230.534 319.549 230.491C319.549 230.448 319.566 230.407 319.596 230.376C319.647 230.323 320.896 229.075 323.497 228.67C323.518 228.667 323.54 228.668 323.561 228.673C323.582 228.678 323.602 228.687 323.619 228.7C323.636 228.713 323.651 228.729 323.662 228.748C323.673 228.766 323.681 228.787 323.684 228.808C323.687 228.829 323.686 228.851 323.681 228.872C323.675 228.893 323.666 228.913 323.653 228.93C323.641 228.948 323.624 228.962 323.606 228.973C323.587 228.985 323.567 228.992 323.546 228.995C321.043 229.377 319.833 230.594 319.82 230.607C319.79 230.635 319.751 230.651 319.71 230.651Z" fill="black"/>
<path opacity="0.25" d="M287.075 264.741C287.034 264.741 286.993 264.725 286.963 264.696C286.933 264.665 286.916 264.624 286.916 264.581C286.916 264.538 286.933 264.497 286.963 264.466C287.075 264.349 289.767 261.595 292.652 261.595C292.695 261.595 292.736 261.612 292.767 261.642C292.797 261.673 292.814 261.714 292.814 261.757C292.814 261.801 292.797 261.842 292.767 261.872C292.736 261.903 292.695 261.92 292.652 261.92C289.902 261.92 287.223 264.665 287.196 264.686C287.181 264.703 287.162 264.717 287.141 264.726C287.121 264.736 287.098 264.741 287.075 264.741Z" fill="black"/>
<path opacity="0.25" d="M289.238 264.52C289.195 264.519 289.155 264.502 289.125 264.473C289.095 264.442 289.078 264.401 289.078 264.358C289.078 264.315 289.095 264.274 289.125 264.243C289.177 264.191 290.426 262.942 293.026 262.537C293.047 262.534 293.069 262.535 293.09 262.54C293.111 262.545 293.131 262.554 293.148 262.567C293.166 262.58 293.18 262.596 293.191 262.615C293.202 262.633 293.21 262.654 293.213 262.675C293.216 262.696 293.215 262.718 293.21 262.739C293.205 262.76 293.195 262.78 293.183 262.797C293.17 262.815 293.154 262.829 293.135 262.84C293.117 262.852 293.096 262.859 293.075 262.862C290.58 263.243 289.363 264.461 289.351 264.474C289.321 264.504 289.28 264.52 289.238 264.52Z" fill="black"/>
<path d="M85.9244 250.625C85.9244 250.625 79.8961 245.453 78.1733 248.9C78.1733 248.9 64.1957 217.69 46.3174 217.724C38.5599 217.739 36.6534 225.564 36.9573 232.641C37.2157 238.67 38.9158 245.072 41.2124 251.049C29.3818 248.144 23.4673 258.44 41.2416 273.442C41.2416 273.442 47.161 273.637 53.3371 273.19L53.5614 273.47C54.1351 273.613 123.251 273.348 123.251 273.348C123.251 273.348 92.3508 221.123 85.9244 250.625Z" fill="#24C6BA"/>
<path opacity="0.25" d="M54.7426 221.788C54.756 221.788 54.7692 221.785 54.7811 221.779C54.793 221.772 54.8032 221.763 54.8109 221.752C54.8171 221.744 54.8215 221.733 54.8238 221.723C54.8261 221.712 54.8262 221.701 54.8243 221.69C54.8223 221.68 54.8182 221.669 54.8123 221.66C54.8064 221.651 54.7987 221.643 54.7898 221.637C53.982 221.101 53.1261 220.641 52.2332 220.264C50.8565 219.678 48.8201 219.058 46.9217 219.434C46.9109 219.436 46.9006 219.44 46.8913 219.446C46.8821 219.452 46.8742 219.46 46.868 219.469C46.8618 219.478 46.8574 219.488 46.8552 219.499C46.853 219.51 46.8529 219.521 46.8551 219.532C46.8598 219.554 46.8727 219.573 46.8912 219.585C46.9097 219.598 46.9323 219.602 46.9542 219.598C50.5055 218.894 54.6532 221.744 54.6939 221.774C54.7084 221.783 54.7253 221.788 54.7426 221.788Z" fill="black"/>
<path opacity="0.25" d="M52.4276 221.788C52.4452 221.788 52.4622 221.782 52.4762 221.771C52.4902 221.76 52.5005 221.745 52.5057 221.729C52.5109 221.712 52.5107 221.694 52.5051 221.677C52.4996 221.66 52.4889 221.646 52.4747 221.635C52.4552 221.622 50.5243 220.322 47.1486 220.47C47.1298 220.474 47.1129 220.484 47.1008 220.499C47.0887 220.514 47.082 220.533 47.082 220.552C47.082 220.571 47.0887 220.59 47.1008 220.604C47.1129 220.619 47.1298 220.629 47.1486 220.633C50.4691 220.488 52.3495 221.757 52.3739 221.772C52.3893 221.784 52.4083 221.789 52.4276 221.788Z" fill="black"/>
<path opacity="0.25" d="M64.539 247.208C64.5503 247.209 64.5615 247.206 64.5719 247.202C64.5823 247.197 64.5916 247.191 64.5992 247.182C64.607 247.175 64.6133 247.166 64.6176 247.156C64.6218 247.146 64.624 247.135 64.624 247.124C64.624 247.113 64.6218 247.102 64.6176 247.092C64.6133 247.082 64.607 247.073 64.5992 247.065L62.0409 244.67C62.0334 244.663 62.0243 244.656 62.0142 244.652C62.0042 244.648 61.9934 244.646 61.9824 244.646C61.9715 244.646 61.9607 244.648 61.9506 244.652C61.9406 244.656 61.9315 244.663 61.9239 244.67C61.9088 244.686 61.9004 244.707 61.9004 244.729C61.9004 244.751 61.9088 244.772 61.9239 244.788L64.4789 247.177C64.4859 247.187 64.4949 247.195 64.5054 247.2C64.5158 247.205 64.5273 247.208 64.539 247.208Z" fill="black"/>
<path opacity="0.25" d="M64.8181 248.51C64.832 248.51 64.8455 248.506 64.8577 248.5C64.8699 248.493 64.8803 248.484 64.888 248.472C64.8998 248.454 64.9038 248.431 64.8993 248.41C64.8947 248.388 64.8819 248.369 64.8636 248.357C64.3468 248.012 62.3396 246.242 62.3184 246.216C62.3018 246.201 62.2801 246.194 62.258 246.195C62.2359 246.197 62.2152 246.207 62.2006 246.223C62.1859 246.24 62.1785 246.262 62.1798 246.284C62.1812 246.306 62.1913 246.327 62.2079 246.341C62.2908 246.414 64.2444 248.144 64.771 248.495C64.7849 248.505 64.8013 248.51 64.8181 248.51Z" fill="black"/>
<path opacity="0.25" d="M109.093 256.737C109.109 256.737 109.125 256.733 109.139 256.724C109.152 256.715 109.163 256.703 109.169 256.688C109.174 256.678 109.177 256.667 109.177 256.656C109.177 256.645 109.175 256.634 109.172 256.624C109.168 256.613 109.162 256.604 109.154 256.596C109.146 256.588 109.137 256.582 109.127 256.577L107.304 255.764C107.283 255.755 107.26 255.755 107.24 255.762C107.219 255.77 107.202 255.786 107.193 255.806C107.188 255.816 107.186 255.827 107.186 255.838C107.185 255.849 107.187 255.86 107.191 255.87C107.195 255.881 107.201 255.89 107.209 255.898C107.216 255.906 107.225 255.912 107.235 255.917L109.059 256.73C109.07 256.735 109.081 256.737 109.093 256.737Z" fill="black"/>
<path opacity="0.25" d="M109.485 257.393C109.504 257.393 109.522 257.387 109.536 257.376C109.551 257.364 109.562 257.349 109.566 257.331C109.572 257.309 109.569 257.286 109.557 257.267C109.546 257.248 109.528 257.234 109.506 257.228C109.165 257.139 107.753 256.555 107.738 256.548C107.717 256.54 107.695 256.54 107.674 256.549C107.654 256.557 107.638 256.573 107.629 256.594C107.621 256.614 107.621 256.637 107.63 256.657C107.638 256.678 107.654 256.694 107.674 256.703C107.733 256.727 109.111 257.298 109.462 257.391L109.485 257.393Z" fill="black"/>
<path opacity="0.25" d="M212.417 245.523C212.384 245.523 212.351 245.512 212.324 245.492C212.297 245.473 212.276 245.445 212.265 245.414C212.254 245.382 212.253 245.348 212.262 245.315C212.271 245.283 212.291 245.254 212.317 245.233C212.479 245.106 216.3 242.124 219.793 241.704C219.836 241.699 219.879 241.711 219.912 241.738C219.946 241.765 219.968 241.803 219.973 241.846C219.979 241.889 219.966 241.932 219.94 241.966C219.913 241.999 219.875 242.021 219.832 242.027C216.429 242.435 212.556 245.458 212.518 245.489C212.489 245.511 212.454 245.523 212.417 245.523Z" fill="black"/>
<path opacity="0.25" d="M212.417 247.404C212.384 247.403 212.351 247.393 212.324 247.373C212.297 247.354 212.276 247.327 212.265 247.295C212.254 247.264 212.253 247.23 212.262 247.198C212.271 247.166 212.289 247.137 212.315 247.116C212.341 247.094 214.961 244.989 218.301 244.013C218.342 244.001 218.387 244.006 218.424 244.027C218.462 244.047 218.49 244.082 218.502 244.124C218.514 244.165 218.509 244.21 218.489 244.247C218.468 244.285 218.433 244.313 218.392 244.325C215.115 245.282 212.541 247.348 212.519 247.368C212.49 247.391 212.454 247.404 212.417 247.404Z" fill="black"/>
<path d="M208.26 17.5141C203.977 20.7581 191.649 21.9425 191.721 30.8074C191.77 36.6642 200.66 43.2499 217.874 42.1826C235.087 41.1154 255.933 25.5623 254.136 17.654C250.451 1.45015 221.628 7.38667 208.26 17.5141Z" fill="#CAFFFB"/>
<path d="M187.096 12.4692C186.833 10.6564 187.253 8.81039 188.274 7.29048C189.296 5.77058 190.846 4.68561 192.622 4.24686C193.279 4.08503 193.948 3.97623 194.622 3.92148C201.019 3.38786 203.835 8.56951 201.323 11.8477C198.81 15.1259 192.11 17.4117 189.216 15.6579C187.771 14.7842 187.277 13.6601 187.096 12.4692Z" fill="#CAFFFB"/>
<path d="M381.729 89.2892C388.668 89.1411 412.447 88.8792 428.6 91.7962C430.696 92.1753 432.117 89.691 430.712 88.0901C429.89 87.1547 428.46 86.3705 426.02 86.1216C426.02 86.1216 427.335 70.9769 415.917 69.6152C402.824 68.0517 402.2 82.9557 402.2 82.9557C402.2 82.9557 396.409 77.0989 391.881 84.1531C391.881 84.1531 384.567 79.6173 380.575 87.4492C380.477 87.6443 380.431 87.8615 380.441 88.0798C380.451 88.2981 380.517 88.51 380.633 88.6951C380.75 88.8801 380.911 89.0321 381.103 89.1362C381.295 89.2402 381.511 89.2929 381.729 89.2892Z" fill="white"/>
<path d="M285.569 56.1918C298.432 55.0709 329.821 52.7883 348.803 55.2693C351.547 55.6289 353.303 52.3849 351.472 50.3089C350.15 48.8138 347.828 47.579 343.778 47.47C343.778 47.47 347.21 29.8166 330.187 28.4598C312.694 27.0655 312.78 45.5649 312.78 45.5649C312.78 45.5649 302.401 36.046 297.665 48.1387C297.665 48.1387 286.796 43.6045 282.01 49.5557C279.754 52.3588 281.987 56.5041 285.569 56.1918Z" fill="white"/>
<path d="M450.75 273H13.2793V274.133H450.75V273Z" fill="#24C6BA"/>
<path d="M419.53 226.107C419.53 226.107 414.629 222.149 413.449 222.149C412.269 222.149 412.827 226.104 412.827 226.104C412.827 226.104 417.322 231.183 419.055 230.497L419.53 226.107Z" fill="#FE9F73"/>
<path d="M417.197 221.627L416.438 225.515L419.331 227.964L419.973 222.66L417.197 221.627Z" fill="#FE9F73"/>
<path d="M420.701 271.882L424.977 271.94L425.037 267.904L420.779 267.37L420.701 271.882Z" fill="#FE9F73"/>
<path d="M425.052 272.375H421.324L419.81 270.725L417.047 272.375H416.453C416.352 272.373 416.255 272.406 416.176 272.468C416.097 272.53 416.042 272.617 416.02 272.715C416.008 272.776 416.009 272.84 416.024 272.901C416.039 272.962 416.068 273.019 416.108 273.068C416.147 273.117 416.198 273.156 416.254 273.183C416.311 273.21 416.373 273.224 416.436 273.224H425.099C425.13 273.224 425.159 273.212 425.181 273.19C425.202 273.168 425.215 273.139 425.215 273.108V272.544C425.215 272.522 425.212 272.5 425.204 272.479C425.196 272.459 425.184 272.44 425.169 272.424C425.154 272.409 425.136 272.396 425.116 272.387C425.096 272.379 425.074 272.374 425.052 272.375Z" fill="#06FFFD"/>
<path d="M425.02 272.379V270.847C425.02 270.847 424.393 270.001 423.435 270.432C423.435 270.432 421.989 271.46 420.713 270.217L417.547 271.623C417.547 271.623 416.679 271.912 416.443 272.379H425.02Z" fill="#0CAAA5"/>
<path opacity="0.25" d="M425.052 270.847H424.988V272.372H425.052V270.847Z" fill="black"/>
<path opacity="0.25" d="M422.138 270.863C422.072 270.864 422.007 270.861 421.941 270.854L421.951 270.79C422.468 270.835 422.985 270.7 423.414 270.406L423.45 270.458C423.063 270.722 422.606 270.863 422.138 270.863Z" fill="black"/>
<path opacity="0.25" d="M424.616 271.745L424.211 272.017L424.246 272.07L424.651 271.797L424.616 271.745Z" fill="black"/>
<path opacity="0.25" d="M424.33 271.724L423.926 271.997L423.961 272.05L424.365 271.777L424.33 271.724Z" fill="black"/>
<path opacity="0.25" d="M416.141 273.151C416.067 273.091 416.013 273.01 415.988 272.918C415.962 272.826 415.966 272.728 415.998 272.639C416.03 272.549 416.09 272.472 416.168 272.418C416.247 272.364 416.34 272.336 416.436 272.337H425.011C425.044 272.336 425.077 272.342 425.108 272.354C425.139 272.367 425.167 272.385 425.191 272.408C425.214 272.432 425.233 272.46 425.246 272.491C425.258 272.521 425.265 272.554 425.264 272.588V273.011H425.199V272.588C425.199 272.564 425.195 272.54 425.186 272.518C425.177 272.496 425.164 272.476 425.147 272.459C425.13 272.442 425.11 272.429 425.088 272.419C425.066 272.41 425.043 272.406 425.019 272.406H416.444C416.363 272.406 416.285 272.431 416.219 272.477C416.154 272.523 416.104 272.588 416.076 272.664C416.049 272.739 416.045 272.821 416.065 272.899C416.085 272.977 416.129 273.046 416.19 273.099L416.141 273.151Z" fill="black"/>
<path opacity="0.25" d="M416.463 272.391L416.406 272.363C416.406 272.349 416.587 271.993 417.235 271.713C417.884 271.433 420.673 270.196 420.702 270.185L420.726 270.242C420.699 270.255 417.897 271.5 417.26 271.771C416.622 272.043 416.465 272.388 416.463 272.391Z" fill="black"/>
<path d="M429.357 271.882L433.635 271.94L433.695 267.904L429.435 267.37L429.357 271.882Z" fill="#FE9F73"/>
<path d="M433.716 272.375H429.978L428.467 270.725L425.704 272.375H425.109C425.009 272.372 424.911 272.405 424.832 272.467C424.753 272.529 424.698 272.617 424.676 272.715C424.664 272.776 424.665 272.84 424.68 272.901C424.695 272.962 424.724 273.019 424.764 273.068C424.804 273.117 424.854 273.156 424.911 273.183C424.968 273.21 425.03 273.224 425.093 273.224H433.765C433.796 273.224 433.825 273.212 433.847 273.19C433.868 273.168 433.881 273.139 433.881 273.108V272.544C433.881 272.522 433.878 272.5 433.87 272.479C433.862 272.458 433.85 272.44 433.835 272.424C433.819 272.408 433.801 272.395 433.781 272.387C433.76 272.379 433.738 272.374 433.716 272.375Z" fill="#06FFFD"/>
<path d="M433.678 272.379V270.847C433.678 270.847 433.049 270.001 432.094 270.432C432.094 270.432 430.647 271.46 429.371 270.217L426.205 271.623C426.205 271.623 425.337 271.912 425.102 272.379H433.678Z" fill="#0CAAA5"/>
<path opacity="0.25" d="M433.708 270.847H433.645V272.372H433.708V270.847Z" fill="black"/>
<path opacity="0.25" d="M430.796 270.863C430.731 270.864 430.665 270.861 430.6 270.854L430.609 270.79C431.127 270.835 431.644 270.7 432.072 270.406L432.108 270.458C431.721 270.722 431.264 270.863 430.796 270.863Z" fill="black"/>
<path opacity="0.25" d="M432.909 272.094L432.873 272.042L433.279 271.768L433.313 271.82L432.909 272.094Z" fill="black"/>
<path opacity="0.25" d="M432.988 271.725L432.584 271.998L432.619 272.05L433.024 271.777L432.988 271.725Z" fill="black"/>
<path opacity="0.25" d="M424.798 273.151C424.723 273.091 424.669 273.009 424.644 272.917C424.618 272.825 424.622 272.728 424.654 272.638C424.687 272.548 424.747 272.471 424.826 272.417C424.904 272.363 424.998 272.335 425.093 272.337H433.669C433.733 272.338 433.795 272.364 433.841 272.41C433.887 272.456 433.912 272.518 433.912 272.583V273.006H433.849V272.588C433.849 272.54 433.83 272.494 433.796 272.46C433.762 272.425 433.717 272.406 433.669 272.406H425.102C424.997 272.406 424.898 272.448 424.824 272.521C424.75 272.595 424.709 272.695 424.708 272.799C424.708 272.856 424.721 272.913 424.745 272.965C424.769 273.016 424.804 273.062 424.848 273.099L424.798 273.151Z" fill="black"/>
<path opacity="0.25" d="M425.121 272.391L425.062 272.363C425.071 272.349 425.245 271.993 425.891 271.713C426.538 271.433 429.331 270.196 429.358 270.185L429.384 270.242C429.357 270.255 426.555 271.5 425.917 271.771C425.28 272.043 425.123 272.388 425.121 272.391Z" fill="black"/>
<path d="M428.168 236.967L425.758 269.118C425.758 269.118 423.182 270.489 419.617 268.678L418.66 235.996L428.168 236.967Z" fill="#0CAAA5"/>
<path d="M426.465 236.967L428.404 269.342C428.404 269.342 430.982 270.736 434.544 268.896L435.914 237.408L426.465 236.967Z" fill="#0CAAA5"/>
<path d="M431.004 269.855C430.108 269.863 429.217 269.712 428.374 269.407L428.329 269.39V269.341L426.889 245.326L427.051 245.316L428.488 269.281C428.872 269.425 431.654 270.374 434.515 268.82L434.589 268.958C433.489 269.554 432.255 269.863 431.004 269.855Z" fill="#1D1D1B"/>
<path d="M423.364 269.602C422.058 269.593 420.768 269.301 419.584 268.748L419.657 268.608C419.686 268.625 422.641 270.134 425.685 269.061L426.571 255.265L426.726 255.276L425.835 269.173L425.788 269.191C425.01 269.468 424.19 269.607 423.364 269.602Z" fill="#1D1D1B"/>
<path d="M421.548 213.187C421.548 213.187 419.014 214.163 416.846 220.602L416.48 221.81C416.48 221.81 419.206 222.753 419.991 222.911C420.776 223.069 421.548 213.187 421.548 213.187Z" fill="#06FFFD"/>
<path d="M431.42 211.839C431.42 211.839 436.54 212.938 438.164 214.498C440.114 216.379 441.728 220.602 441.728 220.602C441.728 220.602 439.178 223.348 436.382 223.205L436.137 238.07C436.137 238.07 423.768 241.348 418.631 237.081C418.631 237.081 419.14 215.638 421.356 213.359C423.278 211.386 431.42 211.839 431.42 211.839Z" fill="#06FFFD"/>
<path d="M428.076 201.506L425.712 205.745C424.466 207.82 425.755 208.836 425.777 208.88C426.025 209.238 426.392 209.495 426.813 209.604L426.53 213.009L428.675 214.081L431.429 208.573L434.965 203.326L428.076 201.506Z" fill="#FE9F73"/>
<path d="M430.711 206.211C430.695 206.154 430.329 204.812 429.198 205.005C429.187 205.007 429.176 205.007 429.166 205.004C429.155 205.002 429.145 204.997 429.136 204.991C429.127 204.985 429.12 204.977 429.114 204.968C429.108 204.959 429.105 204.948 429.103 204.938C429.101 204.927 429.101 204.916 429.104 204.905C429.106 204.895 429.111 204.885 429.117 204.876C429.123 204.867 429.131 204.86 429.14 204.854C429.149 204.848 429.16 204.844 429.17 204.842C430.448 204.623 430.862 206.144 430.865 206.165C430.868 206.175 430.869 206.186 430.867 206.196C430.866 206.207 430.862 206.217 430.857 206.226C430.852 206.235 430.845 206.243 430.837 206.249C430.828 206.255 430.819 206.26 430.808 206.263C430.788 206.268 430.767 206.265 430.748 206.255C430.731 206.245 430.717 206.23 430.711 206.211Z" fill="#49263E"/>
<path d="M428.056 204.187C428.056 204.187 427.731 203.331 427.244 203.43C427.223 203.435 427.201 203.431 427.183 203.419C427.165 203.408 427.153 203.389 427.148 203.369C427.144 203.347 427.148 203.326 427.16 203.308C427.172 203.29 427.19 203.277 427.211 203.273C427.837 203.146 428.186 204.086 428.201 204.133C428.205 204.143 428.206 204.154 428.206 204.164C428.205 204.175 428.203 204.185 428.198 204.195C428.194 204.204 428.187 204.213 428.179 204.22C428.171 204.227 428.162 204.232 428.152 204.236C428.142 204.24 428.13 204.242 428.119 204.242C428.108 204.242 428.096 204.24 428.086 204.236C428.07 204.224 428.06 204.206 428.056 204.187Z" fill="#49263E"/>
<path opacity="0.25" d="M429.061 206.253C429 206.218 428.955 206.161 428.936 206.094C428.917 206.027 428.925 205.955 428.958 205.893C428.984 205.848 429.022 205.811 429.068 205.787C429.115 205.764 429.167 205.754 429.219 205.76C429.27 205.766 429.319 205.788 429.359 205.821C429.398 205.855 429.427 205.9 429.441 205.95C429.455 206 429.455 206.053 429.439 206.103C429.423 206.152 429.393 206.196 429.352 206.228C429.311 206.261 429.262 206.28 429.21 206.285C429.158 206.289 429.106 206.278 429.061 206.253Z" fill="black"/>
<path opacity="0.25" d="M426.946 204.938C426.901 204.913 426.864 204.875 426.84 204.828C426.816 204.782 426.806 204.73 426.812 204.678C426.818 204.626 426.839 204.577 426.873 204.537C426.907 204.498 426.951 204.469 427.001 204.454C427.051 204.44 427.105 204.441 427.154 204.457C427.204 204.473 427.248 204.503 427.28 204.544C427.312 204.585 427.332 204.634 427.336 204.686C427.341 204.738 427.329 204.79 427.304 204.836C427.287 204.866 427.265 204.893 427.238 204.914C427.211 204.936 427.18 204.952 427.147 204.962C427.113 204.971 427.078 204.974 427.044 204.97C427.01 204.966 426.977 204.955 426.946 204.938Z" fill="black"/>
<path d="M433.113 204.972C433.113 204.972 427.903 203.157 427.337 201.06C427.109 200.22 427.587 199.859 428.211 199.119C428.618 198.886 430.074 198.37 431.137 199.379C431.769 199.984 432.762 199.187 433.563 200.049C434.43 200.988 435.897 203.295 435.463 203.617C435.029 203.939 434.703 203.879 434.703 203.879L433.113 204.972Z" fill="#49263E"/>
<path d="M436.18 205.397C435.763 207.21 434.7 207.686 434.425 208.144C434.151 208.601 432.606 211.82 430.539 210.359L432.941 204.94L434.853 203.299L434.932 202.754C434.932 202.754 436.597 203.578 436.18 205.397Z" fill="#49263E"/>
<path d="M431.508 208.622C431.259 208.482 431.056 208.272 430.926 208.017C430.796 207.763 430.744 207.475 430.777 207.191C430.81 206.907 430.927 206.639 431.112 206.422C431.297 206.204 431.543 206.046 431.817 205.967C432.092 205.889 432.384 205.894 432.656 205.982C432.928 206.07 433.168 206.236 433.345 206.461C433.522 206.685 433.629 206.957 433.653 207.242C433.676 207.527 433.614 207.812 433.475 208.062C433.383 208.228 433.259 208.374 433.11 208.492C432.961 208.61 432.79 208.698 432.608 208.75C432.425 208.802 432.234 208.817 432.045 208.795C431.857 208.773 431.674 208.714 431.508 208.622Z" fill="#FE9F73"/>
<path d="M431.925 207.128L431.785 207.167L431.884 207.063C431.955 206.978 432.043 206.908 432.143 206.86C432.243 206.811 432.352 206.785 432.463 206.782C432.706 206.8 432.933 206.908 433.102 207.084C433.109 207.092 433.113 207.103 433.112 207.114C433.112 207.125 433.107 207.135 433.099 207.142C433.091 207.149 433.081 207.153 433.07 207.153C433.059 207.152 433.049 207.148 433.042 207.14C432.889 206.979 432.682 206.881 432.461 206.863C432.304 206.864 432.152 206.922 432.034 207.026C432.168 207.01 432.304 207.034 432.424 207.096C432.545 207.159 432.643 207.255 432.708 207.374C432.768 207.486 432.789 207.614 432.767 207.739C432.745 207.864 432.681 207.978 432.586 208.062C432.496 208.157 432.377 208.219 432.248 208.24C432.119 208.261 431.987 208.24 431.871 208.179C431.862 208.174 431.855 208.165 431.853 208.155C431.85 208.144 431.851 208.133 431.857 208.124C431.859 208.119 431.862 208.115 431.866 208.112C431.87 208.108 431.875 208.106 431.88 208.105C431.885 208.103 431.891 208.103 431.896 208.104C431.901 208.105 431.906 208.106 431.91 208.109C432.01 208.162 432.125 208.18 432.237 208.162C432.348 208.143 432.451 208.088 432.528 208.005C432.61 207.933 432.665 207.835 432.685 207.728C432.704 207.621 432.687 207.51 432.637 207.413C432.566 207.293 432.458 207.201 432.329 207.149C432.201 207.098 432.058 207.09 431.925 207.128Z" fill="#F07162"/>
<path d="M427.625 206.995C427.619 207 427.61 207.003 427.602 207.003C427.593 207.003 427.585 207 427.578 206.995H427.568L426.949 206.321L428.134 204.735C428.141 204.726 428.15 204.721 428.161 204.719C428.172 204.718 428.182 204.72 428.191 204.727C428.2 204.733 428.205 204.743 428.207 204.754C428.208 204.764 428.206 204.775 428.199 204.784L427.053 206.315L427.627 206.939C427.634 206.947 427.637 206.957 427.637 206.967C427.637 206.978 427.633 206.987 427.625 206.995Z" fill="#F07162"/>
<path d="M426.957 207.872C426.505 207.732 426.494 207.182 426.494 207.182C426.494 207.182 427.71 207.555 427.728 207.564C427.746 207.574 427.408 208.012 426.957 207.872Z" fill="#FBFDFC"/>
<path d="M431.405 208.4L431.288 213.341L427.34 213.045L431.405 208.4Z" fill="#FE9F73"/>
<path d="M426.695 210.994L426.799 209.601C426.799 209.601 428.075 210.292 430.364 208.846C430.364 208.846 429.452 210.629 426.695 210.994Z" fill="#F07162"/>
<path d="M427.878 233.853L429.496 233.485L426.429 219.973L424.811 220.341L427.878 233.853Z" fill="#FEC786"/>
<path d="M428.245 235.477L429.863 235.109L426.796 221.597L425.178 221.965L428.245 235.477Z" fill="#FEC786"/>
<path d="M422.17 223.924L430.115 222.118L429.739 220.467L426.979 220.272L421.619 221.49L422.17 223.924Z" fill="#223749"/>
<path d="M415.172 208.153L415.96 209.77L411.559 272.493L401.58 271.999L401.084 270.81L415.172 208.153Z" fill="#0D706B"/>
<path d="M404.923 271.065L404.453 271.034L401.084 270.81L405.303 207.494L407.813 207.662L408.271 207.693L411.933 207.937L412.398 207.968L415.172 208.153L410.951 271.467L408.744 271.321L408.256 271.288L404.923 271.065Z" fill="#0CAAA5"/>
<g opacity="0.3">
<path d="M410.268 230.64C410.2 229.622 410.164 228.515 410.375 227.446C410.527 226.763 410.73 226.091 410.981 225.437C411.123 225.042 411.269 224.624 411.388 224.225C412.165 221.578 411.921 218.723 411.683 215.962C411.656 215.643 411.63 215.326 411.604 215.01C411.412 212.635 411.344 210.182 411.929 207.937L412.394 207.968C411.796 210.172 411.862 212.612 412.054 214.973C412.08 215.289 412.108 215.606 412.134 215.923C412.374 218.726 412.621 221.617 411.822 224.355C411.698 224.773 411.55 225.188 411.407 225.592C411.163 226.224 410.967 226.874 410.819 227.536C410.58 228.741 410.676 230.028 410.759 231.166C410.903 233.106 411.061 235.07 411.228 237.022L410.773 237.061C410.611 235.109 410.448 233.144 410.304 231.205C410.295 231.016 410.281 230.829 410.268 230.64Z" fill="#892F1A"/>
<path d="M407.615 217.997C407.681 217.869 407.756 217.748 407.828 217.633C407.92 217.494 408.002 217.348 408.073 217.197C408.312 216.652 408.262 215.972 407.91 215.058C407.852 214.906 407.789 214.75 407.727 214.599C407.486 214.005 407.239 213.392 407.205 212.725C407.204 212.174 407.281 211.626 407.434 211.098C407.462 210.985 407.488 210.875 407.514 210.763C407.745 209.743 407.844 208.698 407.808 207.654L408.265 207.684C408.298 208.753 408.195 209.821 407.959 210.863C407.933 210.977 407.906 211.091 407.878 211.205C407.736 211.689 407.663 212.19 407.662 212.694C407.691 213.281 407.914 213.832 408.149 214.42C408.211 214.573 408.275 214.731 408.335 214.888C408.582 215.539 408.866 216.502 408.486 217.373C408.405 217.542 408.312 217.705 408.208 217.861C408.138 217.975 408.071 218.082 408.014 218.186C407.667 218.86 407.689 219.686 407.701 220.415L407.771 223.517L407.314 223.527L407.244 220.426C407.234 219.701 407.22 218.773 407.615 217.997Z" fill="#892F1A"/>
<path d="M405.996 241.853C405.969 241.053 406.043 240.252 406.215 239.471C406.299 239.128 406.412 238.792 406.52 238.469C406.615 238.187 406.712 237.898 406.789 237.611C407.25 235.859 406.969 233.943 406.72 232.254L407.172 232.187C407.427 233.92 407.715 235.885 407.231 237.719C407.151 238.021 407.05 238.319 406.953 238.605C406.847 238.921 406.738 239.248 406.659 239.572C406.496 240.316 406.427 241.077 406.452 241.838C406.47 243.353 406.66 244.861 407.018 246.333L406.574 246.44C406.297 245.3 406.118 244.137 406.039 242.965C406.016 242.599 406.001 242.228 405.996 241.853Z" fill="#892F1A"/>
<path d="M408.86 245.466C409.115 244.695 409.356 243.966 409.257 243.221C409.229 243.004 409.171 242.792 409.086 242.591L409.507 242.412C409.608 242.651 409.676 242.903 409.71 243.16C409.821 244.008 409.548 244.823 409.294 245.609C409.229 245.811 409.159 246.019 409.101 246.222C408.694 247.605 408.605 249.063 408.842 250.485L408.392 250.56C408.338 250.236 408.3 249.911 408.278 249.583C408.199 248.406 408.329 247.224 408.662 246.092C408.724 245.882 408.793 245.671 408.86 245.466Z" fill="#892F1A"/>
<path d="M408.014 268.119C408.079 267.429 408.194 266.737 408.306 266.069C408.477 265.054 408.653 264.004 408.646 262.968C408.646 262.122 408.462 260.993 407.656 260.435L407.915 260.059C408.89 260.729 409.095 262.011 409.101 262.965C409.101 264.04 408.93 265.111 408.757 266.145C408.646 266.806 408.532 267.489 408.469 268.161C408.381 269.093 408.391 270.258 408.744 271.32L408.256 271.288C408.108 270.78 408.017 270.256 407.986 269.728C407.952 269.191 407.962 268.653 408.014 268.119Z" fill="#892F1A"/>
<path d="M404.755 266.243L405.192 266.375C404.741 267.895 404.649 269.499 404.924 271.06L404.454 271.029C404.399 270.691 404.36 270.349 404.337 270.008C404.251 268.738 404.392 267.463 404.755 266.243Z" fill="#892F1A"/>
</g>
<path d="M433.085 212.259C433.085 212.259 431.167 214.316 428.723 214.282C426.278 214.247 425.062 212.054 425.062 212.054C425.062 212.054 429.634 211.041 433.085 212.259Z" fill="#FE9F73"/>
<path d="M405.22 219.764L403.936 219.502C403.863 219.544 403.799 219.6 403.749 219.667C403.698 219.733 403.661 219.81 403.64 219.891C403.62 219.967 403.623 220.047 403.648 220.121C403.673 220.195 403.72 220.26 403.782 220.308L405.071 220.571C405.233 220.602 405.396 220.467 405.438 220.256C405.48 220.044 405.389 219.799 405.22 219.764Z" fill="#FE9F73"/>
<path d="M405.133 220.612L403.716 220.287C403.659 220.322 403.611 220.369 403.575 220.426C403.539 220.482 403.516 220.546 403.508 220.612C403.461 220.864 403.548 221.085 403.589 221.1L404.972 221.425C405.135 221.461 405.297 221.331 405.344 221.12C405.391 220.908 405.3 220.651 405.133 220.612Z" fill="#FE9F73"/>
<path d="M405.003 221.463L403.686 221.137C403.633 221.17 403.588 221.214 403.554 221.266C403.52 221.319 403.499 221.378 403.491 221.44C403.47 221.516 403.465 221.596 403.477 221.674C403.49 221.752 403.519 221.827 403.563 221.892L404.847 222.218C404.991 222.254 405.147 222.135 405.194 221.938C405.242 221.741 405.159 221.504 405.003 221.463Z" fill="#FE9F73"/>
<path d="M405.233 219.688L403.964 219.429C403.933 219.429 403.902 219.452 403.895 219.494C403.89 219.511 403.891 219.53 403.898 219.546C403.906 219.562 403.919 219.575 403.936 219.582L405.207 219.841C405.243 219.848 405.277 219.865 405.306 219.889C405.334 219.913 405.356 219.944 405.369 219.979C405.403 220.061 405.411 220.152 405.391 220.239C405.383 220.312 405.347 220.379 405.291 220.427C405.235 220.475 405.163 220.499 405.09 220.495L403.703 220.205C403.673 220.205 403.642 220.228 403.635 220.27C403.631 220.285 403.632 220.301 403.637 220.316C403.643 220.331 403.652 220.344 403.664 220.353H403.676L405.064 220.641C405.252 220.68 405.444 220.516 405.499 220.267C405.529 220.14 405.518 220.006 405.467 219.886C405.447 219.837 405.415 219.793 405.374 219.758C405.333 219.724 405.285 219.7 405.233 219.688Z" fill="#F07162"/>
<path d="M405.509 219.016L404.218 218.731C404.073 218.699 403.911 218.894 403.882 219.032C403.831 219.283 403.926 219.506 403.966 219.52L405.349 219.828C405.437 219.835 405.524 219.808 405.593 219.752C405.662 219.697 405.706 219.617 405.718 219.53C405.778 219.286 405.679 219.053 405.509 219.016Z" fill="#FE9F73"/>
<path d="M405.52 218.939L404.254 218.66C404.225 218.66 404.194 218.682 404.186 218.723C404.18 218.74 404.182 218.759 404.189 218.775C404.197 218.792 404.21 218.805 404.226 218.813L405.492 219.092C405.528 219.102 405.56 219.12 405.587 219.144C405.614 219.169 405.634 219.2 405.647 219.234C405.681 219.316 405.688 219.408 405.666 219.494C405.627 219.657 405.494 219.774 405.364 219.745L403.981 219.432C403.95 219.432 403.919 219.454 403.913 219.496C403.909 219.511 403.91 219.527 403.915 219.542C403.92 219.557 403.929 219.569 403.942 219.579C403.944 219.58 403.946 219.58 403.947 219.58C403.949 219.58 403.951 219.58 403.953 219.579L405.336 219.891C405.525 219.934 405.717 219.771 405.774 219.524C405.805 219.397 405.795 219.264 405.746 219.143C405.727 219.094 405.696 219.05 405.657 219.014C405.618 218.979 405.571 218.953 405.52 218.939Z" fill="#F07162"/>
<path d="M405.146 220.537L403.727 220.212C403.698 220.212 403.667 220.233 403.659 220.275C403.653 220.292 403.654 220.311 403.661 220.327C403.669 220.344 403.682 220.356 403.699 220.363L405.116 220.688C405.152 220.698 405.184 220.716 405.211 220.741C405.238 220.766 405.259 220.797 405.271 220.832C405.304 220.914 405.31 221.005 405.289 221.092C405.248 221.254 405.126 221.357 404.998 221.326L403.655 220.989C403.624 220.989 403.594 221.009 403.585 221.051C403.581 221.067 403.581 221.083 403.586 221.099C403.591 221.114 403.601 221.128 403.615 221.137H403.624L404.969 221.474C405.157 221.518 405.337 221.37 405.396 221.124C405.428 220.998 405.419 220.865 405.37 220.744C405.352 220.693 405.323 220.648 405.284 220.612C405.244 220.576 405.197 220.551 405.146 220.537Z" fill="#F07162"/>
<path d="M405.04 221.341L403.723 221.015C403.692 221.015 403.662 221.035 403.653 221.077C403.648 221.095 403.649 221.113 403.657 221.13C403.664 221.146 403.677 221.159 403.694 221.167L405.011 221.492C405.043 221.501 405.072 221.518 405.097 221.542C405.121 221.565 405.139 221.594 405.15 221.625C405.18 221.702 405.185 221.786 405.163 221.865C405.156 221.931 405.122 221.992 405.07 222.034C405.017 222.075 404.95 222.095 404.884 222.087L403.6 221.762C403.569 221.762 403.538 221.783 403.53 221.824C403.526 221.84 403.527 221.856 403.532 221.872C403.538 221.887 403.548 221.901 403.561 221.91H403.571L404.855 222.236C405.03 222.279 405.214 222.131 405.271 221.897C405.302 221.778 405.294 221.652 405.25 221.538C405.232 221.491 405.204 221.449 405.168 221.415C405.131 221.381 405.088 221.355 405.04 221.341Z" fill="#F07162"/>
<path d="M441.328 220.993C441.328 220.993 442.953 229.81 441.49 232.093C440.028 234.375 430.667 234.457 427.043 232.112L429.418 229.381L436.294 228.945L436.388 223.209C436.388 223.209 438.755 223.404 441.328 220.993Z" fill="#FE9F73"/>
<path d="M425.468 229.273C424.888 228.431 425.696 228.515 425.696 228.515C425.431 228.027 425.561 227.865 425.717 227.817C425.773 227.8 425.832 227.795 425.891 227.805C425.949 227.815 426.004 227.838 426.051 227.873C426.36 228.091 427.301 228.763 427.865 229.218C428.327 229.299 428.374 228.497 428.27 228.055C428.215 227.827 428.291 227.49 428.699 227.951C429.034 228.327 429.411 229.381 429.411 229.381L432 229.771L430.752 233.163C430.752 233.163 427.877 232.4 427.443 232.288C427.009 232.176 425.676 231.312 425.33 230.824C424.706 229.929 425.216 230.01 425.216 230.01C424.659 229.026 425.468 229.273 425.468 229.273Z" fill="#FE9F73"/>
<path d="M426.465 229.312C426.477 229.317 426.49 229.316 426.502 229.311C426.514 229.307 426.524 229.298 426.53 229.286C426.536 229.275 426.537 229.262 426.534 229.249C426.531 229.237 426.524 229.226 426.513 229.218C426.235 228.991 425.975 228.742 425.736 228.473C425.732 228.467 425.726 228.462 425.72 228.459C425.713 228.455 425.706 228.453 425.699 228.453C425.692 228.452 425.684 228.453 425.677 228.455C425.67 228.458 425.664 228.461 425.658 228.466C425.653 228.471 425.649 228.477 425.646 228.484C425.642 228.49 425.641 228.498 425.641 228.505C425.64 228.512 425.642 228.52 425.645 228.526C425.647 228.533 425.652 228.539 425.657 228.545C425.899 228.82 426.165 229.075 426.45 229.306L426.465 229.312Z" fill="#F07162"/>
<path d="M426.247 229.963C426.259 229.967 426.272 229.967 426.284 229.963C426.295 229.958 426.305 229.95 426.312 229.939C426.315 229.933 426.317 229.926 426.318 229.919C426.319 229.912 426.318 229.905 426.316 229.898C426.314 229.891 426.311 229.885 426.307 229.879C426.302 229.874 426.297 229.869 426.291 229.866C426 229.696 425.736 229.483 425.509 229.234C425.499 229.224 425.486 229.217 425.472 229.216C425.457 229.215 425.443 229.22 425.432 229.23C425.422 229.239 425.415 229.252 425.414 229.267C425.413 229.281 425.418 229.295 425.428 229.306C425.664 229.563 425.938 229.782 426.24 229.957L426.247 229.963Z" fill="#F07162"/>
<path d="M425.885 230.668C425.897 230.672 425.909 230.671 425.921 230.667C425.932 230.662 425.942 230.654 425.948 230.643C425.952 230.637 425.954 230.631 425.956 230.624C425.957 230.617 425.957 230.61 425.955 230.603C425.953 230.596 425.95 230.59 425.946 230.584C425.942 230.578 425.936 230.574 425.93 230.57C425.678 230.411 425.452 230.213 425.261 229.983C425.252 229.972 425.238 229.964 425.224 229.963C425.21 229.961 425.195 229.966 425.184 229.975C425.173 229.984 425.166 229.997 425.164 230.011C425.163 230.026 425.167 230.04 425.176 230.051C425.376 230.29 425.612 230.497 425.875 230.663L425.885 230.668Z" fill="#F07162"/>
<path d="M436.478 223.269C436.992 223.269 439.344 223.126 441.769 220.643L441.684 220.562C439.173 223.13 436.75 223.165 436.423 223.152L435.02 219.262L434.908 219.301L436.338 223.264H436.376L436.478 223.269Z" fill="#1D1D1B"/>
<path d="M437.065 230.092L437.161 230.022L436.345 228.925L436.439 223.208L436.321 223.207L436.227 228.964L437.065 230.092Z" fill="#1D1D1B"/>
<path d="M429.707 229.421L436.289 229.003V228.886L429.709 229.304L429.707 229.421Z" fill="#1D1D1B"/>
<path d="M426.933 239.305C427.759 239.305 428.558 239.269 429.301 239.214C431.609 239.035 433.899 238.672 436.15 238.13L436.194 238.119L436.266 233.804H436.152L436.084 238.034C435.271 238.236 423.585 241.046 418.693 237.058C418.712 236.873 418.8 235.846 418.844 232.727C418.916 227.783 420.252 216.904 420.265 216.795L420.147 216.781C420.134 216.89 418.797 227.775 418.727 232.724C418.677 236.196 418.574 237.066 418.564 237.074V237.107L418.589 237.128C420.669 238.838 423.962 239.305 426.933 239.305Z" fill="#1D1D1B"/>
<path d="M422.127 223.994L422.184 223.981L430.129 222.175L430.103 222.06L422.217 223.853L421.69 221.535L426.711 220.329L426.683 220.215L421.549 221.447L422.127 223.994Z" fill="#1D1D1B"/>
<path d="M425.518 223.161L425.402 223.187L426.26 226.979L426.375 226.953L425.518 223.161Z" fill="#1D1D1B"/>
<path d="M427.096 222.804L426.98 222.832L427.523 225.088L427.639 225.06L427.096 222.804Z" fill="#1D1D1B"/>
<path d="M380.178 168.501C380.178 168.501 377.93 167.4 375.85 167.993C375.263 168.164 374.744 168.514 374.366 168.994C373.987 169.474 373.767 170.06 373.737 170.671L373.672 171.896L380.108 169.541C380.108 169.541 381.083 170.064 381.005 169.918C380.927 169.772 380.178 168.501 380.178 168.501Z" fill="#FE9F73"/>
<path d="M373.739 170.535L373.465 175.695C373.465 175.695 373.291 177.535 374.89 177.851L374.458 180.291C374.378 180.732 374.455 181.187 374.674 181.577C374.894 181.967 375.242 182.269 375.66 182.429C376.145 182.611 376.654 182.717 377.17 182.745C379.012 182.842 380.083 181.513 380.273 180.83C380.463 180.146 380.179 176.818 380.179 176.818L380.32 175.191L380.445 168.89L373.739 170.535Z" fill="#FE9F73"/>
<path d="M378.06 173.204C378.075 173.205 378.09 173.202 378.103 173.194C378.116 173.186 378.127 173.175 378.133 173.162C378.14 173.148 378.143 173.133 378.141 173.118C378.138 173.103 378.132 173.089 378.122 173.077C378.112 173.066 377.114 171.929 376.108 172.654C376.1 172.66 376.093 172.668 376.088 172.676C376.082 172.685 376.079 172.694 376.077 172.704C376.076 172.714 376.076 172.725 376.078 172.734C376.08 172.744 376.085 172.754 376.09 172.762C376.096 172.77 376.104 172.777 376.112 172.782C376.121 172.788 376.13 172.791 376.14 172.793C376.15 172.795 376.161 172.794 376.17 172.792C376.18 172.79 376.19 172.786 376.198 172.78C377.09 172.129 377.969 173.134 378.005 173.178C378.019 173.194 378.039 173.203 378.06 173.204Z" fill="#21111D"/>
<path d="M374.922 172.575C374.933 172.576 374.944 172.574 374.954 172.57C374.965 172.566 374.974 172.56 374.982 172.552C374.989 172.545 374.995 172.536 374.999 172.527C375.003 172.518 375.005 172.508 375.005 172.498C375.005 172.487 375.003 172.477 374.999 172.468C374.995 172.459 374.989 172.45 374.982 172.443C374.953 172.414 374.254 171.748 373.77 172.118C373.762 172.124 373.755 172.132 373.75 172.14C373.745 172.149 373.742 172.159 373.741 172.169C373.74 172.179 373.74 172.189 373.743 172.198C373.746 172.208 373.75 172.217 373.757 172.225C373.763 172.233 373.77 172.24 373.779 172.245C373.788 172.25 373.797 172.253 373.807 172.255C373.817 172.256 373.827 172.255 373.837 172.253C373.847 172.25 373.856 172.246 373.864 172.24C374.242 171.948 374.87 172.544 374.876 172.55C374.888 172.564 374.904 172.573 374.922 172.575Z" fill="#21111D"/>
<path opacity="0.25" d="M376.493 173.432C376.49 173.478 376.501 173.524 376.524 173.563C376.548 173.602 376.582 173.634 376.624 173.654C376.665 173.674 376.711 173.681 376.756 173.674C376.802 173.668 376.844 173.648 376.878 173.617C376.912 173.587 376.936 173.547 376.948 173.502C376.959 173.458 376.957 173.411 376.941 173.368C376.926 173.325 376.898 173.287 376.862 173.26C376.825 173.232 376.781 173.216 376.735 173.214C376.705 173.212 376.675 173.217 376.646 173.227C376.617 173.237 376.591 173.252 376.568 173.273C376.546 173.293 376.527 173.317 376.514 173.345C376.501 173.372 376.494 173.402 376.493 173.432Z" fill="black"/>
<path opacity="0.25" d="M374.066 173.071C374.062 173.103 374.065 173.135 374.074 173.165C374.083 173.195 374.098 173.224 374.119 173.248C374.139 173.272 374.164 173.292 374.193 173.306C374.221 173.32 374.252 173.328 374.283 173.33C374.315 173.331 374.347 173.327 374.376 173.316C374.406 173.305 374.433 173.288 374.456 173.266C374.479 173.244 374.497 173.217 374.509 173.188C374.521 173.159 374.527 173.127 374.527 173.096C374.526 173.037 374.503 172.981 374.462 172.938C374.422 172.896 374.367 172.871 374.308 172.868C374.249 172.864 374.192 172.884 374.147 172.922C374.102 172.959 374.073 173.013 374.066 173.071Z" fill="black"/>
<path d="M380.181 168.42C380.181 168.42 382.132 168.431 382.541 170.164C382.951 171.896 382.054 172.755 382.01 173.255C381.966 173.754 382.129 177.213 379.735 176.834L379.387 171.14L380.344 168.927L380.181 168.42Z" fill="#21111D"/>
<path d="M378.398 173.453C378.384 173.726 378.451 173.997 378.59 174.233C378.73 174.468 378.936 174.656 379.182 174.774C379.429 174.892 379.704 174.935 379.975 174.896C380.245 174.858 380.498 174.74 380.702 174.558C380.905 174.375 381.05 174.137 381.119 173.872C381.187 173.607 381.176 173.328 381.086 173.07C380.996 172.812 380.832 172.586 380.614 172.421C380.396 172.256 380.134 172.16 379.861 172.144C379.679 172.133 379.497 172.158 379.324 172.218C379.152 172.278 378.993 172.372 378.858 172.494C378.722 172.615 378.611 172.763 378.532 172.928C378.453 173.092 378.408 173.271 378.398 173.453Z" fill="#FE9F73"/>
<path d="M379.84 174.38C379.965 174.383 380.087 174.345 380.189 174.273C380.291 174.2 380.366 174.096 380.404 173.977C380.451 173.864 380.459 173.738 380.426 173.619C380.392 173.501 380.32 173.398 380.22 173.326C380.114 173.251 379.988 173.21 379.858 173.208C379.729 173.206 379.601 173.242 379.492 173.313C379.549 173.172 379.655 173.057 379.79 172.988C379.988 172.913 380.207 172.913 380.406 172.988C380.41 172.99 380.415 172.991 380.421 172.991C380.426 172.991 380.431 172.99 380.435 172.987C380.44 172.985 380.444 172.982 380.447 172.978C380.451 172.974 380.453 172.97 380.454 172.965C380.456 172.96 380.457 172.955 380.457 172.951C380.457 172.946 380.456 172.941 380.454 172.936C380.452 172.932 380.449 172.928 380.446 172.924C380.442 172.921 380.438 172.918 380.433 172.916C380.215 172.833 379.974 172.836 379.757 172.924C379.663 172.974 379.581 173.043 379.515 173.127C379.45 173.212 379.403 173.309 379.379 173.412L379.338 173.544L379.44 173.451C379.54 173.362 379.666 173.308 379.799 173.299C379.933 173.289 380.065 173.324 380.177 173.398C380.26 173.46 380.32 173.548 380.348 173.649C380.376 173.749 380.37 173.856 380.331 173.952C380.301 174.057 380.236 174.149 380.148 174.212C380.059 174.276 379.952 174.308 379.843 174.304H379.835C379.83 174.304 379.825 174.304 379.821 174.306C379.816 174.308 379.812 174.31 379.808 174.314C379.805 174.317 379.802 174.321 379.8 174.325C379.798 174.33 379.796 174.335 379.796 174.34C379.796 174.35 379.799 174.36 379.806 174.367C379.813 174.375 379.822 174.38 379.832 174.38H379.84Z" fill="#F07162"/>
<path d="M378.712 176.484C378.712 176.484 378.441 179.564 374.574 179.653L374.899 177.851C374.899 177.851 377.363 178.487 378.712 176.484Z" fill="#F07162"/>
<path d="M375.599 174.943C375.608 174.946 375.619 174.944 375.627 174.938C375.635 174.933 375.641 174.925 375.643 174.915C375.646 174.905 375.644 174.895 375.638 174.887C375.633 174.878 375.625 174.872 375.615 174.87L374.859 174.574L375.199 172.775C375.2 172.765 375.198 172.754 375.192 172.746C375.187 172.738 375.178 172.732 375.168 172.729C375.163 172.728 375.158 172.728 375.153 172.729C375.148 172.73 375.143 172.732 375.139 172.735C375.134 172.738 375.131 172.741 375.128 172.746C375.125 172.75 375.123 172.755 375.123 172.76L374.771 174.623L375.584 174.948L375.599 174.943Z" fill="#F07162"/>
<path d="M380.217 177.255L380.087 174.639L379.439 174.677L379.301 177.281L380.217 177.255Z" fill="#FE9F73"/>
<path d="M379.826 168.35C379.826 168.35 380.221 169.453 379.384 171.214C378.547 172.976 381.321 170.645 381.321 170.645C381.321 170.645 381.277 167.998 379.826 168.35Z" fill="#21111D"/>
<path d="M379.381 171.214C379.381 171.214 373.53 170.554 373.244 169.16C372.958 167.765 374.336 167.801 374.336 167.801C374.336 167.801 374.174 165.833 375.924 166.5C377.675 167.167 380.953 167.273 381.788 168.966C382.624 170.66 379.381 171.214 379.381 171.214Z" fill="#21111D"/>
<path d="M379.453 172.209L379.143 173.266L378.904 172.941C378.904 172.941 378.485 171.376 378.87 170.655C379.255 169.934 380.586 171.07 380.586 171.07L379.453 172.209Z" fill="#21111D"/>
<path d="M374.553 175.537C374.577 175.537 376.165 175.479 376.165 175.479C376.165 175.479 375.972 176.137 375.383 176.16C374.795 176.183 374.553 175.537 374.553 175.537Z" fill="#FBFDFC"/>
<path d="M381.334 271.325L386.992 271.403L387.071 266.062L381.436 265.358L381.334 271.325Z" fill="#FE9F73"/>
<path d="M368.527 271.325L374.185 271.403L374.266 266.062L368.631 265.358L368.527 271.325Z" fill="#FE9F73"/>
<path d="M387.083 272.082H382.194L380.213 269.866L376.59 272.082H375.81C375.677 272.081 375.547 272.126 375.444 272.21C375.34 272.293 375.269 272.41 375.242 272.541C375.225 272.623 375.227 272.707 375.246 272.789C375.265 272.87 375.303 272.946 375.355 273.011C375.407 273.076 375.473 273.129 375.548 273.166C375.623 273.203 375.705 273.223 375.788 273.224H387.149C387.17 273.224 387.191 273.22 387.21 273.212C387.229 273.203 387.246 273.191 387.26 273.176C387.275 273.161 387.285 273.143 387.292 273.123C387.299 273.103 387.302 273.082 387.3 273.061V272.302C387.299 272.244 387.276 272.189 387.235 272.148C387.195 272.107 387.14 272.084 387.083 272.082Z" fill="#0CAAA5"/>
<path d="M387.038 272.088V270.029C387.038 270.029 386.214 268.89 384.963 269.472C384.963 269.472 383.068 270.853 381.397 269.183L377.248 271.071C377.248 271.071 376.11 271.462 375.803 272.088H387.038Z" fill="#06FFFD"/>
<path opacity="0.25" d="M387.079 270.029H386.996V272.079H387.079V270.029Z" fill="black"/>
<path opacity="0.25" d="M383.264 270.051C383.178 270.053 383.092 270.048 383.006 270.037L383.019 269.952C383.7 270.014 384.38 269.831 384.938 269.437L384.985 269.508C384.481 269.861 383.88 270.05 383.264 270.051Z" fill="black"/>
<path opacity="0.25" d="M386.026 271.704L385.98 271.633L386.51 271.267L386.557 271.337L386.026 271.704Z" fill="black"/>
<path opacity="0.25" d="M385.649 271.6L385.602 271.53L386.131 271.163L386.179 271.233L385.649 271.6Z" fill="black"/>
<path opacity="0.25" d="M375.403 273.125C375.336 273.067 375.283 272.995 375.247 272.914C375.21 272.834 375.191 272.746 375.191 272.658C375.19 272.497 375.252 272.342 375.364 272.227C375.476 272.112 375.629 272.046 375.79 272.043H387.024C387.11 272.043 387.193 272.077 387.254 272.138C387.314 272.199 387.349 272.282 387.349 272.368V272.938H387.266V272.368C387.266 272.337 387.26 272.305 387.249 272.276C387.237 272.247 387.22 272.22 387.198 272.197C387.176 272.174 387.149 272.156 387.12 272.144C387.091 272.131 387.06 272.125 387.029 272.124H375.794C375.726 272.125 375.658 272.14 375.595 272.167C375.532 272.194 375.475 272.233 375.427 272.282C375.38 272.331 375.342 272.389 375.316 272.453C375.291 272.516 375.278 272.584 375.279 272.653C375.279 272.729 375.295 272.804 375.327 272.874C375.358 272.943 375.404 273.005 375.461 273.055L375.403 273.125Z" fill="black"/>
<path opacity="0.25" d="M375.827 272.1L375.752 272.062C375.752 272.043 375.989 271.565 376.838 271.192C377.686 270.819 381.343 269.155 381.379 269.139L381.413 269.217C381.376 269.233 377.706 270.906 376.87 271.27C376.035 271.635 375.828 272.1 375.827 272.1Z" fill="black"/>
<path d="M374.214 272.082H369.329L367.347 269.866L363.724 272.082H362.944C362.811 272.081 362.682 272.126 362.579 272.21C362.475 272.293 362.404 272.41 362.377 272.541C362.36 272.623 362.361 272.707 362.381 272.789C362.4 272.87 362.437 272.946 362.49 273.011C362.542 273.076 362.608 273.129 362.683 273.166C362.758 273.203 362.84 273.223 362.923 273.224H374.284C374.305 273.224 374.326 273.22 374.345 273.212C374.364 273.203 374.381 273.191 374.395 273.176C374.409 273.161 374.42 273.143 374.427 273.123C374.434 273.103 374.437 273.082 374.435 273.061V272.302C374.434 272.244 374.41 272.188 374.369 272.147C374.328 272.106 374.272 272.083 374.214 272.082Z" fill="#0CAAA5"/>
<path d="M374.173 272.088V270.029C374.173 270.029 373.349 268.89 372.098 269.472C372.098 269.472 370.203 270.853 368.532 269.183L364.382 271.071C364.382 271.071 363.245 271.462 362.938 272.088H374.173Z" fill="#06FFFD"/>
<path opacity="0.25" d="M374.214 270.029H374.131V272.079H374.214V270.029Z" fill="black"/>
<path opacity="0.25" d="M370.399 270.051C370.313 270.053 370.226 270.048 370.141 270.037L370.154 269.952C370.834 270.014 371.515 269.831 372.073 269.437L372.12 269.508C371.615 269.861 371.015 270.05 370.399 270.051Z" fill="black"/>
<path opacity="0.25" d="M373.163 271.704L373.117 271.633L373.647 271.267L373.693 271.337L373.163 271.704Z" fill="black"/>
<path opacity="0.25" d="M372.783 271.6L372.736 271.53L373.266 271.163L373.313 271.233L372.783 271.6Z" fill="black"/>
<path opacity="0.25" d="M362.539 273.125C362.473 273.067 362.42 272.995 362.383 272.914C362.347 272.834 362.328 272.746 362.328 272.658C362.326 272.497 362.388 272.342 362.5 272.227C362.613 272.112 362.766 272.046 362.926 272.043H374.16C374.247 272.043 374.329 272.077 374.39 272.138C374.451 272.199 374.485 272.282 374.485 272.368V272.938H374.393V272.368C374.393 272.337 374.387 272.305 374.376 272.276C374.364 272.247 374.347 272.22 374.325 272.197C374.303 272.174 374.276 272.156 374.247 272.144C374.218 272.131 374.187 272.125 374.155 272.124H362.921C362.853 272.125 362.785 272.14 362.722 272.167C362.659 272.194 362.602 272.233 362.554 272.282C362.507 272.331 362.469 272.389 362.443 272.453C362.418 272.516 362.405 272.584 362.406 272.653C362.406 272.729 362.422 272.804 362.454 272.874C362.485 272.943 362.531 273.005 362.588 273.055L362.539 273.125Z" fill="black"/>
<path opacity="0.25" d="M362.963 272.1L362.889 272.062C362.897 272.043 363.124 271.565 363.974 271.192C364.824 270.819 368.48 269.155 368.515 269.139L368.55 269.217C368.512 269.233 364.842 270.906 363.999 271.27C363.155 271.635 362.965 272.1 362.963 272.1Z" fill="black"/>
<path d="M348.281 208.129L348.128 208.064C347.803 208.186 347.125 208.389 346.352 208.671C346.547 209.338 346.677 209.858 346.605 209.893L346.667 210.032C346.681 210.067 346.681 210.106 346.667 210.141C346.945 210.792 347.317 211.606 347.585 212.32C347.775 212.821 347.772 213.311 348.271 213.441C348.56 213.517 349.828 213.115 350.267 212.938L353.3 212.021C352.937 211.153 352.533 206.897 352.336 206.814L348.281 208.129Z" fill="#FE9F73"/>
<path d="M372.961 197.67C372.961 197.67 371.082 205.007 369.93 206.593C368.778 208.179 352.655 212.22 352.655 212.22L351.301 207.267L363.877 201.849L366.125 194.7L372.961 197.67Z" fill="#FE9F73"/>
<path d="M355.696 223.651L343.703 193.515L341.044 194.576L353.037 224.711L355.696 223.651Z" fill="#F9B870"/>
<path d="M349.592 208.361L348.594 205.856C348.594 205.856 347.432 206.445 348.431 208.823C349.338 211.241 350.586 210.868 350.586 210.868L349.592 208.361Z" fill="#4E6475"/>
<path d="M343.401 196.674C343.278 196.723 343.142 196.734 343.012 196.706C342.882 196.678 342.763 196.613 342.671 196.517C342.578 196.421 342.516 196.301 342.492 196.17C342.468 196.039 342.483 195.903 342.535 195.781C342.588 195.659 342.676 195.555 342.788 195.483C342.899 195.41 343.03 195.372 343.163 195.374C343.296 195.376 343.425 195.418 343.535 195.493C343.644 195.569 343.729 195.675 343.778 195.799C343.844 195.965 343.841 196.15 343.771 196.314C343.7 196.478 343.567 196.608 343.401 196.674Z" fill="#4E6475"/>
<path d="M354.03 223.384C353.906 223.433 353.771 223.444 353.641 223.416C353.511 223.388 353.392 223.322 353.299 223.227C353.207 223.131 353.145 223.011 353.12 222.88C353.096 222.749 353.112 222.614 353.164 222.491C353.217 222.369 353.304 222.265 353.416 222.193C353.527 222.12 353.658 222.083 353.791 222.084C353.924 222.086 354.053 222.127 354.163 222.202C354.272 222.278 354.357 222.384 354.407 222.507C354.473 222.674 354.47 222.859 354.4 223.024C354.329 223.188 354.196 223.318 354.03 223.384Z" fill="#4E6475"/>
<path d="M350.396 211C349.973 211 349.043 210.761 348.33 208.863C347.304 206.422 348.492 205.784 348.546 205.758L348.653 205.703L350.737 210.94L350.621 210.974C350.548 210.993 350.472 211.001 350.396 211ZM348.549 206.025C348.305 206.233 347.766 206.943 348.539 208.781C349.242 210.652 350.121 210.795 350.441 210.781L348.549 206.025Z" fill="#223749"/>
<path d="M343.154 196.832C343.012 196.832 342.872 196.793 342.75 196.72C342.628 196.647 342.528 196.542 342.461 196.416C342.394 196.29 342.363 196.148 342.37 196.006C342.378 195.863 342.424 195.726 342.504 195.608C342.584 195.49 342.694 195.396 342.823 195.336C342.953 195.276 343.096 195.253 343.237 195.268C343.379 195.283 343.514 195.337 343.627 195.424C343.74 195.51 343.828 195.626 343.881 195.758C343.957 195.951 343.955 196.167 343.873 196.358C343.791 196.549 343.636 196.699 343.443 196.776C343.351 196.813 343.253 196.832 343.154 196.832ZM343.154 195.483C343.082 195.483 343.011 195.497 342.944 195.524C342.858 195.558 342.782 195.613 342.722 195.684C342.662 195.755 342.62 195.84 342.601 195.931C342.581 196.021 342.585 196.116 342.61 196.205C342.636 196.294 342.684 196.376 342.748 196.442C342.813 196.509 342.893 196.558 342.982 196.587C343.07 196.615 343.164 196.62 343.256 196.603C343.347 196.586 343.432 196.547 343.505 196.489C343.577 196.431 343.634 196.356 343.671 196.27C343.699 196.202 343.714 196.129 343.714 196.055C343.714 195.981 343.699 195.908 343.671 195.839C343.63 195.734 343.558 195.644 343.464 195.58C343.371 195.517 343.26 195.483 343.148 195.483H343.154Z" fill="#223749"/>
<path d="M353.781 223.542C353.599 223.543 353.422 223.479 353.281 223.363C353.141 223.247 353.045 223.085 353.01 222.906C352.976 222.727 353.005 222.541 353.093 222.381C353.18 222.221 353.321 222.096 353.49 222.029C353.684 221.952 353.901 221.955 354.093 222.038C354.284 222.121 354.435 222.277 354.512 222.471C354.589 222.665 354.586 222.882 354.503 223.074C354.42 223.265 354.265 223.416 354.071 223.493C353.978 223.528 353.88 223.544 353.781 223.542ZM353.781 222.193C353.71 222.193 353.639 222.207 353.572 222.232C353.503 222.26 353.44 222.301 353.387 222.352C353.334 222.404 353.292 222.466 353.262 222.534C353.233 222.602 353.217 222.675 353.216 222.75C353.215 222.824 353.229 222.897 353.256 222.966C353.284 223.035 353.325 223.098 353.376 223.151C353.428 223.204 353.49 223.247 353.558 223.276C353.626 223.305 353.699 223.321 353.773 223.322C353.847 223.323 353.921 223.309 353.989 223.282C354.058 223.255 354.121 223.214 354.174 223.163C354.227 223.111 354.269 223.049 354.298 222.981C354.336 222.895 354.351 222.801 354.343 222.708C354.335 222.615 354.304 222.525 354.253 222.447C354.201 222.369 354.131 222.305 354.049 222.261C353.967 222.216 353.875 222.193 353.781 222.193Z" fill="#223749"/>
<path d="M352.957 224.85L352.916 224.747L340.889 194.508L343.751 193.369L343.791 193.472L355.819 223.709L352.957 224.85ZM341.168 194.632L353.078 224.567L355.533 223.591L343.622 193.656L341.168 194.632Z" fill="#223749"/>
<path d="M350.789 208.314C351.01 208.659 350.999 209.043 350.942 209.081L349.06 210.338C348.852 210.477 348.536 210.387 348.338 210.109C348.112 209.784 348.125 209.387 348.358 209.232L350.115 208.059C350.311 207.929 350.662 208.114 350.789 208.314Z" fill="#FE9F73"/>
<path d="M346.531 210.639C346.671 211.005 346.979 211.101 347.041 211.08L348.948 210.429C349.178 210.35 349.292 210.044 349.188 209.725C349.076 209.377 348.769 209.16 348.519 209.246L346.62 209.897C346.556 210.008 346.514 210.131 346.499 210.259C346.484 210.387 346.494 210.516 346.531 210.639Z" fill="#FE9F73"/>
<path d="M346.922 211.697C347.057 212.066 347.343 212.292 347.41 212.273L349.486 211.622C349.718 211.549 349.837 211.246 349.737 210.927C349.63 210.577 349.325 210.355 349.073 210.439L346.945 211.109C346.898 211.199 346.872 211.299 346.868 211.4C346.864 211.502 346.882 211.603 346.922 211.697Z" fill="#FE9F73"/>
<path d="M347.537 212.8C347.657 213.144 347.924 213.359 347.982 213.341L349.933 212.762C350.151 212.697 350.258 212.419 350.175 212.121C350.077 211.796 349.793 211.583 349.557 211.654L347.565 212.246C347.518 212.33 347.492 212.424 347.487 212.52C347.482 212.616 347.499 212.711 347.537 212.8Z" fill="#FE9F73"/>
<path d="M346.914 211.236C346.89 211.234 346.867 211.224 346.848 211.208C346.829 211.193 346.815 211.172 346.809 211.148C346.796 211.125 346.793 211.097 346.801 211.071C346.809 211.045 346.826 211.023 346.849 211.01L348.908 210.314C349.1 210.247 349.188 209.988 349.105 209.741C349.064 209.611 348.984 209.498 348.876 209.416C348.832 209.381 348.781 209.357 348.727 209.346C348.672 209.335 348.616 209.338 348.562 209.354L346.682 210.005C346.638 210.019 346.583 209.982 346.56 209.922C346.537 209.862 346.56 209.798 346.599 209.783L348.479 209.133C348.557 209.11 348.64 209.106 348.72 209.122C348.799 209.138 348.874 209.173 348.938 209.224C349.097 209.343 349.215 209.51 349.274 209.7C349.394 210.073 349.274 210.441 348.991 210.537L346.932 211.233C346.926 211.235 346.92 211.236 346.914 211.236Z" fill="#F07162"/>
<path d="M346.182 209.316C346.311 209.687 346.606 209.908 346.67 209.887L348.735 209.215C348.963 209.141 349.083 208.849 348.992 208.535C348.888 208.176 348.575 207.945 348.319 208.029L346.392 208.656C346.176 208.726 346.111 209.102 346.182 209.316Z" fill="#FE9F73"/>
<path d="M346.689 209.991C346.665 209.989 346.642 209.979 346.623 209.964C346.604 209.948 346.591 209.927 346.585 209.904C346.562 209.842 346.585 209.782 346.627 209.767L348.698 209.103C348.891 209.04 348.982 208.791 348.901 208.535C348.861 208.406 348.782 208.292 348.675 208.21C348.631 208.175 348.58 208.15 348.525 208.138C348.47 208.127 348.414 208.128 348.36 208.143L346.469 208.758C346.424 208.773 346.368 208.736 346.346 208.674C346.34 208.662 346.336 208.649 346.334 208.636C346.333 208.623 346.335 208.609 346.338 208.597C346.342 208.584 346.349 208.572 346.357 208.562C346.366 208.552 346.376 208.543 346.388 208.537L348.278 207.92C348.357 207.9 348.44 207.898 348.52 207.915C348.6 207.932 348.675 207.968 348.738 208.02C348.896 208.143 349.01 208.314 349.063 208.508C349.182 208.88 349.054 209.243 348.772 209.336L346.7 209.998C346.696 209.997 346.692 209.994 346.689 209.991Z" fill="#F07162"/>
<path d="M347.467 212.303C347.442 212.301 347.419 212.291 347.4 212.275C347.381 212.259 347.368 212.238 347.361 212.214C347.349 212.19 347.347 212.162 347.355 212.136C347.364 212.111 347.382 212.09 347.405 212.077L349.442 211.478C349.638 211.417 349.721 211.195 349.643 210.942C349.604 210.812 349.525 210.698 349.417 210.616C349.375 210.58 349.324 210.555 349.269 210.543C349.215 210.531 349.158 210.532 349.104 210.546L346.975 211.218C346.931 211.233 346.875 211.194 346.853 211.132C346.83 211.07 346.853 211.01 346.895 210.995L349.024 210.323C349.103 210.303 349.186 210.302 349.266 210.32C349.346 210.338 349.421 210.374 349.484 210.426C349.642 210.55 349.755 210.721 349.809 210.914C349.925 211.286 349.801 211.622 349.518 211.711L347.48 212.311L347.467 212.303Z" fill="#F07162"/>
<path d="M347.997 213.369C347.972 213.366 347.948 213.357 347.929 213.341C347.91 213.325 347.896 213.303 347.889 213.279C347.868 213.218 347.889 213.156 347.933 213.143L349.884 212.564C350.063 212.51 350.149 212.285 350.079 212.051C350.045 211.931 349.974 211.824 349.876 211.747C349.836 211.713 349.79 211.69 349.74 211.678C349.69 211.666 349.638 211.666 349.588 211.678L347.594 212.271C347.548 212.285 347.493 212.246 347.472 212.184C347.46 212.16 347.458 212.133 347.466 212.107C347.474 212.082 347.492 212.06 347.516 212.048L349.51 211.454C349.585 211.437 349.663 211.437 349.738 211.455C349.813 211.473 349.883 211.508 349.942 211.558C350.091 211.675 350.198 211.835 350.249 212.017C350.355 212.368 350.228 212.707 349.962 212.786L348.011 213.366L347.997 213.369Z" fill="#F07162"/>
<path d="M351.527 208.884L349.858 209.775L349.057 210.218L348.759 210.216L348.392 209.84L348.35 209.308L348.683 208.94L350.206 207.722L351.66 208.164L351.527 208.884Z" fill="#FE9F73"/>
<path d="M351.327 209.169C351.339 209.146 351.344 209.121 351.341 209.096C351.338 209.071 351.328 209.047 351.311 209.029C351.305 209.016 351.296 209.005 351.285 208.997C351.274 208.988 351.262 208.981 351.249 208.977C351.235 208.973 351.221 208.971 351.208 208.973C351.194 208.974 351.18 208.978 351.168 208.985L349.185 210.075C349.023 210.205 348.751 210.138 348.577 209.922C348.488 209.811 348.434 209.675 348.425 209.533C348.419 209.475 348.427 209.416 348.449 209.362C348.471 209.308 348.505 209.26 348.55 209.222L350.175 207.945C350.196 207.923 350.208 207.894 350.208 207.864C350.208 207.833 350.196 207.804 350.175 207.782C350.168 207.77 350.16 207.759 350.149 207.75C350.138 207.741 350.126 207.735 350.113 207.731C350.099 207.727 350.085 207.725 350.071 207.727C350.058 207.728 350.044 207.732 350.032 207.738L348.407 209.016C348.343 209.072 348.293 209.143 348.262 209.222C348.23 209.301 348.217 209.386 348.225 209.471C348.237 209.679 348.315 209.878 348.447 210.039C348.701 210.364 349.097 210.457 349.331 210.267L351.314 209.177C351.319 209.175 351.324 209.172 351.327 209.169Z" fill="#F07162"/>
<path d="M378.525 211.057C378.525 211.057 377.774 246.483 375.191 266.928C375.191 266.928 371.749 268.012 367.422 265.986L367.24 213.773L367.299 210.193L367.385 205.866L378.525 211.057Z" fill="#06FFFD"/>
<path d="M387.607 211.399C387.607 211.399 389.12 246.322 387.428 266.899C387.428 266.899 384.213 268.927 379.804 267.172L374.473 216.999L372.209 203.573L387.607 211.399Z" fill="#06FFFD"/>
<path opacity="0.25" d="M383.061 267.962C384.583 267.948 386.086 267.622 387.478 267.006L387.532 266.98L387.543 266.921C388.991 259.071 388.067 220.392 388.057 220.002C388.056 219.97 388.044 219.941 388.022 219.919C387.999 219.897 387.969 219.885 387.938 219.885C387.907 219.886 387.877 219.899 387.855 219.923C387.833 219.946 387.822 219.977 387.823 220.008C387.832 220.395 388.751 258.855 387.322 266.817C386.835 267.037 383.204 268.586 379.846 267.063C379.817 267.05 379.784 267.049 379.754 267.06C379.725 267.071 379.701 267.094 379.688 267.123C379.675 267.152 379.674 267.185 379.686 267.214C379.697 267.244 379.719 267.268 379.748 267.281C380.791 267.743 381.92 267.976 383.061 267.962Z" fill="black"/>
<path d="M388.92 183.192C388.908 183.192 388.895 183.189 388.884 183.183C388.873 183.177 388.863 183.169 388.855 183.159C388.073 182.116 386.797 181.695 386.784 181.695C386.774 181.692 386.765 181.687 386.757 181.68C386.749 181.673 386.742 181.665 386.737 181.655C386.733 181.646 386.73 181.636 386.729 181.625C386.728 181.615 386.729 181.604 386.732 181.594C386.739 181.574 386.754 181.557 386.773 181.547C386.792 181.537 386.814 181.535 386.835 181.542C386.889 181.558 388.172 181.985 388.985 183.068C388.998 183.086 389.003 183.107 389 183.128C388.997 183.15 388.986 183.169 388.969 183.182C388.954 183.19 388.937 183.194 388.92 183.192Z" fill="#21111D"/>
<path d="M388.77 183.942C388.757 183.941 388.745 183.938 388.733 183.933C388.722 183.927 388.712 183.919 388.705 183.909C387.925 182.866 386.647 182.445 386.634 182.445C386.613 182.438 386.595 182.423 386.584 182.403C386.574 182.383 386.571 182.36 386.578 182.338C386.585 182.317 386.6 182.299 386.62 182.288C386.64 182.278 386.663 182.275 386.684 182.282C386.738 182.3 388.022 182.725 388.835 183.81C388.847 183.827 388.853 183.849 388.85 183.87C388.846 183.891 388.835 183.91 388.818 183.924C388.804 183.934 388.787 183.94 388.77 183.942Z" fill="#21111D"/>
<path d="M384.739 180.008H384.641L382.658 179.992C380.758 179.933 378.91 179.959 378.816 179.958C378.816 179.958 369.853 180.244 368.414 181.24C367.602 181.661 365.903 182.733 365.547 184.427C365.365 185.29 364.167 194.198 363.922 199.625L367.533 199.967C367.434 209.017 367.472 217.944 367.472 217.944C371.115 219.221 373.16 218.373 373.16 218.373C373.238 217.817 373.323 216.909 373.394 215.72H378.733C378.795 217.846 378.837 219.146 378.837 219.146C381.81 220.511 387.939 219.146 387.939 219.146L387.893 210.864L387.939 193.592C389.067 195.363 390.231 197.203 391.152 198.681L391.737 198.398C393.462 197.564 396.55 196.056 398.957 194.207C399.153 194.056 399.347 193.903 399.532 193.749C392.521 181.285 386.639 180.047 384.739 180.008Z" fill="white"/>
<path d="M367.254 218.443C367.254 218.443 367.116 187.474 368.928 180.957L370.086 180.662C370.086 180.662 369.761 191.434 369.761 193.352C369.761 195.27 383.098 194.44 383.511 194.201C383.923 193.962 384.027 179.917 384.027 179.917C384.027 179.917 384.294 179.876 385.193 180.042C385.193 180.042 385.518 198.761 385.697 200.845C385.875 202.929 387.953 204.372 387.953 204.372L387.901 223.427L382.41 224.67L367.254 218.443Z" fill="#06FFFD"/>
<g style="mix-blend-mode:multiply" opacity="0.5">
<path d="M371.295 196.241C371.295 196.241 374.888 196.872 381.064 196.643C381.064 196.643 380.461 201.247 375.619 200.806C370.955 200.38 371.295 196.241 371.295 196.241Z" fill="#223749"/>
</g>
<path opacity="0.25" d="M388.083 193.558L387.848 193.559L387.891 210.195L388.127 210.195L388.083 193.558Z" fill="black"/>
<path d="M373.416 180.288C373.416 180.288 373.772 182.759 377.086 182.879C380.4 183 381.702 179.967 381.702 179.967C381.702 179.967 377.367 179.456 373.416 180.288Z" fill="#FE9F73"/>
<path opacity="0.25" d="M379.734 267.076L374.683 218.777L372.064 216.1L372.232 215.936L374.907 218.671L374.912 218.712L379.968 267.051L379.734 267.076Z" fill="black"/>
<path opacity="0.25" d="M373.049 267.188C371.513 267.188 369.374 266.984 367.373 266.093L367.469 265.878C370.772 267.342 374.458 266.911 375.08 266.825L377.193 242.747L377.427 242.768L375.3 267.03L375.21 267.045C374.494 267.146 373.772 267.194 373.049 267.188Z" fill="black"/>
<path opacity="0.25" d="M367.253 245.014C367.253 244.913 367.196 234.846 367.188 232.309C367.18 229.773 367.152 212.764 367.15 212.593C367.163 209.516 367.464 196.306 367.709 190.866C367.867 187.538 368.236 184.223 368.815 180.942L368.829 180.869L370.06 180.556L370.117 180.784L369.033 181.06C368.464 184.309 368.1 187.59 367.944 190.884C367.698 196.322 367.399 209.526 367.386 212.601C367.386 212.764 367.414 229.781 367.423 232.317C367.433 234.854 367.487 244.919 367.487 245.02L367.253 245.014Z" fill="black"/>
<path opacity="0.25" d="M375.46 194.717C372.609 194.717 371.002 194.333 370.14 193.996C369.534 193.758 369.627 192.963 369.64 192.867L369.815 185.811H370.051L369.874 192.888C369.874 192.888 369.771 193.591 370.226 193.77C371.138 194.126 372.91 194.538 376.172 194.468V194.704C375.929 194.715 375.691 194.717 375.46 194.717Z" fill="black"/>
<path opacity="0.25" d="M380.67 183.415L380.516 183.594L381.657 184.586L381.811 184.407L380.67 183.415Z" fill="black"/>
<path opacity="0.25" d="M383.529 183.058L383.373 183.237L384.522 184.235L384.677 184.056L383.529 183.058Z" fill="black"/>
<path opacity="0.25" d="M396.368 191.619L396.139 193.115L396.372 193.15L396.601 191.655L396.368 191.619Z" fill="black"/>
<path opacity="0.25" d="M395.703 191.99L395.473 193.486L395.706 193.522L395.936 192.026L395.703 191.99Z" fill="black"/>
<path opacity="0.25" d="M387.883 204.473C385.534 202.814 385.552 200.583 385.554 200.489L385.412 196.246L385.074 180.05H385.31L385.646 196.244L385.789 200.494C385.789 200.521 385.776 202.702 388.019 204.286L387.883 204.473Z" fill="black"/>
<path opacity="0.25" d="M367.529 200.082L363.801 199.731L363.812 199.613C363.863 199.028 365.08 185.259 365.571 183.938C366.062 182.617 367.281 181.81 367.333 181.778L367.459 181.976C367.446 181.976 366.263 182.751 365.792 184.02C365.335 185.25 364.178 198.148 364.056 199.517L367.552 199.843L367.529 200.082Z" fill="black"/>
<path d="M388.938 219.21L387.865 217.313L386.439 214.788C386.439 214.788 387.031 213.66 387.865 212.059C389.744 208.461 392.851 202.47 393.219 201.55C393.35 201.224 392.702 199.998 391.691 198.397C393.427 197.562 396.536 196.054 398.961 194.206C399.166 194.564 399.357 194.935 399.539 195.323C400.425 197.23 401.083 199.189 401.287 201.14C401.8 206.059 391.348 216.865 388.938 219.21Z" fill="#FE9F73"/>
<path d="M382.478 221.476C381.083 221.661 381.691 220.722 381.691 220.722C380.932 220.745 380.815 220.483 380.849 220.262C380.862 220.182 380.894 220.106 380.942 220.041C380.99 219.975 381.053 219.922 381.125 219.885C381.587 219.642 382.996 218.908 383.906 218.499C384.293 217.983 383.341 217.426 382.734 217.278C382.421 217.202 382.057 216.899 382.874 216.685C383.542 216.51 385.071 216.704 385.071 216.704L387.163 213.776L390.539 217.425C390.539 217.425 387.809 220.475 387.401 220.939C386.993 221.403 385.107 222.497 384.29 222.611C382.804 222.818 383.233 222.248 383.233 222.248C381.67 222.317 382.478 221.476 382.478 221.476Z" fill="#FE9F73"/>
<path d="M383.155 220.282C383.167 220.271 383.174 220.257 383.177 220.241C383.18 220.225 383.177 220.209 383.17 220.195C383.161 220.178 383.146 220.165 383.127 220.159C383.109 220.153 383.088 220.154 383.071 220.163C382.619 220.363 382.151 220.526 381.673 220.651C381.664 220.653 381.655 220.657 381.647 220.663C381.639 220.669 381.633 220.676 381.628 220.684C381.623 220.693 381.619 220.702 381.618 220.712C381.617 220.721 381.617 220.731 381.619 220.74C381.624 220.76 381.637 220.776 381.654 220.786C381.671 220.796 381.691 220.799 381.711 220.794C382.199 220.668 382.676 220.501 383.136 220.295C383.143 220.292 383.15 220.287 383.155 220.282Z" fill="#F07162"/>
<path d="M383.818 220.952C383.83 220.938 383.836 220.921 383.837 220.903C383.837 220.886 383.831 220.868 383.819 220.854C383.808 220.841 383.792 220.832 383.774 220.828C383.757 220.825 383.739 220.829 383.723 220.838C383.335 221.089 382.91 221.279 382.464 221.402C382.445 221.408 382.429 221.42 382.419 221.437C382.409 221.454 382.406 221.474 382.41 221.494C382.415 221.512 382.427 221.529 382.444 221.539C382.461 221.549 382.481 221.552 382.5 221.547C382.96 221.42 383.399 221.222 383.8 220.962L383.818 220.952Z" fill="#F07162"/>
<path d="M384.445 221.829C384.457 221.817 384.465 221.801 384.467 221.784C384.468 221.767 384.464 221.75 384.455 221.736C384.444 221.72 384.427 221.708 384.408 221.704C384.389 221.699 384.369 221.703 384.352 221.713C383.999 221.923 383.615 222.077 383.215 222.169C383.196 222.173 383.179 222.185 383.168 222.201C383.158 222.218 383.154 222.237 383.158 222.257C383.16 222.266 383.163 222.275 383.169 222.283C383.174 222.291 383.181 222.298 383.19 222.304C383.198 222.309 383.207 222.313 383.217 222.314C383.226 222.316 383.236 222.316 383.246 222.314C383.663 222.22 384.063 222.059 384.43 221.839C384.43 221.839 384.44 221.829 384.445 221.829Z" fill="#F07162"/>
<path opacity="0.25" d="M391.113 198.829L386.631 191.465L386.832 191.341L391.206 198.53C391.807 198.255 395.214 196.646 399.385 193.713C398.897 192.856 395.11 186.322 392.267 184.087L392.412 183.901C395.479 186.312 399.602 193.617 399.643 193.69L399.695 193.783L399.609 193.843C394.969 197.12 391.245 198.771 391.208 198.787L391.113 198.829Z" fill="black"/>
</svg>
