<svg width="70" height="70" viewBox="0 0 70 70" fill="none" xmlns="http://www.w3.org/2000/svg">
<path d="M0 9.52C0 4.26225 4.26225 0 9.52 0H60.48C65.7378 0 70 4.26225 70 9.52V60.48C70 65.7378 65.7378 70 60.48 70H9.52C4.26225 70 0 65.7378 0 60.48V9.52Z" fill="#06FFF2"/>
<path d="M38.3961 46.2119C38.4129 46.1277 38.4312 46.042 38.445 45.9578C38.5508 45.5053 38.7194 45.0698 38.9458 44.6642C39.7428 43.02 40.5506 41.3835 41.3568 39.7454C41.5012 39.4234 41.7181 39.1394 41.9905 38.9157C42.7539 38.3324 43.7648 38.5039 44.3297 39.3306C44.5075 39.6013 44.6651 39.8848 44.8015 40.1787C45.5253 41.6468 46.2491 43.1164 46.9591 44.5922C47.1654 44.9833 47.3336 45.3935 47.4615 45.8169C47.5282 46.0937 47.5377 46.3812 47.4895 46.6617C47.4414 46.9423 47.3365 47.21 47.1813 47.4485C47.0262 47.6869 46.824 47.891 46.5873 48.0483C46.3505 48.2055 46.0842 48.3125 45.8047 48.3628C45.0794 48.4929 44.4305 48.2633 43.8625 47.8301C43.5876 47.6234 43.3418 47.3708 43.0868 47.1427C43.0461 47.0958 43.0108 47.0444 42.9815 46.9896C42.7936 47.1825 42.6501 47.3417 42.4928 47.4871C42.065 47.9125 41.5298 48.2131 40.9445 48.3567C40.6679 48.4171 40.382 48.4206 40.104 48.3668C39.8261 48.313 39.5619 48.203 39.3277 48.0436C39.0934 47.8842 38.894 47.6787 38.7414 47.4396C38.5889 47.2005 38.4865 46.9328 38.4404 46.6528C38.4266 46.5763 38.4144 46.4997 38.4007 46.4232L38.3961 46.2119ZM41.3125 43.9753C41.2878 43.6053 41.3808 43.2371 41.5782 42.9235C41.7826 42.6354 42.071 42.4177 42.4037 42.3004C42.7364 42.1831 43.0972 42.1719 43.4365 42.2683C43.773 42.3561 44.0715 42.5523 44.2861 42.8266C44.5007 43.101 44.6196 43.4384 44.6244 43.787C44.614 44.2787 44.4929 44.7617 44.2702 45.2C44.0446 45.6563 43.7669 46.0847 43.4426 46.4767C43.3815 46.5518 43.3678 46.6099 43.4426 46.6742C43.4655 46.6941 43.4838 46.7202 43.5052 46.7416C43.8884 47.1381 44.2931 47.507 44.8183 47.7045C45.6795 48.0321 46.5758 47.6372 46.8507 46.8059C46.9186 46.5878 46.9424 46.3584 46.9206 46.131C46.8989 45.9036 46.832 45.6828 46.7239 45.4817C45.9177 43.8079 45.11 42.1357 44.3007 40.4649C44.1586 40.1594 43.99 39.8668 43.7968 39.5908C43.6474 39.3952 43.4327 39.2603 43.192 39.2108C42.9513 39.1613 42.7008 39.2005 42.4867 39.3214C42.2447 39.4635 42.0526 39.6774 41.937 39.9337C41.5935 40.5997 41.2423 41.2625 40.9155 41.9361C40.3215 43.1608 39.7398 44.3932 39.1611 45.6256C39.0692 45.8107 39.0151 46.0124 39.002 46.2187C38.9888 46.4251 39.017 46.632 39.0847 46.8273C39.3672 47.6494 40.262 48.0367 41.1155 47.7061C41.6484 47.5009 42.0592 47.1274 42.4486 46.7247C42.4713 46.7095 42.4902 46.6892 42.5038 46.6654C42.5174 46.6416 42.5254 46.615 42.5272 46.5877C42.529 46.5603 42.5245 46.5329 42.514 46.5076C42.5035 46.4822 42.4874 46.4596 42.4669 46.4415C42.2308 46.1265 42.0111 45.7995 41.8088 45.4618C41.5258 45.0139 41.3555 44.5037 41.3125 43.9753ZM42.9494 46.0818C42.9799 46.0695 42.9906 46.0695 42.9952 46.0634C43.0395 46.0083 43.0838 45.9547 43.125 45.8981C43.5023 45.4251 43.7873 44.8849 43.9648 44.3059C44.0203 44.1419 44.043 43.9684 44.0315 43.7956C44.0199 43.6227 43.9744 43.4538 43.8976 43.2986C43.7696 43.079 43.5678 42.9122 43.3283 42.828C43.0888 42.7439 42.8273 42.7479 42.5906 42.8393C42.0683 43.0292 41.8531 43.4854 41.9218 44.0135C42.0256 44.8203 42.4791 45.4541 42.9494 46.0818Z" fill="black"/>
<path d="M35.2918 48.6646H20.4226C19.7589 48.6638 19.1226 48.3989 18.6534 47.9282C18.1842 47.4575 17.9204 46.8194 17.92 46.1539V20.9907C17.9204 20.3252 18.1842 19.6871 18.6534 19.2163C19.1226 18.7456 19.7589 18.4808 20.4226 18.48H40.9033C41.567 18.4808 42.2034 18.7456 42.6726 19.2163C43.1418 19.6871 43.4055 20.3252 43.4059 20.9907V35.8082H36.8783C36.4575 35.809 36.0542 35.977 35.7569 36.2755C35.4595 36.5739 35.2922 36.9784 35.2918 37.4003V48.6646ZM20.4226 19.3985C20.0019 19.3993 19.5986 19.5674 19.3012 19.8659C19.0038 20.1643 18.8366 20.5688 18.8362 20.9907V46.1539C18.8366 46.5758 19.0038 46.9803 19.3012 47.2787C19.5986 47.5772 20.0019 47.7452 20.4226 47.7461H34.3757V37.4003C34.3761 36.7348 34.6398 36.0967 35.109 35.626C35.5782 35.1553 36.2146 34.8904 36.8783 34.8896H42.4898V20.9907C42.4894 20.5688 42.3221 20.1643 42.0247 19.8659C41.7274 19.5674 41.3241 19.3993 40.9033 19.3985H20.4226Z" fill="black"/>
<path d="M49.0172 52.0799H36.8781C36.2146 52.0791 35.5785 51.8145 35.1094 51.3441C34.6402 50.8737 34.3763 50.236 34.3755 49.5708L34.3757 37.4003C34.3761 36.7348 34.6398 36.0967 35.109 35.626C35.5782 35.1553 36.2146 34.8904 36.8783 34.8896L49.0172 34.8895C49.6811 34.8903 50.3175 35.1551 50.787 35.6258C51.2564 36.0965 51.5205 36.7346 51.5213 37.4002V49.5708C51.5205 50.2363 51.2564 50.8742 50.7869 51.3446C50.3174 51.8151 49.6809 52.0795 49.0172 52.0799ZM36.8783 35.8082C36.4575 35.809 36.0542 35.977 35.7569 36.2755C35.4595 36.5739 35.2922 36.9784 35.2918 37.4003L35.2916 49.5708C35.292 49.9925 35.4593 50.3968 35.7567 50.695C36.0542 50.9933 36.4575 51.161 36.8781 51.1614H49.0172C49.4379 51.161 49.8414 50.9933 50.1391 50.6951C50.4367 50.397 50.6044 49.9926 50.6052 49.5708V37.4002C50.6044 36.9782 50.4368 36.5737 50.1392 36.2753C49.8415 35.9769 49.4381 35.8089 49.0172 35.8081L36.8783 35.8082Z" fill="black"/>
<path d="M37.2906 26.9001H23.5788C23.2704 26.8997 22.9747 26.7767 22.7565 26.558C22.5384 26.3393 22.4157 26.0428 22.4153 25.7336V24.3037C22.4153 23.9943 22.5379 23.6976 22.7561 23.4789C22.9743 23.2601 23.2702 23.1372 23.5788 23.1372H37.2906C37.5992 23.1372 37.8952 23.2601 38.1134 23.4789C38.3316 23.6976 38.4541 23.9943 38.4541 24.3037V25.7336C38.4537 26.0428 38.331 26.3393 38.1129 26.558C37.8948 26.7767 37.5991 26.8997 37.2906 26.9001ZM23.5788 23.97C23.4908 23.9704 23.4065 24.0057 23.3444 24.0683C23.2823 24.1308 23.2475 24.2155 23.2475 24.3037V25.7336C23.2475 25.8217 23.2824 25.9062 23.3445 25.9685C23.4067 26.0308 23.491 26.0658 23.5788 26.0658H37.2906C37.3785 26.0658 37.4628 26.0308 37.5249 25.9685C37.5871 25.9062 37.622 25.8217 37.622 25.7336V24.3037C37.622 24.2155 37.5871 24.1308 37.525 24.0683C37.4629 24.0057 37.3786 23.9704 37.2906 23.97H23.5788Z" fill="black"/>
<path d="M38.0388 30.4608H22.8322C22.7775 30.461 22.7233 30.4504 22.6728 30.4296C22.6222 30.4088 22.5762 30.3781 22.5375 30.3394C22.4988 30.3007 22.468 30.2548 22.4471 30.2042C22.4261 30.1535 22.4153 30.0993 22.4153 30.0444C22.4153 29.9896 22.4261 29.9354 22.4471 29.8847C22.468 29.8341 22.4988 29.7882 22.5375 29.7495C22.5762 29.7108 22.6222 29.6801 22.6728 29.6593C22.7233 29.6385 22.7775 29.6278 22.8322 29.628H38.0388C38.149 29.628 38.2546 29.6719 38.3325 29.75C38.4104 29.8281 38.4541 29.934 38.4541 30.0444C38.4541 30.1549 38.4104 30.2608 38.3325 30.3389C38.2546 30.417 38.149 30.4608 38.0388 30.4608Z" fill="black"/>
<path d="M38.0388 33.1136H22.8322C22.7775 33.1138 22.7233 33.1032 22.6728 33.0824C22.6222 33.0615 22.5762 33.0309 22.5375 32.9922C22.4988 32.9535 22.468 32.9076 22.4471 32.8569C22.4261 32.8063 22.4153 32.752 22.4153 32.6972C22.4153 32.5864 22.4592 32.4801 22.5374 32.4017C22.6156 32.3233 22.7216 32.2793 22.8322 32.2793H38.0388C38.1448 32.2857 38.2444 32.3325 38.3171 32.41C38.3899 32.4875 38.4304 32.59 38.4304 32.6965C38.4304 32.8029 38.3899 32.9054 38.3171 32.9829C38.2444 33.0605 38.1448 33.1072 38.0388 33.1136Z" fill="black"/>
<path d="M31.5891 39.3278H22.8322C22.7775 39.328 22.7233 39.3173 22.6728 39.2965C22.6222 39.2757 22.5762 39.245 22.5375 39.2064C22.4988 39.1677 22.468 39.1217 22.4471 39.0711C22.4261 39.0205 22.4153 38.9662 22.4153 38.9114C22.4153 38.8005 22.4592 38.6942 22.5374 38.6158C22.6156 38.5375 22.7216 38.4934 22.8322 38.4934H31.5891C31.6951 38.4999 31.7946 38.5466 31.8674 38.6242C31.9402 38.7017 31.9807 38.8041 31.9807 38.9106C31.9807 39.0171 31.9402 39.1195 31.8674 39.197C31.7946 39.2746 31.6951 39.3213 31.5891 39.3278Z" fill="black"/>
<path d="M31.5891 41.8691H22.8322C22.7216 41.8691 22.6156 41.8251 22.5374 41.7467C22.4592 41.6683 22.4153 41.562 22.4153 41.4512C22.4153 41.3964 22.4261 41.3421 22.4471 41.2915C22.468 41.2408 22.4988 41.1949 22.5375 41.1562C22.5762 41.1175 22.6222 41.0869 22.6728 41.066C22.7233 41.0452 22.7775 41.0346 22.8322 41.0348H31.5891C31.6951 41.0412 31.7946 41.088 31.8674 41.1655C31.9402 41.243 31.9807 41.3455 31.9807 41.4519C31.9807 41.5584 31.9402 41.6608 31.8674 41.7384C31.7946 41.8159 31.6951 41.8627 31.5891 41.8691Z" fill="black"/>
</svg>
