<svg width="66" height="65" viewBox="0 0 66 65" fill="none" xmlns="http://www.w3.org/2000/svg">
<path d="M65.5 32.5C65.5 50.4493 50.9493 65 33 65C15.0507 65 0.5 50.4493 0.5 32.5C0.5 14.5507 15.0507 0 33 0C50.9493 0 65.5 14.5507 65.5 32.5Z" fill="#06FFF2"/>
<path d="M4.5 46.6538C4.60346 46.1365 4.71512 45.6193 4.80872 45.0989C5.31616 42.263 6.67424 39.7381 7.92886 37.2035C12.9047 27.1715 17.9248 17.1605 22.9893 7.17046C23.9631 5.2369 25.1553 3.44352 26.9404 2.10614C31.7027 -1.45644 38.0234 -0.405875 41.5557 4.63589C42.6938 6.26008 43.6118 8.04379 44.5117 9.81461C49.0309 18.782 53.5218 27.7645 57.9841 36.762C59.1796 39.179 60.4211 41.6507 61.119 44.2304C62.7825 50.3952 58.9415 58.3405 50.7733 59.7762C46.2392 60.5738 42.2225 59.1655 38.6458 56.5262C36.9281 55.2597 35.3927 53.7532 33.7981 52.3368C33.5419 52.1096 33.404 51.7551 33.1412 51.3539C31.9654 52.5286 31.0704 53.505 30.0868 54.3912C27.2951 56.9065 24.2045 58.8916 20.4143 59.7085C13.1264 61.2667 5.98125 56.5697 4.74469 49.3608C4.66422 48.8903 4.58047 48.4214 4.5 47.9509V46.6538ZM22.7183 33.0641C22.6822 30.1089 23.2258 28.127 24.459 26.4706C26.7975 23.3286 30.0129 22.0524 33.9344 22.2522C36.0231 22.3457 38.0284 23.0841 39.6639 24.3622C41.2995 25.6404 42.4817 27.3928 43.0419 29.3694C43.6397 31.514 43.4574 33.6635 42.9302 35.7904C41.8907 39.9798 39.6295 43.5681 37.0496 46.9905C36.5685 47.6351 35.6981 48.3392 35.7671 48.9241C35.8459 49.5928 36.7524 50.1954 37.3485 50.7755C39.4981 52.8702 41.8169 54.7328 44.6972 55.7866C50.0557 57.7492 55.6046 55.3403 57.3272 50.3001C58.2813 47.5078 57.8412 44.8088 56.562 42.213C51.5172 31.9738 46.4604 21.7398 41.3915 11.5113C40.485 9.69054 39.5112 7.86171 38.2845 6.24235C35.9986 3.22116 31.4908 2.93435 28.7353 5.55755C27.8937 6.39633 27.1886 7.35716 26.6448 8.40633C24.4754 12.4346 22.3127 16.4628 20.2863 20.5475C16.5782 28.0304 12.926 35.5401 9.32965 43.0767C8.19983 45.4292 7.9535 47.9106 8.82385 50.4162C10.581 55.4676 16.2252 57.8459 21.5737 55.7931C24.9714 54.4895 27.5841 52.137 30.0507 49.596C30.4957 49.1368 30.4957 48.8339 30.1213 48.307C28.6597 46.2719 27.1538 44.2578 25.8647 42.1196C24.0567 39.1387 22.807 35.9241 22.7183 33.0641ZM33.0838 45.9964C33.8523 44.9587 34.5617 44.0773 35.1857 43.1492C37.2664 40.0877 39.1697 36.9425 39.6196 33.1881C39.8692 31.1047 39.4357 29.1873 37.9446 27.6098C36.1825 25.7455 33.1215 25.1606 30.5203 26.1387C28.0324 27.0765 26.515 29.2147 26.4576 31.9072C26.4132 34.0615 27.0389 36.0675 27.924 38.0124C29.2213 40.8628 30.9883 43.4167 33.0838 45.9964Z" fill="black"/>
</svg>
