<svg width="167" height="62" viewBox="0 0 167 62" fill="none" xmlns="http://www.w3.org/2000/svg">
<path d="M32.523 24.2254C32.5435 22.873 32.2451 21.5344 31.6511 20.3151C31.098 19.2157 30.2846 18.2636 29.2797 17.5393C28.3081 16.8626 27.2126 16.3782 26.0538 16.1128C24.9426 15.8541 23.8041 15.7271 22.6623 15.7346H10.3605L3.51652 46.7932H18.1026C19.6265 46.794 21.1462 46.6355 22.6362 46.3205C24.1453 46.0053 25.5839 45.423 26.8821 44.6017C28.2098 43.727 29.3019 42.5473 30.0643 41.1641C30.9107 39.5946 31.3312 37.8362 31.2849 36.0593C31.3175 34.1948 30.7022 32.3753 29.5412 30.9029C29.7924 30.6811 30.0311 30.4458 30.2562 30.1982C31.7472 28.5593 32.5566 26.4266 32.523 24.2254ZM18.678 39.5399H13.011L14.1531 34.3835H19.9683C20.6081 34.3813 21.2469 34.433 21.8777 34.5382C22.2449 34.582 22.5985 34.702 22.9152 34.8905C23.1175 35.014 23.2853 35.1854 23.4034 35.389C23.5428 35.7145 23.6025 36.0677 23.5778 36.4202C23.5978 36.8656 23.4953 37.308 23.2814 37.7007C23.0541 38.0834 22.7409 38.4098 22.3659 38.6547C21.8698 38.9649 21.3247 39.1914 20.753 39.3251C20.0638 39.4793 19.3584 39.5514 18.6518 39.5399H18.678ZM22.6536 22.9965C23.0619 22.991 23.4692 23.0372 23.8655 23.134C24.0681 23.1747 24.2588 23.2599 24.4235 23.3832C24.5273 23.465 24.6083 23.5715 24.6589 23.6926C24.7617 23.9432 24.8064 24.2134 24.7897 24.4833C24.8096 24.8399 24.7345 25.1954 24.5717 25.5145C24.4111 25.8029 24.1841 26.0501 23.9091 26.2364C23.4992 26.5005 23.0488 26.6979 22.5752 26.8208C21.987 26.9839 21.381 27.0762 20.7704 27.0958H15.766L16.6379 22.9965H22.6536Z" fill="#545454"/>
<path d="M64.6074 28.6171C64.6261 26.7895 64.3131 24.9733 63.6832 23.2543C63.0898 21.6328 62.1464 20.1576 60.9181 18.9305C59.6898 17.7034 58.2059 16.7537 56.5689 16.1471C54.821 15.4916 52.9638 15.1651 51.0937 15.1846C48.5893 15.1479 46.112 15.6988 43.8661 16.7916C41.8053 17.8149 39.987 19.2558 38.5304 21.0199C37.0888 22.7814 35.9866 24.7883 35.2784 26.9412C34.5503 29.1355 34.1824 31.4304 34.1886 33.739C34.1724 35.5565 34.4672 37.3636 35.0604 39.0845C35.6233 40.7184 36.5328 42.2153 37.7283 43.4759C38.9399 44.7202 40.4087 45.6933 42.0352 46.3291C43.8088 47.003 45.697 47.3357 47.5976 47.309C50.0287 47.3632 52.4397 46.865 54.6441 45.8531C56.8484 44.8411 58.7868 43.3427 60.3092 41.4736C61.7679 39.6895 62.8686 37.6479 63.5525 35.4578C64.2582 33.2445 64.614 30.9372 64.6074 28.6171ZM47.9987 40.0813C47.0782 40.099 46.1622 39.9505 45.2959 39.643C44.6148 39.3966 43.9981 39.0033 43.4912 38.4915C42.9799 37.9721 42.5927 37.3466 42.3578 36.6609C42.0532 35.7906 41.9056 34.8744 41.9219 33.9539C41.9214 32.4407 42.1297 30.9344 42.5409 29.4765C42.9057 28.1564 43.5113 26.9128 44.3282 25.8067C45.0795 24.7889 46.0463 23.9444 47.1617 23.3316C48.3623 22.723 49.7009 22.4272 51.0502 22.4722C51.9669 22.4438 52.8792 22.6079 53.7267 22.9536C54.3854 23.2346 54.9678 23.6644 55.4268 24.2082C55.9147 24.8053 56.2711 25.496 56.4731 26.2364C56.749 27.2215 56.8839 28.2398 56.8741 29.2616C56.8662 30.6259 56.6396 31.9803 56.2028 33.2749C55.7975 34.5544 55.1658 35.7529 54.337 36.8155C53.5665 37.8067 52.6032 38.6365 51.5035 39.2563C50.4308 39.8346 49.2207 40.1194 47.9987 40.0813Z" fill="#545454"/>
<path d="M89.4724 30.2498C90.6254 28.8887 91.3669 27.2354 91.612 25.4787C91.8572 23.7219 91.5961 21.9326 90.8586 20.3152C90.3055 19.2157 89.4921 18.2637 88.4872 17.5393C87.5156 16.8626 86.4201 16.3782 85.2613 16.1128C84.1502 15.8536 83.0116 15.7266 81.8698 15.7346H69.568L62.724 46.7932H77.31C78.834 46.7941 80.3537 46.6356 81.8437 46.3205C83.3528 46.0054 84.7914 45.423 86.0896 44.6017C87.4194 43.7294 88.512 42.5491 89.2718 41.1641C90.1182 39.5947 90.5386 37.8362 90.4924 36.0594C90.525 34.1948 89.9097 32.3754 88.7487 30.903C89.0015 30.6981 89.2431 30.4801 89.4724 30.2498ZM77.8593 39.54H72.1923L73.3431 34.3836H79.1497C79.7923 34.3817 80.4339 34.4334 81.0677 34.5382C81.4319 34.5832 81.7824 34.7032 82.0965 34.8905C82.3007 35.0116 82.4691 35.1836 82.5848 35.389C82.7242 35.7145 82.7839 36.0678 82.7591 36.4203C82.7791 36.8656 82.6767 37.308 82.4627 37.7007C82.2479 38.0788 81.95 38.4049 81.5908 38.6548C81.0947 38.9649 80.5496 39.1915 79.9779 39.3251C79.2831 39.4807 78.5717 39.5529 77.8593 39.54ZM81.8349 22.9966C82.2461 22.9917 82.6562 23.0378 83.0555 23.134C83.2556 23.1745 83.4435 23.2598 83.6048 23.3833C83.7121 23.4637 83.7962 23.5704 83.8489 23.6926C83.9424 23.9456 83.9839 24.2144 83.971 24.4833C83.989 24.8389 83.9171 25.1932 83.7617 25.5146C83.5953 25.8015 83.366 26.0481 83.0904 26.2364C82.6805 26.5006 82.2301 26.6979 81.7565 26.8209C81.1712 26.9832 80.5682 27.0755 79.9605 27.0958H74.9473L75.8192 22.9966H81.8349Z" fill="#545454"/>
<path d="M120.685 24.2254C120.706 22.873 120.407 21.5344 119.813 20.3151C119.26 19.2134 118.443 18.2609 117.433 17.5393C116.466 16.8611 115.373 16.3765 114.216 16.1128C113.105 15.8541 111.966 15.7271 110.824 15.7346H98.54L91.696 46.7932H106.282C107.809 46.7945 109.332 46.636 110.824 46.3205C112.333 46.0037 113.771 45.4215 115.07 44.6017C116.398 43.727 117.49 42.5473 118.253 41.1641C119.096 39.5938 119.513 37.8354 119.464 36.0593C119.498 34.1947 118.882 32.375 117.721 30.9029C117.965 30.6795 118.209 30.4474 118.436 30.1982C119.92 28.5567 120.723 26.4243 120.685 24.2254ZM106.84 39.5399H101.173L102.315 34.3835H108.13C108.77 34.3819 109.409 34.4336 110.04 34.5382C110.406 34.5845 110.759 34.7043 111.077 34.8905C111.28 35.014 111.447 35.1854 111.565 35.389C111.699 35.7159 111.756 36.0685 111.731 36.4202C111.753 36.8647 111.654 37.307 111.443 37.7007C111.215 38.0857 110.899 38.4125 110.519 38.6547C110.027 38.9663 109.485 39.193 108.915 39.3251C108.234 39.4768 107.538 39.5489 106.84 39.5399ZM110.816 22.9965C111.224 22.9916 111.631 23.0377 112.028 23.134C112.23 23.1763 112.42 23.2614 112.586 23.3832C112.689 23.465 112.77 23.5715 112.821 23.6926C112.924 23.9432 112.968 24.2134 112.952 24.4833C112.967 24.8396 112.892 25.194 112.734 25.5145C112.573 25.8029 112.346 26.0501 112.071 26.2364C111.661 26.5005 111.211 26.6979 110.737 26.8208C110.149 26.9832 109.543 27.0755 108.932 27.0958H103.928L104.8 22.9965H110.816Z" fill="#545454"/>
<path d="M120.702 46.8019H128.549L135.218 15.7347H127.363L120.702 46.8019Z" fill="#545454"/>
<path d="M137.189 15.7347L135.663 22.9966H144.652L139.386 46.8019H147.241L152.507 22.9966H161.548L163.074 15.7347H137.189Z" fill="#545454"/>
<path d="M163.771 12.761H11.0056L13.6211 0.918457H166.387L163.771 12.761Z" fill="#545454"/>
<path d="M153.152 61.9185H0.386719L3.00227 50.0845H155.768L153.152 61.9185Z" fill="#545454"/>
</svg>
