<svg width="660" height="373" viewBox="0 0 660 373" fill="none" xmlns="http://www.w3.org/2000/svg">
<path d="M166.626 77.6565C167.988 75.3974 169.406 73.182 170.878 71.0103C190.582 42.1501 223.423 22.3916 255.261 13.4454C269.153 9.58107 283.457 7.38287 297.871 6.89743C391.753 3.5416 426.235 80.7095 456.481 100.599C486.727 120.488 533.146 154.481 527.276 225.87C522.859 280.153 491.883 332.054 435.324 355.667C428.934 358.341 422.377 360.596 415.693 362.42C402.156 366.082 388.248 368.215 374.233 368.779C331.467 370.678 296.738 360.398 262.773 334.517C254.875 328.501 247.018 321.716 236.772 320.971C229.326 320.431 222.265 323.099 230.048 330.277C239.202 338.708 228.644 355.299 205.418 343.774C166.626 324.523 150.665 282.993 143.145 240.767C133.95 188.931 138.424 124.507 166.626 77.6565Z" fill="#06FFF2"/>
<path opacity="0.7" d="M166.626 77.6565C167.988 75.3974 169.406 73.182 170.878 71.0103C190.582 42.1501 223.423 22.3916 255.261 13.4454C269.153 9.58107 283.457 7.38287 297.871 6.89743C391.753 3.5416 426.235 80.7095 456.481 100.599C486.727 120.488 533.146 154.481 527.276 225.87C522.859 280.153 491.883 332.054 435.324 355.667C428.934 358.341 422.377 360.596 415.693 362.42C402.156 366.082 388.248 368.215 374.233 368.779C331.467 370.678 296.738 360.398 262.773 334.517C254.875 328.501 247.018 321.716 236.772 320.971C229.326 320.431 222.265 323.099 230.048 330.277C239.202 338.708 228.644 355.299 205.418 343.774C166.626 324.523 150.665 282.993 143.145 240.767C133.95 188.931 138.424 124.507 166.626 77.6565Z" fill="white"/>
<path d="M182.64 92.2913C182.64 92.2913 186.95 74.3907 212.089 70.8139C237.228 67.2371 240.824 88.7062 245.841 91.571C250.857 94.4357 253.739 86.5618 261.637 87.2739C269.535 87.986 273.845 94.4357 277.433 97.3005C281.021 100.165 287.49 91.571 292.515 93.0033C297.539 94.4357 301.85 101.589 301.85 101.589H156.072C156.072 101.589 161.097 93.7154 168.281 90.8507C175.464 87.986 178.346 92.2913 182.64 92.2913Z" stroke="#090E38" stroke-linecap="round" stroke-linejoin="round"/>
<path d="M424.649 146.034C424.649 146.034 427.744 133.208 445.757 130.638C463.77 128.068 466.356 143.472 469.96 145.518C473.565 147.564 475.617 141.925 481.282 142.441C486.947 142.956 490.034 147.573 492.604 149.627C495.173 151.681 499.812 145.535 503.416 146.549C507.02 147.564 510.107 152.705 510.107 152.705H405.618C405.618 152.705 409.214 147.057 414.362 145.011C419.51 142.964 421.57 146.034 424.649 146.034Z" stroke="#090E38" stroke-linecap="round" stroke-linejoin="round"/>
<path d="M377.679 37.6239C377.679 37.6239 379.633 29.4962 391.045 27.8674C402.457 26.2386 404.124 35.995 406.382 37.2965C408.639 38.5979 409.97 35.021 413.557 35.3484C417.145 35.6758 419.099 38.6224 420.733 39.8993C422.367 41.1761 425.298 37.2965 427.58 37.9513C429.862 38.6061 431.816 41.8391 431.816 41.8391H365.611C365.611 41.8391 367.893 38.2623 371.152 36.9281C374.412 35.594 375.717 37.6239 377.679 37.6239Z" stroke="#090E38" stroke-linecap="round" stroke-linejoin="round"/>
<path d="M283.893 54.3785C273.473 54.3785 265.026 45.9574 265.026 35.5694C265.026 25.1815 273.473 16.7604 283.893 16.7604C294.313 16.7604 302.76 25.1815 302.76 35.5694C302.76 45.9574 294.313 54.3785 283.893 54.3785Z" stroke="#090E38" stroke-linecap="round" stroke-linejoin="round"/>
<path d="M283.893 4V11.6529" stroke="#090E38" stroke-linecap="round" stroke-linejoin="round"/>
<path d="M283.893 60.7546V68.4076" stroke="#090E38" stroke-linecap="round" stroke-linejoin="round"/>
<path d="M261.052 13.4291L266.479 18.8475" stroke="#090E38" stroke-linecap="round" stroke-linejoin="round"/>
<path d="M301.307 53.5682L306.742 58.9785" stroke="#090E38" stroke-linecap="round" stroke-linejoin="round"/>
<path d="M251.595 36.2079H259.271" stroke="#090E38" stroke-linecap="round" stroke-linejoin="round"/>
<path d="M308.523 36.2079H316.199" stroke="#090E38" stroke-linecap="round" stroke-linejoin="round"/>
<path d="M261.052 58.9785L266.479 53.5682" stroke="#090E38" stroke-linecap="round" stroke-linejoin="round"/>
<path d="M301.307 18.8475L306.742 13.4291" stroke="#090E38" stroke-linecap="round" stroke-linejoin="round"/>
<path d="M238.389 140.239C238.389 140.239 234.604 139.298 233.463 139.674C232.321 140.051 234.218 141.393 234.218 141.393C233.539 141.851 233.013 142.501 232.707 143.259C232.141 144.585 234.596 144.012 234.596 144.012C234.392 144.249 234.28 144.551 234.28 144.863C234.28 145.175 234.392 145.477 234.596 145.715C235.351 146.476 238.758 142.694 238.758 142.694C238.758 142.694 241.221 144.209 243.503 144.02C245.786 143.832 247.099 143.259 248.618 140.992C249.396 139.781 250.284 138.644 251.27 137.595L252.789 137.03L250.515 135.704C250.515 135.704 248.618 134.002 246.722 134.19C245.788 134.219 244.876 134.48 244.07 134.951C244.07 134.951 242.929 131.923 241.229 130.793C239.53 129.664 234.218 128.15 232.51 127.2C230.803 126.251 231.18 127.773 231.747 128.714C232.313 129.656 234.021 130.417 234.784 130.793C235.548 131.17 230.803 131.358 231.558 132.308C232.313 133.257 235.162 133.625 235.162 133.625C235.162 133.625 232.51 134.575 233.077 135.328C233.643 136.081 235.917 136.081 235.917 136.081C235.917 136.081 235.162 137.972 236.295 137.972H237.461C237.461 137.972 236.878 140.615 238.389 140.239Z" fill="#06FFF2" stroke="#090E38" stroke-linecap="round" stroke-linejoin="round"/>
<path d="M244.078 134.951C244.078 134.951 245.589 131.923 244.833 130.04C244.078 128.158 237.067 123.239 237.256 125.129C237.373 125.751 237.62 126.341 237.979 126.862C238.338 127.384 238.802 127.825 239.341 128.158C239.341 128.158 236.492 127.208 236.492 127.97V128.723C236.492 128.723 239.719 129.476 241.237 130.802C242.405 132.021 243.364 133.423 244.078 134.951Z" fill="#090E38" stroke="#090E38" stroke-linecap="round" stroke-linejoin="round"/>
<path d="M248.512 136.981C248.199 136.981 247.945 136.728 247.945 136.416C247.945 136.105 248.199 135.852 248.512 135.852C248.824 135.852 249.078 136.105 249.078 136.416C249.078 136.728 248.824 136.981 248.512 136.981Z" fill="#090E38"/>
<path d="M240.902 142.195C241.238 143.341 243.053 143.832 244.933 143.259C246.813 142.686 248.077 141.319 247.741 140.173C247.404 139.027 245.59 138.536 243.701 139.109C241.813 139.682 240.557 141.049 240.902 142.195Z" fill="white" stroke="#090E38" stroke-width="0.5" stroke-linecap="round" stroke-linejoin="round"/>
<path d="M426.891 91.8166C426.891 91.8166 430.676 90.8671 431.817 91.2518C432.959 91.6365 431.062 92.9625 431.062 92.9625C431.739 93.4264 432.264 94.0781 432.573 94.8368C433.147 96.1628 430.684 95.5898 430.684 95.5898C430.888 95.827 431 96.1289 431 96.4411C431 96.7532 430.888 97.0551 430.684 97.2923C429.929 98.0535 426.522 94.2721 426.522 94.2721C426.522 94.2721 424.059 95.7863 421.785 95.5898C419.511 95.3934 418.18 94.8368 416.662 92.5696C415.884 91.359 414.996 90.222 414.01 89.1728L412.491 88.5999L414.765 87.2821C414.765 87.2821 416.662 85.5796 418.558 85.7679C419.491 85.797 420.402 86.0557 421.21 86.5209C421.21 86.5209 422.351 83.5006 424.059 82.3711C425.767 81.2416 431.07 79.7274 432.77 78.7779C434.469 77.8285 434.1 79.3427 433.533 80.2921C432.967 81.2416 431.259 81.9946 430.496 82.3711C429.732 82.7476 434.477 82.9359 433.722 83.8771C432.967 84.8184 430.118 85.2031 430.118 85.2031C430.118 85.2031 432.77 86.1444 432.203 86.9056C431.637 87.6668 429.363 87.6586 429.363 87.6586C429.363 87.6586 430.118 89.5493 428.985 89.5493H427.844C427.844 89.5493 428.402 92.1931 426.891 91.8166Z" fill="#06FFF2" stroke="#090E38" stroke-linecap="round" stroke-linejoin="round"/>
<path d="M421.201 86.5209C421.201 86.5209 419.69 83.5006 420.446 81.6099C421.201 79.7191 428.212 74.8082 428.024 76.6989C427.906 77.3203 427.659 77.9104 427.3 78.4318C426.941 78.9531 426.478 79.3943 425.938 79.7273C425.938 79.7273 428.787 78.7779 428.787 79.5309V80.3085C428.787 80.3085 425.561 81.0615 424.05 82.3875C422.88 83.6008 421.918 84.9971 421.201 86.5209Z" fill="#090E38" stroke="#090E38" stroke-linecap="round" stroke-linejoin="round"/>
<path d="M417.336 87.9941C417.336 88.1439 417.276 88.2875 417.17 88.3934C417.064 88.4993 416.92 88.5589 416.769 88.5589C416.619 88.5589 416.475 88.4993 416.369 88.3934C416.263 88.2875 416.203 88.1439 416.203 87.9941C416.203 87.8443 416.263 87.7007 416.369 87.5947C416.475 87.4888 416.619 87.4293 416.769 87.4293C416.92 87.4293 417.064 87.4888 417.17 87.5947C417.276 87.7007 417.336 87.8443 417.336 87.9941Z" fill="#090E38"/>
<path d="M424.379 93.7728C424.042 94.9187 422.236 95.4098 420.347 94.8369C418.459 94.2639 417.203 92.897 417.54 91.7511C417.876 90.6052 419.691 90.1141 421.579 90.6871C423.467 91.26 424.723 92.6269 424.379 93.7728Z" fill="white" stroke="#090E38" stroke-width="0.5" stroke-linecap="round" stroke-linejoin="round"/>
<path d="M437.064 232.549C442.47 224.658 449.698 218.177 458.139 213.65C471.718 206.627 477.514 199.694 470.454 200.104C461.907 200.611 442.54 207.38 433.739 231.206C429.937 241.479 437.023 232.557 437.023 232.557" fill="#06FFF2"/>
<path d="M437.064 232.549C442.47 224.658 449.698 218.177 458.139 213.65C471.718 206.627 477.514 199.694 470.454 200.104C461.907 200.611 442.54 207.38 433.739 231.206C429.937 241.479 437.023 232.557 437.023 232.557" stroke="#090E38" stroke-linecap="round" stroke-linejoin="round"/>
<path d="M437.515 229.414C437.515 229.414 444.304 215.876 457.137 209.361" stroke="#090E38" stroke-linecap="round" stroke-linejoin="round"/>
<path d="M428.902 240.734C431.503 232.498 432.086 223.761 430.602 215.254C428.024 201.708 429.731 193.736 433.368 198.958C437.785 205.293 443.779 222.801 431.726 242.338C426.521 250.769 428.91 240.701 428.91 240.701" fill="#06FFF2"/>
<path d="M428.902 240.734C431.503 232.498 432.086 223.761 430.602 215.254C428.024 201.708 429.731 193.736 433.368 198.958C437.785 205.293 443.779 222.801 431.726 242.338C426.521 250.769 428.91 240.701 428.91 240.701" stroke="#090E38" stroke-linecap="round" stroke-linejoin="round"/>
<path d="M430.857 238.679C430.857 238.679 436.719 226.312 434.199 213.584" stroke="#090E38" stroke-linecap="round" stroke-linejoin="round"/>
<path d="M436.514 226.549C439.116 218.311 439.698 209.571 438.213 201.061C435.635 187.523 437.343 179.551 440.98 184.773C445.397 191.108 451.39 208.608 439.338 228.153C434.133 236.584 436.522 226.557 436.522 226.557" fill="#06FFF2"/>
<path d="M436.514 226.549C439.116 218.311 439.698 209.571 438.213 201.061C435.635 187.523 437.343 179.551 440.98 184.773C445.397 191.108 451.39 208.608 439.338 228.153C434.133 236.584 436.522 226.557 436.522 226.557" stroke="#090E38" stroke-linecap="round" stroke-linejoin="round"/>
<path d="M437.515 229.414C437.515 229.414 444.329 212.127 441.817 199.4" stroke="#090E38" stroke-linecap="round" stroke-linejoin="round"/>
<path d="M266.032 217.726C260.626 209.838 253.402 203.357 244.965 198.827C231.378 191.804 225.59 184.871 232.65 185.289C241.197 185.788 260.564 192.557 269.365 216.392C273.159 226.672 266.04 217.742 266.04 217.742" fill="#06FFF2"/>
<path d="M266.032 217.726C260.626 209.838 253.402 203.357 244.965 198.827C231.378 191.804 225.59 184.871 232.65 185.289C241.197 185.788 260.564 192.557 269.365 216.392C273.159 226.672 266.04 217.742 266.04 217.742" stroke="#090E38" stroke-linecap="round" stroke-linejoin="round"/>
<path d="M265.58 214.624C265.58 214.624 258.79 201.086 245.966 194.562" stroke="#090E38" stroke-linecap="round" stroke-linejoin="round"/>
<path d="M274.201 225.944C271.596 217.706 271.013 208.965 272.502 200.456C275.08 186.909 273.372 178.937 269.735 184.159C265.31 190.503 259.325 208.002 271.377 227.54C276.582 235.97 274.193 225.944 274.193 225.944" fill="#06FFF2"/>
<path d="M274.201 225.944C271.596 217.706 271.013 208.965 272.502 200.456C275.08 186.909 273.372 178.937 269.735 184.159C265.31 190.503 259.325 208.002 271.377 227.54C276.582 235.97 274.193 225.944 274.193 225.944" stroke="#090E38" stroke-linecap="round" stroke-linejoin="round"/>
<path d="M272.238 223.889C272.238 223.889 266.385 211.514 268.897 198.786" stroke="#090E38" stroke-linecap="round" stroke-linejoin="round"/>
<path d="M266.588 211.751C263.983 203.516 263.4 194.777 264.889 186.271C267.467 172.725 265.759 164.753 262.114 169.975C257.697 176.31 251.712 193.818 263.756 213.355C268.961 221.786 266.572 211.718 266.572 211.718" fill="#06FFF2"/>
<path d="M266.588 211.751C263.983 203.516 263.4 194.777 264.889 186.271C267.467 172.725 265.759 164.753 262.114 169.975C257.697 176.31 251.712 193.818 263.756 213.355C268.961 221.786 266.572 211.718 266.572 211.718" stroke="#090E38" stroke-linecap="round" stroke-linejoin="round"/>
<path d="M265.58 214.624C265.58 214.624 258.807 197.353 261.27 184.601" stroke="#090E38" stroke-linecap="round" stroke-linejoin="round"/>
<path d="M262.619 175.369H340.663L384.324 106.156H306.28L262.619 175.369Z" fill="#090E38" stroke="#090E38" stroke-linecap="round" stroke-linejoin="round"/>
<path d="M351.515 172.995H431.506V243.435H351.515V172.995Z" fill="#C7AAA0" stroke="#090E38" stroke-linecap="round" stroke-linejoin="round"/>
<path d="M271.525 243.435H351.516V172.995L310.86 108.53L271.525 172.995V243.435Z" fill="white" stroke="#090E38" stroke-linecap="round" stroke-linejoin="round"/>
<path d="M334.193 185.616H342.189V209.541H334.193V185.616Z" fill="#C7AAA0" stroke="#090E38" stroke-linecap="round" stroke-linejoin="round"/>
<path d="M326.197 185.616H334.193V209.541H326.197V185.616Z" fill="#090E38" stroke="#090E38" stroke-linecap="round" stroke-linejoin="round"/>
<path d="M318.191 185.616H326.188V209.541H318.191V185.616Z" fill="#C7AAA0" stroke="#090E38" stroke-linecap="round" stroke-linejoin="round"/>
<path d="M370.851 185.616H377.518V209.541H370.851V185.616Z" fill="#915945" stroke="#090E38" stroke-linecap="round" stroke-linejoin="round"/>
<path d="M364.185 185.616H370.852V209.541H364.185V185.616Z" fill="#090E38" stroke="#090E38" stroke-linecap="round" stroke-linejoin="round"/>
<path d="M357.519 185.616H364.186V209.541H357.519V185.616Z" fill="#915945" stroke="#090E38" stroke-linecap="round" stroke-linejoin="round"/>
<path d="M420.177 185.616H426.844V209.541H420.177V185.616Z" fill="#915945" stroke="#090E38" stroke-linecap="round" stroke-linejoin="round"/>
<path d="M413.509 185.616H420.176V209.541H413.509V185.616Z" fill="#090E38" stroke="#090E38" stroke-linecap="round" stroke-linejoin="round"/>
<path d="M406.843 185.616H413.51V209.541H406.843V185.616Z" fill="#915945" stroke="#090E38" stroke-linecap="round" stroke-linejoin="round"/>
<path d="M293.529 185.616H301.525V209.541H293.529V185.616Z" fill="#C7AAA0" stroke="#090E38" stroke-linecap="round" stroke-linejoin="round"/>
<path d="M285.531 185.616H293.527V209.541H285.531V185.616Z" fill="#090E38" stroke="#090E38" stroke-linecap="round" stroke-linejoin="round"/>
<path d="M277.537 185.616H285.533V209.541H277.537V185.616Z" fill="#C7AAA0" stroke="#090E38" stroke-linecap="round" stroke-linejoin="round"/>
<path d="M312.191 146.41H317.527V161.029H312.191V146.41Z" fill="#C7AAA0" stroke="#090E38" stroke-linecap="round" stroke-linejoin="round"/>
<path d="M306.853 146.41H312.189V161.029H306.853V146.41Z" fill="#090E38" stroke="#090E38" stroke-linecap="round" stroke-linejoin="round"/>
<path d="M301.527 146.41H306.863V161.029H301.527V146.41Z" fill="#C7AAA0" stroke="#090E38" stroke-linecap="round" stroke-linejoin="round"/>
<path d="M435.965 175.369H350.071L306.41 106.156H392.304L435.965 175.369Z" fill="#06FFF2" stroke="#090E38" stroke-linecap="round" stroke-linejoin="round"/>
<path d="M368.905 137.415H402.82V159.793H368.905V137.415Z" fill="#C7AAA0" stroke="#090E38" stroke-linecap="round" stroke-linejoin="round"/>
<path d="M368.898 137.415L345.459 121.372L368.898 159.793V137.415Z" fill="white" stroke="#090E38" stroke-linecap="round" stroke-linejoin="round"/>
<path d="M405.537 138.176H370.012L345.456 121.372H380.981L405.537 138.176Z" fill="#06FFF2" stroke="#090E38" stroke-linecap="round" stroke-linejoin="round"/>
<path d="M389.177 142.17H394.514V156.789H389.177V142.17Z" fill="#915945" stroke="#090E38" stroke-linecap="round" stroke-linejoin="round"/>
<path d="M383.847 142.17H389.184V156.789H383.847V142.17Z" fill="#090E38" stroke="#090E38" stroke-linecap="round" stroke-linejoin="round"/>
<path d="M378.511 142.17H383.848V156.789H378.511V142.17Z" fill="#915945" stroke="#090E38" stroke-linecap="round" stroke-linejoin="round"/>
<path d="M327.082 95.6553H330.07V117.37L327.082 112.574V95.6553Z" fill="white" stroke="#090E38" stroke-linecap="round" stroke-linejoin="round"/>
<path d="M329.932 95.6553H338.75V117.37H329.932V95.6553Z" fill="#C7AAA0" stroke="#090E38" stroke-linecap="round" stroke-linejoin="round"/>
<path d="M381.246 189.643H401.779V243.435H381.246V189.643Z" fill="#090E38" stroke="#090E38" stroke-linecap="round" stroke-linejoin="round"/>
<path d="M382.338 216.474C382.338 216.116 382.444 215.766 382.644 215.469C382.843 215.171 383.126 214.939 383.458 214.802C383.79 214.665 384.154 214.63 384.506 214.699C384.858 214.769 385.182 214.942 385.435 215.194C385.689 215.447 385.862 215.77 385.932 216.121C386.002 216.472 385.966 216.835 385.829 217.166C385.691 217.496 385.459 217.779 385.16 217.978C384.862 218.176 384.511 218.282 384.152 218.282C383.671 218.282 383.21 218.092 382.869 217.753C382.529 217.413 382.338 216.953 382.338 216.474Z" fill="white" stroke="#090E38" stroke-linecap="round" stroke-linejoin="round"/>
<path d="M435.742 232.181C435.742 232.181 452.942 222.801 468.985 221.09C485.027 219.379 494.337 226.819 494.255 230.044C494.173 233.269 483.032 233.531 480.914 234.071C478.796 234.612 465.89 231.051 446.834 235.569C427.779 240.087 425.332 241.012 425.332 241.012L435.742 232.181Z" fill="white" stroke="#090E38" stroke-linecap="round" stroke-linejoin="round"/>
<path d="M442.934 231.968C442.934 231.968 460.882 224.102 477.022 223.742C493.163 223.382 501.784 231.608 501.423 234.832C501.061 238.057 489.929 237.337 487.786 237.689C485.643 238.041 473.09 233.367 453.698 236.265C434.306 239.162 431.81 239.842 431.81 239.842L442.934 231.968Z" fill="white" stroke="#090E38" stroke-linecap="round" stroke-linejoin="round"/>
<path d="M213.593 225.346L238.511 218.634C238.511 218.634 256.154 204.671 277.434 206.218C298.715 207.765 317.918 216.04 324.149 220.705C330.381 225.371 338.164 230.02 339.749 231.059C341.333 232.099 362.589 226.402 374.009 231.059C385.429 235.716 394.247 245.031 394.247 245.031C394.247 245.031 442.522 230.535 454.459 228.473C466.397 226.41 480.411 227.433 490.271 234.677C500.132 241.921 498.022 246.562 492.792 247.601C487.562 248.641 486.56 243.459 458.014 251.219C429.468 258.978 394.739 279.203 380.725 286.922C366.71 294.64 343.369 305.551 327.77 300.893C312.171 296.236 269.643 280.194 259.783 280.194C249.922 280.194 218.256 282.264 218.256 282.264L213.593 225.346Z" fill="white" stroke="#090E38" stroke-linecap="round" stroke-linejoin="round"/>
<path d="M227.151 259.576L248.562 280.071L218.267 282.264L227.151 259.576Z" fill="#090E38" stroke="#090E38" stroke-linecap="round" stroke-linejoin="round"/>
<path d="M394.216 245.015C395.664 247.106 396.661 249.474 397.141 251.97C397.622 254.465 397.576 257.033 397.008 259.51C395.751 264.569 389.832 263.447 379.069 261.303C368.305 259.158 378.346 257.726 353.232 257.366C328.117 257.006 301.205 256.285 299.768 256.285" stroke="#090E38" stroke-linecap="round" stroke-linejoin="round"/>
<path d="M394.396 262.563C394.151 261.45 393.669 260.403 392.984 259.491C392.298 258.579 391.425 257.823 390.423 257.276C390.423 257.276 384.454 254.19 380.702 254.19C376.95 254.19 373.855 258.151 374.955 259.477" stroke="#090E38" stroke-linecap="round" stroke-linejoin="round"/>
<path d="M362.141 256.392V251.988" stroke="#090E38" stroke-linecap="round" stroke-linejoin="round"/>
<path d="M359.93 247.806C359.499 249.832 359.424 251.917 359.708 253.969" stroke="#090E38" stroke-linecap="round" stroke-linejoin="round"/>
<path d="M225.238 215.058H191.765V306.132H225.238C226.215 306.132 227.153 305.745 227.844 305.055C228.535 304.366 228.924 303.431 228.924 302.457V218.733C228.924 217.758 228.535 216.823 227.844 216.134C227.153 215.445 226.215 215.058 225.238 215.058Z" fill="#06FFF2" stroke="#090E38" stroke-linecap="round" stroke-linejoin="round"/>
<path d="M191.486 210.376H132.217V313.244H191.486C192.228 313.244 192.94 312.95 193.465 312.427C193.99 311.904 194.285 311.194 194.285 310.453V213.175C194.286 212.808 194.215 212.444 194.074 212.104C193.934 211.765 193.728 211.456 193.468 211.196C193.208 210.936 192.899 210.73 192.559 210.589C192.219 210.448 191.854 210.376 191.486 210.376Z" fill="#06FFF2" stroke="#090E38" stroke-linecap="round" stroke-linejoin="round"/>
<path d="M223.775 223.398H196.149" stroke="#090E38" stroke-linecap="round" stroke-linejoin="round"/>
<path d="M196.519 234.21H224.605" stroke="#090E38" stroke-linecap="round" stroke-linejoin="round"/>
<path d="M225.59 253.854H206.378" stroke="#090E38" stroke-linecap="round" stroke-linejoin="round"/>
<path d="M202.93 253.854H196.518" stroke="#090E38" stroke-linecap="round" stroke-linejoin="round"/>
</svg>
