<svg width="166" height="27" viewBox="0 0 166 27" fill="none" xmlns="http://www.w3.org/2000/svg">
<path d="M64.689 16.6195L69.0161 23.4042C69.2775 23.8151 69.557 24.215 69.7878 24.6462C70.2493 25.5233 69.7878 26.3488 68.825 26.3875C68.1363 26.4151 67.4313 26.3046 66.7552 26.4114C65.4787 26.6141 64.7882 25.9968 64.1716 24.9373C62.8068 22.5916 61.3572 20.2956 59.8896 18.0144C59.7624 17.846 59.603 17.7058 59.421 17.6026C59.239 17.4993 59.0384 17.435 58.8312 17.4137C57.3636 17.3455 55.8888 17.3916 54.4176 17.3805C53.6838 17.3805 53.3359 17.6477 53.3467 18.4714C53.3863 20.5904 53.3575 22.7095 53.3557 24.8286C53.3557 25.9784 52.959 26.3893 51.8592 26.3949C51.1687 26.3949 50.4764 26.3949 49.7859 26.3949C48.8844 26.3838 48.4391 25.9692 48.4373 25.0663C48.4264 21.3809 48.4264 17.6956 48.4373 14.0103C48.4373 13.0078 48.8591 12.6154 49.9067 12.6117C53.0005 12.6117 56.0944 12.6375 59.1882 12.5969C60.2358 12.5935 61.2802 12.4811 62.3055 12.2616C63.6812 11.9538 64.4871 10.9717 64.5917 9.53257C64.6962 8.09344 64.314 6.77962 62.969 6.1181C62.1388 5.70317 61.2331 5.4697 60.3097 5.43262C56.8841 5.35339 53.4585 5.40314 50.0329 5.39945C48.7924 5.39945 48.4373 5.03091 48.4318 3.75947C48.4318 3.14586 48.4138 2.53041 48.4318 1.9168C48.4607 1.12445 48.8573 0.626929 49.6596 0.626929C53.8641 0.64167 58.0758 0.52559 62.2695 0.750396C66.3135 0.965988 69.2667 4.40073 69.4362 8.49883C69.5876 12.1639 68.2985 14.8874 64.8837 16.3615C64.8459 16.3855 64.8188 16.4555 64.689 16.6195Z" fill="black"/>
<path d="M83.5524 21.4989C85.9683 21.4989 88.24 21.6703 90.4613 21.4528C92.9241 21.2115 94.6405 19.6304 95.5979 17.3363C96.7824 14.4968 96.6796 11.624 95.2174 8.91714C93.8688 6.41479 91.635 5.40318 88.9179 5.39212C86.0044 5.37922 83.0908 5.39212 80.1754 5.39212C79.0522 5.39212 78.7331 5.06044 78.7331 3.91798C78.7331 3.24172 78.7096 2.56546 78.7331 1.89104C78.7565 1.21663 79.0666 0.674877 79.7301 0.678562C83.6587 0.695146 87.6396 0.38189 91.5052 0.918107C96.7139 1.64043 100.048 5.45661 100.965 10.7635C101.096 11.6721 101.177 12.5875 101.207 13.5054C101.264 14.3947 100.995 15.2737 100.451 15.9709C98.4934 18.6538 96.4957 21.3146 94.7306 24.1284C93.6759 25.8126 92.2336 26.3396 90.5135 26.3802C86.9996 26.4465 83.482 26.4041 79.9699 26.4004C79.1532 26.4004 78.7493 25.9195 78.7457 25.129C78.7313 21.3515 78.7313 17.5734 78.7457 13.7947C78.7457 13.1129 79.1441 12.6891 79.795 12.6412C80.6958 12.5895 81.5987 12.5895 82.4994 12.6412C83.3324 12.6836 83.5812 13.2622 83.5812 14.0416C83.5668 16.0686 83.5722 18.0955 83.5686 20.1224L83.5524 21.4989Z" fill="black"/>
<path d="M12.4242 0.623317C14.9484 0.654643 14.6923 0.276894 15.7453 2.85664C18.6102 9.87537 21.4714 16.8959 24.4211 23.8778C25.2793 25.9048 24.5905 26.4668 22.7605 26.4078C19.9263 26.3175 20.2995 26.7063 19.133 23.8926C17.1678 19.1477 15.235 14.3899 13.259 9.65057C13.104 9.28203 12.7181 9.00747 12.4477 8.69053C12.1466 9.01853 11.7265 9.29309 11.5624 9.68189C9.39889 14.8709 7.25639 20.0696 5.13492 25.2783C4.8194 26.0503 4.33081 26.4465 3.48342 26.3949C2.76224 26.3507 2.04106 26.3949 1.31988 26.382C0.21107 26.3544 -0.266711 25.656 0.147967 24.6425C3.30193 16.95 6.45708 9.25746 9.61344 1.56492C9.88208 0.908929 10.2932 0.593831 10.9819 0.619628C11.4633 0.636212 11.9447 0.623317 12.4242 0.623317Z" fill="black"/>
<path d="M153.57 0.676783C155.468 0.182947 156.249 1.17983 156.927 2.88799C159.833 10.22 162.877 17.4912 165.877 24.7881C166.237 25.6634 165.783 26.3636 164.838 26.3913C164.058 26.4134 163.273 26.3526 162.495 26.4079C161.645 26.4687 161.153 26.1057 160.834 25.3207C159.199 21.3 157.542 17.2885 155.892 13.2733C155.382 12.0295 154.901 10.7709 154.343 9.54925C154.19 9.21389 153.803 8.99645 153.532 8.71452C153.283 8.98171 152.932 9.20652 152.798 9.5253C150.635 14.7179 148.498 19.9204 146.387 25.1327C146.026 26.0154 145.54 26.4852 144.57 26.406C143.883 26.3526 143.189 26.406 142.498 26.395C141.292 26.3839 140.859 25.7537 141.323 24.6094C143.024 20.4179 144.737 16.2308 146.461 12.0479C147.806 8.76796 149.201 5.50827 150.49 2.2062C150.934 1.07111 151.527 0.46303 152.76 0.673094C153.03 0.697395 153.3 0.698631 153.57 0.676783Z" fill="black"/>
<path d="M132.725 16.0983C132.725 19.0466 132.725 21.9949 132.725 24.9431C132.725 26.1519 132.463 26.4173 131.308 26.4173C130.496 26.4173 129.685 26.3878 128.875 26.4173C128.592 26.4429 128.307 26.3876 128.052 26.2575C127.798 26.1273 127.583 25.9275 127.433 25.6802C122.06 18.1142 116.673 10.5537 111.27 2.99876C110.877 2.44596 110.464 1.82683 110.929 1.26297C111.226 0.894434 111.895 0.710167 112.404 0.710167C115.483 0.654887 115.469 0.68806 117.272 3.21436C120.242 7.37266 123.229 11.5267 126.234 15.6764C126.535 16.0946 126.809 16.8464 127.433 16.4632C127.759 16.2642 127.904 15.5418 127.911 15.0535C127.956 12.4443 127.931 9.83324 127.933 7.22218C127.933 5.9323 128.198 5.6559 129.456 5.65037C130.116 5.65037 130.778 5.65037 131.439 5.65037C132.409 5.66511 132.734 5.98205 132.737 6.97525C132.737 10.0193 132.725 13.0598 132.725 16.0983Z" fill="black"/>
<path d="M32.7186 13.5478C32.7186 9.77157 32.7186 5.99656 32.7186 2.22277C32.7186 0.872088 32.9656 0.630696 34.3124 0.61964C34.9723 0.61964 35.6322 0.610422 36.2957 0.638062C37.0781 0.67123 37.5054 1.07477 37.5054 1.91503C37.5054 9.65426 37.5012 17.3892 37.4928 25.1198C37.4928 26.0411 37.1322 26.3931 36.2307 26.4097C35.4807 26.4244 34.7307 26.4207 33.9789 26.4097C33.0395 26.3968 32.7168 26.0504 32.7168 25.0572C32.7168 21.2207 32.7168 17.3843 32.7168 13.5478H32.7186Z" fill="black"/>
<path d="M113.11 22.6988V25.1846C113.11 26.0082 112.737 26.4339 111.899 26.4136C111.06 26.3934 110.276 26.4136 109.465 26.4136C108.654 26.4136 108.309 25.9585 108.298 25.2122C108.276 23.5538 108.276 21.8954 108.298 20.237C108.309 19.3857 108.747 18.9582 109.587 18.9361C110.338 18.9152 111.088 18.9152 111.839 18.9361C112.741 18.9563 113.101 19.3046 113.119 20.2259C113.137 21.0533 113.119 21.8843 113.119 22.7136L113.11 22.6988Z" fill="black"/>
</svg>
