<svg width="70" height="70" viewBox="0 0 70 70" fill="none" xmlns="http://www.w3.org/2000/svg">
<path d="M0 9.52C0 4.26225 4.26225 0 9.52 0H60.48C65.7378 0 70 4.26225 70 9.52V60.48C70 65.7378 65.7378 70 60.48 70H9.52C4.26225 70 0 65.7378 0 60.48V9.52Z" fill="#06FFF2"/>
<path d="M14 20.51C14.1605 19.6743 14.5052 18.8852 15.0088 18.2003C15.4195 17.6607 15.942 17.2168 16.5403 16.8993C17.1385 16.5818 17.7983 16.3982 18.4741 16.3612C19.2156 16.3131 19.4022 16.5054 19.4022 17.2719V22.9563C19.5687 22.9563 19.7099 22.979 19.8512 22.979C25.8671 22.979 31.8823 22.979 37.8965 22.979C38.022 22.9834 38.1469 22.96 38.2624 22.9106C38.3779 22.8612 38.4811 22.787 38.5649 22.6932C41.0113 20.2326 43.4594 17.7745 45.9091 15.3189C46.918 14.307 47.9268 14.307 48.9356 15.3189C49.4703 15.8552 50.0075 16.3865 50.5371 16.9278C51.387 17.7981 51.3896 18.8606 50.5371 19.7308C49.5888 20.6947 48.6304 21.6459 47.6771 22.6046C47.5838 22.6982 47.4955 22.7969 47.3417 22.9588C47.5459 22.9715 47.6821 22.9841 47.8183 22.9841H51.3795C52.5119 22.9841 52.5825 23.0549 52.5825 24.2136V35.8909L52.6733 35.9441L54.015 34.5755C54.1084 34.4793 54.2067 34.3857 54.3 34.2871C54.3849 34.1726 54.5051 34.0896 54.6419 34.0507C54.7787 34.0118 54.9245 34.0193 55.0567 34.072C55.186 34.1322 55.2925 34.2327 55.3602 34.3585C55.4279 34.4843 55.4533 34.6288 55.4324 34.7703C55.4324 37.7048 55.4324 40.6401 55.4324 43.5763V55.0235C55.4324 55.8507 55.2836 56.0025 54.4766 56.0025H34.4539C34.2929 56.0133 34.1312 56.0048 33.9722 55.9772C33.8673 55.95 33.7716 55.8948 33.6955 55.8175C33.6193 55.7401 33.5654 55.6435 33.5395 55.538C33.5137 55.4324 33.5168 55.3218 33.5486 55.2178C33.5803 55.1139 33.6396 55.0205 33.72 54.9476C34.0958 54.5403 34.4993 54.1609 34.8902 53.7687L37.1979 51.4515H36.6355C30.6885 51.4515 24.7406 51.4515 18.7919 51.4515C16.8802 51.4515 15.4376 50.6369 14.5397 48.9445C14.2749 48.4385 14.174 47.8542 14 47.3027V20.51ZM18.1791 17.6387C18.0252 17.664 17.9445 17.6691 17.8688 17.6893C16.2774 18.0839 15.2156 19.531 15.2156 21.322C15.2156 28.6954 15.2156 36.0714 15.2156 43.4499V43.8445C15.9065 43.0882 16.8186 42.571 17.8209 42.3671C18.111 42.3165 18.1917 42.2027 18.1891 41.9194C18.174 40.7961 18.1891 39.6729 18.1891 38.5497C18.1891 38.0994 18.4414 37.8313 18.7869 37.8313C19.1324 37.8313 19.3947 38.1045 19.3972 38.5472C19.3972 39.9411 19.4098 41.3299 19.3972 42.7289C19.3972 43.2348 19.1702 43.4397 18.6406 43.4878C18.3987 43.5025 18.1584 43.5364 17.9218 43.589C15.8688 44.0949 14.4061 46.5387 15.7579 48.6485C16.4666 49.7616 17.5233 50.2245 18.8096 50.2245H36.1689C36.9104 50.2245 37.7376 50.4219 38.3682 50.1537C38.9987 49.8856 39.4703 49.1418 40.0075 48.6232C40.2975 48.3374 40.575 48.0414 40.8726 47.7682C40.9832 47.6563 41.1327 47.5916 41.2897 47.5879C41.4467 47.5841 41.5991 47.6415 41.7149 47.7479C41.7743 47.804 41.8215 47.8716 41.8538 47.9466C41.8861 48.0217 41.9028 48.1026 41.9028 48.1843C41.9028 48.2661 41.8861 48.3469 41.8538 48.422C41.8215 48.497 41.7743 48.5646 41.7149 48.6207C41.6368 48.7143 41.546 48.7978 41.4627 48.8737L35.9697 54.3835C35.8688 54.4872 35.773 54.5934 35.6368 54.7376H54.1916V51.8537C53.8587 51.8537 53.551 51.8537 53.2433 51.8537C52.7565 51.8537 52.4993 51.6311 52.5018 51.2466C52.5043 50.8621 52.754 50.647 53.2584 50.6344C53.5661 50.6344 53.8738 50.6344 54.1966 50.6344V48.8028C53.836 48.8028 53.498 48.8205 53.1651 48.8028C52.7338 48.7775 52.5043 48.5499 52.5119 48.183C52.5195 47.8162 52.7641 47.6063 53.1853 47.5911C53.5207 47.5911 53.8536 47.5911 54.1941 47.5911V45.7494C53.8486 45.7494 53.5283 45.7494 53.208 45.7494C52.7641 45.7494 52.5018 45.4964 52.5043 45.1372C52.5068 44.778 52.7565 44.5427 53.213 44.5351C53.5434 44.5351 53.8738 44.5351 54.184 44.5351V42.6859C53.841 42.6859 53.5333 42.6859 53.2231 42.6859C52.759 42.6859 52.5144 42.4708 52.5068 42.0964C52.4993 41.722 52.759 41.4817 53.2357 41.4691C53.5535 41.4691 53.8713 41.4691 54.184 41.4691V36.1869C54.042 36.2586 53.9178 36.3615 53.8208 36.488C51.7342 38.586 49.646 40.6823 47.556 42.777C46.2496 44.0874 44.9432 45.3978 43.6367 46.7082C43.3064 47.0396 42.9306 47.0826 42.6758 46.8372C42.4211 46.5918 42.4236 46.2073 42.7792 45.8405C42.8448 45.7722 42.9129 45.7064 42.981 45.6406C45.6779 42.9253 48.3715 40.2185 51.0617 37.5201C51.2239 37.3531 51.3237 37.1351 51.3442 36.9028C51.3593 32.8147 51.3442 28.7292 51.3618 24.6436C51.3618 24.3072 51.2735 24.2034 50.9331 24.2085C49.4375 24.2237 47.9394 24.2085 46.4438 24.2085C46.318 24.205 46.1929 24.2292 46.0774 24.2795C45.9619 24.3297 45.8588 24.4048 45.7755 24.4994C42.29 28.0057 38.7566 31.4689 35.3265 35.0283C34.0655 36.3286 32.7314 37.3405 30.9634 37.7528C30.5858 37.8646 30.2153 37.999 29.8537 38.1551L29.8713 38.2234H41.5283C42.0327 38.2234 42.3202 38.4612 42.3152 38.8432C42.3101 39.2252 42.0277 39.4402 41.5586 39.4402C36.0403 39.4402 30.5237 39.4402 25.0088 39.4402C24.5523 39.4402 24.2925 39.2176 24.2824 38.8533C24.2724 38.489 24.5347 38.231 25.0088 38.2234C25.4829 38.2158 25.9798 38.2006 26.464 38.2234C26.5277 38.2369 26.5935 38.2373 26.6574 38.2246C26.7213 38.2119 26.7819 38.1863 26.8357 38.1494C26.8894 38.1125 26.9352 38.0651 26.9701 38.01C27.0051 37.9549 27.0285 37.8932 27.0391 37.8287C27.6217 36.1161 28.2295 34.411 28.8297 32.706C28.8694 32.549 28.9406 32.4018 29.039 32.2734C29.9924 31.2969 30.9609 30.3356 31.9268 29.3717C31.9722 29.3262 32.0428 29.263 32.0933 29.268C32.3202 29.2959 32.6128 29.268 32.744 29.4122C32.8614 29.608 32.9019 29.8408 32.8575 30.0649C32.8423 30.199 32.6784 30.3179 32.5649 30.4368C31.8335 31.1755 31.0996 31.9091 30.401 32.6073L33.1298 35.3723L45.6569 22.8121C44.7666 21.9165 43.8511 21.0008 42.8524 19.999C42.7757 20.1354 42.6862 20.2642 42.585 20.3835C39.9974 22.9875 37.4014 25.5898 34.7969 28.1903C34.6868 28.3093 34.5652 28.4169 34.4337 28.5116C34.3196 28.5852 34.1837 28.6171 34.0488 28.602C33.914 28.5868 33.7885 28.5255 33.6934 28.4284C33.5984 28.3313 33.5396 28.2042 33.527 28.0687C33.5144 27.9332 33.5487 27.7975 33.6242 27.6844C33.6988 27.5757 33.7832 27.474 33.8764 27.3808L36.6506 24.5981C36.7515 24.4969 36.8423 24.3881 36.9835 24.2363H19.3972V24.7423C19.3972 28.3666 19.3972 31.9926 19.3972 35.6202C19.4051 35.8082 19.3873 35.9963 19.3442 36.1793C19.3056 36.305 19.2261 36.414 19.1183 36.4889C19.0106 36.5638 18.8809 36.6002 18.75 36.5923C18.6192 36.5845 18.4947 36.5327 18.3967 36.4455C18.2987 36.3582 18.2327 36.2404 18.2093 36.111C18.1857 35.9367 18.1773 35.7606 18.1841 35.5848C18.1841 29.795 18.1841 24.0036 18.1841 18.2104L18.1791 17.6387ZM48.6153 19.9484C48.981 19.5765 49.3543 19.2072 49.7124 18.8252C50.0176 18.4988 50.0377 18.1649 49.7401 17.8537C49.1348 17.2213 48.5144 16.604 47.8864 15.9944C47.8332 15.9318 47.7676 15.881 47.6939 15.845C47.6201 15.8091 47.5397 15.7888 47.4578 15.7855C47.3759 15.7822 47.2941 15.7959 47.2177 15.8257C47.1413 15.8556 47.0719 15.9009 47.0138 15.959C46.5926 16.3485 46.1992 16.771 45.8234 17.1505L48.6153 19.9484ZM43.841 19.1414L46.575 21.9064L47.609 20.8945L44.865 18.1421C44.5447 18.4558 44.1866 18.7999 43.841 19.1414ZM31.9293 36.0908L29.7251 33.8697C28.9987 35.3243 29.0189 35.4862 30.0933 36.493C30.1134 36.5107 30.1286 36.5411 30.1513 36.5461C30.2572 36.5714 30.3808 36.6296 30.4716 36.5993C30.9709 36.4525 31.4628 36.2704 31.9293 36.1034V36.0908Z" fill="black"/>
<path d="M47.1046 51.6868C46.0655 51.6868 45.0264 51.6868 43.9899 51.6868C43.6721 51.6868 43.382 51.6387 43.2332 51.3199C43.0844 51.0012 43.2484 50.728 43.4854 50.4902C45.6073 48.3702 47.725 46.2461 49.8385 44.1177C50.0705 43.885 50.3202 43.7079 50.6607 43.8521C51.0012 43.9963 51.039 44.31 51.039 44.6363C51.039 46.6939 51.039 48.7505 51.039 50.8064C51.039 51.4793 50.8347 51.6817 50.1714 51.6842L47.1046 51.6868ZM49.8007 46.0808C48.3555 47.5278 46.8852 49.0052 45.4552 50.4396H49.8007V46.0808Z" fill="black"/>
</svg>
