<svg width="136" height="46" viewBox="0 0 136 46" fill="none" xmlns="http://www.w3.org/2000/svg">
<path d="M27.7291 4.18066C27.435 4.3181 27.3001 4.06819 27.1898 3.84329C26.3688 2.19406 25.0575 1.91919 23.7462 3.69337C22.6472 5.30175 21.8456 7.10131 21.381 9.00341C20.2933 12.9112 19.5389 16.9075 19.1261 20.9478C18.9913 22.0598 18.8932 23.1718 18.7584 24.2713C18.7089 24.7226 18.5026 25.141 18.1766 25.4504C17.8505 25.7599 17.4266 25.9399 16.9815 25.958H16.2707C14.4265 25.9027 12.611 25.4782 10.9275 24.7086C10.6597 24.6353 10.409 24.5079 10.1904 24.334C9.97175 24.1601 9.78955 23.9432 9.65468 23.6962C9.51981 23.4491 9.435 23.177 9.40523 22.8959C9.37546 22.6148 9.40141 22.3305 9.48145 22.0598C9.97792 17.2496 11.4646 12.6003 13.8442 8.41607C15.3194 5.67212 17.5017 3.39119 20.1555 1.81924C20.8642 1.36773 21.6539 1.06445 22.4787 0.927164C23.3034 0.789881 24.1467 0.821328 24.9594 1.01959C25.5753 1.2103 26.1449 1.53137 26.6306 1.96199C27.1163 2.39261 27.5074 2.92306 27.7781 3.51843C27.8884 3.7933 28.0477 4.01824 27.7291 4.18066Z" fill="#545454"/>
<path d="M30.7926 34.4415C30.478 35.0523 30.0246 35.5774 29.4703 35.973C28.916 36.3686 28.2769 36.6231 27.6063 36.7154C24.9829 37.2042 22.3036 37.301 19.6529 37.0028C19.5015 36.9531 19.3386 36.9531 19.1872 37.0028C19.3671 38.184 19.7442 39.3251 20.3023 40.3763C20.7432 41.2552 21.491 41.9339 22.3984 42.2785C23.3058 42.6231 24.3069 42.6086 25.2043 42.2379C26.0765 41.9353 26.8747 41.4453 27.5451 40.801L27.8514 40.5262C28.0598 40.3388 28.2681 40.2014 28.5377 40.4138C28.8073 40.6262 28.6235 40.851 28.5377 41.0634C28.157 41.6937 27.6954 42.2694 27.1652 42.7751C25.6645 44.2025 23.7116 45.034 21.661 45.1188C19.6103 45.2036 17.5978 44.5361 15.9886 43.2374C13.6353 41.2813 11.8793 38.6803 10.9273 35.7408C10.7435 35.2536 10.6209 34.7664 10.4616 34.2666C9.11944 33.5376 7.81838 32.7325 6.56453 31.8552C4.79373 30.5528 3.2941 28.9051 2.15269 27.0074C0.892731 25.0803 0.419561 22.7283 0.833771 20.4511C1.24798 18.174 2.51691 16.1513 4.37084 14.813C5.36885 14.0089 6.44954 13.3178 7.59391 12.7516C7.75001 12.6708 7.91444 12.6079 8.08414 12.5642C8.24263 12.4833 8.42062 12.451 8.59674 12.471C8.77285 12.4909 8.93957 12.5623 9.07679 12.6766C9.18219 12.8106 9.24651 12.9734 9.26177 13.1445C9.27703 13.3156 9.24255 13.4874 9.16259 13.6386C8.80719 14.8131 8.40273 15.975 8.12087 17.1744C8.01066 17.6707 7.75449 18.1209 7.38657 18.4647C7.01866 18.8086 6.55655 19.0297 6.06204 19.0986C5.48605 19.2485 4.91005 19.3735 4.35858 19.5484C3.96569 19.6772 3.58439 19.8403 3.21887 20.0357C2.90087 20.1305 2.61578 20.3153 2.39661 20.5686C2.17744 20.8219 2.03318 21.1334 1.98058 21.4669C1.92799 21.8004 1.9692 22.1423 2.09944 22.4529C2.22968 22.7635 2.44363 23.0301 2.71645 23.2218C3.27647 23.806 3.92126 24.299 4.62823 24.6835C7.50998 26.2257 10.6183 27.2807 13.8317 27.807C17.9951 28.6028 22.2373 28.8839 26.4666 28.6442C27.6921 28.6442 28.8073 28.4567 29.9715 28.3942C30.1835 28.3701 30.398 28.3903 30.602 28.4536C30.806 28.5168 30.9952 28.6219 31.1581 28.7623C31.3209 28.9026 31.4541 29.0751 31.5493 29.2697C31.6445 29.4642 31.6997 29.6766 31.7117 29.8936C31.902 31.4713 31.5791 33.0691 30.7926 34.4415Z" fill="#545454"/>
<path d="M42.5454 24.5085C42.3753 26.902 41.3914 29.1599 39.7635 30.8931C39.006 31.7581 38.1409 32.5184 37.19 33.1546C37.0587 33.2698 36.9032 33.3526 36.7355 33.3966C36.5678 33.4406 36.3924 33.4446 36.2229 33.4084C36.0534 33.3721 35.8944 33.2965 35.7582 33.1875C35.622 33.0785 35.5123 32.9389 35.4375 32.7797C35.117 32.2654 34.8999 31.6913 34.7989 31.0907C34.6979 30.4901 34.715 29.8752 34.8492 29.2814C34.9198 28.8757 35.1102 28.5015 35.3949 28.2091C35.6795 27.9166 36.045 27.7197 36.4424 27.6446C37.4154 27.4195 38.3766 27.1444 39.3223 26.8201C39.7068 26.6783 40.0731 26.4894 40.413 26.2578C40.6261 26.1459 40.8123 25.9876 40.9585 25.794C41.1046 25.6003 41.2071 25.3761 41.2585 25.1375C41.31 24.8989 41.3092 24.6516 41.2563 24.4134C41.2034 24.1751 41.0996 23.9516 40.9522 23.7589C40.4708 23.0468 39.8162 22.4742 39.0527 22.0972C37.332 21.1921 35.5028 20.5201 33.6114 20.0982C30.3933 19.2831 27.1138 18.7439 23.8074 18.4864C22.5819 18.4114 22.2266 17.9867 22.202 16.8247C22.13 14.9645 22.4825 13.1125 23.2315 11.4146C23.4165 10.9256 23.7614 10.5167 24.2081 10.2572C24.6547 9.99762 25.1755 9.90333 25.6825 9.99026C29.8505 10.4572 33.8027 12.1211 37.0796 14.7881C39.0466 16.1924 40.6354 18.0785 41.6998 20.273C42.3086 21.596 42.5985 23.0482 42.5454 24.5085Z" fill="#545454"/>
<path d="M51.5528 30.1935C51.5528 31.3555 51.5528 32.505 51.5528 33.6545C51.5528 34.1292 51.6876 34.2166 52.1043 34.2166C54.1141 34.2166 56.1117 34.2166 58.1093 34.2166C58.5259 34.2166 58.7097 34.2792 58.6729 34.7665C58.624 35.2608 58.624 35.7589 58.6729 36.2532C58.6729 36.703 58.5382 36.7655 58.146 36.7655C56.1362 36.7655 54.1509 36.7655 52.1411 36.7655C51.6386 36.7655 51.5405 36.9154 51.5528 37.4027C51.5528 39.1144 51.5528 40.8261 51.5528 42.5503C51.5528 43.0626 51.6999 43.1625 52.1656 43.15C54.2244 43.15 56.2832 43.15 58.293 43.15C58.6975 43.15 58.8445 43.25 58.82 43.6748C58.7955 44.0996 58.82 44.7492 58.82 45.2865C58.82 45.5988 58.722 45.7114 58.4156 45.7114C55.3396 45.7114 52.2881 45.7114 49.1876 45.7114C48.7219 45.7114 48.82 45.4114 48.82 45.1491V36.4031C48.82 33.492 48.82 30.5808 48.82 27.6572C48.82 27.2324 48.8812 27.0575 49.3469 27.0575C52.3249 27.0575 55.3151 27.0575 58.293 27.0575C58.7465 27.0575 58.869 27.1949 58.8323 27.6322C58.7955 28.1312 58.7955 28.6325 58.8323 29.1316C58.8323 29.5439 58.6975 29.6188 58.3176 29.6188C56.2465 29.6188 54.1754 29.6188 52.092 29.6188C51.6631 29.5814 51.5405 29.7188 51.5528 30.1935Z" fill="#545454"/>
<path d="M62.8274 10.815C62.5158 8.92898 61.6065 7.19903 60.2386 5.8902C58.8707 4.58137 57.1197 3.76576 55.2538 3.56828C53.3246 3.36214 51.384 3.28709 49.445 3.34347C48.9915 3.34347 48.8567 3.45588 48.8567 3.93066C48.8567 6.84181 48.8567 9.74047 48.8567 12.6766V21.4226C48.8567 21.6724 48.7587 21.9849 49.2244 21.9724C51.146 22.0329 53.0695 21.9745 54.9842 21.7974C61.3077 20.7979 63.6485 15.8626 62.8274 10.815ZM60.2293 13.4888C59.8862 16.7622 57.9376 18.6239 54.5307 19.1362C53.6927 19.238 52.8501 19.2964 52.0062 19.3111C51.6386 19.3111 51.5528 19.1987 51.5528 18.8363C51.5528 16.7623 51.5528 14.6882 51.5528 12.5892V6.34211C51.5528 6.09223 51.5528 5.81731 51.9204 5.8298C53.4911 5.80904 55.0538 6.06255 56.5406 6.57943C59.494 7.80386 60.6092 10.3902 60.2293 13.4888Z" fill="#545454"/>
<path d="M77.0187 44.287C77.0187 45.7114 77.0187 45.6988 75.6339 45.6489C75.4981 45.637 75.3669 45.5937 75.2501 45.5223C75.1333 45.4508 75.034 45.3531 74.9599 45.2366L63.7098 32.5174V33.2297C63.7098 37.1779 63.7098 41.126 63.7098 45.0742C63.7098 45.5115 63.6363 45.6864 63.1706 45.6614C62.624 45.6176 62.0749 45.6176 61.5284 45.6614C61.1117 45.6614 61.0014 45.5364 61.0014 45.1241C61.0014 42.3503 61.0014 39.5767 61.0014 36.803C61.0014 33.7544 61.0014 30.7057 61.0014 27.6447C61.0014 27.1949 61.1239 27.0824 61.5774 27.045C61.9226 27.0103 62.2708 27.0668 62.5885 27.2091C62.9061 27.3513 63.1826 27.5745 63.3912 27.8571C66.8471 31.7678 70.3519 35.6535 73.8324 39.5267C73.9672 39.6766 74.1143 39.8016 74.3471 40.039V39.3267C74.3471 35.4285 74.3471 31.5387 74.3471 27.6572C74.3471 27.1949 74.4574 27.0075 74.9231 27.0575C75.3752 27.1074 75.8312 27.1074 76.2833 27.0575C76.8471 27.0575 77.0309 27.1449 77.0187 27.7821C77.0064 33.267 77.0187 38.7771 77.0187 44.287Z" fill="#545454"/>
<path d="M77.9991 9.90294C77.9991 11.8895 78.1094 13.9011 77.9991 15.8877C78.0091 17.1669 77.6337 18.4183 76.9236 19.4729C76.2135 20.5276 75.2029 21.3347 74.0285 21.785C72.8185 22.3388 71.475 22.5156 70.1667 22.2933C68.8584 22.071 67.6439 21.4595 66.6755 20.5355C66.0357 19.927 65.5267 19.1896 65.1807 18.3702C64.8348 17.5509 64.6594 16.6672 64.6656 15.7752C64.6044 11.7895 64.6656 7.80391 64.6656 3.80576C64.6656 3.44343 64.8127 3.3935 65.1191 3.3935C65.6865 3.42474 66.2551 3.42474 66.8225 3.3935C67.276 3.3935 67.374 3.50589 67.374 3.95568C67.374 7.05425 67.374 10.1445 67.374 13.2264C67.3098 14.3813 67.388 15.5399 67.6069 16.6749C67.8114 17.5619 68.3069 18.351 69.0114 18.9117C69.716 19.4723 70.5872 19.7708 71.4808 19.7577C72.3745 19.7446 73.237 19.4206 73.9254 18.8395C74.6138 18.2584 75.0869 17.455 75.2663 16.5623C75.4211 15.7389 75.495 14.9018 75.4868 14.0635C75.4868 10.7275 75.4868 7.40404 75.4868 4.06809C75.4868 3.55582 75.6094 3.3934 76.0996 3.44338C76.5681 3.49331 77.0404 3.49331 77.5089 3.44338C78.0848 3.36841 78.1829 3.61837 78.1707 4.14313C77.9746 5.99227 77.9991 7.95384 77.9991 9.90294Z" fill="#545454"/>
<path d="M82.0677 30.3435C82.0677 31.3805 82.0677 32.43 82.0677 33.467C82.0677 34.0293 82.1536 34.2416 82.7786 34.2166C84.7271 34.2166 86.6634 34.2166 88.5997 34.2166C89.0654 34.2166 89.2859 34.3041 89.2246 34.8288C89.1633 35.3536 89.4943 36.2908 89.0898 36.6531C88.6854 37.0154 87.9379 36.753 87.3251 36.753C85.7687 36.753 84.2001 36.753 82.6192 36.753C82.2148 36.753 82.0555 36.8279 82.0677 37.3027C82.0677 39.0519 82.0677 40.8137 82.0677 42.5628C82.0677 43.0751 82.2393 43.1375 82.656 43.1375C84.7271 43.1375 86.7736 43.1375 88.7835 43.1375C89.2492 43.1375 89.4084 43.2624 89.3717 43.7247C89.3349 44.2029 89.3349 44.6834 89.3717 45.1616C89.3717 45.5864 89.2614 45.7114 88.8447 45.6989C86.7491 45.6989 84.6535 45.6989 82.5579 45.6989C81.651 45.6989 80.7565 45.6989 79.8496 45.6989C79.4329 45.6989 79.3226 45.5739 79.3226 45.1616C79.3226 42.2254 79.3226 39.3018 79.3226 36.4156C79.3226 33.5295 79.3226 30.6308 79.3226 27.6697C79.3226 27.2074 79.4329 27.07 79.9109 27.0825H88.7957C89.2492 27.0825 89.4207 27.1949 89.3839 27.6697C89.3411 28.1476 89.3411 28.6286 89.3839 29.1065C89.3839 29.5189 89.2737 29.6562 88.8693 29.6437C86.8227 29.6437 84.7761 29.6437 82.7418 29.6437C82.1535 29.5687 82.031 29.7687 82.0677 30.3435Z" fill="#545454"/>
<path d="M93.9551 21.9848H90.4992C90.2541 21.9848 90.1683 21.7724 90.058 21.6225C88.085 19.1236 86.1242 16.6248 84.1511 14.1259C84.0163 13.9635 83.906 13.5886 83.6609 13.7135C83.498 13.7796 83.3578 13.893 83.2576 14.0396C83.1573 14.1862 83.1015 14.3595 83.0971 14.5382C83.0971 16.6622 83.0971 18.7738 83.0971 20.8853C83.0787 21.0054 83.0787 21.1275 83.0971 21.2476C83.1952 21.8098 82.9256 21.9348 82.4354 21.8848C81.9663 21.8473 81.4951 21.8473 81.026 21.8848C80.5358 21.8848 80.3765 21.7973 80.3765 21.2476C80.3765 17.5993 80.3765 13.9509 80.3765 10.3026C80.3765 8.12862 80.3765 5.95467 80.3765 3.78067C80.3765 3.39335 80.4624 3.24339 80.8668 3.28087C81.2712 3.31836 81.9574 3.28087 82.5089 3.28087C83.0604 3.28087 83.1094 3.36844 83.0971 3.85571C83.0971 6.10467 83.0971 8.3661 83.0971 10.7025C83.5873 10.2152 84.0285 9.80284 84.4452 9.35305C86.2835 7.46642 88.1217 5.60487 89.9109 3.66827C90.0236 3.53484 90.1656 3.4302 90.3252 3.36293C90.4848 3.29565 90.6578 3.26754 90.83 3.28087C91.7859 3.28087 92.7419 3.28087 93.808 3.28087L93.3301 3.81819C90.8791 6.31704 88.5016 8.81578 86.0506 11.2147C85.6585 11.6145 85.7075 11.8145 86.0506 12.2143C88.5874 15.2754 91.0996 18.3739 93.6119 21.46C93.6977 21.6349 93.7958 21.7599 93.9551 21.9848Z" fill="#545454"/>
<path d="M100.708 41.6633L97.8889 37.7775C98.5691 37.6325 99.2135 37.3487 99.7832 36.9429C100.353 36.5372 100.836 36.0181 101.204 35.4168C101.571 34.8156 101.816 34.1446 101.922 33.4445C102.028 32.7444 101.995 32.0296 101.823 31.3431C101.32 29.0817 99.9232 27.7698 97.2884 27.27C95.635 27.1077 93.9728 27.0576 92.3129 27.1201C91.9085 27.1201 91.7859 27.2074 91.7859 27.6447C91.7859 33.467 91.7859 39.2768 91.7859 45.1366C91.7859 45.5364 91.8594 45.7114 92.3006 45.6739C92.8267 45.6302 93.3555 45.6302 93.8816 45.6739C94.3963 45.6739 94.4943 45.524 94.4821 45.0367C94.4821 42.8627 94.4821 40.6888 94.4821 38.5148C94.4821 38.3399 94.3717 38.09 94.6658 38.0275C94.7752 37.9843 94.8965 37.9847 95.0056 38.0287C95.1146 38.0727 95.2034 38.157 95.2541 38.2648C95.3123 38.3694 95.3778 38.4696 95.4502 38.5647C96.9616 40.772 98.4731 42.9793 99.9845 45.1866C100.095 45.3616 100.156 45.6489 100.401 45.6489H103.575L100.708 41.6633ZM94.7884 35.6536C94.4821 35.6536 94.433 35.5162 94.4453 35.2538C94.4453 34.3667 94.4453 33.4671 94.4453 32.5675V30.0312C94.4453 29.8188 94.4453 29.5939 94.7516 29.6064C95.7904 29.5613 96.8276 29.727 97.8031 30.0937C98.2852 30.3266 98.6914 30.6959 98.9734 31.1576C99.2554 31.6194 99.4012 32.1539 99.3934 32.6978C99.3857 33.2416 99.2247 33.7717 98.9297 34.2249C98.6347 34.6781 98.2181 35.0353 97.7296 35.2538C96.7812 35.5684 95.7845 35.7038 94.7884 35.6536Z" fill="#545454"/>
<path d="M97.6193 6.46698C97.6193 7.62895 97.6193 8.77845 97.6193 9.94041C97.6193 10.3777 97.7296 10.5151 98.1708 10.5026C100.193 10.5026 102.203 10.5026 104.225 10.5026C104.666 10.5026 104.825 10.6026 104.776 11.0524C104.703 11.7021 105.034 12.5766 104.641 12.9389C104.249 13.3012 103.416 13.039 102.828 13.039C101.296 13.039 99.7762 13.039 98.2443 13.039C97.7051 13.039 97.6071 13.2014 97.6193 13.7012C97.6193 15.4254 97.6193 17.1371 97.6193 18.8613C97.6193 19.2861 97.7051 19.4235 98.1708 19.4235C100.266 19.4235 102.362 19.4235 104.458 19.4235C104.862 19.4235 105.009 19.5358 104.985 19.9606C104.954 20.4974 104.954 21.0356 104.985 21.5724C104.985 21.8723 104.899 21.9972 104.58 21.9972H95.3521C94.8987 21.9972 94.9722 21.7224 94.9722 21.4475V12.7016C94.9722 9.80293 94.9722 6.89178 94.9722 3.95563C94.9722 3.55582 95.058 3.40582 95.487 3.41832H104.47C104.899 3.41832 105.021 3.53083 104.997 3.95563C104.96 4.45053 104.96 4.94748 104.997 5.44237C104.997 5.87967 104.85 5.97969 104.458 5.97969C102.387 5.97969 100.303 5.97969 98.2321 5.97969C97.7664 5.86724 97.6071 5.97971 97.6193 6.46698Z" fill="#545454"/>
<path d="M117.448 44.5243C115.57 45.7593 113.31 46.2399 111.105 45.8729C108.9 45.5058 106.906 44.3174 105.512 42.5378C104.452 41.24 103.745 39.6813 103.461 38.0176C103.178 36.3539 103.327 34.6433 103.896 33.0571C104.464 31.471 105.431 30.0648 106.699 28.979C107.968 27.8932 109.494 27.1659 111.124 26.87C112.767 26.5274 114.471 26.6501 116.05 27.225C117.629 27.7999 119.024 28.8049 120.083 30.1309C120.218 30.2934 120.377 30.4309 120.083 30.6683C119.544 31.2055 119.029 31.7802 118.49 32.3675C117.934 31.5266 117.21 30.8155 116.365 30.2813C115.52 29.7472 114.573 29.4021 113.588 29.2689C112.691 29.1688 111.785 29.2518 110.92 29.5128C110.056 29.7738 109.251 30.2077 108.553 30.7892C107.855 31.3707 107.277 32.0882 106.854 32.8997C106.431 33.7113 106.17 34.6007 106.088 35.516C105.9 37.3413 106.401 39.1708 107.489 40.6328C108.578 42.0949 110.171 43.0797 111.945 43.3873C113.334 43.5588 114.737 43.2171 115.9 42.4238C117.062 41.6306 117.907 40.4386 118.281 39.0643C118.355 38.7145 118.281 38.5645 117.889 38.5645C116.664 38.5645 115.438 38.5645 114.311 38.5645C113.894 38.5645 113.686 38.4771 113.735 38.0024C113.784 37.5276 113.465 36.5155 113.882 36.1157C114.298 35.7159 115.107 36.0158 115.695 36.0158H120.659C120.879 36.0158 121.124 35.9409 121.137 36.3282C121.31 37.9071 121.058 39.5042 120.408 40.9482C119.758 42.3923 118.735 43.6286 117.448 44.5243Z" fill="#545454"/>
<path d="M135.242 27.6571C133.465 30.7932 131.688 33.9043 129.899 37.0778C129.688 37.4311 129.582 37.8388 129.593 38.2522C129.593 40.5262 129.593 42.8002 129.593 45.0742C129.593 45.499 129.519 45.6863 129.053 45.6614C128.507 45.6177 127.958 45.6177 127.411 45.6614C126.995 45.6614 126.872 45.5488 126.884 45.1365C126.884 42.8001 126.884 40.4637 126.884 38.1273C126.893 37.7703 126.8 37.4185 126.615 37.1153C124.838 33.9793 123.048 30.8682 121.284 27.6947C121.13 27.5218 121.035 27.3025 121.014 27.07H123.759C124.09 27.07 124.139 27.3073 124.249 27.5072C125.475 29.6562 126.7 31.8303 127.926 33.9793L128.22 34.5039C128.396 34.3673 128.528 34.1803 128.6 33.9668C129.817 31.8261 131.043 29.6812 132.276 27.5322C132.339 27.3805 132.448 27.2535 132.587 27.1702C132.726 27.0868 132.888 27.0517 133.048 27.07C133.87 27.07 134.691 27.07 135.499 27.07C135.524 27.3323 135.365 27.5322 135.242 27.6571Z" fill="#545454"/>
<path d="M30.7926 34.4415C30.478 35.0523 30.0246 35.5774 29.4703 35.973C28.916 36.3686 28.2769 36.6231 27.6063 36.7154C24.9829 37.2042 22.3036 37.301 19.6529 37.0028C19.5015 36.9531 19.3386 36.9531 19.1872 37.0028C18.3591 37.0157 17.5337 36.9062 16.7364 36.6779C14.7542 36.2319 12.8236 35.5745 10.9765 34.7164C10.7578 34.6232 10.5643 34.4775 10.4128 34.2916C9.07058 33.5626 7.76952 32.7575 6.51567 31.8801C4.74487 30.5778 3.24531 28.9301 2.10391 27.0324C0.843945 25.1053 0.370775 22.7533 0.784985 20.4761C1.19919 18.199 2.46812 16.1763 4.32206 14.838C5.32006 14.0339 6.40076 13.3427 7.54513 12.7764C7.70122 12.6957 7.86558 12.6329 8.03528 12.5892C8.19377 12.5083 8.37184 12.4759 8.54795 12.4958C8.72406 12.5158 8.89071 12.5873 9.02793 12.7016C9.13333 12.8356 9.19773 12.9984 9.21298 13.1695C9.22824 13.3406 9.19369 13.5124 9.11373 13.6636C8.75833 14.8381 8.35395 16 8.07208 17.1994C7.96188 17.6957 7.7057 18.1459 7.33779 18.4897C6.96987 18.8336 6.50776 19.0547 6.01325 19.1236C5.43727 19.2735 4.86127 19.3985 4.30979 19.5734C3.9169 19.7022 3.5356 19.8653 3.17009 20.0607C2.85209 20.1555 2.567 20.3402 2.34783 20.5936C2.12865 20.8469 1.98439 21.1584 1.9318 21.4919C1.8792 21.8254 1.92041 22.1672 2.05065 22.4778C2.18089 22.7884 2.39477 23.0549 2.66759 23.2466C3.22761 23.8309 3.87247 24.324 4.57944 24.7085C7.46119 26.2507 10.5694 27.3057 13.7829 27.832C17.9462 28.6278 22.1884 28.9089 26.4178 28.6692C27.6433 28.6692 28.7585 28.4817 29.9228 28.4192C30.1347 28.3951 30.3491 28.4153 30.5532 28.4786C30.7572 28.5418 30.9464 28.6468 31.1093 28.7871C31.2722 28.9274 31.4052 29.1001 31.5004 29.2947C31.5956 29.4892 31.6509 29.7016 31.6629 29.9186C31.8625 31.4826 31.5569 33.0703 30.7926 34.4415Z" fill="#545454"/>
<path d="M27.7291 4.18066C27.435 4.3181 27.3001 4.06819 27.1898 3.84329C26.3688 2.19406 25.0575 1.91919 23.7462 3.69337C22.6472 5.30175 21.8456 7.10131 21.381 9.00341C20.2933 12.9112 19.5389 16.9075 19.1261 20.9478C18.9913 22.0598 18.8932 23.1718 18.7584 24.2713C18.7089 24.7226 18.5026 25.141 18.1766 25.4504C17.8505 25.7599 17.4266 25.9399 16.9815 25.958H16.2707C14.4265 25.9027 12.611 25.4782 10.9275 24.7086C10.6597 24.6353 10.409 24.5079 10.1904 24.334C9.97175 24.1601 9.78955 23.9432 9.65468 23.6962C9.51981 23.4491 9.435 23.177 9.40523 22.8959C9.37546 22.6148 9.40141 22.3305 9.48145 22.0598C9.97792 17.2496 11.4646 12.6003 13.8442 8.41607C15.3194 5.67212 17.5017 3.39119 20.1555 1.81924C20.8642 1.36773 21.6539 1.06445 22.4787 0.927164C23.3034 0.789881 24.1467 0.821328 24.9594 1.01959C25.5753 1.2103 26.1449 1.53137 26.6306 1.96199C27.1163 2.39261 27.5074 2.92306 27.7781 3.51843C27.8884 3.7933 28.0477 4.01824 27.7291 4.18066Z" fill="#545454"/>
<path d="M42.5454 24.5085C42.3753 26.902 41.3914 29.1599 39.7635 30.8931C39.006 31.7581 38.1409 32.5184 37.19 33.1546C37.0587 33.2698 36.9032 33.3526 36.7355 33.3966C36.5678 33.4406 36.3924 33.4446 36.2229 33.4084C36.0534 33.3721 35.8944 33.2965 35.7582 33.1875C35.622 33.0785 35.5123 32.9389 35.4375 32.7797C35.117 32.2654 34.8999 31.6913 34.7989 31.0907C34.6979 30.4901 34.715 29.8752 34.8492 29.2814C34.9198 28.8757 35.1102 28.5015 35.3949 28.2091C35.6795 27.9166 36.045 27.7197 36.4424 27.6446C37.4154 27.4195 38.3766 27.1444 39.3223 26.8201C39.7068 26.6783 40.0731 26.4894 40.413 26.2578C40.6261 26.1459 40.8123 25.9876 40.9585 25.794C41.1046 25.6003 41.2071 25.3761 41.2585 25.1375C41.31 24.8989 41.3092 24.6516 41.2563 24.4134C41.2034 24.1751 41.0996 23.9516 40.9522 23.7589C40.4708 23.0468 39.8162 22.4742 39.0527 22.0972C37.332 21.1921 35.5028 20.5201 33.6114 20.0982C30.3933 19.2831 27.1138 18.7439 23.8074 18.4864C22.5819 18.4114 22.2266 17.9867 22.202 16.8247C22.13 14.9645 22.4825 13.1125 23.2315 11.4146C23.4165 10.9256 23.7614 10.5167 24.2081 10.2572C24.6547 9.99762 25.1755 9.90333 25.6825 9.99026C29.8505 10.4572 33.8027 12.1211 37.0796 14.7881C39.0466 16.1924 40.6354 18.0785 41.6998 20.273C42.3086 21.596 42.5985 23.0482 42.5454 24.5085Z" fill="#545454"/>
<path d="M77.0187 44.287C77.0187 45.7114 77.0187 45.6988 75.6339 45.6489C75.4981 45.637 75.3669 45.5937 75.2501 45.5223C75.1333 45.4508 75.034 45.3531 74.9599 45.2366L63.7098 32.5174V33.2297C63.7098 37.1779 63.7098 41.126 63.7098 45.0742C63.7098 45.5115 63.6363 45.6864 63.1706 45.6614C62.624 45.6176 62.0749 45.6176 61.5284 45.6614C61.1117 45.6614 61.0014 45.5364 61.0014 45.1241C61.0014 42.3503 61.0014 39.5767 61.0014 36.803C61.0014 33.7544 61.0014 30.7057 61.0014 27.6447C61.0014 27.1949 61.1239 27.0824 61.5774 27.045C61.9226 27.0103 62.2708 27.0668 62.5885 27.2091C62.9061 27.3513 63.1826 27.5745 63.3912 27.8571C66.8471 31.7678 70.3519 35.6535 73.8324 39.5267C73.9672 39.6766 74.1143 39.8016 74.3471 40.039V39.3267C74.3471 35.4285 74.3471 31.5387 74.3471 27.6572C74.3471 27.1949 74.4574 27.0075 74.9231 27.0575C75.3752 27.1074 75.8312 27.1074 76.2833 27.0575C76.8471 27.0575 77.0309 27.1449 77.0187 27.7821C77.0064 33.267 77.0187 38.7771 77.0187 44.287Z" fill="#545454"/>
<path d="M117.448 44.5243C115.57 45.7593 113.31 46.2399 111.105 45.8729C108.9 45.5058 106.906 44.3174 105.512 42.5378C104.452 41.24 103.745 39.6813 103.461 38.0176C103.178 36.3539 103.327 34.6433 103.896 33.0571C104.464 31.471 105.431 30.0648 106.699 28.979C107.968 27.8932 109.494 27.1659 111.124 26.87C112.767 26.5274 114.471 26.6501 116.05 27.225C117.629 27.7999 119.024 28.8049 120.083 30.1309C120.218 30.2934 120.377 30.4309 120.083 30.6683C119.544 31.2055 119.029 31.7802 118.49 32.3675C117.934 31.5266 117.21 30.8155 116.365 30.2813C115.52 29.7472 114.573 29.4021 113.588 29.2689C112.691 29.1688 111.785 29.2518 110.92 29.5128C110.056 29.7738 109.251 30.2077 108.553 30.7892C107.855 31.3707 107.277 32.0882 106.854 32.8997C106.431 33.7113 106.17 34.6007 106.088 35.516C105.9 37.3413 106.401 39.1708 107.489 40.6328C108.578 42.0949 110.171 43.0797 111.945 43.3873C113.334 43.5588 114.737 43.2171 115.9 42.4238C117.062 41.6306 117.907 40.4386 118.281 39.0643C118.355 38.7145 118.281 38.5645 117.889 38.5645C116.664 38.5645 115.438 38.5645 114.311 38.5645C113.894 38.5645 113.686 38.4771 113.735 38.0024C113.784 37.5276 113.465 36.5155 113.882 36.1157C114.298 35.7159 115.107 36.0158 115.695 36.0158H120.659C120.879 36.0158 121.124 35.9409 121.137 36.3282C121.31 37.9071 121.058 39.5042 120.408 40.9482C119.758 42.3923 118.735 43.6286 117.448 44.5243Z" fill="#545454"/>
<path d="M62.8274 10.815C62.5158 8.92898 61.6065 7.19903 60.2386 5.8902C58.8707 4.58137 57.1197 3.76576 55.2538 3.56828C53.3246 3.36214 51.384 3.28709 49.445 3.34347C48.9915 3.34347 48.8567 3.45588 48.8567 3.93066C48.8567 6.84181 48.8567 9.74047 48.8567 12.6766V21.4226C48.8567 21.6724 48.7587 21.9849 49.2244 21.9724C51.146 22.0329 53.0695 21.9745 54.9842 21.7974C61.3077 20.7979 63.6485 15.8626 62.8274 10.815ZM60.2293 13.4888C59.8862 16.7622 57.9376 18.6239 54.5307 19.1362C53.6927 19.238 52.8501 19.2964 52.0062 19.3111C51.6386 19.3111 51.5528 19.1987 51.5528 18.8363C51.5528 16.7623 51.5528 14.6882 51.5528 12.5892V6.34211C51.5528 6.09223 51.5528 5.81731 51.9204 5.8298C53.4911 5.80904 55.0538 6.06255 56.5406 6.57943C59.494 7.80386 60.6092 10.3902 60.2293 13.4888Z" fill="#545454"/>
<path d="M100.708 41.6633L97.8889 37.7775C98.5691 37.6325 99.2135 37.3487 99.7832 36.9429C100.353 36.5372 100.836 36.0181 101.204 35.4168C101.571 34.8156 101.816 34.1446 101.922 33.4445C102.028 32.7444 101.995 32.0296 101.823 31.3431C101.32 29.0817 99.9232 27.7698 97.2884 27.27C95.635 27.1077 93.9728 27.0576 92.3129 27.1201C91.9085 27.1201 91.7859 27.2074 91.7859 27.6447C91.7859 33.467 91.7859 39.2768 91.7859 45.1366C91.7859 45.5364 91.8594 45.7114 92.3006 45.6739C92.8267 45.6302 93.3555 45.6302 93.8816 45.6739C94.3963 45.6739 94.4943 45.524 94.4821 45.0367C94.4821 42.8627 94.4821 40.6888 94.4821 38.5148C94.4821 38.3399 94.3717 38.09 94.6658 38.0275C94.7752 37.9843 94.8965 37.9847 95.0056 38.0287C95.1146 38.0727 95.2034 38.157 95.2541 38.2648C95.3123 38.3694 95.3778 38.4696 95.4502 38.5647C96.9616 40.772 98.4731 42.9793 99.9845 45.1866C100.095 45.3616 100.156 45.6489 100.401 45.6489H103.575L100.708 41.6633ZM94.7884 35.6536C94.4821 35.6536 94.433 35.5162 94.4453 35.2538C94.4453 34.3667 94.4453 33.4671 94.4453 32.5675V30.0312C94.4453 29.8188 94.4453 29.5939 94.7516 29.6064C95.7904 29.5613 96.8276 29.727 97.8031 30.0937C98.2852 30.3266 98.6914 30.6959 98.9734 31.1576C99.2554 31.6194 99.4012 32.1539 99.3934 32.6978C99.3857 33.2416 99.2247 33.7717 98.9297 34.2249C98.6347 34.6781 98.2181 35.0353 97.7296 35.2538C96.7812 35.5684 95.7845 35.7038 94.7884 35.6536Z" fill="#545454"/>
<path d="M93.9551 21.9848H90.4992C90.2541 21.9848 90.1683 21.7724 90.058 21.6225C88.085 19.1236 86.1242 16.6248 84.1511 14.1259C84.0163 13.9635 83.906 13.5886 83.6609 13.7135C83.498 13.7796 83.3578 13.893 83.2576 14.0396C83.1573 14.1862 83.1015 14.3595 83.0971 14.5382C83.0971 16.6622 83.0971 18.7738 83.0971 20.8853C83.0787 21.0054 83.0787 21.1275 83.0971 21.2476C83.1952 21.8098 82.9256 21.9348 82.4354 21.8848C81.9663 21.8473 81.4951 21.8473 81.026 21.8848C80.5358 21.8848 80.3765 21.7973 80.3765 21.2476C80.3765 17.5993 80.3765 13.9509 80.3765 10.3026C80.3765 8.12862 80.3765 5.95467 80.3765 3.78067C80.3765 3.39335 80.4624 3.24339 80.8668 3.28087C81.2712 3.31836 81.9574 3.28087 82.5089 3.28087C83.0604 3.28087 83.1094 3.36844 83.0971 3.85571C83.0971 6.10467 83.0971 8.3661 83.0971 10.7025C83.5873 10.2152 84.0285 9.80284 84.4452 9.35305C86.2835 7.46642 88.1217 5.60487 89.9109 3.66827C90.0236 3.53484 90.1656 3.4302 90.3252 3.36293C90.4848 3.29565 90.6578 3.26754 90.83 3.28087C91.7859 3.28087 92.7419 3.28087 93.808 3.28087L93.3301 3.81819C90.8791 6.31704 88.5016 8.81578 86.0506 11.2147C85.6585 11.6145 85.7075 11.8145 86.0506 12.2143C88.5874 15.2754 91.0996 18.3739 93.6119 21.46C93.6977 21.6349 93.7958 21.7599 93.9551 21.9848Z" fill="#545454"/>
<path d="M77.9991 9.90294C77.9991 11.8895 78.1094 13.9011 77.9991 15.8877C78.0091 17.1669 77.6337 18.4183 76.9236 19.4729C76.2135 20.5276 75.2029 21.3347 74.0285 21.785C72.8185 22.3388 71.475 22.5156 70.1667 22.2933C68.8584 22.071 67.6439 21.4595 66.6755 20.5355C66.0357 19.927 65.5267 19.1896 65.1807 18.3702C64.8348 17.5509 64.6594 16.6672 64.6656 15.7752C64.6044 11.7895 64.6656 7.80391 64.6656 3.80576C64.6656 3.44343 64.8127 3.3935 65.1191 3.3935C65.6865 3.42474 66.2551 3.42474 66.8225 3.3935C67.276 3.3935 67.374 3.50589 67.374 3.95568C67.374 7.05425 67.374 10.1445 67.374 13.2264C67.3098 14.3813 67.388 15.5399 67.6069 16.6749C67.8114 17.5619 68.3069 18.351 69.0114 18.9117C69.716 19.4723 70.5872 19.7708 71.4808 19.7577C72.3745 19.7446 73.237 19.4206 73.9254 18.8395C74.6138 18.2584 75.0869 17.455 75.2663 16.5623C75.4211 15.7389 75.495 14.9018 75.4868 14.0635C75.4868 10.7275 75.4868 7.40404 75.4868 4.06809C75.4868 3.55582 75.6094 3.3934 76.0996 3.44338C76.5681 3.49331 77.0404 3.49331 77.5089 3.44338C78.0848 3.36841 78.1829 3.61837 78.1707 4.14313C77.9746 5.99227 77.9991 7.95384 77.9991 9.90294Z" fill="#545454"/>
<path d="M82.0677 30.3435C82.0677 31.3805 82.0677 32.43 82.0677 33.467C82.0677 34.0293 82.1536 34.2416 82.7786 34.2166C84.7271 34.2166 86.6634 34.2166 88.5997 34.2166C89.0654 34.2166 89.2859 34.3041 89.2246 34.8288C89.1633 35.3536 89.4943 36.2908 89.0898 36.6531C88.6854 37.0154 87.9379 36.753 87.3251 36.753C85.7687 36.753 84.2001 36.753 82.6192 36.753C82.2148 36.753 82.0555 36.8279 82.0677 37.3027C82.0677 39.0519 82.0677 40.8137 82.0677 42.5628C82.0677 43.0751 82.2393 43.1375 82.656 43.1375C84.7271 43.1375 86.7736 43.1375 88.7835 43.1375C89.2492 43.1375 89.4084 43.2624 89.3717 43.7247C89.3349 44.2029 89.3349 44.6834 89.3717 45.1616C89.3717 45.5864 89.2614 45.7114 88.8447 45.6989C86.7491 45.6989 84.6535 45.6989 82.5579 45.6989C81.651 45.6989 80.7565 45.6989 79.8496 45.6989C79.4329 45.6989 79.3226 45.5739 79.3226 45.1616C79.3226 42.2254 79.3226 39.3018 79.3226 36.4156C79.3226 33.5295 79.3226 30.6308 79.3226 27.6697C79.3226 27.2074 79.4329 27.07 79.9109 27.0825H88.7957C89.2492 27.0825 89.4207 27.1949 89.3839 27.6697C89.3411 28.1476 89.3411 28.6286 89.3839 29.1065C89.3839 29.5189 89.2737 29.6562 88.8693 29.6437C86.8227 29.6437 84.7761 29.6437 82.7418 29.6437C82.1535 29.5687 82.031 29.7687 82.0677 30.3435Z" fill="#545454"/>
<path d="M51.5528 30.1935C51.5528 31.3555 51.5528 32.505 51.5528 33.6545C51.5528 34.1292 51.6876 34.2166 52.1043 34.2166C54.1141 34.2166 56.1117 34.2166 58.1093 34.2166C58.5259 34.2166 58.7097 34.2792 58.6729 34.7665C58.624 35.2608 58.624 35.7589 58.6729 36.2532C58.6729 36.703 58.5382 36.7655 58.146 36.7655C56.1362 36.7655 54.1509 36.7655 52.1411 36.7655C51.6386 36.7655 51.5405 36.9154 51.5528 37.4027C51.5528 39.1144 51.5528 40.8261 51.5528 42.5503C51.5528 43.0626 51.6999 43.1625 52.1656 43.15C54.2244 43.15 56.2832 43.15 58.293 43.15C58.6975 43.15 58.8445 43.25 58.82 43.6748C58.7955 44.0996 58.82 44.7492 58.82 45.2865C58.82 45.5988 58.722 45.7114 58.4156 45.7114C55.3396 45.7114 52.2881 45.7114 49.1876 45.7114C48.7219 45.7114 48.82 45.4114 48.82 45.1491V36.4031C48.82 33.492 48.82 30.5808 48.82 27.6572C48.82 27.2324 48.8812 27.0575 49.3469 27.0575C52.3249 27.0575 55.3151 27.0575 58.293 27.0575C58.7465 27.0575 58.869 27.1949 58.8323 27.6322C58.7955 28.1312 58.7955 28.6325 58.8323 29.1316C58.8323 29.5439 58.6975 29.6188 58.3176 29.6188C56.2465 29.6188 54.1754 29.6188 52.092 29.6188C51.6631 29.5814 51.5405 29.7188 51.5528 30.1935Z" fill="#545454"/>
<path d="M97.6193 6.46698C97.6193 7.62895 97.6193 8.77845 97.6193 9.94041C97.6193 10.3777 97.7296 10.5151 98.1708 10.5026C100.193 10.5026 102.203 10.5026 104.225 10.5026C104.666 10.5026 104.825 10.6026 104.776 11.0524C104.703 11.7021 105.034 12.5766 104.641 12.9389C104.249 13.3012 103.416 13.039 102.828 13.039C101.296 13.039 99.7762 13.039 98.2443 13.039C97.7051 13.039 97.6071 13.2014 97.6193 13.7012C97.6193 15.4254 97.6193 17.1371 97.6193 18.8613C97.6193 19.2861 97.7051 19.4235 98.1708 19.4235C100.266 19.4235 102.362 19.4235 104.458 19.4235C104.862 19.4235 105.009 19.5358 104.985 19.9606C104.954 20.4974 104.954 21.0356 104.985 21.5724C104.985 21.8723 104.899 21.9972 104.58 21.9972H95.3521C94.8987 21.9972 94.9722 21.7224 94.9722 21.4475V12.7016C94.9722 9.80293 94.9722 6.89178 94.9722 3.95563C94.9722 3.55582 95.058 3.40582 95.487 3.41832H104.47C104.899 3.41832 105.021 3.53083 104.997 3.95563C104.96 4.45053 104.96 4.94748 104.997 5.44237C104.997 5.87967 104.85 5.97969 104.458 5.97969C102.387 5.97969 100.303 5.97969 98.2321 5.97969C97.7664 5.86724 97.6071 5.97971 97.6193 6.46698Z" fill="#545454"/>
<path d="M135.242 27.6571C133.465 30.7932 131.688 33.9043 129.899 37.0778C129.688 37.4311 129.582 37.8388 129.593 38.2522C129.593 40.5262 129.593 42.8002 129.593 45.0742C129.593 45.499 129.519 45.6863 129.053 45.6614C128.507 45.6177 127.958 45.6177 127.411 45.6614C126.995 45.6614 126.872 45.5488 126.884 45.1365C126.884 42.8001 126.884 40.4637 126.884 38.1273C126.893 37.7703 126.8 37.4185 126.615 37.1153C124.838 33.9793 123.048 30.8682 121.284 27.6947C121.13 27.5218 121.035 27.3025 121.014 27.07H123.759C124.09 27.07 124.139 27.3073 124.249 27.5072C125.475 29.6562 126.7 31.8303 127.926 33.9793L128.22 34.5039C128.396 34.3673 128.528 34.1803 128.6 33.9668C129.817 31.8261 131.043 29.6812 132.276 27.5322C132.339 27.3805 132.448 27.2535 132.587 27.1702C132.726 27.0868 132.888 27.0517 133.048 27.07C133.87 27.07 134.691 27.07 135.499 27.07C135.524 27.3323 135.365 27.5322 135.242 27.6571Z" fill="#545454"/>
<path d="M28.5134 41.101C28.1327 41.7313 27.6711 42.307 27.1409 42.8127C25.6402 44.24 23.6873 45.0716 21.6367 45.1564C19.586 45.2412 17.5735 44.5737 15.9643 43.2749C13.611 41.3189 11.8549 38.7179 10.903 35.7784C10.7192 35.2911 10.5966 34.8039 10.4373 34.3042C12.457 35.2599 14.5678 36.0008 16.7364 36.5155C17.5635 36.6255 18.3824 36.7925 19.1874 37.0153C19.3673 38.1965 19.7444 39.3376 20.3026 40.3889C20.7434 41.2678 21.4913 41.9465 22.3986 42.291C23.306 42.6356 24.3071 42.6212 25.2046 42.2505C26.0767 41.9479 26.875 41.4579 27.5453 40.8136L27.8517 40.5388C28.06 40.3514 28.2683 40.2138 28.538 40.4262C28.8076 40.6386 28.636 40.8886 28.5134 41.101Z" fill="#545454"/>
</svg>
