<svg width="660" height="378" viewBox="0 0 660 378" fill="none" xmlns="http://www.w3.org/2000/svg">
<path d="M359.359 121.325L367.902 127.208C368.44 127.27 368.764 126.868 369.573 125.879C371.024 124.113 372.472 122.344 373.983 120.628C374.144 120.487 374.334 120.383 374.539 120.322C374.744 120.262 374.96 120.246 375.172 120.277C377.363 120.723 379.528 121.307 381.713 121.733C382.394 121.864 382.721 122.031 382.903 122.749C383.628 125.578 384.434 128.39 385.198 131.178C387.851 131.393 394.324 130.27 396.372 129.215C396.128 126.442 395.92 123.604 395.602 120.777C395.501 119.883 395.694 119.526 396.494 119.082C398.38 118.025 400.207 116.865 401.965 115.606C402.682 115.106 403.19 114.88 404.047 115.386C406.229 116.699 408.489 117.879 410.692 119.157C411.287 119.499 411.721 119.508 412.116 118.939C413.98 116.271 415.841 113.601 417.7 110.93C418.158 110.275 417.596 109.971 417.225 109.652C415.354 108.035 413.49 106.409 411.575 104.857C410.853 104.276 410.719 103.761 410.981 102.855C411.664 100.458 412.194 98.0151 412.83 95.4089L421.81 92.895C421.755 89.1021 421.056 85.3461 419.743 81.7881L410.636 82.5625C408.976 80.0903 407.487 77.767 405.878 75.5391C405.411 74.8927 405.423 74.5085 405.786 73.883C407.047 71.7117 408.239 69.4986 409.485 67.3302C409.753 66.8596 409.892 66.4933 409.423 66.0584C407.044 63.8543 404.528 61.8884 401.588 60.4647C400.933 60.149 400.583 60.3098 400.169 60.8013C398.501 62.7761 396.797 64.7211 395.138 66.7018C394.737 67.1843 394.428 67.3392 393.738 67.1753C391.359 66.6005 388.93 66.1269 386.507 65.7189C385.888 65.6116 385.719 65.3495 385.576 64.8462C384.791 62.0285 383.985 59.2197 383.164 56.3335C379.397 56.4556 375.767 56.9888 372.163 58.2666C372.436 61.4953 372.707 64.7032 372.966 67.771L365.095 72.8078C363.142 71.7177 360.903 70.4488 358.64 69.2157C356.785 68.203 357.135 68.0034 355.667 69.725C355.509 69.8781 355.338 70.0166 355.155 70.139L351.849 74.9374C351.704 75.3514 351.52 75.7504 351.299 76.1288C350.65 77.0432 350.704 77.6896 351.658 78.4461C353.657 80.0188 355.557 81.7225 357.459 83.4143C357.592 83.5571 357.692 83.7267 357.753 83.9118C357.814 84.0968 357.835 84.2929 357.813 84.4866C357.412 86.655 356.82 88.7906 356.532 90.9709C356.389 92.0372 355.979 92.3738 355.045 92.618C352.369 93.315 349.723 94.1073 346.797 94.9621C347.448 98.6912 348.084 102.328 348.727 106.004C349.434 105.959 349.839 105.938 350.246 105.905C352.744 105.691 355.244 105.503 357.739 105.244C358.447 105.173 358.753 105.423 359.122 106.013C360.391 108.032 361.798 109.971 363.07 111.984C363.169 112.179 363.223 112.393 363.23 112.612C363.237 112.83 363.195 113.047 363.109 113.247C362.154 115.073 361.102 116.845 360.112 118.653C359.3 120.122 359.009 120.667 359.359 121.325ZM374.863 107.445C373.047 106.195 371.495 104.599 370.294 102.747C369.094 100.896 368.27 98.8262 367.869 96.6559C367.467 94.4855 367.496 92.2572 367.955 90.0981C368.413 87.9391 369.291 85.8916 370.539 84.0726C373.061 80.3986 376.936 77.8783 381.312 77.0662C385.688 76.254 390.207 77.2164 393.875 79.7418C397.542 82.2673 400.057 86.1486 400.867 90.5318C401.677 94.915 400.716 99.4411 398.195 103.114C395.674 106.788 391.799 109.307 387.424 110.119C383.048 110.931 378.53 109.968 374.863 107.442V107.445Z" fill="#15D1AE"/>
<path d="M431.816 155.358L435.935 173.456C436.565 174.191 437.478 174.051 439.738 173.739C443.781 173.173 447.825 172.607 451.884 172.184C452.523 172.118 453.487 172.625 453.879 173.173C456.216 176.419 458.36 179.809 460.718 183.032C461.452 184.029 461.672 184.658 461.054 185.808C458.583 190.41 456.243 195.08 453.879 199.673C457.105 203.173 466.962 209.553 470.937 210.652C473.97 206.705 477.128 202.723 480.128 198.624C481.059 197.347 481.761 197.09 483.372 197.498C487.129 198.397 490.933 199.087 494.766 199.566C496.312 199.777 497.255 200.096 497.74 201.785C499.018 206.157 500.561 210.452 501.902 214.804C502.265 215.974 502.83 216.51 504.037 216.245C509.714 214.996 515.389 213.745 521.06 212.492C522.457 212.195 522.086 211.104 521.985 210.235C521.476 205.841 520.991 201.439 520.337 197.064C520.091 195.422 520.534 194.582 521.97 193.707C525.77 191.383 529.403 188.816 533.411 186.153L548.255 193.745C552.807 188.697 556.283 183.041 558.959 176.637L546.114 166.596C546.919 161.333 547.77 156.469 548.341 151.581C548.504 150.167 548.983 149.675 550.22 149.294C554.502 147.965 558.745 146.503 563.006 145.148C563.927 144.85 564.552 144.552 564.462 143.399C564.014 137.624 563.083 131.965 560.93 126.541C560.448 125.331 559.797 125.117 558.658 125.26C554.076 125.835 549.485 126.323 544.906 126.916C543.797 127.059 543.203 126.892 542.498 125.838C540.051 122.183 537.443 118.627 534.767 115.148C534.08 114.254 534.173 113.709 534.601 112.872C536.979 108.217 539.311 103.546 541.719 98.76C536.623 94.3488 531.208 90.6435 524.943 87.9687C521.396 92.5408 517.875 97.089 514.504 101.438L498.073 98.5068C496.821 94.7061 495.396 90.3188 493.928 85.9552C492.712 82.381 493.413 82.5359 489.402 83.0155C489.004 83.0269 488.606 83.002 488.213 82.941L478.029 85.2642C477.306 85.5621 476.614 86.0029 475.861 86.1578C473.902 86.5748 473.185 87.4862 473.53 89.6427C474.253 94.1343 474.699 98.6765 475.148 103.21C475.15 103.559 475.076 103.904 474.933 104.222C474.789 104.539 474.578 104.822 474.315 105.051C471.166 107.41 467.806 109.518 464.8 112.017C463.314 113.248 462.38 113.191 460.843 112.369C456.484 110.04 452.027 107.886 447.165 105.441C443.517 111.136 439.955 116.688 436.354 122.302C437.338 123.098 437.897 123.565 438.471 124.009C442.012 126.764 445.53 129.549 449.119 132.239C450.138 133.001 450.234 133.701 450.011 134.919C449.235 139.116 448.729 143.361 447.98 147.563C447.872 147.939 447.684 148.287 447.427 148.582C447.17 148.876 446.851 149.11 446.493 149.267C443.032 150.512 439.503 151.563 436.015 152.737C433.196 153.696 432.152 154.059 431.816 155.358ZM468.984 155.921C467.217 148.152 468.604 139.999 472.838 133.254C477.073 126.509 483.809 121.725 491.564 119.955C495.404 119.079 499.379 118.968 503.262 119.631C507.145 120.293 510.859 121.715 514.194 123.815C517.528 125.916 520.417 128.653 522.695 131.872C524.973 135.091 526.595 138.727 527.471 142.574C529.237 150.343 527.851 158.497 523.616 165.243C519.382 171.988 512.646 176.772 504.891 178.543C497.134 180.313 488.994 178.923 482.26 174.681C475.527 170.438 470.751 163.69 468.984 155.921Z" fill="#3FE2D5"/>
<path d="M435.475 81.9964L440.681 85.5706C441.009 85.6093 441.205 85.3621 441.698 84.7605C442.59 83.6822 443.465 82.604 444.374 81.5585C444.473 81.4713 444.589 81.4068 444.715 81.3698C444.841 81.3327 444.973 81.3239 445.103 81.3441C446.438 81.6181 447.755 81.9726 449.093 82.2376C449.506 82.3181 449.706 82.4253 449.816 82.8572C450.259 84.5818 450.749 86.2944 451.216 87.9952C452.831 88.1262 456.776 87.4412 458.025 86.8038C457.874 85.1149 457.749 83.3844 457.555 81.6628C457.493 81.1267 457.612 80.9003 458.109 80.6293C459.258 79.9853 460.37 79.2783 461.442 78.5115C461.879 78.2136 462.188 78.0677 462.699 78.3775C464.029 79.1787 465.408 79.8965 466.749 80.6769C467.112 80.8854 467.377 80.8884 467.617 80.5429L471.019 75.664C471.298 75.2619 470.957 75.0683 470.722 74.8837C469.583 73.8978 468.444 72.9059 467.272 71.9617C466.832 71.6073 466.749 71.2945 466.907 70.7434C467.323 69.281 467.647 67.7917 468.034 66.2012L473.505 64.6702C473.474 62.3584 473.05 60.0687 472.25 57.9L466.699 58.3706C465.688 56.8635 464.781 55.4487 463.797 54.0905C463.666 53.9578 463.589 53.7821 463.578 53.5963C463.568 53.4104 463.625 53.2272 463.74 53.0808C464.507 51.7583 465.227 50.4001 465.991 49.0806C466.155 48.7827 466.241 48.5713 465.955 48.3032C464.545 46.9316 462.935 45.7826 461.18 44.8957C461.11 44.8501 461.032 44.8191 460.95 44.8047C460.868 44.7904 460.784 44.7928 460.703 44.8121C460.622 44.8313 460.546 44.8669 460.479 44.9166C460.413 44.9664 460.357 45.0292 460.315 45.1013C459.301 46.2927 458.26 47.4841 457.249 48.6963C457.164 48.8376 457.033 48.9448 456.878 48.9992C456.722 49.0536 456.553 49.0518 456.399 48.9942C454.942 48.6427 453.467 48.3568 451.989 48.1006C451.847 48.0943 451.712 48.0369 451.608 47.9391C451.504 47.8413 451.439 47.7094 451.424 47.5675C450.946 45.8519 450.455 44.1392 449.955 42.3818C447.676 42.4215 445.416 42.8185 443.259 43.5583C443.426 45.5272 443.589 47.4811 443.747 49.3517L438.954 52.4195C437.765 51.7553 436.397 50.9809 435.02 50.2303C433.887 49.6138 434.101 49.4916 433.206 50.5431C433.114 50.6355 433.015 50.7201 432.909 50.7962L430.893 53.7331C430.804 53.9863 430.692 54.2306 430.557 54.4628C430.162 55.0198 430.191 55.4129 430.774 55.8746C431.993 56.8337 433.153 57.8702 434.309 58.9008C434.391 58.9878 434.452 59.0915 434.49 59.2046C434.527 59.3177 434.54 59.4377 434.527 59.5561C434.28 60.8756 433.932 62.1772 433.744 63.5057C433.658 64.155 433.409 64.3605 432.835 64.5094C431.202 64.9353 429.591 65.4268 427.807 65.9391C428.205 68.2117 428.592 70.4277 428.996 72.6676C429.427 72.6408 429.674 72.6259 429.921 72.605C431.443 72.477 432.968 72.3608 434.488 72.206C434.919 72.1613 435.106 72.3131 435.329 72.6706C436.102 73.9037 436.956 75.0862 437.738 76.3104C437.797 76.4297 437.83 76.5605 437.833 76.6938C437.837 76.827 437.811 76.9594 437.759 77.0818C437.164 78.1928 436.537 79.274 435.933 80.3761C435.439 81.2637 435.261 81.5972 435.475 81.9964ZM444.922 73.5403C442.687 72.0015 441.154 69.6363 440.66 66.9652C440.166 64.294 440.751 61.5357 442.287 59.297C443.823 57.0583 446.184 55.5226 448.851 55.0277C451.517 54.5328 454.271 55.1192 456.506 56.6579C458.741 58.1968 460.274 60.562 460.768 63.2331C461.262 65.9042 460.676 68.6626 459.14 70.9013C457.604 73.1394 455.243 74.6746 452.576 75.1694C449.91 75.6643 447.157 75.0783 444.922 73.5403Z" fill="#A7FFF9"/>
<path d="M205.421 172.812C205.421 172.812 154.38 147.614 145.597 134.454C136.813 121.295 149.721 120.56 149.721 120.56C149.721 120.56 126.942 98.3695 130.147 89.0258C133.352 79.6821 145.151 88.2513 145.151 88.2513C145.151 88.2513 130.507 55.5917 137.42 52.3094C150.283 46.1944 168.343 81.3322 168.343 81.3322C168.343 81.3322 164.478 66.0672 173.324 66.5646C186.68 67.3122 186.13 101.842 186.13 101.842C186.13 101.842 187.638 88.6028 195.69 92.9068C210.119 100.621 205.421 172.812 205.421 172.812Z" fill="black"/>
<path d="M198.576 87.5634C192.278 84.0696 186.034 94.2979 186.034 94.2979C186.034 94.2979 186.667 67.3272 173.311 66.5796C164.453 66.0822 168.33 81.3472 168.33 81.3472C168.33 81.3472 150.285 46.2005 137.422 52.3244L205.48 172.252C205.956 163.876 211.031 94.4855 198.576 87.5634Z" fill="#2B2B2B"/>
<path d="M204.101 173.125C204.101 173.125 162.358 178.32 151.546 173.691C140.735 169.062 148.484 163.346 148.484 163.346C148.484 163.346 125.276 158.777 123.486 151.644C121.696 144.51 132.407 145.091 132.407 145.091C132.407 145.091 110.148 130.636 113.121 125.787C118.663 116.735 144.172 131.309 144.172 131.309C144.172 131.309 135.549 123.366 141.288 120.071C149.911 115.1 163.588 136.861 163.588 136.861C163.588 136.861 162.741 131.5 169.509 130.904C181.646 129.838 204.101 173.125 204.101 173.125Z" fill="black"/>
<path d="M169.777 127.006C163.01 127.601 163.584 136.861 163.584 136.861C163.584 136.861 149.674 111.064 141.039 116.036C135.313 119.333 142.089 130.157 142.089 130.157C142.089 130.157 118.662 116.735 113.119 125.787L204.227 172.896C201.129 167.475 181.118 126.011 169.777 127.006Z" fill="#2B2B2B"/>
<path d="M400.252 131.455H264.207V102.685C264.215 95.3008 267.147 88.2211 272.359 82.9995C277.572 77.7779 284.64 74.8409 292.011 74.833H372.448C379.819 74.8409 386.887 77.7779 392.099 82.9995C397.312 88.2211 400.244 95.3008 400.252 102.685V131.455ZM276.291 119.353H388.168V102.673C388.163 98.4981 386.505 94.4951 383.558 91.5424C380.611 88.5897 376.616 86.9284 372.448 86.9229H292.011C287.843 86.9276 283.847 88.5887 280.899 91.5415C277.952 94.4944 276.295 98.4979 276.291 102.673V119.353Z" fill="#2B2B2B"/>
<path d="M280.95 110.388H259.545C257.354 110.388 255.578 112.167 255.578 114.362V121.787C255.578 123.981 257.354 125.76 259.545 125.76H280.95C283.141 125.76 284.917 123.981 284.917 121.787V114.362C284.917 112.167 283.141 110.388 280.95 110.388Z" fill="#F1FFFA"/>
<path d="M404.911 110.388H383.506C381.315 110.388 379.539 112.167 379.539 114.362V121.787C379.539 123.981 381.315 125.76 383.506 125.76H404.911C407.102 125.76 408.878 123.981 408.878 121.787V114.362C408.878 112.167 407.102 110.388 404.911 110.388Z" fill="#F1FFFA"/>
<path d="M168.43 119.351H487.356V334.749C487.356 335.754 487.158 336.749 486.774 337.678C486.391 338.606 485.828 339.45 485.119 340.16C484.409 340.871 483.567 341.434 482.64 341.819C481.714 342.203 480.72 342.401 479.717 342.401H176.068C175.065 342.401 174.072 342.203 173.145 341.819C172.218 341.434 171.376 340.871 170.667 340.16C169.958 339.45 169.395 338.606 169.011 337.678C168.627 336.749 168.43 335.754 168.43 334.749V119.351Z" fill="#2B2B2B"/>
<path d="M486.43 231.54L395.382 241.995C350.531 247.142 305.24 247.142 260.389 241.995L169.341 231.54C166.921 231.262 164.688 230.102 163.067 228.282C161.445 226.461 160.549 224.106 160.549 221.666V127.658C160.55 125.022 161.595 122.495 163.456 120.631C165.317 118.768 167.84 117.721 170.471 117.721H485.3C487.93 117.722 490.453 118.769 492.313 120.632C494.173 122.496 495.218 125.023 495.219 127.658V221.669C495.219 224.108 494.323 226.462 492.702 228.282C491.082 230.103 488.849 231.262 486.43 231.54Z" fill="#BF5C96"/>
<g style="mix-blend-mode:multiply" opacity="0.3">
<path d="M487.344 239.436V125.975C486.672 125.835 485.988 125.764 485.301 125.763H170.475C169.788 125.764 169.103 125.834 168.43 125.975V239.436C168.727 239.499 169.024 239.549 169.345 239.585L260.394 250.04C305.244 255.187 350.535 255.187 395.386 250.04L486.434 239.585C486.74 239.549 487.044 239.499 487.344 239.436Z" fill="black"/>
</g>
<path d="M486.43 231.54L395.382 241.995C350.531 247.142 305.24 247.142 260.389 241.995L169.341 231.54C166.921 231.262 164.688 230.102 163.067 228.282C161.445 226.461 160.549 224.106 160.549 221.666V127.658C160.55 125.022 161.595 122.495 163.456 120.631C165.317 118.768 167.84 117.721 170.471 117.721H485.3C487.93 117.722 490.453 118.769 492.313 120.632C494.173 122.496 495.218 125.023 495.219 127.658V221.669C495.219 224.108 494.323 226.462 492.702 228.282C491.082 230.103 488.849 231.262 486.43 231.54Z" fill="#444444"/>
<path d="M349.129 232.168H306.64C304.327 232.168 302.453 234.046 302.453 236.362V255.347C302.453 257.664 304.327 259.541 306.64 259.541H349.129C351.442 259.541 353.316 257.664 353.316 255.347V236.362C353.316 234.046 351.442 232.168 349.129 232.168Z" fill="#F1FFFA"/>
<path d="M344.594 236.473H311.179C309.253 236.473 307.691 238.037 307.691 239.966V251.744C307.691 253.673 309.253 255.237 311.179 255.237H344.594C346.52 255.237 348.082 253.673 348.082 251.744V239.966C348.082 238.037 346.52 236.473 344.594 236.473Z" fill="#A7FFF9"/>
<g style="mix-blend-mode:multiply" opacity="0.3">
<path d="M485.301 117.718H170.475C167.843 117.718 165.32 118.765 163.459 120.629C161.598 122.493 160.553 125.022 160.553 127.658V144.337C160.553 143.032 160.809 141.74 161.308 140.534C161.807 139.329 162.538 138.233 163.459 137.31C164.38 136.388 165.474 135.656 166.678 135.157C167.882 134.657 169.172 134.401 170.475 134.401H485.301C487.932 134.401 490.455 135.448 492.315 137.311C494.175 139.175 495.22 141.702 495.22 144.337V127.658C495.22 125.022 494.175 122.494 492.315 120.631C490.455 118.767 487.932 117.719 485.301 117.718Z" fill="black"/>
</g>
<path d="M88.123 327.458V339.264C88.123 341.174 109.38 342.723 135.602 342.723C161.825 342.723 183.078 341.174 183.078 339.264V327.458H88.123Z" fill="#15D1AE"/>
<path d="M122.484 342.589V327.458H88.123V339.264C88.123 340.843 102.642 342.172 122.484 342.589Z" fill="#A7FFF9"/>
<path d="M124.082 342.618C127.769 342.687 131.629 342.723 135.601 342.723C141.521 342.723 147.197 342.642 152.413 342.499V327.458H124.082V342.618Z" fill="#A7FFF9"/>
<path d="M154.318 342.443C171.234 341.912 183.08 340.691 183.08 339.264V327.458H154.318V342.443Z" fill="#A7FFF9"/>
<path d="M135.599 330.788C161.82 330.788 183.075 329.241 183.075 327.333C183.075 325.424 161.82 323.877 135.599 323.877C109.379 323.877 88.123 325.424 88.123 327.333C88.123 329.241 109.379 330.788 135.599 330.788Z" fill="#15D1AE"/>
<path d="M135.599 329.727C157.192 329.727 174.696 328.655 174.696 327.333C174.696 326.01 157.192 324.938 135.599 324.938C114.006 324.938 96.502 326.01 96.502 327.333C96.502 328.655 114.006 329.727 135.599 329.727Z" fill="#84F7E2"/>
<path d="M80 314.441V326.248C80 328.155 101.257 329.703 127.479 329.703C153.702 329.703 174.955 328.155 174.955 326.248V314.441H80Z" fill="#15D1AE"/>
<path d="M114.375 329.569V314.441H80V326.248C80 327.815 94.5191 329.155 114.375 329.569Z" fill="#A7FFF9"/>
<path d="M115.961 329.602C119.648 329.668 123.507 329.703 127.48 329.703C133.4 329.703 139.076 329.623 144.291 329.48V314.441H115.961V329.602Z" fill="#A7FFF9"/>
<path d="M146.191 329.423C163.107 328.896 174.953 327.672 174.953 326.248V314.441H146.191V329.423Z" fill="#A7FFF9"/>
<path d="M127.476 317.769C153.697 317.769 174.952 316.222 174.952 314.313C174.952 312.405 153.697 310.858 127.476 310.858C101.256 310.858 80 312.405 80 314.313C80 316.222 101.256 317.769 127.476 317.769Z" fill="#15D1AE"/>
<path d="M127.476 316.708C149.069 316.708 166.573 315.636 166.573 314.313C166.573 312.991 149.069 311.918 127.476 311.918C105.883 311.918 88.3789 312.991 88.3789 314.313C88.3789 315.636 105.883 316.708 127.476 316.708Z" fill="#84F7E2"/>
<path d="M85.4141 301.604V313.411C85.4141 315.317 106.668 316.866 132.89 316.866C159.113 316.866 180.369 315.317 180.369 313.411V301.604H85.4141Z" fill="#15D1AE"/>
<path d="M119.772 316.744V301.604H85.4141V313.411C85.4141 315.007 99.9302 316.33 119.772 316.744Z" fill="#A7FFF9"/>
<path d="M121.371 316.777C125.058 316.842 128.918 316.878 132.89 316.878C138.81 316.878 144.486 316.797 149.702 316.654V301.604H121.371V316.777Z" fill="#A7FFF9"/>
<path d="M151.605 316.598C168.521 316.071 180.37 314.847 180.37 313.423V301.604H151.605V316.598Z" fill="#A7FFF9"/>
<path d="M132.89 304.943C159.111 304.943 180.366 303.396 180.366 301.488C180.366 299.58 159.111 298.033 132.89 298.033C106.67 298.033 85.4141 299.58 85.4141 301.488C85.4141 303.396 106.67 304.943 132.89 304.943Z" fill="#15D1AE"/>
<path d="M132.89 303.883C154.483 303.883 171.987 302.811 171.987 301.488C171.987 300.165 154.483 299.093 132.89 299.093C111.297 299.093 93.793 300.165 93.793 301.488C93.793 302.811 111.297 303.883 132.89 303.883Z" fill="#3FE2D5"/>
<path d="M105.432 288.966V300.773C105.432 302.679 126.688 304.228 152.911 304.228C179.133 304.228 200.387 302.679 200.387 300.773V288.966H105.432Z" fill="#15D1AE"/>
<path d="M139.792 304.094V288.966H105.432V300.773C105.432 302.348 119.951 303.689 139.792 304.094Z" fill="#A7FFF9"/>
<path d="M141.389 304.124C145.079 304.192 148.938 304.228 152.911 304.228C158.831 304.228 164.507 304.147 169.722 304.004V288.966H141.389V304.124Z" fill="#A7FFF9"/>
<path d="M171.625 303.948C188.541 303.421 200.387 302.196 200.387 300.773V288.966H171.625V303.948Z" fill="#A7FFF9"/>
<path d="M200.387 288.841C200.387 290.747 179.13 292.296 152.911 292.296C126.691 292.296 105.432 290.747 105.432 288.841C105.432 286.935 126.688 285.383 152.911 285.383C179.133 285.383 200.387 286.932 200.387 288.841Z" fill="#15D1AE"/>
<path d="M192.007 288.841C192.007 290.163 174.502 291.224 152.91 291.224C131.317 291.224 113.812 290.152 113.812 288.841C113.812 287.53 131.317 286.443 152.91 286.443C174.502 286.443 192.007 287.516 192.007 288.841Z" fill="#3FE2D5"/>
<path d="M255.306 311.645H172.131V341.969H255.306V311.645Z" fill="#8EFFFE"/>
<path d="M255.306 316.065H172.131V319.967H255.306V316.065Z" fill="#A7FFF9"/>
<path d="M255.306 323.684H172.131V327.586H255.306V323.684Z" fill="#A7FFF9"/>
<path d="M255.306 331.306H172.131V335.208H255.306V331.306Z" fill="#A7FFF9"/>
<path d="M255.306 338.07H172.131V341.972H255.306V338.07Z" fill="#A7FFF9"/>
<path d="M224.342 311.645H207.043V341.969H224.342V311.645Z" fill="#444444"/>
<path d="M173.138 311.645H160.578V341.969H173.138V311.645Z" fill="#3FE2D5"/>
<path d="M167.242 264.799C185.513 252.411 190.218 227.411 177.751 208.958C165.284 190.505 140.366 185.588 122.095 197.976C103.823 210.363 99.1183 235.364 111.585 253.816C124.053 272.269 148.971 277.186 167.242 264.799Z" fill="#15D1AE"/>
<path d="M164.252 260.214C180.045 249.506 184.112 227.896 173.336 211.946C162.559 195.996 141.021 191.746 125.227 202.453C109.434 213.161 105.367 234.771 116.143 250.721C126.919 266.671 148.458 270.921 164.252 260.214Z" fill="#A7FFF9"/>
<path d="M156.498 255.163L152.856 249.801C150.493 251.262 147.947 252.404 145.285 253.197C144.323 253.475 143.292 253.376 142.4 252.92C141.508 252.465 140.823 251.686 140.483 250.743L140.397 250.507C140.212 249.997 140.134 249.453 140.169 248.911C140.203 248.369 140.349 247.84 140.597 247.357C140.846 246.874 141.191 246.448 141.611 246.105C142.031 245.762 142.518 245.509 143.04 245.363C145.475 244.709 147.786 243.657 149.879 242.251C153.093 240.062 154.449 237.321 152.915 235.061C151.458 232.916 148.731 232.791 143.602 234.221C136.19 236.306 130.157 236.282 126.437 230.804C123.062 225.833 123.91 219.557 129.137 214.259L125.491 208.897L131.016 205.132L134.391 210.101C136.169 208.979 138.063 208.053 140.04 207.339C141.018 206.999 142.09 207.058 143.025 207.504C143.959 207.95 144.681 208.747 145.033 209.722C145.213 210.22 145.291 210.75 145.262 211.279C145.233 211.808 145.099 212.325 144.866 212.801C144.633 213.277 144.307 213.701 143.907 214.047C143.507 214.394 143.041 214.656 142.538 214.818C140.608 215.444 138.779 216.347 137.108 217.499C133.445 219.995 133.335 222.384 134.409 223.966C135.675 225.83 138.452 225.669 144.471 224.21C152.796 222.012 157.607 223.272 161.059 228.356C164.473 233.381 163.836 240.091 158.118 245.631L162.031 251.392L156.498 255.163Z" fill="#3FE2D5"/>
<g style="mix-blend-mode:multiply" opacity="0.3">
<path d="M126.116 201.883C121.808 204.599 118.157 208.242 115.428 212.547C112.698 216.851 110.959 221.71 110.336 226.771C112.518 218.285 117.86 210.957 125.265 206.291C141.402 196.11 162.796 201.06 173.051 217.35C177.383 224.2 179.197 232.347 178.183 240.392C179.386 235.765 179.627 230.94 178.89 226.215C178.154 221.491 176.456 216.969 173.901 212.93C163.646 196.649 142.252 191.696 126.116 201.883Z" fill="#84F7E2"/>
</g>
<path d="M221.949 155.336C229.135 135.675 219.179 113.948 199.71 106.808C180.242 99.6671 158.634 109.817 151.448 129.478C144.261 149.139 154.218 170.866 173.686 178.007C193.154 185.147 214.762 174.997 221.949 155.336Z" fill="#15D1AE"/>
<path d="M217.155 153.631C223.367 136.636 214.761 117.855 197.932 111.683C181.104 105.511 162.426 114.284 156.214 131.279C150.003 148.274 158.609 167.055 175.437 173.227C192.265 179.399 210.943 170.626 217.155 153.631Z" fill="#A7FFF9"/>
<path d="M175.107 164.46L177.189 158.73C174.779 157.729 172.511 156.414 170.445 154.819C169.704 154.237 169.212 153.395 169.069 152.464C168.925 151.532 169.141 150.581 169.672 149.803L169.806 149.609C170.092 149.189 170.462 148.833 170.892 148.562C171.322 148.291 171.803 148.113 172.306 148.037C172.808 147.96 173.32 147.989 173.811 148.12C174.302 148.251 174.76 148.483 175.158 148.799C176.993 150.294 179.06 151.477 181.277 152.302C184.711 153.553 187.542 153.079 188.413 150.667C189.246 148.373 187.842 146.226 183.932 143.095C178.283 138.577 174.974 133.963 177.094 128.11C179.017 122.803 184.262 119.997 191.164 121.075L193.245 115.344L199.147 117.492L197.223 122.803C199.055 123.542 200.8 124.479 202.43 125.596C203.227 126.157 203.771 127.01 203.945 127.971C204.118 128.931 203.906 129.921 203.355 130.725C203.074 131.136 202.713 131.486 202.295 131.754C201.876 132.023 201.408 132.204 200.918 132.287C200.428 132.371 199.927 132.355 199.443 132.24C198.959 132.125 198.504 131.914 198.104 131.619C196.57 130.487 194.88 129.584 193.087 128.938C189.171 127.515 187.295 128.742 186.683 130.428C185.96 132.417 187.607 134.452 192.035 138.243C198.279 143.384 199.968 147.757 197.999 153.184C196.052 158.545 190.596 161.759 183.234 160.442L181.001 166.596L175.107 164.46Z" fill="#3FE2D5"/>
<g style="mix-blend-mode:multiply" opacity="0.3">
<path d="M198.941 111.976C194.506 110.18 189.727 109.396 184.952 109.678C180.176 109.961 175.523 111.305 171.33 113.611C178.986 110.613 187.497 110.665 195.117 113.754C211.736 120.476 219.731 139.533 212.975 156.317C210.144 163.39 204.942 169.254 198.263 172.902C202.445 171.277 206.249 168.809 209.439 165.649C212.628 162.49 215.134 158.707 216.802 154.536C223.555 137.752 215.559 118.695 198.941 111.976Z" fill="#84F7E2"/>
</g>
<path d="M410.505 326.198C410.505 326.198 412.747 328.39 412.797 329.194C412.848 329.998 412.996 338.609 412.081 339.414C411.165 340.218 408.48 340.79 409.342 341.692C409.996 342.377 415.021 342.231 418.349 342.047C419.321 341.993 420.54 334.225 420.927 333.081C421.486 331.425 422.844 327.69 422.336 326.529C422.089 325.963 420.903 324.807 419.235 323.726C417.477 322.591 415.797 320.059 415.797 320.059L410.505 326.198Z" fill="#F2D9BB"/>
<path d="M387.288 331.3C387.288 331.3 389.292 336.977 389.295 336.989C389.443 337.882 390.032 340.11 390.032 340.929C390.032 344 376.206 338.32 379.304 336.959C379.584 336.837 380.464 335.854 380.556 334.809C380.699 333.197 379.393 331.178 379.393 331.178L387.288 331.3Z" fill="#F2D9BB"/>
<path d="M365.598 225.607C365.598 225.607 364.59 235.782 364.59 235.933C364.59 252.393 361.319 284.546 361.952 287.638C363.463 295.189 379.727 333.692 379.727 333.692L388.523 332.641L377.066 286.539L381.283 267.983L387.244 231.311L365.598 225.607Z" fill="#3FE2D5"/>
<path d="M395.099 234.605L396.768 244.249L401.281 283.941L418.467 322.734C418.467 322.734 416.05 328.393 412.482 329.17L385.127 289.341L368.137 238.378L368.731 227.06L395.099 234.605Z" fill="#8EFFFE"/>
<path d="M419.126 323.678C419.126 323.678 413.961 338.246 411.939 338.952C411.401 339.136 408.826 339.61 408.338 340.739C408.192 341.081 408.338 342.228 408.338 342.228H419.108C419.108 342.228 420.47 335.806 421.008 332.995C421.008 332.995 423.856 326.105 423.541 325.477C423.226 324.848 419.126 323.678 419.126 323.678Z" fill="#F1FFFA"/>
<path d="M390.818 341.943L389.236 336.933C389.236 336.933 385.909 338.341 384.246 338.106C382.584 337.871 379.337 336.933 379.337 336.933C372.704 339.119 367.265 340.182 368.256 341.943H390.818Z" fill="#F1FFFA"/>
<path d="M247.336 323.213C247.336 323.213 246.4 329.534 244.788 331.571C244.25 332.256 243.263 333.123 242.615 334.359C241.604 336.286 242.163 339.152 242.912 340.73C243.296 341.54 242.885 341.537 243.756 341.8C244.998 342.164 246.329 342.068 247.506 341.529C248.684 340.991 249.628 340.047 250.167 338.869C250.926 337.168 251.351 335.336 251.419 333.474C251.692 327.738 253.527 324.822 253.527 324.822L247.336 323.213Z" fill="#F2D9BB"/>
<path d="M281.413 197.736C282.572 194.656 283.592 191.505 284.665 188.503C286.732 182.704 288.465 176.666 288.721 170.477C288.911 165.818 288.231 161.219 286.158 156.883C284.374 153.154 279.968 151.036 275.948 151.03C263.177 151.03 261.553 167.987 253.424 174.533C251.708 175.915 249.856 177.122 248.096 178.447C251.03 186.081 259.124 196.938 281.413 197.736Z" fill="black"/>
<path d="M275.504 326.105C275.504 326.105 276.081 333.23 275.614 335.545C275.362 336.787 273.964 339.339 274.603 340.504C275.243 341.668 275.98 341.963 275.98 341.963L292.607 342.225C293.499 342.225 292.905 341.671 292.185 341.147C290.996 340.292 290.023 339.726 286.206 337.93C285.956 337.811 285.049 337.251 284.719 337.058C283.837 336.486 283.037 335.798 282.34 335.011C281.151 333.719 281.044 327.443 281.044 327.443L275.504 326.105Z" fill="#F2D9BB"/>
<path d="M288.127 229.3C288.127 229.3 290.592 242.233 289.216 249.819C287.839 257.405 281.244 327.708 281.244 327.708L273.912 328.113C273.912 328.113 272.374 298.744 272.648 294.661C272.921 290.577 275.101 283.742 275.101 283.742L274.369 260.032L283.623 228.88L288.127 229.3Z" fill="#C9FFF6"/>
<path d="M266.949 228.231C266.949 228.231 261.175 236.69 259.813 243.693C258.451 250.695 260.824 272.209 258.177 281.386C256.747 286.351 251.321 294.021 250.497 300.449C249.674 306.876 246.436 323.681 246.436 323.681L253.765 325.096L270.776 283.099L284.156 245.149L287.581 225.607L266.949 228.231Z" fill="#F1FFFA"/>
<path d="M250.662 337.605C246.666 338.314 244.011 336.042 242.634 334.329C241.62 336.259 241.123 339.136 241.873 340.721C242.53 342.118 244.451 342.076 245.964 342.133C247.564 342.189 248.804 341.323 249.598 339.967C250.032 339.218 250.388 338.427 250.662 337.605Z" fill="#15D1AE"/>
<path d="M284.72 337.049C280.322 338.148 277.069 337.4 275.252 336.688C274.783 337.981 274.161 339.605 274.491 340.54C274.896 341.687 275.469 341.946 275.978 341.957C279.995 342.062 290.69 342.199 293.753 342.241C293.847 342.243 293.94 342.219 294.02 342.17C294.1 342.122 294.165 342.051 294.206 341.966C294.247 341.881 294.263 341.787 294.252 341.693C294.241 341.6 294.203 341.512 294.142 341.439C293.372 340.561 285.047 337.251 284.72 337.049Z" fill="#15D1AE"/>
<path d="M318.425 182.552C318.387 181.84 315.154 182.588 314.732 182.022C314.31 181.456 318.274 179.767 318.187 179.154C318.03 178.025 313.727 180.741 313.632 180.226C313.537 179.711 317.816 176.693 316.968 176.086C316.121 175.478 312.844 179.681 312.487 179.177C312.131 178.674 315.883 175.544 315.303 174.358C315.006 173.724 309.564 180.527 308.604 180.512C307.644 180.497 308.075 176.735 307.239 176.55C306.404 176.366 307.287 183.806 306.942 184.214C306.597 184.622 299.318 193.981 296.294 196.241C295.402 195.276 289.988 190.478 289.185 189.558C287.844 191.693 285.765 192.897 284.314 194.94C287.199 197.918 295.682 204.668 296.856 204.706C300.424 204.826 308.084 190.35 309.725 187.729C311.366 185.108 312.918 185.099 314.277 183.925C315.636 182.752 318.464 183.267 318.425 182.552Z" fill="#F2D9BB"/>
<path d="M288.198 200.685C288.198 200.685 276.147 191.398 273.884 187.228C271.621 183.058 276.964 180.08 281.169 180.029C285.373 179.978 294.252 192.509 294.252 192.509L288.198 200.685Z" fill="#15D1AE"/>
<path d="M322.288 199.101L323.18 199.649C323.18 199.649 324.072 200.384 324.286 200.438C324.5 200.492 330.712 200.355 330.712 200.355C330.712 200.355 330.732 202.419 330.694 202.419C330.655 202.419 327.423 205.046 327.423 205.046L326.736 205.361L322.514 204.099L318.649 203.616C318.649 203.616 315.916 203.297 315.916 203.229C315.916 203.16 315.996 200.998 316.1 200.891L317.757 199.196C317.757 199.196 318.946 198.928 318.985 198.928C319.023 198.928 320.174 198.701 320.21 198.687C320.245 198.672 322.05 198.955 322.05 198.955L322.288 199.101Z" fill="#F2D9BB"/>
<path d="M272.15 179.24C272.15 179.24 264.803 178.769 261.895 181.95C258.987 185.131 268.344 210.3 268.871 214.348C269.397 218.396 266.177 229.163 266.177 229.163C266.177 229.163 283.44 232.651 288.373 229.372C288.373 229.372 288.902 200.256 288.373 197.364C287.844 194.472 282.724 181.471 281.653 180.312C280.583 179.154 272.15 179.24 272.15 179.24Z" fill="#3FE2D5"/>
<path d="M274.598 169.381C274.598 169.381 274.56 169.598 274.491 169.977C274.164 171.764 272.9 177.634 272.05 179.252C271.018 181.209 275.577 187.443 279.962 186.68C281.268 186.454 278.856 180.953 278.972 180.369C279.195 179.255 279.495 177.733 279.802 176.172C279.977 175.278 280.153 174.4 280.316 173.56L281.169 169.226L274.598 169.381Z" fill="#F2D9BB"/>
<path d="M274.489 169.968C274.558 169.598 274.596 169.372 274.596 169.372L281.168 169.208L280.314 173.542C280.151 174.376 279.975 175.263 279.803 176.139C278.626 175.929 277.537 175.38 276.666 174.56C275.577 173.605 274.757 172.381 274.287 171.01C274.37 170.602 274.439 170.251 274.489 169.968Z" fill="#C49A6C"/>
<path d="M279.019 154.384C279.019 154.384 275.92 154.024 273.964 156.546C272.007 159.069 269.932 166.864 274.755 171.103C279.578 175.341 284.344 170.543 285.049 165.443C285.753 160.344 286.045 154.199 279.019 154.384Z" fill="#F2D9BB"/>
<path d="M279.366 153.55C279.366 153.55 275.236 160.964 272.262 161.315C269.289 161.667 268.914 165.598 268.914 165.598C268.914 165.598 269.973 156.52 272.904 154.768C275.836 153.017 279.366 153.55 279.366 153.55Z" fill="black"/>
<path d="M278.611 167.591L282.53 167.746C282.53 167.746 282.382 169.235 280.657 169.217C278.552 169.193 278.611 167.591 278.611 167.591Z" fill="#F1FFFA"/>
<path d="M313.124 203.792C313.776 203.873 314.419 204.016 315.045 204.218C315.711 204.486 320.992 208.495 320.992 208.495C320.992 208.495 321.699 208.882 322.074 208.575C322.179 208.498 322.264 208.398 322.324 208.282C322.384 208.166 322.416 208.038 322.419 207.908C322.419 207.908 323.046 208.254 323.474 208.012C323.623 207.936 323.739 207.81 323.805 207.657C323.871 207.504 323.881 207.332 323.834 207.172C323.834 207.172 324.447 207.345 324.807 207.038C325.166 206.732 324.982 205.942 324.982 205.942C324.982 205.942 326.115 206.636 326.555 206.169C326.995 205.701 326.808 205.207 326.368 204.834C325.928 204.462 323.314 202.723 323.008 202.523C322.701 202.323 321.833 201.4 321.566 201.278C321.298 201.156 320.647 200.798 320.647 200.798C320.647 200.798 319.553 200.918 319.487 200.959C319.422 201.001 319.112 201.76 318.565 201.96C318.364 202.027 318.15 202.048 317.94 202.02C317.73 201.992 317.529 201.916 317.352 201.799C317.324 201.663 317.324 201.522 317.352 201.385C317.379 201.224 317.78 200.637 317.873 200.17C317.965 199.702 318.087 199.574 318.259 199.461C318.432 199.348 319.38 199.074 319.847 198.886C320.314 198.698 322.276 199.25 322.276 199.25L323.21 199.649C323.21 199.649 323.034 198.958 322.449 198.847C321.863 198.737 321.128 198.579 320.715 198.55C320.302 198.52 319.341 198.803 318.901 198.83C318.304 198.848 317.712 198.942 317.138 199.109C316.645 199.297 313.659 199.11 313.472 199.083C313.457 199.074 312.164 202.588 313.124 203.792Z" fill="#F2D9BB"/>
<path d="M314.144 199.107C312.886 199.08 298.385 198.955 292.923 198.91C291.591 198.899 290.3 198.445 289.253 197.621L277.125 188.062L271.814 194.192L286.872 205.1C287.877 205.83 289.115 206.164 290.351 206.038C296.077 205.442 312.761 203.795 314.218 203.995L314.144 199.107Z" fill="#F2D9BB"/>
<path d="M325.107 200.441C326.362 200.414 341.651 200.191 347.111 200.143C348.436 200.125 349.719 199.669 350.759 198.844L362.887 189.283L368.198 195.416L353.141 206.312C352.134 207.039 350.897 207.372 349.662 207.247C343.935 206.666 328.253 205.129 326.793 205.329L325.107 200.441Z" fill="#F2D9BB"/>
<path d="M285.726 193.018C285.726 193.018 275.572 182.32 271.9 179.615C268.228 176.911 260.842 179.21 261.427 183.848C262.022 188.577 278.611 200.551 278.611 200.551L285.726 193.018Z" fill="#15D1AE"/>
<path d="M356.877 193.018C356.877 193.018 367.028 182.32 370.7 179.615C374.372 176.911 381.761 179.21 381.176 183.848C380.581 188.577 363.989 200.551 363.989 200.551L356.877 193.018Z" fill="#C9FFF6"/>
<path d="M368.656 189.149C368.421 190.788 364.074 235.317 364.074 235.317C384.662 245.277 396.02 237.104 396.02 237.104C396.02 237.104 395.348 205.829 396.154 201.57C396.689 198.755 396.193 179.77 394.37 179.246C392.03 178.573 390.505 178.126 387.591 177.822C385.096 177.563 375.4 177.414 373.675 177.998C370.988 181.168 369.248 185.033 368.656 189.149Z" fill="#F1FFFA"/>
<path d="M384.856 168.675L386.37 177.95C386.37 177.95 380.827 189.754 377.512 188.76C374.735 187.926 376.444 177.79 376.444 177.79C376.444 177.79 377.958 172.345 377.503 169.619C377.048 166.894 384.856 168.675 384.856 168.675Z" fill="#F2D9BB"/>
<path d="M377.504 169.619C377.052 166.897 384.857 168.675 384.857 168.675L384.982 169.473C384.784 169.968 384.498 170.422 384.138 170.814C382.392 172.616 379.678 173.7 377.299 173.792C377.546 172.312 377.691 170.736 377.504 169.619Z" fill="#C49A6C"/>
<path d="M386.142 155.06C386.362 154.983 387.908 166.021 384.974 169.059C382.039 172.097 376.312 173.089 374.269 170.697C371.998 168.052 372.111 156.192 376.678 153.067C381.245 149.943 386.142 155.06 386.142 155.06Z" fill="#F2D9BB"/>
<path d="M385.062 150.809C386.665 150.991 388.841 151.84 391.092 155.42C393.857 159.819 391.815 164.695 388.594 167.087C385.374 169.479 385.434 172.216 385.434 172.216L384.91 170.81C384.527 169.732 384.39 168.582 384.509 167.445C384.569 166.746 384.745 166.063 385.029 165.422C385.802 163.826 383.364 162.762 382.68 161.434C382.154 160.412 382.13 158.071 381.301 156.37L380.311 155.078C380.311 155.078 378.024 153.371 375.788 153.853C373.552 154.336 376.299 143.866 385.062 150.809Z" fill="black"/>
<path d="M382.831 163.4C382.807 164.746 383.443 165.849 384.252 165.86C385.061 165.872 385.739 164.794 385.76 163.448C385.78 162.101 385.147 160.999 384.338 160.985C383.529 160.97 382.855 162.054 382.831 163.4Z" fill="#F2D9BB"/>
<path d="M374.197 165.938L379.049 166.432C379.049 166.432 378.752 168.267 376.611 168.112C374 167.921 374.197 165.938 374.197 165.938Z" fill="#F1FFFA"/>
<path d="M416.265 238.679C416.278 238.581 416.278 238.48 416.265 238.382C415.944 235.123 413.244 207.747 412.789 206.586C412.379 205.534 400.259 188.172 400.259 188.172L394.312 196.301L405.965 211.873C406.227 212.861 410.425 231.343 410.425 231.343C410.425 231.343 411.288 234.709 411.674 236.728C411.499 237.214 411.326 237.673 411.172 238.051C410.82 238.764 410.4 239.44 409.917 240.07C409.397 240.77 408.534 242.298 408.43 242.709C408.308 243.183 408.085 244.172 407.96 244.768C407.836 245.363 407.663 246.057 407.63 246.382C407.551 246.689 407.424 246.981 407.256 247.249C407.204 247.34 407.181 247.445 407.189 247.55C407.198 247.654 407.238 247.754 407.305 247.835C407.371 247.917 407.46 247.976 407.561 248.006C407.661 248.036 407.768 248.035 407.868 248.002C408.293 247.859 408.623 247.311 408.826 246.969C409.4 246.004 409.718 244.24 409.848 244.333C409.979 244.425 410.491 247.418 410.571 247.755C410.651 248.092 411.255 251.568 411.594 252.202C411.933 252.836 412.385 252.732 412.504 252.333C412.608 251.993 412.129 247.133 412.129 247.133C412.129 247.133 412.07 246.513 412.34 246.707C412.611 246.9 413.054 251.311 413.232 251.958C413.411 252.604 413.851 252.944 414.216 252.425C414.659 251.794 413.898 247.115 413.898 247.115C413.898 247.115 413.812 246.519 414.062 246.581C414.312 246.644 414.627 250.397 414.823 250.722C414.868 250.812 414.94 250.887 415.028 250.936C415.117 250.985 415.219 251.005 415.319 250.994C415.42 250.983 415.515 250.941 415.591 250.874C415.667 250.807 415.721 250.719 415.745 250.62C416.024 249.983 415.305 245.81 415.305 245.81C415.305 245.81 415.34 245.479 415.498 245.59C415.656 245.7 416.176 248.884 416.473 249.182C416.505 249.216 416.544 249.242 416.586 249.261C416.629 249.279 416.675 249.289 416.721 249.289C416.768 249.289 416.814 249.279 416.857 249.261C416.899 249.242 416.938 249.216 416.97 249.182C417.564 248.777 416.655 245.744 416.672 244.237C416.69 242.73 415.983 241.038 416.191 239.242C416.206 239.129 416.244 238.855 416.265 238.679Z" fill="#F2D9BB"/>
<path d="M409.733 199.163L399.382 206.124C399.382 206.124 393.546 197.427 390.415 194.332C386.49 190.46 391.845 178.57 394.372 179.243C400.025 180.747 409.733 199.163 409.733 199.163Z" fill="#F1FFFA"/>
<path d="M270.099 164.061C270.72 165.291 271.901 165.902 272.733 165.425C273.566 164.949 273.741 163.564 273.12 162.334C272.498 161.104 271.318 160.493 270.482 160.97C269.647 161.446 269.477 162.831 270.099 164.061Z" fill="#F2D9BB"/>
<path d="M245.271 69.7162L246.131 77.9281L250.781 72.4386L265.922 59.4492L252.863 63.8991C252.863 63.8991 246.455 67.1964 246.166 67.6193C245.823 68.298 245.524 68.9985 245.271 69.7162Z" fill="#C9FFF6"/>
<path d="M238.199 66.3383L265.92 59.4341L245.27 69.716L238.199 66.3383Z" fill="#F1FFFA"/>
<path d="M256.123 75.5658L247.438 71.4674L265.92 59.4341L256.123 75.5658Z" fill="#F1FFFA"/>
<path d="M213.445 107.657C213.31 106.379 213.31 105.091 213.445 103.814L214.114 103.883C214.052 104.478 214.019 105.074 214.016 105.67C214.011 106.309 214.042 106.949 214.108 107.585C214.129 107.77 214.15 107.954 214.177 108.139L213.508 108.228C213.49 108.038 213.466 107.844 213.445 107.657ZM214.373 99.5013C214.829 98.1042 215.404 96.7489 216.091 95.4506L216.686 95.7633C216.017 97.0275 215.457 98.3468 215.012 99.7068L214.373 99.5013ZM234.797 93.1868L234.666 93.1422L234.898 92.5077L235.005 92.5465C235.029 92.5494 235.053 92.5494 235.077 92.5465C235.718 92.514 236.333 92.2817 236.837 91.8822C237.229 91.4821 237.497 90.976 237.607 90.4257L238.264 90.5717C238.124 91.2469 237.792 91.8673 237.31 92.3588C236.685 92.9694 235.543 93.2196 235.074 93.2167C234.98 93.2227 234.887 93.2126 234.797 93.1868ZM218.42 91.7244C219.282 90.5409 220.217 89.4128 221.22 88.3467L221.711 88.8084C220.727 89.8538 219.809 90.96 218.964 92.1205L218.42 91.7244ZM230.955 88.7071C230.801 88.0584 230.725 87.3934 230.729 86.7264C230.732 86.347 230.757 85.9681 230.804 85.5916L231.473 85.675C231.428 86.0247 231.405 86.3769 231.404 86.7294C231.397 87.3412 231.466 87.9515 231.61 88.5463C231.709 88.9568 231.851 89.356 232.032 89.7377L231.437 90.0355C231.231 89.6105 231.07 89.1654 230.955 88.7071ZM233.292 84.6116L233.2 84.5937L233.337 83.9325L233.438 83.9534C234.909 84.2636 236.236 85.0534 237.211 86.1992L236.688 86.6251C235.811 85.5947 234.616 84.8862 233.292 84.6116ZM224.792 85.7256C225.464 85.3295 226.695 84.6325 227.381 84.4329C227.914 84.275 228.407 84.1351 228.889 84.0487L229.029 84.7099C228.565 84.8053 228.086 84.9274 227.569 85.0793C226.719 85.4069 225.903 85.8179 225.133 86.3064L224.792 85.7256ZM232.151 81.3561C232.822 80.0318 233.687 78.8151 234.717 77.7461L235.201 78.2108C234.219 79.2338 233.393 80.3972 232.751 81.6629L232.151 81.3561Z" fill="black"/>
<path d="M238.551 75.6287C239.181 75.2766 239.839 74.9777 240.519 74.7351L240.296 74.0977C239.578 74.352 238.882 74.6648 238.215 75.033L238.551 75.6287Z" fill="black"/>
<path d="M200.603 67.1276L202.28 64.0447L200.702 60.9083C200.661 60.828 200.643 60.7379 200.65 60.648C200.658 60.5581 200.691 60.4722 200.745 60.4C200.798 60.3277 200.871 60.272 200.955 60.2392C201.039 60.2064 201.13 60.1978 201.219 60.2144L204.656 60.8637L207.139 58.3885C207.202 58.3247 207.282 58.28 207.37 58.2596C207.457 58.2391 207.549 58.2438 207.634 58.273C207.719 58.3022 207.794 58.3548 207.85 58.4247C207.907 58.4947 207.943 58.5791 207.954 58.6685L208.4 62.1534L211.513 63.7588C211.592 63.8007 211.658 63.8638 211.704 63.9411C211.75 64.0184 211.773 64.107 211.772 64.1968C211.77 64.2866 211.744 64.3743 211.695 64.45C211.647 64.5257 211.579 64.5864 211.498 64.6255L208.337 66.1148L207.778 69.5819C207.765 69.6711 207.727 69.7547 207.668 69.8232C207.61 69.8917 207.533 69.9423 207.447 69.969C207.361 69.9958 207.269 69.9976 207.182 69.9745C207.095 69.9513 207.016 69.904 206.955 69.838L204.555 67.2824L201.097 67.8216C201.01 67.833 200.922 67.8205 200.842 67.7855C200.762 67.7506 200.693 67.6944 200.642 67.6231C200.591 67.5518 200.561 67.468 200.554 67.3807C200.547 67.2934 200.564 67.2059 200.603 67.1276Z" fill="#F1FFFA"/>
<path d="M321.848 64.1431L323.278 61.8138L322.13 61.3462C322.07 61.3223 322.016 61.2867 321.97 61.2415C321.923 61.1962 321.887 61.1423 321.861 61.0827C321.836 61.0231 321.823 60.9591 321.823 60.8944C321.823 60.8297 321.835 60.7656 321.86 60.7058C321.884 60.6459 321.92 60.5914 321.965 60.5454C322.01 60.4994 322.064 60.4627 322.123 60.4376C322.183 60.4124 322.246 60.3992 322.311 60.3987C322.375 60.3982 322.439 60.4105 322.499 60.4348L323.825 60.9739L325.104 58.8889L323.876 58.3885C323.816 58.3643 323.762 58.3285 323.716 58.2832C323.67 58.2379 323.633 58.184 323.608 58.1245C323.583 58.0651 323.57 58.0012 323.569 57.9366C323.569 57.8721 323.581 57.808 323.605 57.7481C323.629 57.6883 323.665 57.6338 323.71 57.5877C323.756 57.5417 323.809 57.5051 323.869 57.4799C323.928 57.4547 323.992 57.4415 324.056 57.4411C324.121 57.4406 324.185 57.4528 324.244 57.4771L325.648 58.046L327.135 55.6632C327.196 55.5666 327.289 55.4945 327.397 55.4591C327.506 55.4238 327.623 55.4275 327.729 55.4695L327.943 55.5559C328.009 55.5825 328.069 55.6233 328.118 55.6755C328.166 55.7276 328.203 55.7898 328.225 55.8576C328.247 55.9255 328.254 55.9974 328.246 56.0683C328.237 56.1391 328.213 56.2073 328.175 56.2678L326.796 58.5285L328.829 59.3535L330.316 56.9707C330.376 56.8728 330.469 56.7993 330.578 56.7633C330.686 56.7273 330.804 56.7312 330.911 56.7742L331.146 56.8665C331.212 56.8936 331.271 56.9347 331.32 56.987C331.369 57.0393 331.406 57.1016 331.428 57.1696C331.45 57.2376 331.458 57.3096 331.449 57.3807C331.441 57.4518 331.418 57.5202 331.381 57.5813L329.998 59.8421L331.146 60.3067C331.267 60.3522 331.366 60.4442 331.42 60.5626C331.474 60.681 331.479 60.8161 331.434 60.9381C331.41 60.998 331.374 61.0525 331.329 61.0986C331.284 61.1446 331.23 61.1812 331.171 61.2064C331.111 61.2316 331.047 61.2448 330.983 61.2452C330.919 61.2457 330.855 61.2335 330.795 61.2092L329.469 60.6701L328.211 62.7551L329.439 63.2525C329.559 63.302 329.655 63.3971 329.706 63.5169C329.756 63.6368 329.758 63.7719 329.71 63.8928C329.685 63.9531 329.65 64.0079 329.604 64.0542C329.559 64.1005 329.505 64.1373 329.445 64.1625C329.385 64.1877 329.321 64.2008 329.256 64.201C329.191 64.2013 329.127 64.1887 329.067 64.1639L327.664 63.595L326.147 66.0642C326.087 66.1617 325.994 66.2348 325.886 66.2708C325.777 66.3067 325.659 66.3032 325.553 66.2608L325.303 66.1595C325.237 66.1325 325.177 66.0914 325.129 66.039C325.08 65.9867 325.043 65.9244 325.021 65.8564C324.999 65.7885 324.991 65.7164 324.999 65.6453C325.007 65.5743 325.031 65.5058 325.068 65.4446L326.498 63.1185L324.464 62.2904L322.948 64.7596C322.887 64.8568 322.795 64.9297 322.686 64.9661C322.578 65.0025 322.46 65.0001 322.353 64.9592L322.101 64.8579C322.033 64.8326 321.972 64.7928 321.921 64.7413C321.87 64.6898 321.832 64.6277 321.808 64.5596C321.784 64.4914 321.775 64.4189 321.782 64.3469C321.789 64.2749 321.811 64.2053 321.848 64.1431ZM327.034 62.2755L328.312 60.1905L326.278 59.3655L324.997 61.4504L327.034 62.2755Z" fill="black"/>
<path d="M498.219 64.0476L500.178 64.8905C500.178 64.8905 503.449 64.1608 503.815 63.5442C504.181 62.9277 504.392 61.3758 504.85 61.3729C505.214 61.3605 505.569 61.4912 505.839 61.7371C506.109 61.983 506.272 62.3246 506.295 62.6894C506.384 63.4787 505.058 65.6173 505.218 65.8735C505.319 66.0343 506.431 66.5496 507.249 66.913C507.513 67.0309 507.74 67.2189 507.905 67.4568C508.07 67.6946 508.167 67.9732 508.186 68.2623C508.199 68.4557 508.145 68.6478 508.034 68.8062C507.922 68.9646 507.76 69.0797 507.573 69.132L506.979 69.3018L507.115 69.8975C507.164 70.1154 507.126 70.3439 507.008 70.5335C506.89 70.723 506.702 70.8584 506.485 70.9101L506.027 71.0174L506.14 71.3897C506.175 71.5034 506.186 71.6233 506.172 71.7415C506.158 71.8596 506.119 71.9735 506.057 72.0755C505.996 72.1776 505.914 72.2655 505.817 72.3337C505.719 72.4018 505.609 72.4486 505.492 72.4709L505.093 72.5454V72.6526C505.108 72.8627 505.044 73.0707 504.914 73.236C504.783 73.4012 504.596 73.5118 504.389 73.5462L503.993 73.6117L498.778 71.3659C498.289 71.1602 497.848 70.8561 497.482 70.4723L495.778 69.3792C495.689 69.3222 495.624 69.2353 495.593 69.1344C495.563 69.0334 495.569 68.9248 495.611 68.8282L497.636 64.271C497.66 64.2179 497.693 64.17 497.735 64.13C497.777 64.09 497.827 64.0587 497.881 64.0379C497.935 64.0172 497.993 64.0073 498.051 64.009C498.109 64.0106 498.166 64.0238 498.219 64.0476Z" fill="black"/>
<path d="M407.059 43.5379L414.837 44.4791L411.516 38.4297L407.059 43.5379Z" fill="#F1FFFA"/>
<path d="M269.742 38.1138C269.548 40.1988 271.338 42.105 273.31 42.4535C275.364 42.8109 277.196 41.4706 277.903 39.5732C279.298 35.8322 275.227 32.8775 272.994 35.1441C270.913 37.2559 271.579 40.3983 273.812 40.3983C274.657 40.3983 276.012 39.6924 275.474 38.6678C275.444 38.6151 275.401 38.5713 275.349 38.5409C275.297 38.5104 275.237 38.4944 275.177 38.4944C275.116 38.4944 275.057 38.5104 275.005 38.5409C274.953 38.5713 274.909 38.6151 274.88 38.6678C274.609 39.1294 274.633 39.1473 274.502 39.2635C274.289 39.4146 274.031 39.4891 273.77 39.4749C271.496 39.4362 273.009 34.2208 275.691 35.4837C277.163 36.1777 277.597 37.8665 277.086 39.32C276.595 40.7289 275.275 41.822 273.747 41.7237C271.924 41.6046 270.396 39.9366 270.277 38.1256C270.27 38.0567 270.237 37.993 270.186 37.9466C270.135 37.9002 270.068 37.8745 269.999 37.8745C269.93 37.8745 269.863 37.9002 269.812 37.9466C269.76 37.993 269.728 38.0567 269.721 38.1256L269.742 38.1138Z" fill="#15D1AE"/>
<path d="M535.951 227.358H521.102V342.49H535.951V227.358Z" fill="#C9FFF6"/>
<path d="M515.212 261.829H500.363V341.841H515.212V261.829Z" fill="#C9FFF6"/>
<path d="M556.984 252.303H542.135V342.49H556.984V252.303Z" fill="#C9FFF6"/>
<path d="M494.476 248.106H479.627V341.841H494.476V248.106Z" fill="#C9FFF6"/>
<path d="M473.738 275.899H458.889V341.841H473.738V275.899Z" fill="#C9FFF6"/>
<path d="M535.951 253.245H521.102V342.491H535.951V253.245Z" fill="#A7FFF9"/>
<path d="M515.212 280.269H500.363V341.841H515.212V280.269Z" fill="#A7FFF9"/>
<path d="M556.984 272.441H542.135V342.493H556.984V272.441Z" fill="#A7FFF9"/>
<path d="M494.476 269.71H479.627V341.841H494.476V269.71Z" fill="#A7FFF9"/>
<path d="M473.738 291.096H458.889V341.841H473.738V291.096Z" fill="#A7FFF9"/>
<path d="M561.059 246.102L549.103 254.281L553.045 254.963L530.65 289.845L516.642 267.419L491.636 322.424L477.854 307.442L466.74 328.655L461.263 324.205L451.766 342.568L455.786 343.176L462.491 330.103L467.95 334.538L478.713 313.992L492.721 329.218L517.171 275.438L530.602 296.943L556.26 256.992L558.564 260.387L561.059 246.102Z" fill="#15D1AE"/>
<path d="M564.202 341.779H82.3965V343.176H564.202V341.779Z" fill="black"/>
<path d="M580 219.855H542.229V224.793H580V219.855Z" fill="#F1FFFA"/>
<path d="M573.806 228.907H542.229V233.846H573.806V228.907Z" fill="#F1FFFA"/>
<path d="M560.271 237.962H542.229V242.9H560.271V237.962Z" fill="#F1FFFA"/>
</svg>
