<svg width="375" height="85" viewBox="0 0 375 85" fill="none" xmlns="http://www.w3.org/2000/svg">
<path d="M80.1413 0.577148H0.269531V23.6619H80.1413V0.577148Z" fill="black"/>
<path d="M57.3145 29.4267H11.6734V52.5114H57.3145V29.4267Z" fill="black"/>
<path d="M34.5003 58.2826H0.269531V81.3674H34.5003V58.2826Z" fill="black"/>
<path d="M102.46 81.2133V29.4652H134.616V38.3306H112.107V81.2133H102.46Z" fill="black"/>
<path d="M137.427 81.2133V44.1724H159.201V53.0442H147.073V81.2133H137.427Z" fill="black"/>
<path d="M160.819 63.2898V62.4039C160.819 50.8487 168.123 43.4791 178.943 43.4791C189.611 43.4791 196.554 51.1825 196.554 62.4039V65.6137H170.173C170.389 70.6402 174.266 74.1132 179.381 74.1132C184.496 74.1132 186.616 71.4556 187.86 68.6438L195.386 72.6368C193.343 76.5527 189.04 82.2661 179.089 82.2661C168.2 82.2147 160.819 74.8258 160.819 63.2898ZM187.2 58.6357C186.762 54.418 183.621 51.6127 178.867 51.6127C173.898 51.6127 170.903 54.418 170.243 58.6357H187.2Z" fill="black"/>
<path d="M200.533 63.4376V62.2563C200.533 50.2774 208.148 43.4791 216.906 43.4791C223.48 43.4791 227.942 46.1368 229.477 48.7239V29.4331H238.685V81.2133H229.623V76.7196C227.942 79.5314 223.48 82.1891 216.931 82.1891C208.212 82.2148 200.533 75.4357 200.533 63.4376ZM229.623 62.4746C229.623 55.4131 225.384 51.6127 219.685 51.6127C213.987 51.6127 209.741 55.381 209.741 62.4746V63.2385C209.741 70.3 214.056 74.1004 219.685 74.1004C225.314 74.1004 229.623 70.3 229.623 63.2385V62.4746Z" fill="black"/>
<path d="M131.081 48.236H118.541V57.7819H131.081V48.236Z" fill="black"/>
<path d="M257.851 51.6191C257.851 47.3052 260.56 44.3971 264.628 44.3971C266.163 44.395 267.651 44.9293 268.841 45.9096C270.031 46.8899 270.85 48.256 271.158 49.7767H269.375C269.104 48.7098 268.492 47.7637 267.633 47.0865C266.774 46.4093 265.717 46.0392 264.628 46.0341C261.652 46.0341 259.672 48.2809 259.672 51.6191C259.672 54.9573 261.652 57.2041 264.628 57.2041C265.776 57.2013 266.887 56.793 267.768 56.0499C268.65 55.3068 269.248 54.2755 269.458 53.1341H271.216C270.968 54.7219 270.168 56.1681 268.961 57.213C267.754 58.2579 266.217 58.833 264.628 58.8347C260.541 58.8347 257.851 55.9331 257.851 51.6191Z" fill="black"/>
<path d="M272.675 53.5193C272.675 50.3095 274.712 48.2039 277.752 48.2039C280.792 48.2039 282.829 50.3288 282.829 53.5193C282.829 56.7098 280.785 58.8347 277.752 58.8347C274.719 58.8347 272.675 56.7098 272.675 53.5193ZM281.204 53.5193C281.204 51.189 279.808 49.6675 277.746 49.6675C275.683 49.6675 274.287 51.2211 274.287 53.5193C274.287 55.8175 275.683 57.4031 277.746 57.4031C279.808 57.4031 281.204 55.8496 281.204 53.5193Z" fill="black"/>
<path d="M284.561 48.4093H286.18V49.6932C286.571 49.2268 287.057 48.8507 287.604 48.5904C288.152 48.3302 288.748 48.1918 289.353 48.1847C291.891 48.1847 293.56 49.8217 293.56 52.2739V58.6165H291.942V52.5563C291.967 52.1665 291.909 51.7758 291.774 51.4099C291.639 51.044 291.428 50.7112 291.157 50.4335C290.885 50.1557 290.559 49.9393 290.198 49.7984C289.838 49.6576 289.453 49.5955 289.067 49.6162C288.682 49.5954 288.296 49.6574 287.936 49.7983C287.576 49.9392 287.25 50.1558 286.979 50.4337C286.708 50.7116 286.498 51.0445 286.364 51.4104C286.229 51.7763 286.173 52.1668 286.199 52.5563V58.6165H284.58L284.561 48.4093Z" fill="black"/>
<path d="M295.273 55.1563H296.79C296.835 56.5044 297.983 57.4032 299.684 57.4032C301.385 57.4032 302.432 56.7612 302.432 55.7662C302.432 54.9509 301.708 54.4823 299.582 54.0136C296.873 53.3717 295.921 52.6591 295.921 51.1441C295.921 49.3916 297.438 48.2039 299.684 48.2039C300.522 48.1703 301.35 48.3988 302.055 48.8582C302.761 49.3177 303.309 49.9859 303.625 50.7717L302.153 51.1441C301.95 50.6602 301.604 50.2522 301.161 49.9771C300.719 49.7021 300.202 49.5737 299.684 49.6098C298.415 49.6098 297.539 50.1619 297.539 50.9965C297.539 51.6962 298.174 52.0814 299.925 52.5115C302.978 53.1534 304.031 53.9622 304.031 55.6634C304.031 57.5444 302.292 58.809 299.684 58.809C297.076 58.809 295.318 57.3647 295.273 55.1563Z" fill="black"/>
<path d="M306.582 56.0165V49.8409H304.964V48.4093H306.582V44.6218H308.194V48.4286H311.151V49.8602H308.194V56.0358C308.18 56.2128 308.202 56.3909 308.26 56.5587C308.317 56.7265 308.409 56.8805 308.528 57.0108C308.647 57.1411 308.792 57.245 308.953 57.3159C309.114 57.3867 309.288 57.4229 309.463 57.4223H311.221V58.6549C310.678 58.7805 310.122 58.8472 309.565 58.854C307.794 58.8347 306.582 57.7113 306.582 56.0165Z" fill="black"/>
<path d="M313.068 48.4093H314.686V49.8152C315.025 49.3508 315.459 48.9663 315.958 48.6881C316.458 48.4099 317.011 48.2446 317.58 48.2038C317.868 48.1992 318.152 48.27 318.405 48.4093V49.6355H317.72C317.318 49.6076 316.915 49.6663 316.537 49.8078C316.16 49.9493 315.816 50.1703 315.53 50.4561C315.243 50.742 315.019 51.0861 314.874 51.4659C314.729 51.8457 314.665 52.2524 314.686 52.6591V58.6356H313.068V48.4093Z" fill="black"/>
<path d="M328.597 58.6357H326.979V57.3517C326.587 57.8182 326.101 58.1943 325.554 58.4546C325.007 58.7148 324.41 58.8533 323.806 58.8604C321.267 58.8604 319.598 57.2298 319.598 54.7711V48.435H321.216V54.4886C321.192 54.8785 321.249 55.2692 321.384 55.6351C321.519 56.001 321.73 56.3338 322.001 56.6115C322.273 56.8893 322.599 57.1057 322.96 57.2466C323.32 57.3874 323.705 57.4495 324.091 57.4288C324.476 57.4496 324.862 57.3876 325.222 57.2467C325.582 57.1057 325.908 56.8892 326.179 56.6114C326.45 56.3335 326.66 56.0006 326.794 55.6347C326.929 55.2688 326.985 54.8782 326.96 54.4886V48.435H328.578L328.597 58.6357Z" fill="black"/>
<path d="M330.539 53.5193C330.539 50.3095 332.582 48.2039 335.616 48.2039C336.812 48.1668 337.98 48.5812 338.891 49.3667C339.803 50.1522 340.393 51.2525 340.546 52.4536H339.011C338.879 51.6473 338.462 50.917 337.837 50.3985C337.213 49.8801 336.423 49.609 335.616 49.6355C333.553 49.6355 332.157 51.1891 332.157 53.4873C332.157 55.7855 333.553 57.371 335.616 57.371C336.438 57.3878 337.239 57.1004 337.868 56.5627C338.496 56.025 338.909 55.2739 339.03 54.4502H340.565C340.424 55.6686 339.838 56.7898 338.923 57.5946C338.007 58.3995 336.828 58.8302 335.616 58.8026C332.582 58.8347 330.539 56.7098 330.539 53.5193Z" fill="black"/>
<path d="M342.71 56.0165V49.8409H341.092V48.4093H342.71V44.6218H344.31V48.4286H347.261V49.8602H344.31V56.0358C344.296 56.2128 344.318 56.3909 344.376 56.5587C344.433 56.7265 344.524 56.8805 344.644 57.0108C344.763 57.1411 344.908 57.245 345.069 57.3159C345.23 57.3867 345.403 57.4229 345.579 57.4223H347.337V58.6549C346.791 58.7801 346.234 58.8469 345.674 58.854C343.923 58.8347 342.71 57.7113 342.71 56.0165Z" fill="black"/>
<path d="M349.602 44.6218H351.221V46.8686H349.602V44.6218ZM349.602 48.4286H351.221V58.6549H349.602V48.4286Z" fill="black"/>
<path d="M353.194 53.5193C353.194 50.3095 355.238 48.2039 358.271 48.2039C361.304 48.2039 363.348 50.3288 363.348 53.5193C363.348 56.7098 361.304 58.8347 358.271 58.8347C355.238 58.8347 353.194 56.7098 353.194 53.5193ZM361.723 53.5193C361.723 51.189 360.334 49.6675 358.271 49.6675C356.209 49.6675 354.812 51.2211 354.812 53.5193C354.812 55.8175 356.209 57.4031 358.271 57.4031C360.334 57.4031 361.692 55.8496 361.692 53.5193H361.723Z" fill="black"/>
<path d="M365.049 48.4093H366.667V49.6932C367.059 49.2274 367.545 48.8517 368.092 48.5915C368.639 48.3313 369.235 48.1926 369.84 48.1847C372.378 48.1847 374.047 49.8217 374.047 52.2739V58.6165H372.429V52.5563C372.454 52.1671 372.397 51.7769 372.262 51.4115C372.127 51.046 371.917 50.7136 371.646 50.436C371.375 50.1583 371.05 49.9417 370.69 49.8004C370.331 49.6592 369.946 49.5964 369.561 49.6162C369.175 49.5955 368.789 49.6576 368.429 49.7984C368.069 49.9393 367.742 50.1557 367.471 50.4335C367.199 50.7112 366.989 51.044 366.854 51.4099C366.718 51.7758 366.661 52.1665 366.686 52.5563V58.6165H365.068L365.049 48.4093Z" fill="black"/>
<path d="M258.339 70.3835H259.958V71.5262C260.256 71.1148 260.644 70.7789 261.092 70.545C261.54 70.3111 262.036 70.1855 262.54 70.1781C263.105 70.1997 263.657 70.3508 264.155 70.6199C264.653 70.889 265.084 71.2692 265.415 71.7316C265.773 71.2543 266.234 70.8663 266.763 70.597C267.293 70.3278 267.875 70.1845 268.468 70.1781C270.689 70.1781 272.167 71.5262 272.167 73.5484V80.6099H270.549V73.7152C270.555 73.4232 270.5 73.1333 270.387 72.8645C270.274 72.5956 270.107 72.3539 269.895 72.1551C269.684 71.9564 269.433 71.805 269.16 71.711C268.886 71.617 268.596 71.5825 268.309 71.6096C268.021 71.5815 267.73 71.6153 267.456 71.7089C267.182 71.8024 266.931 71.9537 266.719 72.1525C266.507 72.3514 266.338 72.5935 266.225 72.8628C266.112 73.1322 266.057 73.4226 266.062 73.7152V80.6099H264.444V73.7152C264.45 73.4226 264.395 73.1322 264.281 72.8628C264.168 72.5935 264 72.3514 263.788 72.1525C263.576 71.9537 263.324 71.8024 263.05 71.7089C262.776 71.6153 262.486 71.5815 262.198 71.6096C261.91 71.5825 261.62 71.617 261.347 71.711C261.074 71.805 260.823 71.9564 260.612 72.1551C260.4 72.3539 260.233 72.5956 260.12 72.8645C260.007 73.1333 259.952 73.4232 259.958 73.7152V80.6099H258.339V70.3835Z" fill="black"/>
<path d="M274.109 75.4934C274.109 72.2837 276.089 70.1781 279.04 70.1781C279.746 70.1979 280.438 70.3819 281.062 70.7159C281.686 71.0499 282.225 71.5249 282.638 72.104V70.3899H284.257V80.6162H282.638V78.8958C282.226 79.4756 281.687 79.9511 281.062 80.2852C280.438 80.6193 279.746 80.8029 279.04 80.8217C276.089 80.8153 274.109 78.684 274.109 75.4934ZM282.638 75.4934C282.638 73.1631 281.268 71.6417 279.205 71.6417C277.143 71.6417 275.728 73.1952 275.728 75.4934C275.728 77.7916 277.124 79.3837 279.205 79.3837C281.287 79.3837 282.638 77.8237 282.638 75.4934Z" fill="black"/>
<path d="M285.996 75.4934C285.996 72.2837 288.02 70.1781 291.009 70.1781C291.728 70.187 292.436 70.3657 293.075 70.7001C293.714 71.0344 294.267 71.5152 294.69 72.104V66.5574H296.308V80.5906H294.69V78.8509C294.267 79.4396 293.714 79.9203 293.075 80.2547C292.436 80.589 291.728 80.7678 291.009 80.7767C288.02 80.8152 285.996 78.684 285.996 75.4934ZM294.69 75.4934C294.69 73.1631 293.274 71.6417 291.174 71.6417C289.073 71.6417 287.614 73.1952 287.614 75.4934C287.614 77.7916 289.048 79.3837 291.174 79.3837C293.3 79.3837 294.69 77.8237 294.69 75.4934Z" fill="black"/>
<path d="M298.25 75.4934C298.25 72.2837 300.293 70.1781 303.327 70.1781C306.36 70.1781 308.404 72.3864 308.404 75.6604L308.245 75.8208H299.887C299.97 77.9521 301.34 79.3837 303.327 79.3837C304.031 79.3993 304.722 79.1898 305.302 78.7853C305.882 78.3808 306.321 77.8018 306.557 77.1305H308.175C307.874 78.1949 307.237 79.1308 306.362 79.7959C305.487 80.461 304.421 80.8189 303.327 80.8153C300.293 80.8153 298.25 78.684 298.25 75.4934ZM306.677 74.3893C306.524 73.6047 306.106 72.8984 305.495 72.3913C304.884 71.8842 304.117 71.6079 303.327 71.6096C302.535 71.6076 301.768 71.8838 301.156 72.3908C300.543 72.8978 300.124 73.6042 299.97 74.3893H306.677Z" fill="black"/>
<path d="M313.849 77.1305H315.365C315.41 78.4786 316.558 79.3838 318.259 79.3838C319.96 79.3838 321.007 78.7418 321.007 77.7467C321.007 76.925 320.283 76.4628 318.158 75.9878C315.448 75.3458 314.496 74.6333 314.496 73.1247C314.496 71.3657 316.013 70.1781 318.259 70.1781C319.097 70.1445 319.925 70.373 320.63 70.8325C321.336 71.2919 321.884 71.9601 322.2 72.746L320.728 73.1183C320.527 72.6398 320.185 72.2355 319.749 71.9609C319.313 71.6863 318.804 71.5547 318.291 71.584C317.022 71.584 316.146 72.1361 316.146 72.9706C316.146 73.6704 316.78 74.0555 318.532 74.4856C321.584 75.1276 322.638 75.9365 322.638 77.6377C322.638 79.5186 320.899 80.7896 318.291 80.7896C315.683 80.7896 313.899 79.3388 313.849 77.1305Z" fill="black"/>
<path d="M324.148 66.5767H325.766V68.8299H324.148V66.5767ZM324.148 70.3835H325.766V80.6099H324.148V70.3835Z" fill="black"/>
<path d="M328.191 70.3835H329.809V71.5262C330.108 71.1147 330.498 70.7788 330.947 70.5449C331.396 70.311 331.893 70.1855 332.398 70.1781C332.961 70.1997 333.512 70.3508 334.009 70.62C334.506 70.8892 334.936 71.2693 335.266 71.7316C335.626 71.2542 336.088 70.8661 336.618 70.5969C337.148 70.3276 337.732 70.1845 338.325 70.1781C340.546 70.1781 342.025 71.5262 342.025 73.5484V80.6099H340.407V73.7152C340.412 73.4229 340.355 73.133 340.242 72.8641C340.129 72.5952 339.96 72.3536 339.748 72.1549C339.536 71.9562 339.285 71.805 339.012 71.7111C338.738 71.6171 338.448 71.5825 338.16 71.6096C337.873 71.5825 337.582 71.6171 337.309 71.7111C337.035 71.805 336.784 71.9562 336.572 72.1549C336.36 72.3536 336.192 72.5952 336.079 72.8641C335.965 73.133 335.909 73.4229 335.914 73.7152V80.6099H334.296V73.7152C334.301 73.4232 334.246 73.1333 334.133 72.8645C334.02 72.5956 333.853 72.3539 333.641 72.1551C333.43 71.9564 333.179 71.805 332.906 71.711C332.633 71.617 332.343 71.5825 332.055 71.6096C331.768 71.5825 331.478 71.6171 331.204 71.7111C330.93 71.805 330.679 71.9562 330.467 72.1549C330.255 72.3536 330.087 72.5952 329.974 72.8641C329.86 73.133 329.804 73.4229 329.809 73.7152V80.6099H328.191V70.3835Z" fill="black"/>
<path d="M344.449 70.3835H346.067V72.1232C346.492 71.5318 347.048 71.0495 347.691 70.715C348.333 70.3806 349.045 70.2032 349.767 70.1973C352.756 70.1973 354.762 72.3222 354.762 75.5127C354.762 78.7032 352.756 80.8346 349.767 80.8346C349.045 80.8286 348.333 80.6513 347.691 80.3168C347.048 79.9823 346.492 79.5 346.067 78.9087V84.4231H344.449V70.3835ZM353.143 75.5191C353.143 73.1888 351.728 71.6674 349.602 71.6674C347.476 71.6674 346.067 73.2209 346.067 75.5191C346.067 77.8173 347.483 79.4094 349.602 79.4094C351.722 79.4094 353.143 77.8237 353.143 75.4934V75.5191Z" fill="black"/>
<path d="M356.5 66.5767H358.112V80.6099H356.5V66.5767Z" fill="black"/>
<path d="M360.054 75.4934C360.054 72.2837 362.098 70.1781 365.131 70.1781C368.165 70.1781 370.208 72.3864 370.208 75.6604L370.043 75.8208H361.692C361.774 77.9521 363.151 79.3837 365.131 79.3837C365.836 79.4006 366.529 79.1919 367.11 78.7873C367.691 78.3827 368.131 77.8029 368.368 77.1305H369.986C369.684 78.196 369.047 79.1326 368.17 79.7978C367.294 80.463 366.227 80.8203 365.131 80.8153C362.079 80.8153 360.054 78.684 360.054 75.4934ZM368.488 74.3893C368.334 73.6042 367.915 72.8978 367.302 72.3908C366.69 71.8838 365.922 71.6076 365.131 71.6096C364.34 71.6076 363.572 71.8838 362.96 72.3908C362.348 72.8978 361.929 73.6042 361.774 74.3893H368.488Z" fill="black"/>
<path d="M80.1413 0.577148H0.269531V23.6619H80.1413V0.577148Z" stroke="black" stroke-width="0.25" stroke-miterlimit="10"/>
<path d="M57.3145 29.4267H11.6734V52.5114H57.3145V29.4267Z" stroke="black" stroke-width="0.25" stroke-miterlimit="10"/>
<path d="M34.5003 58.2826H0.269531V81.3674H34.5003V58.2826Z" stroke="black" stroke-width="0.25" stroke-miterlimit="10"/>
<path d="M102.46 81.2133V29.4652H134.616V38.3306H112.107V81.2133H102.46Z" stroke="black" stroke-width="0.25" stroke-miterlimit="10"/>
<path d="M137.427 81.2133V44.1724H159.201V53.0442H147.073V81.2133H137.427Z" stroke="black" stroke-width="0.25" stroke-miterlimit="10"/>
<path d="M160.819 63.2898V62.4039C160.819 50.8487 168.123 43.4791 178.943 43.4791C189.611 43.4791 196.554 51.1825 196.554 62.4039V65.6137H170.173C170.389 70.6402 174.266 74.1132 179.381 74.1132C184.496 74.1132 186.616 71.4556 187.86 68.6438L195.386 72.6368C193.343 76.5527 189.04 82.2661 179.089 82.2661C168.2 82.2147 160.819 74.8258 160.819 63.2898ZM187.2 58.6357C186.762 54.418 183.621 51.6127 178.867 51.6127C173.898 51.6127 170.903 54.418 170.243 58.6357H187.2Z" stroke="black" stroke-width="0.25" stroke-miterlimit="10"/>
<path d="M200.533 63.4376V62.2563C200.533 50.2774 208.148 43.4791 216.906 43.4791C223.48 43.4791 227.942 46.1368 229.477 48.7239V29.4331H238.685V81.2133H229.623V76.7196C227.942 79.5314 223.48 82.1891 216.931 82.1891C208.212 82.2148 200.533 75.4357 200.533 63.4376ZM229.623 62.4746C229.623 55.4131 225.384 51.6127 219.685 51.6127C213.987 51.6127 209.741 55.381 209.741 62.4746V63.2385C209.741 70.3 214.056 74.1004 219.685 74.1004C225.314 74.1004 229.623 70.3 229.623 63.2385V62.4746Z" stroke="black" stroke-width="0.25" stroke-miterlimit="10"/>
<path d="M131.081 48.236H118.541V57.7819H131.081V48.236Z" stroke="black" stroke-width="0.25" stroke-miterlimit="10"/>
<path d="M257.851 51.6191C257.851 47.3052 260.56 44.3971 264.628 44.3971C266.163 44.395 267.651 44.9293 268.841 45.9096C270.031 46.8899 270.85 48.256 271.158 49.7767H269.375C269.104 48.7098 268.492 47.7637 267.633 47.0865C266.774 46.4093 265.717 46.0392 264.628 46.0341C261.652 46.0341 259.672 48.2809 259.672 51.6191C259.672 54.9573 261.652 57.2041 264.628 57.2041C265.776 57.2013 266.887 56.793 267.768 56.0499C268.65 55.3068 269.248 54.2755 269.458 53.1341H271.216C270.968 54.7219 270.168 56.1681 268.961 57.213C267.754 58.2579 266.217 58.833 264.628 58.8347C260.541 58.8347 257.851 55.9331 257.851 51.6191Z" stroke="black" stroke-width="0.25" stroke-miterlimit="10"/>
<path d="M272.675 53.5193C272.675 50.3095 274.712 48.2039 277.752 48.2039C280.792 48.2039 282.829 50.3288 282.829 53.5193C282.829 56.7098 280.785 58.8347 277.752 58.8347C274.719 58.8347 272.675 56.7098 272.675 53.5193ZM281.204 53.5193C281.204 51.189 279.808 49.6675 277.746 49.6675C275.683 49.6675 274.287 51.2211 274.287 53.5193C274.287 55.8175 275.683 57.4031 277.746 57.4031C279.808 57.4031 281.204 55.8496 281.204 53.5193Z" stroke="black" stroke-width="0.25" stroke-miterlimit="10"/>
<path d="M284.561 48.4093H286.18V49.6932C286.571 49.2268 287.057 48.8507 287.604 48.5904C288.152 48.3302 288.748 48.1918 289.353 48.1847C291.891 48.1847 293.56 49.8217 293.56 52.2739V58.6165H291.942V52.5563C291.967 52.1665 291.909 51.7758 291.774 51.4099C291.639 51.044 291.428 50.7112 291.157 50.4335C290.885 50.1557 290.559 49.9393 290.198 49.7984C289.838 49.6576 289.453 49.5955 289.067 49.6162C288.682 49.5954 288.296 49.6574 287.936 49.7983C287.576 49.9392 287.25 50.1558 286.979 50.4337C286.708 50.7116 286.498 51.0445 286.364 51.4104C286.229 51.7763 286.173 52.1668 286.199 52.5563V58.6165H284.58L284.561 48.4093Z" stroke="black" stroke-width="0.25" stroke-miterlimit="10"/>
<path d="M295.273 55.1563H296.79C296.835 56.5044 297.983 57.4032 299.684 57.4032C301.385 57.4032 302.432 56.7612 302.432 55.7662C302.432 54.9509 301.708 54.4823 299.582 54.0136C296.873 53.3717 295.921 52.6591 295.921 51.1441C295.921 49.3916 297.438 48.2039 299.684 48.2039C300.522 48.1703 301.35 48.3988 302.055 48.8582C302.761 49.3177 303.309 49.9859 303.625 50.7717L302.153 51.1441C301.95 50.6602 301.604 50.2522 301.161 49.9771C300.719 49.7021 300.202 49.5737 299.684 49.6098C298.415 49.6098 297.539 50.1619 297.539 50.9965C297.539 51.6962 298.174 52.0814 299.925 52.5115C302.978 53.1534 304.031 53.9622 304.031 55.6634C304.031 57.5444 302.292 58.809 299.684 58.809C297.076 58.809 295.318 57.3647 295.273 55.1563Z" stroke="black" stroke-width="0.25" stroke-miterlimit="10"/>
<path d="M306.582 56.0165V49.8409H304.964V48.4093H306.582V44.6218H308.194V48.4286H311.151V49.8602H308.194V56.0358C308.18 56.2128 308.202 56.3909 308.26 56.5587C308.317 56.7265 308.409 56.8805 308.528 57.0108C308.647 57.1411 308.792 57.245 308.953 57.3159C309.114 57.3867 309.288 57.4229 309.463 57.4223H311.221V58.6549C310.678 58.7805 310.122 58.8472 309.565 58.854C307.794 58.8347 306.582 57.7113 306.582 56.0165Z" stroke="black" stroke-width="0.25" stroke-miterlimit="10"/>
<path d="M313.068 48.4093H314.686V49.8152C315.025 49.3508 315.459 48.9663 315.958 48.6881C316.458 48.4099 317.011 48.2446 317.58 48.2038C317.868 48.1992 318.152 48.27 318.405 48.4093V49.6355H317.72C317.318 49.6076 316.915 49.6663 316.537 49.8078C316.16 49.9493 315.816 50.1703 315.53 50.4561C315.243 50.742 315.019 51.0861 314.874 51.4659C314.729 51.8457 314.665 52.2524 314.686 52.6591V58.6356H313.068V48.4093Z" stroke="black" stroke-width="0.25" stroke-miterlimit="10"/>
<path d="M328.597 58.6357H326.979V57.3517C326.587 57.8182 326.101 58.1943 325.554 58.4546C325.007 58.7148 324.41 58.8533 323.806 58.8604C321.267 58.8604 319.598 57.2298 319.598 54.7711V48.435H321.216V54.4886C321.192 54.8785 321.249 55.2692 321.384 55.6351C321.519 56.001 321.73 56.3338 322.001 56.6115C322.273 56.8893 322.599 57.1057 322.96 57.2466C323.32 57.3874 323.705 57.4495 324.091 57.4288C324.476 57.4496 324.862 57.3876 325.222 57.2467C325.582 57.1057 325.908 56.8892 326.179 56.6114C326.45 56.3335 326.66 56.0006 326.794 55.6347C326.929 55.2688 326.985 54.8782 326.96 54.4886V48.435H328.578L328.597 58.6357Z" stroke="black" stroke-width="0.25" stroke-miterlimit="10"/>
<path d="M330.539 53.5193C330.539 50.3095 332.582 48.2039 335.616 48.2039C336.812 48.1668 337.98 48.5812 338.891 49.3667C339.803 50.1522 340.393 51.2525 340.546 52.4536H339.011C338.879 51.6473 338.462 50.917 337.837 50.3985C337.213 49.8801 336.423 49.609 335.616 49.6355C333.553 49.6355 332.157 51.1891 332.157 53.4873C332.157 55.7855 333.553 57.371 335.616 57.371C336.438 57.3878 337.239 57.1004 337.868 56.5627C338.496 56.025 338.909 55.2739 339.03 54.4502H340.565C340.424 55.6686 339.838 56.7898 338.923 57.5946C338.007 58.3995 336.828 58.8302 335.616 58.8026C332.582 58.8347 330.539 56.7098 330.539 53.5193Z" stroke="black" stroke-width="0.25" stroke-miterlimit="10"/>
<path d="M342.71 56.0165V49.8409H341.092V48.4093H342.71V44.6218H344.31V48.4286H347.261V49.8602H344.31V56.0358C344.296 56.2128 344.318 56.3909 344.376 56.5587C344.433 56.7265 344.524 56.8805 344.644 57.0108C344.763 57.1411 344.908 57.245 345.069 57.3159C345.23 57.3867 345.403 57.4229 345.579 57.4223H347.337V58.6549C346.791 58.7801 346.234 58.8469 345.674 58.854C343.923 58.8347 342.71 57.7113 342.71 56.0165Z" stroke="black" stroke-width="0.25" stroke-miterlimit="10"/>
<path d="M349.602 44.6218H351.221V46.8686H349.602V44.6218ZM349.602 48.4286H351.221V58.6549H349.602V48.4286Z" stroke="black" stroke-width="0.25" stroke-miterlimit="10"/>
<path d="M353.194 53.5193C353.194 50.3095 355.238 48.2039 358.271 48.2039C361.304 48.2039 363.348 50.3288 363.348 53.5193C363.348 56.7098 361.304 58.8347 358.271 58.8347C355.238 58.8347 353.194 56.7098 353.194 53.5193ZM361.723 53.5193C361.723 51.189 360.334 49.6675 358.271 49.6675C356.209 49.6675 354.812 51.2211 354.812 53.5193C354.812 55.8175 356.209 57.4031 358.271 57.4031C360.334 57.4031 361.692 55.8496 361.692 53.5193H361.723Z" stroke="black" stroke-width="0.25" stroke-miterlimit="10"/>
<path d="M365.049 48.4093H366.667V49.6932C367.059 49.2274 367.545 48.8517 368.092 48.5915C368.639 48.3313 369.235 48.1926 369.84 48.1847C372.378 48.1847 374.047 49.8217 374.047 52.2739V58.6165H372.429V52.5563C372.454 52.1671 372.397 51.7769 372.262 51.4115C372.127 51.046 371.917 50.7136 371.646 50.436C371.375 50.1583 371.05 49.9417 370.69 49.8004C370.331 49.6592 369.946 49.5964 369.561 49.6162C369.175 49.5955 368.789 49.6576 368.429 49.7984C368.069 49.9393 367.742 50.1557 367.471 50.4335C367.199 50.7112 366.989 51.044 366.854 51.4099C366.718 51.7758 366.661 52.1665 366.686 52.5563V58.6165H365.068L365.049 48.4093Z" stroke="black" stroke-width="0.25" stroke-miterlimit="10"/>
<path d="M258.339 70.3835H259.958V71.5262C260.256 71.1148 260.644 70.7789 261.092 70.545C261.54 70.3111 262.036 70.1855 262.54 70.1781C263.105 70.1997 263.657 70.3508 264.155 70.6199C264.653 70.889 265.084 71.2692 265.415 71.7316C265.773 71.2543 266.234 70.8663 266.763 70.597C267.293 70.3278 267.875 70.1845 268.468 70.1781C270.689 70.1781 272.167 71.5262 272.167 73.5484V80.6099H270.549V73.7152C270.555 73.4232 270.5 73.1333 270.387 72.8645C270.274 72.5956 270.107 72.3539 269.895 72.1551C269.684 71.9564 269.433 71.805 269.16 71.711C268.886 71.617 268.596 71.5825 268.309 71.6096C268.021 71.5815 267.73 71.6153 267.456 71.7089C267.182 71.8024 266.931 71.9537 266.719 72.1525C266.507 72.3514 266.338 72.5935 266.225 72.8628C266.112 73.1322 266.057 73.4226 266.062 73.7152V80.6099H264.444V73.7152C264.45 73.4226 264.395 73.1322 264.281 72.8628C264.168 72.5935 264 72.3514 263.788 72.1525C263.576 71.9537 263.324 71.8024 263.05 71.7089C262.776 71.6153 262.486 71.5815 262.198 71.6096C261.91 71.5825 261.62 71.617 261.347 71.711C261.074 71.805 260.823 71.9564 260.612 72.1551C260.4 72.3539 260.233 72.5956 260.12 72.8645C260.007 73.1333 259.952 73.4232 259.958 73.7152V80.6099H258.339V70.3835Z" stroke="black" stroke-width="0.25" stroke-miterlimit="10"/>
<path d="M274.109 75.4934C274.109 72.2837 276.089 70.1781 279.04 70.1781C279.746 70.1979 280.438 70.3819 281.062 70.7159C281.686 71.0499 282.225 71.5249 282.638 72.104V70.3899H284.257V80.6162H282.638V78.8958C282.226 79.4756 281.687 79.9511 281.062 80.2852C280.438 80.6193 279.746 80.8029 279.04 80.8217C276.089 80.8153 274.109 78.684 274.109 75.4934ZM282.638 75.4934C282.638 73.1631 281.268 71.6417 279.205 71.6417C277.143 71.6417 275.728 73.1952 275.728 75.4934C275.728 77.7916 277.124 79.3837 279.205 79.3837C281.287 79.3837 282.638 77.8237 282.638 75.4934Z" stroke="black" stroke-width="0.25" stroke-miterlimit="10"/>
<path d="M285.996 75.4934C285.996 72.2837 288.02 70.1781 291.009 70.1781C291.728 70.187 292.436 70.3657 293.075 70.7001C293.714 71.0344 294.267 71.5152 294.69 72.104V66.5574H296.308V80.5906H294.69V78.8509C294.267 79.4396 293.714 79.9203 293.075 80.2547C292.436 80.589 291.728 80.7678 291.009 80.7767C288.02 80.8152 285.996 78.684 285.996 75.4934ZM294.69 75.4934C294.69 73.1631 293.274 71.6417 291.174 71.6417C289.073 71.6417 287.614 73.1952 287.614 75.4934C287.614 77.7916 289.048 79.3837 291.174 79.3837C293.3 79.3837 294.69 77.8237 294.69 75.4934Z" stroke="black" stroke-width="0.25" stroke-miterlimit="10"/>
<path d="M298.25 75.4934C298.25 72.2837 300.293 70.1781 303.327 70.1781C306.36 70.1781 308.404 72.3864 308.404 75.6604L308.245 75.8208H299.887C299.97 77.9521 301.34 79.3837 303.327 79.3837C304.031 79.3993 304.722 79.1898 305.302 78.7853C305.882 78.3808 306.321 77.8018 306.557 77.1305H308.175C307.874 78.1949 307.237 79.1308 306.362 79.7959C305.487 80.461 304.421 80.8189 303.327 80.8153C300.293 80.8153 298.25 78.684 298.25 75.4934ZM306.677 74.3893C306.524 73.6047 306.106 72.8984 305.495 72.3913C304.884 71.8842 304.117 71.6079 303.327 71.6096C302.535 71.6076 301.768 71.8838 301.156 72.3908C300.543 72.8978 300.124 73.6042 299.97 74.3893H306.677Z" stroke="black" stroke-width="0.25" stroke-miterlimit="10"/>
<path d="M313.849 77.1305H315.365C315.41 78.4786 316.558 79.3838 318.259 79.3838C319.96 79.3838 321.007 78.7418 321.007 77.7467C321.007 76.925 320.283 76.4628 318.158 75.9878C315.448 75.3458 314.496 74.6333 314.496 73.1247C314.496 71.3657 316.013 70.1781 318.259 70.1781C319.097 70.1445 319.925 70.373 320.63 70.8325C321.336 71.2919 321.884 71.9601 322.2 72.746L320.728 73.1183C320.527 72.6398 320.185 72.2355 319.749 71.9609C319.313 71.6863 318.804 71.5547 318.291 71.584C317.022 71.584 316.146 72.1361 316.146 72.9706C316.146 73.6704 316.78 74.0555 318.532 74.4856C321.584 75.1276 322.638 75.9365 322.638 77.6377C322.638 79.5186 320.899 80.7896 318.291 80.7896C315.683 80.7896 313.899 79.3388 313.849 77.1305Z" stroke="black" stroke-width="0.25" stroke-miterlimit="10"/>
<path d="M324.148 66.5767H325.766V68.8299H324.148V66.5767ZM324.148 70.3835H325.766V80.6099H324.148V70.3835Z" stroke="black" stroke-width="0.25" stroke-miterlimit="10"/>
<path d="M328.191 70.3835H329.809V71.5262C330.108 71.1147 330.498 70.7788 330.947 70.5449C331.396 70.311 331.893 70.1855 332.398 70.1781C332.961 70.1997 333.512 70.3508 334.009 70.62C334.506 70.8892 334.936 71.2693 335.266 71.7316C335.626 71.2542 336.088 70.8661 336.618 70.5969C337.148 70.3276 337.732 70.1845 338.325 70.1781C340.546 70.1781 342.025 71.5262 342.025 73.5484V80.6099H340.407V73.7152C340.412 73.4229 340.355 73.133 340.242 72.8641C340.129 72.5952 339.96 72.3536 339.748 72.1549C339.536 71.9562 339.285 71.805 339.012 71.7111C338.738 71.6171 338.448 71.5825 338.16 71.6096C337.873 71.5825 337.582 71.6171 337.309 71.7111C337.035 71.805 336.784 71.9562 336.572 72.1549C336.36 72.3536 336.192 72.5952 336.079 72.8641C335.965 73.133 335.909 73.4229 335.914 73.7152V80.6099H334.296V73.7152C334.301 73.4232 334.246 73.1333 334.133 72.8645C334.02 72.5956 333.853 72.3539 333.641 72.1551C333.43 71.9564 333.179 71.805 332.906 71.711C332.633 71.617 332.343 71.5825 332.055 71.6096C331.768 71.5825 331.478 71.6171 331.204 71.7111C330.93 71.805 330.679 71.9562 330.467 72.1549C330.255 72.3536 330.087 72.5952 329.974 72.8641C329.86 73.133 329.804 73.4229 329.809 73.7152V80.6099H328.191V70.3835Z" stroke="black" stroke-width="0.25" stroke-miterlimit="10"/>
<path d="M344.449 70.3835H346.067V72.1232C346.492 71.5318 347.048 71.0495 347.691 70.715C348.333 70.3806 349.045 70.2032 349.767 70.1973C352.756 70.1973 354.762 72.3222 354.762 75.5127C354.762 78.7032 352.756 80.8346 349.767 80.8346C349.045 80.8286 348.333 80.6513 347.691 80.3168C347.048 79.9823 346.492 79.5 346.067 78.9087V84.4231H344.449V70.3835ZM353.143 75.5191C353.143 73.1888 351.728 71.6674 349.602 71.6674C347.476 71.6674 346.067 73.2209 346.067 75.5191C346.067 77.8173 347.483 79.4094 349.602 79.4094C351.722 79.4094 353.143 77.8237 353.143 75.4934V75.5191Z" stroke="black" stroke-width="0.25" stroke-miterlimit="10"/>
<path d="M356.5 66.5767H358.112V80.6099H356.5V66.5767Z" stroke="black" stroke-width="0.25" stroke-miterlimit="10"/>
<path d="M360.054 75.4934C360.054 72.2837 362.098 70.1781 365.131 70.1781C368.165 70.1781 370.208 72.3864 370.208 75.6604L370.043 75.8208H361.692C361.774 77.9521 363.151 79.3837 365.131 79.3837C365.836 79.4006 366.529 79.1919 367.11 78.7873C367.691 78.3827 368.131 77.8029 368.368 77.1305H369.986C369.684 78.196 369.047 79.1326 368.17 79.7978C367.294 80.463 366.227 80.8203 365.131 80.8153C362.079 80.8153 360.054 78.684 360.054 75.4934ZM368.488 74.3893C368.334 73.6042 367.915 72.8978 367.302 72.3908C366.69 71.8838 365.922 71.6076 365.131 71.6096C364.34 71.6076 363.572 71.8838 362.96 72.3908C362.348 72.8978 361.929 73.6042 361.774 74.3893H368.488Z" stroke="black" stroke-width="0.25" stroke-miterlimit="10"/>
</svg>
