<svg width="66" height="65" viewBox="0 0 66 65" fill="none" xmlns="http://www.w3.org/2000/svg">
<path d="M65.5 32.5C65.5 50.4493 50.9493 65 33 65C15.0507 65 0.5 50.4493 0.5 32.5C0.5 14.5507 15.0507 0 33 0C50.9493 0 65.5 14.5507 65.5 32.5Z" fill="#06FFF2"/>
<path d="M46.7208 50H18.2919C18.2517 49.9703 18.207 49.9475 18.1594 49.9323C15.0199 49.4948 12.4667 46.5667 12.5011 43.201C12.5491 38.399 12.5158 33.5969 12.5116 28.7948C12.5116 26.8229 13.2419 25.1719 14.6922 23.8521C19.0981 19.8396 23.5126 15.8372 27.9358 11.8448C28.5238 11.3358 29.1776 10.908 29.8797 10.5729C30.4493 10.2906 31.1067 10.1844 31.7254 10H33.2905C33.3345 10.0268 33.3819 10.0478 33.4313 10.0625C34.8816 10.2656 36.1034 10.9281 37.177 11.9052C41.5592 15.8934 45.948 19.8785 50.3434 23.8604C51.2223 24.6424 51.8672 25.6518 52.2069 26.7771C52.3186 27.1448 52.4052 27.5198 52.5032 27.8917V43.9062C52.4761 44.0031 52.4396 44.0979 52.4219 44.1958C51.9461 46.7375 50.6262 48.6198 48.1743 49.5969C47.7079 49.7812 47.205 49.8677 46.7208 50ZM32.4265 46.1615H36.9548C39.7921 46.1615 42.6291 46.1615 45.4656 46.1615C47.1653 46.1615 48.2828 45.0417 48.2828 43.3542C48.2828 38.5896 48.2828 33.825 48.2828 29.0604C48.288 28.6036 48.1946 28.151 48.009 27.7335C47.8234 27.3159 47.5499 26.9432 47.207 26.6406C42.8916 22.701 38.547 18.7948 34.2431 14.8417C33.1183 13.8083 31.5303 14.0375 30.5912 14.8417C29.9788 15.3625 29.3945 15.924 28.7966 16.4656C24.9299 19.9698 21.0655 23.4767 17.2037 26.9865C16.9531 27.2294 16.7691 27.5325 16.6694 27.8667C16.5591 28.2675 16.5078 28.6823 16.5171 29.0979C16.5067 33.8236 16.5067 38.549 16.5171 43.274C16.5139 43.5856 16.5522 43.8963 16.6308 44.1979C16.9731 45.426 17.9977 46.1573 19.3509 46.1583C23.7109 46.1618 28.0708 46.1628 32.4307 46.1615H32.4265Z" fill="black"/>
</svg>
