<svg width="68" height="65" viewBox="0 0 68 65" fill="none" xmlns="http://www.w3.org/2000/svg">
<path d="M65.9961 32.5C65.9961 50.4493 51.4453 65 33.4961 65C15.5468 65 0.996094 50.4493 0.996094 32.5C0.996094 14.5507 15.5468 0 33.4961 0C51.4453 0 65.9961 14.5507 65.9961 32.5Z" fill="#06FFF2"/>
<path d="M41.2523 34.882C46.4864 29.7098 51.5397 24.7192 56.6387 19.6836C56.5295 19.563 56.3911 19.399 56.2397 19.2495C55.3711 18.3813 54.495 17.5157 53.6112 16.6529C53.1666 16.214 52.9093 15.7252 53.152 15.0869C53.3946 14.4486 53.8441 14.2123 54.4971 14.148C58.1483 13.783 61.7962 13.3971 65.4441 13.0225C66.304 12.9325 67.0547 13.5354 67.001 14.3859C66.9082 15.8426 66.742 17.296 66.5922 18.7495C66.3707 20.9007 66.1232 23.0487 65.9147 25.1999C65.8512 25.8671 65.6672 26.4411 64.9881 26.6855C64.309 26.9299 63.7732 26.7257 63.2847 26.2225C62.459 25.3703 61.6008 24.5504 60.7132 23.6741C60.4836 23.8912 60.2931 24.0616 60.1107 24.2417L43.7668 40.3566C42.1904 41.9129 40.6384 41.9081 39.0554 40.3453C36.1958 37.5231 33.3377 34.6993 30.4812 31.8739C30.3079 31.6748 30.148 31.4648 30.0025 31.2452C29.6996 31.5121 29.5025 31.6697 29.3234 31.8465C24.1935 36.9111 19.0658 41.9767 13.9403 47.0434C13.0788 47.9051 12.0675 48.2267 10.8917 47.836C10.4616 47.6926 10.0735 47.4477 9.76098 47.1226C9.44849 46.7975 9.22108 46.402 9.09849 45.9705C8.9759 45.5389 8.96182 45.0844 9.0575 44.6463C9.15317 44.2082 9.3557 43.7997 9.6475 43.4564C9.81035 43.2715 9.97321 43.1043 10.1523 42.9338C15.9542 37.2026 21.761 31.4714 27.5727 25.7401C29.1084 24.224 30.6799 24.2304 32.2303 25.7594C35.0921 28.5806 37.9513 31.4038 40.8077 34.2293C40.9764 34.4326 41.1252 34.6511 41.2523 34.882Z" fill="black"/>
</svg>
