<svg width="31" height="31" viewBox="0 0 31 31" fill="none" xmlns="http://www.w3.org/2000/svg">
<path d="M29.9974 8.45227C29.9898 5.5237 28.7939 3.18721 26.4097 1.48864C25.0087 0.486557 23.404 0.0218177 21.6795 0.0205444C17.2218 0.014178 12.7731 -0.029117 8.3218 0.0332742C4.75568 0.0829325 2.1868 1.81588 0.692847 5.04622C0.360433 5.76563 0.263639 6.5958 0.0560394 7.37633C0.0292935 7.47819 0.0178306 7.58516 0 7.68957V22.3324C0.0802377 22.7819 0.127361 23.2403 0.245807 23.6783C1.17682 27.0359 3.35725 29.091 6.75525 29.855C7.05837 29.9225 7.36786 29.9556 7.6748 30.004H22.3214C22.771 29.9238 23.2307 29.8767 23.6689 29.7582C27.021 28.8262 29.0868 26.6552 29.837 23.2645C29.9475 22.7095 29.9983 22.1444 29.9885 21.5786C30.0047 17.2002 30.0076 12.8247 29.9974 8.45227ZM27.3369 21.613C27.328 24.1749 25.8862 26.2287 23.5071 27.0296C22.8761 27.2318 22.2173 27.3337 21.5547 27.3314C17.1823 27.3568 12.8087 27.3504 8.43642 27.3428C5.86118 27.3428 3.79028 25.9053 2.98408 23.5229C2.78134 22.8926 2.67822 22.2344 2.67842 21.5723C2.65294 17.2011 2.66058 12.8298 2.66695 8.45737C2.66695 5.88023 4.10613 3.8366 6.48779 2.98222C7.13648 2.76571 7.81767 2.66275 8.50138 2.6779C10.6793 2.6779 12.8563 2.6779 15.0325 2.6779C17.2087 2.6779 19.3759 2.6779 21.5343 2.6779C22.7773 2.6779 23.9325 2.97075 24.9488 3.70544C26.5485 4.86159 27.342 6.44556 27.3458 8.41661C27.3509 12.812 27.3479 17.2108 27.3369 21.613Z" fill="white"/>
<path d="M15.0134 7.28212C10.7824 7.26938 7.31436 10.72 7.27234 14.9766C7.23158 19.2001 10.7111 22.7042 14.9777 22.736C19.2074 22.7679 22.7098 19.2854 22.7327 15.0276C22.7557 10.79 19.2672 7.29612 15.0134 7.28212ZM14.9994 20.0698C13.9981 20.069 13.0195 19.7715 12.1874 19.2147C11.3552 18.6579 10.707 17.8669 10.3245 16.9418C9.94199 16.0167 9.8425 14.9989 10.0386 14.0173C10.2347 13.0356 10.7175 12.1342 11.4261 11.4269C12.1346 10.7195 13.0371 10.2382 14.0193 10.0436C15.0015 9.84908 16.0193 9.95007 16.9441 10.3338C17.8689 10.7176 18.6591 11.367 19.2147 12.1997C19.7704 13.0325 20.0666 14.0112 20.0658 15.0123C20.0634 16.3542 19.5286 17.6404 18.5788 18.5886C17.629 19.5367 16.3416 20.0694 14.9994 20.0698Z" fill="white"/>
<path d="M23.0422 5.03731C22.6589 5.04183 22.2854 5.15962 21.9688 5.37585C21.6522 5.59208 21.4067 5.89711 21.2631 6.25253C21.1195 6.60795 21.0843 6.99789 21.1618 7.37328C21.2394 7.74867 21.4263 8.09274 21.699 8.36219C21.9717 8.63164 22.318 8.81443 22.6944 8.88756C23.0707 8.9607 23.4603 8.92091 23.8141 8.7732C24.1679 8.62548 24.4701 8.37644 24.6827 8.05742C24.8952 7.73841 25.0087 7.36366 25.0087 6.98035C25.005 6.46219 24.7959 5.96665 24.4273 5.60241C24.0586 5.23816 23.5605 5.03493 23.0422 5.03731Z" fill="white"/>
</svg>
