<svg width="68" height="66" viewBox="0 0 68 66" fill="none" xmlns="http://www.w3.org/2000/svg">
<path d="M65 32.5017C65 50.4509 50.4493 65.0017 32.5 65.0017C14.5507 65.0017 0 50.4509 0 32.5017C0 14.5524 14.5507 0.00166633 32.5 0.00166633C50.4493 0.00166633 65 14.5524 65 32.5017Z" fill="#06FFF2"/>
<path d="M68 30.8684C67.8346 31.0109 67.6603 31.1428 67.5055 31.2958C62.2336 36.5056 56.9652 41.719 51.7004 46.9358C51.5481 47.1026 51.3607 47.2343 51.1515 47.3219C50.9422 47.4094 50.7161 47.4505 50.4891 47.4424C42.7697 47.4266 35.0503 47.4424 27.3309 47.4195C27.0926 47.4082 26.8547 47.4497 26.6346 47.541C26.4146 47.6323 26.218 47.7711 26.0592 47.9472C25.1236 48.9128 24.1453 49.8362 23.1671 50.7931L25.104 52.5748L16.5896 60.9946L8.68487e-07 44.5912C2.72728 41.8861 5.53935 39.1035 8.4362 36.2436C9.00181 36.8609 9.60833 37.5223 10.2273 38.2012C10.4354 38.0253 10.5563 37.9233 10.6631 37.816C13.8006 34.7151 16.9631 31.637 20.0597 28.4939C21.1625 27.3788 22.1941 26.2179 23.5673 25.4018C25.8669 24.0177 28.5715 23.4414 31.2435 23.766C33.9155 24.0906 36.3986 25.2972 38.291 27.1906C38.4224 27.3335 38.5841 27.4458 38.7647 27.5194C38.9452 27.593 39.1401 27.6261 39.3351 27.6162C41.176 27.5986 43.0187 27.6567 44.8489 27.5969C47.4938 27.5107 49.6158 28.3743 51.1187 30.8385C51.5438 30.3601 51.8995 29.9133 52.3051 29.5141C56.4405 25.4528 62.5644 25.4475 66.7122 29.4912C67.1373 29.9063 67.5678 30.3179 67.9947 30.7312L68 30.8684ZM20.3425 47.9753C20.4653 47.861 20.6289 47.7168 20.7837 47.5638C22.0287 46.3325 23.2738 45.1259 24.4939 43.8824C24.64 43.7227 24.8201 43.597 25.0213 43.5146C25.2225 43.4322 25.4397 43.395 25.6572 43.4058C33.3997 43.4198 41.1315 43.4058 48.8829 43.4251C49.0886 43.4367 49.2943 43.404 49.486 43.3293C49.6776 43.2546 49.8505 43.1397 49.9928 42.9924C53.8561 39.1487 57.7276 35.3149 61.6075 31.491C61.7444 31.3556 61.8689 31.2096 62.0059 31.0619C60.0156 29.9485 57.1822 30.404 55.3555 32.1489C53.9681 33.4751 52.6199 34.8417 51.2646 36.1943C51.1539 36.3005 51.0555 36.4185 50.9711 36.5461C49.6655 38.6568 47.7232 39.5468 45.2794 39.5362C41.7078 39.5239 38.1363 39.5362 34.5647 39.5362H33.8533V35.5171H34.6963C38.3355 35.5171 41.9729 35.5171 45.6102 35.5171C46.882 35.5171 47.7624 34.708 47.7748 33.5824C47.7873 32.4567 46.8855 31.6353 45.5746 31.6335C42.9351 31.6335 40.2938 31.6106 37.6542 31.6476C37.3859 31.6674 37.117 31.6151 36.8763 31.4962C36.6355 31.3773 36.4317 31.1963 36.2865 30.9722C33.4406 27.2205 28.5137 26.5591 24.8479 29.4402C24.1364 29.996 23.5601 30.7048 22.918 31.3398C19.8445 34.3815 16.7704 37.4226 13.6957 40.4631C13.5303 40.6267 13.3755 40.8008 13.2439 40.9398L20.3425 47.9753ZM5.67393 44.5772L16.6589 55.4418L19.2629 52.8791L8.27434 42.0127C7.42236 42.8535 6.51524 43.747 5.67571 44.5772H5.67393Z" fill="black"/>
<path d="M59.8786 19.7311V11.9392H55.9158V15.7806H51.9245V11.9269C51.6577 11.9111 51.4478 11.8882 51.2361 11.8882C47.6201 11.8882 44.0058 11.8988 40.3863 11.8724C39.8687 11.8724 39.6748 12.0219 39.5361 12.5109C38.291 16.894 34.1592 19.9334 29.6983 19.7733C27.4303 19.7094 25.2503 18.8908 23.511 17.4501C21.7716 16.0093 20.5744 14.0305 20.1131 11.8337C18.9196 6.16127 23.0568 0.613732 28.9015 0.0491293C33.8035 -0.422253 38.2128 2.53796 39.5343 7.22891C39.6837 7.75658 39.9238 7.8797 40.4432 7.87794C47.9634 7.86152 55.4836 7.85742 63.0037 7.86563H63.8326V19.7293L59.8786 19.7311ZM29.8975 15.7578C31.0737 15.755 32.2226 15.4076 33.1993 14.7596C34.176 14.1115 34.9366 13.1918 35.3851 12.1166C35.8335 11.0414 35.9498 9.85885 35.7191 8.71835C35.4884 7.57785 34.9212 6.5305 34.089 5.70856C33.2569 4.88662 32.1971 4.32695 31.0435 4.10021C29.8899 3.87347 28.6942 3.98983 27.6074 4.43461C26.5207 4.87938 25.5915 5.63262 24.9373 6.59921C24.2832 7.5658 23.9333 8.70239 23.9319 9.86548C23.9389 11.4273 24.5699 12.923 25.6874 14.0268C26.8048 15.1305 28.3181 15.7527 29.8975 15.7578Z" fill="black"/>
</svg>
