<svg width="123" height="59" viewBox="0 0 123 59" fill="none" xmlns="http://www.w3.org/2000/svg">
<path d="M41.0559 34.2978V45.4177H36.252C36.252 45.2428 36.252 45.0803 36.252 44.9179C36.252 41.5569 36.252 38.1961 36.252 34.8351C36.252 34.4103 36.35 34.2479 36.8034 34.2604C38.0289 34.2604 39.3279 34.2604 40.5902 34.2604L41.0559 34.2978Z" fill="#545454"/>
<path d="M112.809 20.2413V14.6064H93.5445C93.2322 14.6015 92.924 14.5336 92.6376 14.4066C82.3679 9.94202 72.1064 5.46493 61.853 0.975341C61.7386 0.916137 61.6281 0.849315 61.5222 0.775391H61.3384L57.2207 2.612L30.2597 14.3691C29.9014 14.5168 29.5187 14.5932 29.1322 14.5941C23.0047 14.5941 16.8037 14.5941 10.6394 14.5941H10.0144V20.1789C9.86738 20.1789 9.76934 20.1789 9.6713 20.1789H0.0878906V58.0613H122.638V20.2288L112.809 20.2413ZM28.3602 50.1526C28.3602 50.4399 28.2866 50.5523 27.9803 50.5523H14.0218V24.6768H19.6836V45.5047H27.8332C28.2499 45.5047 28.3724 45.6171 28.3724 46.0419C28.3356 47.3913 28.3479 48.7657 28.3602 50.1526ZM46.7427 47.6287C46.7657 48.0177 46.7078 48.4073 46.5726 48.7718C46.4375 49.1364 46.2281 49.4676 45.9584 49.7438C45.6887 50.02 45.3647 50.2348 45.0077 50.3742C44.6508 50.5135 44.2689 50.5742 43.8872 50.5523H33.348C32.9696 50.5759 32.5907 50.5176 32.2361 50.381C31.8815 50.2445 31.5593 50.0328 31.2907 49.7601C31.0221 49.4875 30.8131 49.1599 30.6777 48.799C30.5422 48.438 30.4833 48.052 30.5048 47.6662V32.0485C30.4855 31.6719 30.5439 31.2953 30.6761 30.9432C30.8083 30.591 31.0114 30.271 31.2724 30.0038C31.5333 29.7366 31.8463 29.5281 32.1911 29.3918C32.5359 29.2554 32.905 29.1943 33.2744 29.2122H43.9485C44.3185 29.1965 44.6878 29.2589 45.0329 29.3957C45.3781 29.5325 45.6918 29.7406 45.9543 30.007C46.2167 30.2734 46.4223 30.5923 46.5579 30.9436C46.6936 31.2949 46.7565 31.6711 46.7427 32.0485V47.6287ZM72.858 47.6537C72.8761 48.0435 72.8132 48.4329 72.6736 48.7962C72.5339 49.1596 72.3207 49.4888 72.0477 49.7624C71.7747 50.036 71.4482 50.2476 71.0895 50.3838C70.7307 50.5199 70.3478 50.5773 69.9658 50.5523H63.7281C63.2181 50.6227 62.6996 50.5171 62.2554 50.2522C61.8112 49.9872 61.4668 49.5783 61.2771 49.0906C61.0996 49.5606 60.7756 49.9583 60.355 50.2224C59.9343 50.4865 59.4402 50.6023 58.9486 50.5523H52.7231C52.3527 50.5733 51.9822 50.5156 51.6349 50.3826C51.2877 50.2496 50.9714 50.0443 50.7063 49.7798C50.4411 49.5154 50.2329 49.1975 50.0949 48.8465C49.9568 48.4956 49.8919 48.1191 49.9044 47.7411C49.9044 41.6939 49.9044 35.6467 49.9044 29.5995C49.9044 29.487 49.9044 29.3872 49.9044 29.2498H55.5417V45.4922H58.8628V44.8175C58.8628 39.8198 58.8628 34.7971 58.8628 29.7494C58.8628 29.3121 58.9731 29.1747 59.4143 29.1872C60.7378 29.1872 62.0614 29.1872 63.3849 29.1872H63.8751V45.4297H67.184V29.1872H72.4781C72.8213 29.1872 72.9193 29.2872 72.9193 29.637C72.9193 35.6467 72.9316 41.6565 72.9071 47.6537H72.858ZM89.39 41.8439C89.39 42.2312 89.2675 42.3437 88.8998 42.3437H81.6939V45.4672H88.8876C89.292 45.4672 89.4023 45.5921 89.39 45.9919C89.39 47.3413 89.39 48.6908 89.39 50.0401C89.39 50.1901 89.39 50.3399 89.39 50.5523H88.8753C84.7576 50.5523 80.64 50.5523 76.5345 50.5523C76.0811 50.5523 75.983 50.4149 75.983 49.9776C75.983 43.2307 75.983 36.488 75.983 29.7494C75.983 29.2996 76.1056 29.1872 76.5345 29.1872H89.39V34.1849H81.7184V37.346H88.9121C89.292 37.346 89.439 37.421 89.4268 37.8458C89.4145 39.2326 89.4145 40.5445 89.439 41.8439H89.39ZM90.8484 30.8115C90.786 30.7974 90.7283 30.7667 90.6811 30.7229C90.6338 30.6791 90.5985 30.6235 90.5787 30.5616C90.5787 28.6 90.5787 26.6384 90.5787 24.6518H95.3705C95.1008 26.7259 94.8312 28.7625 94.5616 30.824C93.2994 30.824 92.0984 30.8365 90.8974 30.8115H90.8484ZM108.103 49.2779C107.555 49.9577 106.861 50.5005 106.075 50.8644C105.289 51.2282 104.432 51.4035 103.569 51.377C100.66 51.4642 97.7588 51.0416 94.9905 50.1275C94.9106 50.0908 94.8401 50.0354 94.7848 49.966C94.7295 49.8966 94.6908 49.8151 94.6719 49.7278C94.6719 48.1785 94.6719 46.6291 94.6719 45.0798C94.6644 45.0092 94.6644 44.9381 94.6719 44.8675C95.6278 45.2049 96.5469 45.5546 97.5028 45.842C98.7283 46.2043 99.9538 46.5417 101.241 46.8416C101.896 47.0009 102.586 46.8933 103.165 46.5417C103.352 46.4553 103.517 46.3269 103.648 46.1661C103.78 46.0052 103.874 45.8162 103.923 45.613C103.973 45.4099 103.977 45.1979 103.934 44.993C103.892 44.7882 103.805 44.5957 103.679 44.4301C103.389 44.0252 103.017 43.6887 102.589 43.4432C101.473 42.831 100.321 42.3062 99.1817 41.7565C97.9292 41.1752 96.788 40.3713 95.8116 39.3825C95.2167 38.7039 94.7707 37.9036 94.5033 37.0352C94.236 36.1667 94.1535 35.2501 94.2614 34.3466C94.3693 33.4431 94.665 32.5734 95.1289 31.7957C95.5928 31.018 96.2141 30.3503 96.9514 29.8369C97.9742 29.1519 99.131 28.702 100.342 28.5186C101.552 28.3352 102.787 28.4227 103.961 28.775C105.608 29.2196 107.184 29.9012 108.643 30.799C108.725 30.8533 108.795 30.9248 108.848 31.0089C108.9 31.0929 108.935 31.1875 108.949 31.2863C108.949 32.6607 108.949 34.0475 108.949 35.4343C108.956 35.5216 108.956 35.6094 108.949 35.6967L105.983 34.4472C104.767 33.873 103.45 33.5503 102.111 33.4977C101.8 33.4827 101.49 33.5302 101.198 33.6374C100.906 33.7446 100.637 33.9093 100.407 34.1224C100.266 34.2313 100.149 34.3704 100.065 34.5299C99.9812 34.6894 99.9324 34.8654 99.9219 35.046C99.9115 35.2266 99.9395 35.4074 100.004 35.5759C100.069 35.7443 100.169 35.8963 100.297 36.0215C100.893 36.6516 101.622 37.1345 102.429 37.4334C103.728 38.0706 105.052 38.6829 106.29 39.4201C107.607 40.1964 108.63 41.4022 109.194 42.8435C109.605 43.9122 109.725 45.0742 109.542 46.2068C109.358 47.3394 108.878 48.4005 108.152 49.2779H108.103Z" fill="#545454"/>
</svg>
