<svg width="62" height="55" viewBox="0 0 62 55" fill="none" xmlns="http://www.w3.org/2000/svg">
<path d="M30.9189 18.9093L31.3968 17.2476C32.3018 14.1224 33.5087 11.0965 34.9998 8.21431C35.9982 6.2144 37.3011 4.38833 38.8601 2.80422C39.8181 1.82097 40.9832 1.07321 42.267 0.617732C43.175 0.309483 44.1413 0.222456 45.0883 0.363485C46.0353 0.504515 46.9368 0.869711 47.7205 1.42989C49.1859 2.46456 50.4355 3.78526 51.397 5.31557C52.9877 7.72627 54.2802 10.3282 55.2451 13.0621C56.6659 16.917 57.7805 20.8821 58.5784 24.9191C59.1544 27.6928 59.6201 30.4914 60 33.2901C60.2819 35.3267 60.5024 37.3633 60.6863 39.4123C60.9681 42.386 61.1519 45.3721 61.2622 48.3707C61.3358 50.3698 61.3602 52.3688 61.3847 54.3679C61.3847 54.5678 61.3848 54.6178 61.1397 54.6178H53.946C53.7499 54.6178 53.7132 54.5428 53.7132 54.3679C53.7132 52.5812 53.7132 50.807 53.7132 49.0328C53.656 46.0592 53.5416 43.0857 53.37 40.1121C53.2597 38.2504 53.1372 36.3637 52.9901 34.5145C52.794 32.2073 52.5612 29.9001 52.2916 27.5928C51.8994 24.3444 51.4337 21.1208 50.7842 17.9098C50.2165 14.7827 49.3631 11.7165 48.2352 8.75148C47.8007 7.59668 47.2064 6.51124 46.4704 5.52803C46.3325 5.34168 46.1809 5.16621 46.017 5.00321C45.795 4.74558 45.5217 4.53927 45.2153 4.39787C44.9089 4.25648 44.5764 4.18328 44.24 4.18328C43.9037 4.18328 43.5712 4.25648 43.2648 4.39787C42.9584 4.53927 42.685 4.74558 42.463 5.00321C41.6332 5.84459 40.9642 6.83611 40.49 7.92697C39.5021 10.1261 38.7304 12.4195 38.1861 14.7738C37.463 17.6974 36.9605 20.6585 36.4949 23.6446C36.1517 25.9311 35.8699 28.2425 35.6493 30.554C35.4409 32.5281 35.2939 34.5147 35.1591 36.5012C34.8527 41.1741 34.7057 45.8594 34.7057 50.5322C34.7057 50.7321 34.7057 50.782 34.4728 50.782H27.3281C27.1321 50.782 27.0708 50.7821 27.083 50.5322C27.083 48.833 27.083 47.1213 27.083 45.4221C27.0177 42.7067 26.9033 40.0038 26.7399 37.3134C26.6174 35.4018 26.4825 33.4901 26.311 31.5909C26.1394 29.6918 25.882 27.4554 25.6124 25.3438C25.1957 22.2578 24.6933 19.1717 24.007 16.1356C23.4434 13.4731 22.6224 10.8742 21.556 8.37674C21.1158 7.27828 20.5078 6.25773 19.7546 5.35309C19.5335 5.09863 19.2871 4.86842 19.0193 4.666C18.6051 4.32018 18.0811 4.14061 17.5461 4.16132C17.0112 4.18203 16.5021 4.40156 16.1148 4.7784C15.3503 5.47738 14.7333 6.32755 14.3011 7.27725C13.3983 9.15817 12.6918 11.1305 12.1933 13.162C11.4412 16.0427 10.8398 18.9621 10.3917 21.9079C9.93831 24.7691 9.58296 27.6428 9.28884 30.5165C9.06825 32.628 8.89667 34.7394 8.74961 36.8635C8.52902 39.987 8.38196 43.1106 8.28392 46.2466C8.19813 48.9079 8.16131 51.5692 8.14906 54.2304C8.14906 54.4678 8.14908 54.5303 7.86722 54.5303H0.771602C0.551012 54.5303 0.501953 54.5303 0.501953 54.2555C0.501953 51.6941 0.501971 49.1203 0.673541 46.559C0.808346 43.7478 1.00443 40.9366 1.28629 38.1254C1.79605 33.0393 2.61462 27.9903 3.73729 23.0074C4.61615 18.9641 5.84651 15.0087 7.41379 11.1879C8.36575 8.82232 9.60059 6.58549 11.0903 4.52843C11.9701 3.27498 13.0664 2.19545 14.3256 1.34249C15.3328 0.625871 16.5279 0.234342 17.756 0.218747C18.9841 0.203151 20.1885 0.564124 21.2129 1.25495C22.5702 2.12079 23.7551 3.23985 24.7056 4.55344C26.2746 6.70507 27.5677 9.05224 28.5536 11.5378C29.5163 13.8868 30.3349 16.2944 31.0046 18.7468V18.8469L30.9189 18.9093Z" fill="#545454"/>
</svg>
