<svg width="151" height="63" viewBox="0 0 151 63" fill="none" xmlns="http://www.w3.org/2000/svg">
<path d="M21.8584 0.421387C21.9888 0.455691 22.1215 0.48064 22.2554 0.496048C27.0826 0.700728 31.4068 2.28024 35.1654 5.35044C37.7452 7.44485 39.7371 10.1829 40.9437 13.2931C40.9679 13.3561 40.9871 13.4218 41.0075 13.4874C41.0075 13.4874 40.9986 13.5042 41.0228 13.4668C40.4355 12.8412 39.8738 12.168 39.2355 11.5835C37.6319 10.1147 35.736 9.15568 33.6831 8.49401C32.1763 8.01231 30.6188 7.70989 29.0423 7.59291C26.3613 7.3908 23.7223 7.63153 21.1639 8.5159C18.793 9.33591 16.8091 10.7609 15.0498 12.5245C13.3364 14.2418 12.0546 16.2358 11.3971 18.5941C10.4052 22.1496 11.0141 25.467 13.0645 28.487C13.9659 29.8168 15.0319 31.0358 16.0494 32.2832C17.6491 34.2476 19.2731 36.1915 20.8843 38.1469C21.2022 38.533 21.4958 38.9411 21.8213 39.3209C23.1274 40.8463 22.9461 42.8661 21.6809 44.3272C20.9928 45.1214 20.1489 45.6724 19.1071 45.8655C17.7896 46.1101 16.6303 45.7779 15.7443 44.7417C14.7497 43.5831 13.7986 42.3743 12.8283 41.19C10.5413 38.3966 8.25222 35.6036 5.96099 32.811C4.00764 30.4231 2.39774 27.8331 1.37766 24.8954C0.594177 22.683 0.268734 20.3321 0.421415 17.9878C0.579291 15.5418 1.29822 13.1662 2.52157 11.048C5.20263 6.38027 9.13995 3.24957 14.1931 1.53618C15.6408 1.06162 17.1374 0.754557 18.6539 0.620916C19.2463 0.562988 19.8412 0.535954 20.4336 0.492186C20.5385 0.476983 20.6422 0.454182 20.7438 0.42396L21.8584 0.421387Z" fill="#545454"/>
<path d="M88.4593 21.4982H82.2737C82.3401 20.8223 82.3822 20.1658 82.4703 19.5157C82.7665 17.3389 83.4445 15.3037 84.7148 13.4963C86.2123 11.3659 88.2487 9.96401 90.6476 9.05904C92.6992 8.28666 94.8326 7.93008 97.0106 7.83868C99.361 7.73956 101.701 7.83868 104.009 8.33944C105.432 8.64839 106.791 9.12211 108.041 9.88419C110.438 11.344 111.784 13.5247 112.254 16.2602C112.419 17.25 112.501 18.252 112.498 19.2557C112.519 26.5366 112.498 33.8176 112.521 41.0985C112.524 41.9142 112.599 42.7279 112.745 43.5302C112.886 44.3026 113.403 44.6618 114.185 44.7107C114.821 44.748 115.457 44.6543 116.056 44.4352C116.146 44.403 116.236 44.3786 116.363 44.3387V44.6579C116.363 46.1949 116.363 47.7307 116.363 49.2677C116.37 49.3585 116.35 49.4495 116.304 49.5282C116.259 49.6068 116.19 49.6692 116.107 49.7067C115.013 50.3413 113.822 50.6078 112.577 50.6683C111.726 50.712 110.877 50.685 110.053 50.4224C108.32 49.8702 107.347 48.6125 106.936 46.8926C106.743 46.0868 106.68 45.2488 106.553 44.4236C106.504 44.4828 106.425 44.5742 106.348 44.6669C103.937 47.5788 100.926 49.5174 97.2251 50.2808C93.967 50.9515 90.7254 50.8871 87.5771 49.7195C83.8747 48.3473 81.7043 45.6517 81.0468 41.7383C80.6942 39.6737 80.7611 37.5584 81.2434 35.5207C81.9482 32.5329 83.7113 30.3715 86.3847 28.9349C88.1491 27.9887 90.0386 27.3901 91.983 26.982C94.115 26.5392 96.2612 26.1711 98.4047 25.7913C100.03 25.5042 101.673 25.3034 103.231 24.7203C103.669 24.5555 104.093 24.3509 104.495 24.1088C104.999 23.8191 105.425 23.4096 105.736 22.9161C106.048 22.4226 106.235 21.8598 106.282 21.2768C106.439 19.9797 106.263 18.6637 105.771 17.4548C105.049 15.7259 103.676 14.7605 101.941 14.252C100.141 13.7242 98.2962 13.71 96.445 13.8182C95.2529 13.8728 94.0761 14.1116 92.9558 14.5262C90.6182 15.4183 89.2534 17.142 88.7427 19.5724C88.6163 20.1954 88.5538 20.8339 88.4593 21.4982ZM106.278 28.6015C106.228 28.6231 106.18 28.648 106.134 28.6761C105.286 29.285 104.331 29.6493 103.335 29.9209C101.207 30.5015 99.015 30.7101 96.8446 31.0435C95.2603 31.2868 93.6823 31.5584 92.1681 32.1093C90.931 32.5599 89.7922 33.1739 88.9113 34.1883C87.6678 35.6211 87.3358 37.3383 87.4316 39.1753C87.5158 40.7741 88.1018 42.1361 89.3658 43.1582C90.2148 43.843 91.1991 44.2382 92.2523 44.4661C93.9286 44.8304 95.6126 44.7853 97.2953 44.524C99.4657 44.1842 101.465 43.3938 103.129 41.9057C105.157 40.0919 106.302 37.8494 106.281 35.0624C106.265 33.0336 106.281 31.0036 106.281 28.9735L106.278 28.6015Z" fill="#545454"/>
<path d="M146.337 20.623H140.144C140.052 20.139 139.989 19.6498 139.867 19.1774C139.19 16.5693 137.449 15.0272 134.955 14.2625C133.147 13.709 131.298 13.6755 129.436 13.8699C128.244 13.9986 127.083 14.2561 126.002 14.798C124.757 15.4211 123.831 16.3325 123.474 17.7318C122.963 19.7618 123.653 21.5615 125.404 22.7728C126.636 23.625 128.015 24.1528 129.444 24.5338C131.997 25.2135 134.551 25.8301 137.104 26.4931C139.171 27.0299 141.189 27.7045 143.043 28.7974C145.66 30.3421 147.384 32.5447 147.837 35.6084C148.354 39.1253 147.854 42.4491 145.639 45.3481C144.228 47.1954 142.346 48.4067 140.217 49.2448C137.535 50.2991 134.748 50.684 131.891 50.6801C129.422 50.6801 126.995 50.3827 124.657 49.5473C120.045 47.9008 117.217 44.6697 116.264 39.8218C116.086 38.9207 116.036 37.9874 115.929 37.0682C115.925 36.9962 115.925 36.924 115.929 36.852H122.139C122.187 37.2588 122.222 37.6681 122.285 38.0736C122.739 40.961 124.398 42.8456 127.069 43.8664C128.716 44.4998 130.437 44.7083 132.187 44.7135C134.014 44.7135 135.82 44.5654 137.549 43.9295C138.788 43.4751 139.876 42.8018 140.614 41.6639C142.227 39.173 141.538 35.8929 139.059 34.2285C137.732 33.3377 136.25 32.8034 134.728 32.4044C132.498 31.8212 130.251 31.3089 128.019 30.7309C125.787 30.1529 123.585 29.459 121.582 28.2606C118.991 26.7158 117.31 24.5055 116.87 21.4598C116.359 17.8824 117.055 14.6371 119.622 11.9595C121.194 10.3234 123.139 9.29871 125.278 8.62416C127.641 7.88011 130.063 7.69731 132.523 7.83634C134.521 7.94834 136.489 8.22253 138.388 8.88291C142.619 10.3504 145.111 13.346 145.986 17.7331C146.153 18.5698 146.222 19.4271 146.332 20.2768C146.341 20.392 146.342 20.5076 146.337 20.623Z" fill="#545454"/>
<path d="M77.9547 20.6229H71.8023C71.7104 20.135 71.6453 19.6382 71.5202 19.158C70.8422 16.5615 69.1034 15.0258 66.6228 14.2663C64.806 13.7089 62.9459 13.6754 61.0743 13.8736C59.7529 14.0152 58.4762 14.3203 57.3029 14.9781C55.2602 16.1251 54.3946 18.4834 55.2398 20.6268C55.6636 21.7004 56.4628 22.4367 57.4178 23.0225C58.6805 23.7948 60.0657 24.2814 61.4854 24.6522C63.9111 25.2881 66.3547 25.8699 68.7842 26.5007C70.8512 27.0362 72.8696 27.7121 74.7221 28.8088C77.3151 30.3446 79.0335 32.5343 79.4906 35.5736C80.0204 39.1021 79.5187 42.4336 77.2959 45.3416C75.9043 47.1631 74.0506 48.3616 71.9555 49.2035C69.7928 50.0737 67.5356 50.4908 65.2184 50.6298C62.6561 50.7791 60.1116 50.6298 57.6285 49.963C55.0061 49.264 52.6711 48.0565 50.8365 45.9878C49.2649 44.2088 48.3456 42.1182 47.9167 39.8011C47.7379 38.8369 47.6537 37.856 47.5234 36.8544H53.7448C53.8239 37.4093 53.8724 37.9679 53.9873 38.5125C54.5836 41.3445 56.3735 43.0798 59.0252 43.9938C61.1253 44.7185 63.2944 44.8112 65.484 44.667C67.0045 44.5666 68.4906 44.2989 69.8822 43.6372C71.4423 42.897 72.5632 41.759 72.9258 40.0135C73.4161 37.6564 72.7981 35.6276 70.6278 34.1975C69.2553 33.2964 67.7207 32.7596 66.1478 32.3515C63.9162 31.7735 61.6705 31.2586 59.4375 30.687C57.4561 30.1811 55.5155 29.5503 53.7103 28.5565C51.7378 27.4726 50.1356 26.0154 49.2163 23.903C48.5205 22.3106 48.3086 20.6294 48.3827 18.9083C48.4963 16.2603 49.3938 13.9316 51.2386 12.0096C52.4031 10.8196 53.7923 9.87676 55.324 9.2368C58.1123 8.02803 61.0372 7.67789 64.0426 7.83752C65.9321 7.93792 67.7973 8.17736 69.609 8.75278C72.1419 9.55606 74.2868 10.9154 75.7958 13.1746C76.8848 14.8082 77.4721 16.631 77.7632 18.5594C77.8551 19.1619 77.8909 19.772 77.9547 20.3796C77.9611 20.4556 77.9547 20.5328 77.9547 20.6229Z" fill="#545454"/>
<path d="M0.724609 49.3697C2.78647 52.1799 5.63477 53.7465 8.89545 54.6566C11.0273 55.2446 13.2392 55.4828 15.4462 55.3621C21.3292 55.0724 25.8525 52.3897 29.0187 47.3988C29.9514 45.9214 30.5353 44.2479 30.7256 42.5071C31.064 39.5785 30.3605 36.8881 28.7085 34.4783C27.8837 33.2733 26.9211 32.1611 26.0031 31.0245C23.926 28.4743 21.8258 25.9435 19.7473 23.3934C18.5766 21.958 18.5434 20.1841 19.649 18.6896C20.4585 17.5967 21.5347 16.9028 22.8893 16.7767C24.1417 16.6608 25.1771 17.1629 25.9789 18.1425C28.5204 21.2509 31.0623 24.3601 33.6046 27.4702C35.0421 29.2364 36.5563 30.9459 37.7985 32.8627C39.3305 35.2249 40.4936 37.7416 41.04 40.5247C41.3294 41.972 41.4239 43.4519 41.3209 44.9247C41.0349 48.8908 39.4455 52.2841 36.8525 55.223C34.2811 58.1865 30.9312 60.3567 27.1892 61.4831C25.8202 61.9135 24.4065 62.1826 22.9761 62.2851C21.6905 62.3662 20.3959 62.4628 19.1154 62.3881C14.9917 62.1487 11.1922 60.8845 7.79622 58.4825C4.96756 56.5132 2.71144 53.8184 1.26082 50.6763C1.13315 50.3905 1.00548 50.0996 0.888026 49.8099C0.830575 49.6645 0.779507 49.5164 0.724609 49.3697Z" fill="#545454"/>
<path d="M147.962 46.5257C148.28 46.5205 148.596 46.5794 148.891 46.6989C149.186 46.8184 149.454 46.9961 149.68 47.2216C149.906 47.4471 150.085 47.7158 150.206 48.0119C150.327 48.3081 150.389 48.6257 150.387 48.9462C150.385 49.2666 150.32 49.5835 150.195 49.8781C150.07 50.1727 149.887 50.4391 149.659 50.6618C149.43 50.8844 149.16 51.0588 148.863 51.1746C148.567 51.2905 148.251 51.3454 147.933 51.3363C147.615 51.341 147.299 51.2812 147.005 51.1603C146.71 51.0395 146.443 50.8601 146.218 50.6328C145.994 50.4056 145.817 50.1351 145.698 49.8376C145.58 49.54 145.522 49.2214 145.528 48.9008C145.535 47.562 146.605 46.5257 147.962 46.5257ZM147.908 46.9261C146.806 46.9531 145.992 47.8413 146.032 48.9857C146.072 50.1301 146.889 50.9592 147.982 50.9386C148.509 50.9287 149.011 50.7079 149.377 50.3247C149.743 49.9416 149.943 49.4275 149.934 48.8956C149.924 48.3637 149.705 47.8575 149.325 47.4884C148.945 47.1192 148.435 46.9174 147.908 46.9273V46.9261Z" fill="#545454"/>
<path d="M44.6989 46.5259C45.0166 46.5168 45.3329 46.5718 45.6293 46.6877C45.9256 46.8037 46.196 46.9781 46.4245 47.2008C46.6531 47.4235 46.8352 47.69 46.9602 47.9847C47.0852 48.2793 47.1505 48.5962 47.1524 48.9167C47.1543 49.2372 47.0926 49.5548 46.9711 49.8509C46.8495 50.147 46.6706 50.4157 46.4446 50.6411C46.2187 50.8665 45.9503 51.0442 45.6554 51.1636C45.3604 51.283 45.0448 51.3418 44.727 51.3365C44.4093 51.3455 44.093 51.2905 43.7966 51.1746C43.5003 51.0587 43.2299 50.8843 43.0014 50.6615C42.7728 50.4388 42.5907 50.1723 42.4657 49.8777C42.3407 49.583 42.2754 49.2661 42.2735 48.9457C42.2716 48.6252 42.3333 48.3076 42.4548 48.0114C42.5763 47.7153 42.7553 47.4466 42.9813 47.2212C43.2072 46.9958 43.4755 46.8182 43.7705 46.6988C44.0655 46.5794 44.3811 46.5206 44.6989 46.5259ZM46.628 48.9177C46.628 47.7848 45.7981 46.9262 44.713 46.9249C44.194 46.9382 43.7007 47.1554 43.3382 47.5302C42.9758 47.905 42.773 48.4077 42.773 48.9312C42.773 49.4546 42.9758 49.9574 43.3382 50.3322C43.7007 50.707 44.194 50.9242 44.713 50.9374C45.8109 50.9361 46.6344 50.0685 46.628 48.9164V48.9177Z" fill="#545454"/>
<path d="M147.908 46.9261C148.435 46.9162 148.945 47.1171 149.325 47.4862C149.705 47.8553 149.924 48.3615 149.934 48.8934C149.944 49.4254 149.744 49.9394 149.377 50.3225C149.011 50.7057 148.509 50.9265 147.982 50.9364C146.889 50.957 146.067 50.1357 146.032 48.9835C145.998 47.8314 146.804 46.9531 147.908 46.9261ZM147.066 47.5469V50.3004H147.449V49.156C147.801 49.0415 148.015 49.1393 148.158 49.4534C148.255 49.6671 148.413 49.8512 148.513 50.0636C148.641 50.3468 148.84 50.3661 149.116 50.2811L148.369 49.1058C148.887 48.9076 149.007 48.8033 149.05 48.5098C149.141 47.9408 148.863 47.5868 148.263 47.5508C147.878 47.5289 147.486 47.5469 147.066 47.5469Z" fill="white"/>
<path d="M46.6265 48.9166C46.6265 50.0687 45.8094 50.9363 44.7114 50.9363C44.1925 50.9231 43.6992 50.7059 43.3367 50.3311C42.9743 49.9563 42.7715 49.4535 42.7715 48.9301C42.7715 48.4066 42.9743 47.9039 43.3367 47.5291C43.6992 47.1543 44.1925 46.9371 44.7114 46.9238C45.7966 46.9251 46.6214 47.7837 46.6265 48.9166ZM45.8451 50.2862L45.0919 49.0968L45.2336 49.0466C45.6664 48.9075 45.8145 48.7029 45.7928 48.2742C45.7737 47.888 45.586 47.6306 45.1634 47.5894C44.7047 47.5616 44.2449 47.5577 43.7858 47.5778V50.3094H44.2123V49.1508C44.548 49.0556 44.7497 49.1508 44.8787 49.4443C44.9681 49.6503 45.134 49.8305 45.2183 50.0288C45.3447 50.3184 45.5451 50.3764 45.8451 50.2862Z" fill="white"/>
<path d="M147.066 47.5469C147.486 47.5469 147.878 47.5286 148.266 47.5466C148.867 47.5826 149.145 47.9328 149.054 48.5056C149.007 48.7991 148.891 48.9034 148.372 49.1016L149.119 50.2769C148.844 50.3619 148.647 50.3426 148.517 50.0594C148.418 49.847 148.261 49.6629 148.162 49.4492C148.019 49.1351 147.804 49.0373 147.453 49.1518V50.2962H147.07L147.066 47.5469ZM147.466 48.7245C147.761 48.7245 148.024 48.7386 148.283 48.7245C148.332 48.7242 148.38 48.7139 148.425 48.694C148.47 48.6741 148.51 48.6452 148.543 48.609C148.576 48.5727 148.602 48.53 148.618 48.4834C148.634 48.4369 148.64 48.3874 148.637 48.3383C148.642 48.2915 148.638 48.244 148.625 48.1988C148.611 48.1536 148.589 48.1117 148.559 48.0755C148.529 48.0394 148.492 48.0098 148.45 47.9885C148.409 47.9673 148.363 47.9549 148.316 47.9521C148.042 47.9186 147.763 47.916 147.466 47.898V48.7245Z" fill="#545454"/>
<path d="M45.8464 50.2861C45.5464 50.3762 45.3459 50.3183 45.2196 50.0287C45.1289 49.824 44.9642 49.6502 44.88 49.4442C44.7523 49.1482 44.5493 49.0581 44.2135 49.1507V50.3093H43.7871V47.5751C44.2462 47.5551 44.706 47.5589 45.1647 47.5867C45.5872 47.6304 45.7749 47.8802 45.7941 48.2715C45.8158 48.7028 45.6664 48.9074 45.2349 49.0439L45.0932 49.0941L45.8464 50.2861ZM44.2199 48.7272C44.5033 48.7272 44.7561 48.7362 45.0076 48.7272C45.2591 48.7182 45.3523 48.5624 45.3613 48.341C45.3696 48.294 45.3681 48.2457 45.3567 48.1994C45.3453 48.153 45.3243 48.1096 45.2952 48.0719C45.266 48.0343 45.2293 48.0032 45.1875 47.9808C45.1456 47.9584 45.0996 47.9452 45.0523 47.942C44.7778 47.9111 44.5008 47.9098 44.2199 47.8956V48.7272Z" fill="#545454"/>
<path d="M147.465 48.7248V47.8906C147.762 47.9086 148.041 47.9112 148.315 47.9447C148.362 47.9475 148.407 47.9599 148.449 47.9812C148.491 48.0024 148.528 48.032 148.558 48.0681C148.588 48.1043 148.61 48.1463 148.624 48.1914C148.637 48.2366 148.641 48.2841 148.636 48.3309C148.639 48.3801 148.633 48.4295 148.617 48.476C148.601 48.5226 148.575 48.5653 148.542 48.6016C148.509 48.6378 148.469 48.6667 148.424 48.6866C148.379 48.7065 148.331 48.7169 148.282 48.7171C148.023 48.739 147.76 48.7248 147.465 48.7248Z" fill="white"/>
<path d="M44.2188 48.7271V47.8955C44.4996 47.9097 44.7767 47.911 45.0512 47.9418C45.0979 47.9452 45.1435 47.9583 45.1849 47.9804C45.2264 48.0024 45.2628 48.033 45.2919 48.07C45.3209 48.1071 45.342 48.1499 45.3538 48.1956C45.3655 48.2414 45.3677 48.2891 45.3601 48.3358C45.3512 48.5598 45.2439 48.7142 45.0065 48.722C44.769 48.7297 44.5022 48.7271 44.2188 48.7271Z" fill="white"/>
</svg>
