<svg width="65" height="81" viewBox="0 0 65 81" fill="none" xmlns="http://www.w3.org/2000/svg">
<path d="M53.6646 67.0751V63.5143C53.885 63.5016 54.106 63.5016 54.3264 63.5143C54.3264 63.5143 54.4734 63.6268 54.4979 63.7143C54.8043 64.4764 55.0984 65.251 55.3926 66.0132L55.5274 66.313C55.6377 66.0131 55.7357 65.7883 55.8215 65.5509C56.0543 64.9636 56.2872 64.3764 56.4955 63.7766C56.569 63.5517 56.6793 63.4643 56.8999 63.4893C57.0508 63.5025 57.2025 63.5025 57.3534 63.4893V67.0253H56.8632V64.1265C56.4465 65.0636 56.0788 66.0132 55.7234 66.9627H55.3068C55.3127 66.9255 55.3127 66.8876 55.3068 66.8503C54.9514 65.9632 54.596 65.0886 54.2528 64.2016C54.2552 64.1683 54.2552 64.1348 54.2528 64.1015V66.9627L53.6646 67.0751Z" fill="#545454"/>
<path d="M51.4955 67.0751V63.9641H50.4048V63.5143H53.1622V63.914H52.0102V67.0376L51.4955 67.0751Z" fill="#545454"/>
<path d="M10.7966 58.0794L8.89712 56.2177C9.48002 55.2663 10.3356 54.5203 11.3481 54.0811L10.8457 53.1691C10.6006 52.7193 10.6006 52.7069 10.1471 52.9317C9.55915 53.2387 9.03809 53.6637 8.61526 54.1812L7.8677 55.0432L6.25004 53.0191C6.85054 52.4569 7.47554 51.9072 8.00251 51.3825C8.40966 51.0229 8.91354 50.7965 9.4486 50.7328C9.484 50.7215 9.52131 50.7177 9.55819 50.7218C9.59507 50.7258 9.63072 50.7376 9.66293 50.7564C9.69514 50.7752 9.7232 50.8005 9.74536 50.8308C9.76752 50.8611 9.78331 50.8959 9.79174 50.9327C9.87752 51.2076 10.0001 51.4823 10.1104 51.7572C10.1747 51.9346 10.2922 52.0869 10.4462 52.1923C10.6002 52.2978 10.7828 52.351 10.9682 52.3446C12.0406 52.3373 13.0956 52.0673 14.0442 51.5574C15.0981 51.0439 16.0692 50.3697 16.9241 49.5582C17.0712 49.4083 17.0589 49.3209 16.9854 49.1335C16.5565 48.2214 16.1153 47.3218 15.7599 46.3723C15.5115 45.7388 15.4206 45.0524 15.4955 44.3745C15.5703 43.6965 15.8085 43.048 16.1888 42.4866C16.8506 41.4871 17.5737 40.5249 18.2722 39.5628C18.7913 38.8726 19.2046 38.1059 19.4977 37.289C19.7674 36.3253 19.7674 35.304 19.4977 34.3404C19.2526 33.2658 18.9094 32.2163 18.6276 31.1543C18.2323 29.6841 18.1614 28.143 18.4199 26.6416C18.6784 25.1402 19.2599 23.7158 20.1227 22.4708C20.4291 21.9961 20.7599 21.5337 21.0663 21.034C20.9683 21.034 20.8702 21.1465 20.7722 21.2214C19.3285 22.4253 18.2387 24.0119 17.6227 25.8067C16.8898 27.9718 16.8598 30.3199 17.5369 32.5037C17.7697 33.3409 17.9781 34.1905 18.1741 35.0026C18.312 35.5494 18.3216 36.1215 18.2024 36.6728C18.0832 37.2241 17.8384 37.739 17.4879 38.176C16.7281 39.188 15.9683 40.2127 15.2207 41.2372C14.6825 41.9341 14.2942 42.7387 14.081 43.5986C14.081 43.9484 14.081 44.3108 13.9952 44.6731C13.9837 44.8004 13.9369 44.9216 13.8604 45.0228C12.4898 46.2766 10.7365 47.0093 8.89712 47.0969H8.61526L9.11771 48.9835L8.66428 49.0586C7.8444 49.26 7.09685 49.6931 6.5074 50.308L5.2819 51.4324L3.84807 48.9335C4.63738 48.7349 5.35022 48.2997 5.89465 47.6841C6.23708 47.3199 6.65396 47.0372 7.11569 46.8558C7.57742 46.6744 8.07266 46.5989 8.56624 46.6346C8.48045 46.1723 8.40692 45.7475 8.33339 45.3852C8.22309 44.8105 8.23535 44.8229 7.64711 44.8729C6.73518 44.987 5.87961 45.3839 5.19611 46.0099C4.82846 46.3098 4.44856 46.5847 4.06866 46.8596C3.99954 46.9089 3.92562 46.9507 3.84807 46.9845C3.14953 47.3218 3.03924 47.2843 2.74512 46.5721C2.451 45.8599 2.21815 45.3227 1.94854 44.5981C2.7874 44.6235 3.61212 44.3739 4.3015 43.8859L5.26964 43.2237C5.89841 42.7376 6.62774 42.4043 7.40202 42.2491C7.62261 42.2491 7.84319 42.2492 8.10055 42.1742V40.0003C7.58962 39.9404 7.07209 40.009 6.59318 40.2001C5.95592 40.4624 5.36769 40.7998 4.73043 41.1246C4.09317 41.4495 3.78679 41.7369 3.29659 42.0118C2.65847 42.3588 1.93144 42.4983 1.21324 42.4116L0.575977 39.7878H0.968145C1.98412 39.8491 2.99505 39.6012 3.87257 39.0756L5.33092 38.226C6.24588 37.6093 7.31066 37.2632 8.40693 37.2264L8.97065 34.7276C8.49271 34.7276 8.03927 34.7276 7.59809 34.865C6.62651 35.0767 5.70059 35.4662 4.86522 36.0145C4.10366 36.5356 3.28001 36.9554 2.41423 37.264C1.7745 37.432 1.11058 37.4827 0.453429 37.4139C0.294114 37.4139 0.220588 37.3265 0.208333 37.1516C0.208333 36.4644 0.0735299 35.7771 0 35.0775H0.196075C1.52733 35.1909 2.86262 34.9134 4.04414 34.2778C4.95101 33.8155 5.84563 33.3158 6.77701 32.891C7.66739 32.4656 8.65385 32.2929 9.63242 32.3912C9.67321 32.3938 9.71407 32.3874 9.75216 32.3723C9.79025 32.3572 9.82466 32.3338 9.85301 32.3038C10.2574 31.4167 10.6496 30.5296 11.0785 29.6175C10.5453 29.5171 10.0025 29.4794 9.46085 29.5051C8.20099 29.6165 6.97791 29.9953 5.87014 30.6171C4.97553 31.0794 4.0809 31.5417 3.16178 31.8665C2.16954 32.2664 1.08915 32.3829 0.0367635 32.2037C0.0367635 31.8914 0.0367635 31.5792 0.0367635 31.2543C0.150223 29.1217 0.462085 27.0047 0.968145 24.9322C2.05607 20.4596 4.07013 16.2763 6.87505 12.6629C10.9604 7.32147 16.5623 3.39471 22.9168 1.41812C25.0458 0.772243 27.2349 0.353523 29.4487 0.1687C31.5795 -0.0562335 33.7273 -0.0562335 35.8581 0.1687C42.6947 0.884613 49.1254 3.81886 54.2038 8.53976C59.1343 13.0858 62.5597 19.0795 64.0078 25.6943C64.5101 27.7368 64.7572 29.8358 64.7431 31.9414V32.2037C64.1916 32.2037 63.6647 32.2037 63.1377 32.2037C61.9945 32.0227 60.8936 31.6289 59.8901 31.0419C58.9532 30.5723 57.9918 30.1552 57.0102 29.7924C55.9538 29.4218 54.8181 29.3526 53.7259 29.5925C53.7465 29.6646 53.7711 29.7356 53.7994 29.8049C54.1671 30.5921 54.5347 31.3667 54.8901 32.1539C54.9636 32.3163 55.0372 32.3912 55.2332 32.3662C56.412 32.277 57.5909 32.5375 58.6279 33.1159L60.4049 34.0655C61.7192 34.8343 63.2343 35.1701 64.7431 35.0274C64.7431 35.3023 64.7431 35.5772 64.7431 35.8521C64.7431 36.127 64.6696 36.7142 64.6451 37.1015C64.6451 37.3264 64.4858 37.3265 64.3264 37.3515C63.212 37.4714 62.0887 37.2309 61.1156 36.6643C60.3803 36.2644 59.645 35.8271 58.8975 35.4148C58.0662 34.9661 57.1419 34.7261 56.2014 34.7151H55.8582C55.8518 34.7816 55.8518 34.8486 55.8582 34.915L56.3362 37.0391C56.3508 37.0806 56.3736 37.1186 56.4031 37.1508C56.4326 37.183 56.4682 37.2087 56.5078 37.2264C57.5758 37.2925 58.6076 37.6461 59.498 38.251L60.9563 39.1006C61.8157 39.5894 62.7921 39.8231 63.775 39.7753H64.2162C64.0446 40.5 63.873 41.2121 63.6892 41.9243C63.5666 42.4365 63.5544 42.4241 63.0274 42.4116C62.2772 42.3689 61.5527 42.1184 60.9318 41.687C60.3681 41.3371 59.8166 40.9623 59.2406 40.625C58.4612 40.1737 57.5753 39.949 56.6793 39.9753V42.1617H57.3534C58.0312 42.2879 58.6747 42.5606 59.2406 42.9614L60.1843 43.611C60.9429 44.206 61.8742 44.527 62.8313 44.5232C62.7701 44.6856 62.7333 44.823 62.672 44.9604C62.4147 45.5976 62.1328 46.2097 61.8877 46.8844C61.8019 47.1093 61.6671 47.1594 61.4955 47.0969C61.1392 46.9652 60.7947 46.8022 60.4661 46.6096C60.0495 46.3347 59.6695 45.9974 59.2406 45.685C58.5438 45.1169 57.6818 44.8006 56.7896 44.7855C56.5568 44.7855 56.4342 44.7855 56.4097 45.1104C56.3541 45.5308 56.2764 45.9479 56.1769 46.3598C56.1769 46.4347 56.1769 46.5221 56.1769 46.6096H56.8754C57.6178 46.7422 58.3023 47.1043 58.8362 47.6467L59.5593 48.2714C59.9345 48.605 60.4004 48.8142 60.8951 48.8711L59.4612 51.3074C59.2284 51.12 59.0078 50.9701 58.7994 50.7951C58.5911 50.6202 58.0519 50.0955 57.6597 49.7707C57.1095 49.3009 56.4364 49.0054 55.7234 48.921H55.6009L56.1034 47.0345L55.172 46.947C53.5689 46.7238 52.0672 46.0192 50.8582 44.9229C50.817 44.8875 50.7837 44.8436 50.7605 44.794C50.7372 44.7445 50.7246 44.6905 50.7234 44.6356C50.7667 43.8297 50.5839 43.028 50.1964 42.3242C49.5847 41.227 48.875 40.1898 48.0763 39.2256C47.7209 38.7633 47.4023 38.2884 47.0592 37.8261C46.7673 37.4244 46.5674 36.9612 46.4741 36.4704C46.3808 35.9796 46.3965 35.4739 46.5199 34.9901C46.765 33.8906 47.0592 32.8161 47.3288 31.7291C47.7971 29.9754 47.8011 28.1264 47.3404 26.3706C46.8797 24.6147 45.9708 23.0148 44.7062 21.7337C44.4467 21.476 44.1725 21.2339 43.8851 21.009C43.854 20.9793 43.8174 20.9563 43.7774 20.9412C43.7374 20.9262 43.6949 20.9195 43.6523 20.9216L43.7871 21.1214C44.815 22.4481 45.5959 23.9557 46.091 25.5694C46.617 27.5544 46.5573 29.6534 45.9194 31.604C45.6172 32.6452 45.3476 33.6948 45.1106 34.7526C44.9557 35.3941 44.9412 36.0625 45.0683 36.7103C45.1954 37.3581 45.4609 37.9695 45.8459 38.5009C46.4587 39.3755 47.0714 40.2252 47.7209 41.0873C48.3033 41.815 48.7592 42.639 49.069 43.5236C49.3493 44.5074 49.2798 45.5605 48.8729 46.4972C48.542 47.3468 48.1253 48.1714 47.7454 48.996C47.6842 49.1335 47.6474 49.2335 47.7454 49.3584C49.0963 50.7174 50.7951 51.6612 52.6474 52.0821C53.0034 52.1475 53.3642 52.181 53.7259 52.1821C53.9094 52.1877 54.0902 52.1355 54.2437 52.0327C54.3972 51.9298 54.5159 51.7813 54.5837 51.6073C54.694 51.3449 54.8166 51.07 54.9146 50.7951C55.0127 50.5203 55.0862 50.5328 55.2945 50.5703C55.9226 50.6688 56.5028 50.971 56.9489 51.4324C57.4391 51.8821 57.9048 52.3569 58.4073 52.8567L56.8141 54.8683C56.4342 54.456 56.0788 54.0436 55.7112 53.6188C55.3077 53.1924 54.8186 52.8601 54.2774 52.6444C54.2456 52.6232 54.2093 52.6102 54.1716 52.6066C54.1339 52.603 54.0958 52.6089 54.0608 52.6237C54.0258 52.6384 53.9948 52.6616 53.9706 52.6914C53.9464 52.7211 53.9297 52.7565 53.922 52.7943C53.7381 53.1567 53.5298 53.519 53.3215 53.9063C54.3298 54.3523 55.1837 55.0965 55.7725 56.0428L53.8607 57.8919C53.3832 57.135 52.7773 56.4708 52.0715 55.9304L51.2871 56.9674L52.8068 58.829L50.3558 60.6531C50.0453 59.3056 49.4282 58.0516 48.5543 56.9924C48.0396 56.2427 47.5126 55.4805 47.0592 54.6933C46.7531 54.1845 46.5527 53.617 46.4705 53.026C46.3883 52.435 46.426 51.833 46.5812 51.2574V51.1575C46.2782 51.6273 46.0468 52.1412 45.8949 52.6818C45.6332 53.6187 45.725 54.6216 46.1523 55.493C46.5812 56.3926 47.0959 57.2671 47.5861 58.1417C48.126 59 48.5389 59.9347 48.8116 60.9156C48.9464 61.5153 48.9464 61.5153 48.4195 61.8276L47.0592 62.5898C47.0592 62.2899 46.9856 62.0025 46.9244 61.7401C46.7059 60.7603 46.3597 59.8148 45.8949 58.9289C45.3802 57.8669 44.8165 56.8174 44.3508 55.7304C44.0958 55.1361 43.9187 54.5102 43.8238 53.8688C43.7298 53.0992 43.8939 52.3198 44.2895 51.6573C44.8655 50.5828 45.515 49.5207 46.1155 48.4587C46.5872 47.676 46.9618 46.8366 47.2307 45.9599C47.4235 45.3684 47.4915 44.7422 47.4303 44.122C47.369 43.5019 47.1799 42.9019 46.8753 42.3615C46.3484 41.462 45.7111 40.6249 45.1229 39.7753C44.8288 39.338 44.5101 38.9257 44.2038 38.5259C43.7453 37.9232 43.4377 37.2158 43.3074 36.4648C43.1772 35.7138 43.2283 34.9418 43.4562 34.2154C43.7258 33.2409 44.0689 32.2913 44.3876 31.3292C44.904 29.8874 45.1088 28.3488 44.9881 26.8188C44.8871 25.4 44.4799 24.0214 43.7956 22.7817C43.1113 21.5419 42.1668 20.4716 41.0297 19.6471C40.9286 19.5702 40.811 19.5188 40.6866 19.4972C40.9439 19.8346 41.2135 20.1843 41.4586 20.5342C42.4515 21.8546 43.1234 23.3959 43.4194 25.0321C43.7289 26.8745 43.5512 28.7678 42.9047 30.517C42.4758 31.7665 42.0591 32.8909 41.6792 34.1029C41.4302 34.951 41.3848 35.8479 41.5469 36.7176C41.709 37.5874 42.0738 38.4047 42.6106 39.1006C43.2601 39.9752 43.9219 40.8249 44.5469 41.6995C45.0681 42.3899 45.4133 43.2012 45.5518 44.0609C45.6611 44.8327 45.5416 45.6202 45.2087 46.3223C44.841 47.1219 44.4121 47.884 43.9832 48.6462C43.5542 49.4083 42.8925 50.4579 42.3778 51.395C41.9586 52.1578 41.7431 53.0195 41.7528 53.8938C41.8156 54.9089 42.1048 55.896 42.5983 56.7799C43.1621 57.9044 43.7503 59.0165 44.314 60.1409C44.7946 61.0805 45.0862 62.1084 45.1719 63.1644C45.1719 63.3893 45.1719 63.4894 44.9145 63.5768C44.2773 63.8142 43.689 64.0891 43.015 64.339C43.0085 63.8627 42.9757 63.3872 42.917 62.9146C42.6964 61.7242 42.2822 60.5799 41.6915 59.5287C41.1523 58.4292 40.6008 57.3297 40.0738 56.2177C39.7818 55.6031 39.6071 54.9373 39.5591 54.2561C39.5089 53.3361 39.7309 52.422 40.1964 51.6323C40.8091 50.5578 41.5077 49.5209 42.1204 48.4339C42.5396 47.7353 42.9043 47.0042 43.2111 46.2474C43.4847 45.5812 43.5932 44.8564 43.5269 44.1373C43.4607 43.4182 43.2217 42.7268 42.8312 42.1242C42.39 41.3996 41.8508 40.7248 41.3606 40.0376L40.613 39.0257C40.0657 38.3083 39.701 37.464 39.5513 36.568C39.4016 35.6721 39.4717 34.7523 39.7552 33.8906C40.0861 32.8286 40.5273 31.7915 40.9807 30.7545C41.4332 29.7435 41.7545 28.6766 41.9366 27.5809C42.2009 25.6402 41.8578 23.6639 40.9562 21.9335C40.3115 20.6699 39.3938 19.572 38.2723 18.7226C38.1731 18.6714 38.0647 18.6416 37.9537 18.635C37.9588 18.7524 37.988 18.8673 38.0395 18.9724C38.9205 20.076 39.5711 21.3515 39.9513 22.7207C40.597 25.0365 40.4012 27.5122 39.3998 29.6925C38.8483 30.942 38.3214 32.1914 37.8802 33.4408C37.5581 34.2391 37.409 35.0989 37.4428 35.9615C37.4766 36.824 37.6927 37.6689 38.0763 38.4385C38.5057 39.1952 38.9847 39.9215 39.5101 40.6125C39.7674 41.0123 40.0738 41.3745 40.3557 41.7618C40.909 42.4557 41.2456 43.3027 41.3221 44.1936C41.3985 45.0844 41.2113 45.9782 40.7846 46.7595C40.4145 47.4979 40.0054 48.2154 39.5591 48.9086C39.0812 49.6958 38.5787 50.4454 38.1008 51.2326C37.5665 52.0781 37.2603 53.0523 37.213 54.0569C37.1657 55.0615 37.3789 56.061 37.8312 56.9548C38.4194 58.2043 39.0567 59.4538 39.6081 60.7656C40.1553 61.881 40.4565 63.1049 40.4905 64.3515C40.4905 65.1886 40.4905 65.1885 39.6939 65.3759L38.0885 65.7383C38.0885 65.5509 38.0885 65.401 38.0885 65.251C38.2239 63.7192 37.9663 62.1778 37.341 60.7782C36.8017 59.5287 36.1155 58.2792 35.6253 56.9423C35.3603 56.2883 35.1552 55.6108 35.0125 54.9183C34.8439 54.0685 34.9695 53.1854 35.3679 52.4194C35.7968 51.5324 36.2993 50.6828 36.814 49.8332C37.3287 48.9836 37.8802 48.1715 38.3826 47.3344C38.8005 46.6457 39.0719 45.8752 39.1792 45.0728C39.3132 44.001 39.0463 42.9171 38.4316 42.0368C37.9169 41.2872 37.3532 40.575 36.8262 39.8378C36.256 39.071 35.8888 38.1673 35.7601 37.2139C35.7536 37.1027 35.7226 36.9945 35.6692 36.8973C35.6158 36.8001 35.5415 36.7164 35.4519 36.6527C35.3622 36.5889 35.2596 36.5467 35.1516 36.5293C35.0437 36.5118 34.9333 36.5196 34.8287 36.5519C34.3262 36.6643 33.8483 36.8266 33.3581 36.9391C32.3548 37.1524 31.3138 37.0876 30.3434 36.7516C30.086 36.6767 29.8409 36.6018 29.5835 36.5519C29.4834 36.5198 29.3775 36.5108 29.2735 36.5255C29.1696 36.5401 29.0701 36.5781 28.9822 36.6367C28.8943 36.6952 28.8202 36.7729 28.7653 36.8641C28.7104 36.9552 28.6759 37.0577 28.6644 37.1641C28.4285 38.4671 27.8431 39.6779 26.9732 40.6623C26.6423 41.0871 26.3115 41.5244 26.0173 41.9118C25.5501 42.5481 25.2641 43.3034 25.1905 44.0947C25.117 44.8861 25.2589 45.6829 25.6007 46.3973C26.0183 47.2597 26.489 48.0943 27.01 48.8961C27.5125 49.7457 28.0639 50.5454 28.5664 51.395C29.0785 52.1895 29.3715 53.1098 29.4146 54.0595C29.4578 55.0091 29.2494 55.9531 28.8115 56.7924C28.2232 58.0418 27.586 59.2913 27.0958 60.5407C26.6191 61.6248 26.3448 62.79 26.287 63.9766C26.287 64.5014 26.287 65.0387 26.287 65.6009L24.7183 65.2635C23.983 65.0886 23.9708 65.0761 23.9585 64.2889C23.964 63.2095 24.1981 62.1441 24.6448 61.1654C25.1227 60.0659 25.6497 59.0039 26.1399 57.9169C26.434 57.2797 26.6914 56.6674 26.9365 55.9803C27.1845 55.3193 27.2919 54.6122 27.2518 53.9057C27.2117 53.1992 27.0248 52.5095 26.7036 51.8821C26.3237 51.1075 25.8703 50.3704 25.4781 49.6208C24.9144 48.6712 24.2526 47.7466 23.7624 46.772C23.3147 45.9779 23.1148 45.0636 23.1892 44.1507C23.2636 43.2379 23.6089 42.3698 24.1791 41.6619C24.6815 40.9748 25.2085 40.3001 25.711 39.6129C26.6084 38.452 27.073 37.0044 27.0223 35.5272C26.9549 34.4722 26.7104 33.4368 26.2992 32.4662C25.7845 31.2168 25.2085 29.9674 24.7673 28.718C24.2024 27.2006 24.0185 25.5632 24.2326 23.955C24.4466 22.3467 25.0517 20.8187 25.9928 19.5097C26.1399 19.3098 26.2992 19.1224 26.434 18.91C26.4535 18.8153 26.4535 18.7173 26.434 18.6225C26.336 18.6225 26.2012 18.6225 26.1399 18.6225C24.3243 20.0179 23.0591 22.0303 22.5737 24.295C22.1705 26.2665 22.3893 28.3177 23.1987 30.1548C23.6644 31.2918 24.1668 32.4163 24.5467 33.5907C24.8379 34.3673 24.9495 35.2019 24.873 36.0296C24.7965 36.8574 24.5339 37.656 24.1056 38.3635C23.7747 38.9007 23.3948 39.413 23.0271 39.9252C22.6595 40.4375 22.0712 41.1747 21.6423 41.8369C21.1813 42.4985 20.9028 43.2741 20.836 44.0828C20.7692 44.8916 20.9164 45.7037 21.2624 46.4347C21.6454 47.2671 22.075 48.0765 22.5492 48.8586C23.0271 49.6582 23.5418 50.4454 24.0198 51.2451C24.5017 52.005 24.7722 52.8839 24.8024 53.7883C24.8326 54.6927 24.6214 55.5886 24.1914 56.3802C23.5909 57.6296 22.9659 58.7914 22.4021 60.0034C21.9413 60.8903 21.6267 61.8485 21.4707 62.8396C21.4707 63.2894 21.4707 63.7516 21.385 64.2389C20.7109 63.9765 20.0247 63.7018 19.3506 63.4019C19.2771 63.4019 19.2281 63.2269 19.2281 63.1394C19.2553 62.2743 19.4555 61.424 19.8163 60.6406C20.233 59.716 20.7109 58.829 21.1399 57.9294C21.5688 57.0299 21.9364 56.3301 22.2796 55.518C22.5436 54.8978 22.6705 54.226 22.6515 53.5502C22.6324 52.8744 22.4678 52.211 22.1693 51.6073C21.7894 50.7827 21.3114 50.0081 20.858 49.221C20.4046 48.4339 19.8163 47.5468 19.3751 46.7222C18.9345 45.9288 18.7408 45.0177 18.8196 44.1095C18.8984 43.2014 19.246 42.3391 19.8163 41.6369C20.3923 40.8373 21.0418 40.0626 21.581 39.263C22.1628 38.5307 22.581 37.678 22.8065 36.7642C22.9956 35.6925 22.9241 34.5901 22.5982 33.5532C22.3041 32.5412 21.9242 31.5541 21.581 30.5546C21.1543 29.449 20.906 28.2802 20.8457 27.0936C20.7712 24.6959 21.5163 22.3462 22.9536 20.4468L23.7257 19.3848C23.1723 19.6543 22.6735 20.0273 22.2551 20.4843C21.2512 21.513 20.4791 22.7521 19.9923 24.1157C19.5056 25.4794 19.3159 26.9347 19.4364 28.3806C19.568 29.6894 19.8816 30.9726 20.3678 32.1914C20.7192 33.0807 20.974 34.0066 21.1276 34.9526C21.2993 35.9127 21.1206 36.9037 20.6251 37.7387C20.0369 38.6383 19.3996 39.5004 18.7869 40.375C18.4438 40.8623 18.0884 41.3496 17.782 41.8494C17.3158 42.5459 17.0405 43.3566 16.9845 44.1978C16.9284 45.0391 17.0938 45.8803 17.4634 46.6346C17.8678 47.5342 18.3825 48.3838 18.8604 49.2584C19.2158 49.8956 19.608 50.5078 19.9756 51.1825C20.3737 51.8513 20.5943 52.6142 20.6158 53.3962C20.6373 54.1782 20.4589 54.9524 20.0982 55.6429C19.5957 56.6799 19.081 57.7169 18.5663 58.7539C18.0889 59.6645 17.7305 60.6348 17.5001 61.6402C17.4389 61.9026 17.4143 62.1775 17.3653 62.4899C16.7648 62.1525 16.1398 61.8276 15.6129 61.4777C15.6129 61.4777 15.5393 61.2653 15.6129 61.1654C15.7634 60.3418 16.0626 59.5538 16.4952 58.8415C17.0099 57.9419 17.5491 57.0548 18.0516 56.1552C18.5316 55.3445 18.7858 54.4158 18.7869 53.4689C18.7402 52.61 18.446 51.7844 17.9413 51.0951L18.0148 51.4699C18.0217 51.6031 18.0217 51.7366 18.0148 51.8698C18.0957 52.9565 17.8151 54.0392 17.2183 54.9433C16.679 55.8179 16.0785 56.6425 15.5026 57.4421C14.9806 58.1306 14.5672 58.8977 14.2771 59.716C14.2771 59.9534 14.1668 60.1908 14.081 60.4907L11.7403 58.7291C12.1219 58.0235 12.6337 57.3997 13.2476 56.8923L12.402 55.7928C11.7034 56.4207 11.1544 57.2027 10.7966 58.0794ZM36.5321 13.0251V12.9378C36.0787 11.6883 35.6375 10.5263 35.1718 9.32691C35.1718 9.17697 35.1718 9.11453 35.2821 9.03956L38.1008 6.47819L38.3214 6.25338L34.2527 5.96588C34.18 5.96717 34.1088 5.94495 34.0493 5.90228C33.9898 5.85962 33.9452 5.79878 33.9218 5.72857C33.6645 5.09136 33.3949 4.47911 33.1252 3.81691L32.2796 1.85539L32.1448 2.16774L30.6375 5.71606C30.6153 5.7929 30.5678 5.8597 30.5032 5.90518C30.4385 5.95066 30.3604 5.97201 30.2821 5.96588C29.1791 5.96588 28.0884 6.11588 26.9855 6.19085L26.2992 6.25338V6.34077C26.3773 6.38344 26.4511 6.43364 26.5198 6.49069L29.3017 8.98954C29.3368 9.01123 29.3672 9.03995 29.3913 9.07388C29.4153 9.1078 29.4324 9.14626 29.4415 9.18705C29.4506 9.22783 29.4517 9.27 29.4445 9.3112C29.4373 9.35239 29.4221 9.39172 29.3997 9.4268C29.2159 9.88909 29.0566 10.3514 28.885 10.8136C28.6032 11.5383 28.3335 12.2755 28.0517 13.0251C27.0729 12.0226 25.9114 11.2247 24.6325 10.6762C23.3523 10.1108 21.9907 9.76067 20.6006 9.63926C21.7282 11.3366 22.6344 13.1762 23.2967 15.1117C21.5476 13.751 19.4393 12.9548 17.2428 12.8253C17.2699 12.8932 17.3071 12.9563 17.3531 13.0126C18.7267 14.8055 19.8983 16.7502 20.8457 18.81C21.0173 19.1848 21.1766 19.2348 21.5688 19.0349C24.3517 17.6329 27.3713 16.7848 30.4659 16.5361C32.746 16.3561 35.0397 16.5032 37.2797 16.9734C39.308 17.3919 41.2734 18.0808 43.1253 19.0224C43.5175 19.2098 43.6645 19.1598 43.8361 18.7725C44.746 16.7869 45.868 14.9098 47.1817 13.1751L47.4636 12.8003C45.2416 12.915 43.1056 13.712 41.3361 15.0867C41.9907 13.1439 42.8974 11.2992 44.0322 9.60174C41.2278 9.81583 38.5862 11.0275 36.5689 13.0251H36.5321ZM31.0174 26.2441C30.83 26.164 30.6496 26.0677 30.4782 25.9566C30.3052 25.8233 30.1006 25.7392 29.8853 25.7129C29.67 25.6866 29.4517 25.7189 29.2527 25.8067C28.89 25.9944 28.489 26.0922 28.0823 26.0922C27.6756 26.0922 27.2746 25.9944 26.912 25.8067C26.8101 25.7419 26.6935 25.7051 26.5735 25.6996C26.4535 25.6942 26.3342 25.7202 26.227 25.7754C26.1198 25.8307 26.0284 25.9133 25.9617 26.015C25.8949 26.1168 25.855 26.2344 25.8458 26.3565C25.7355 26.9468 25.7355 27.5529 25.8458 28.1431C26.2403 30.629 27.5565 32.8655 29.5223 34.3902C30.1854 34.9391 30.9895 35.2818 31.8385 35.3773C32.8485 35.4571 33.8531 35.1644 34.6694 34.5527C36.3493 33.3214 37.5921 31.5677 38.2111 29.555C38.5388 28.6534 38.6685 27.6896 38.591 26.7314C38.5902 26.5613 38.5524 26.3934 38.4804 26.24C38.4083 26.0866 38.3038 25.9514 38.1743 25.8442C38.015 25.7318 37.8557 25.6194 37.6596 25.7693C37.3416 25.9855 36.9766 26.1191 36.5963 26.1583C36.2161 26.1975 35.8322 26.1411 35.4782 25.9941C35.3378 25.9367 35.1947 25.8867 35.0493 25.8442C34.9831 25.8121 34.911 25.7948 34.8377 25.7934C34.7645 25.7921 34.6918 25.8067 34.6245 25.8363C34.5572 25.8659 34.4969 25.9096 34.4475 25.9649C34.3982 26.0201 34.361 26.0855 34.3385 26.1566C34.2403 26.3713 34.1299 26.5799 34.0076 26.7813C33.8717 26.9464 33.7198 27.0971 33.5542 27.2311C33.5542 27.0561 33.4561 26.9688 33.4316 26.8813C33.1642 25.9447 33.0974 24.9604 33.2355 23.9951C33.2719 23.6381 33.4062 23.2988 33.6229 23.0159C33.8397 22.7331 34.1301 22.5182 34.461 22.3958L34.7552 22.2584C35.8432 21.8523 37.0372 21.8523 38.1253 22.2584C38.2311 22.2707 38.338 22.2707 38.4439 22.2584C38.4622 22.1467 38.4622 22.0327 38.4439 21.921C38.1425 21.027 37.5986 20.2386 36.8753 19.6471C35.6623 18.6551 34.1649 18.0936 32.6105 18.0478C30.9179 17.9357 29.2401 18.4307 27.8678 19.4472C27.009 20.0585 26.3647 20.9342 26.0296 21.946C26.0232 22.0417 26.0232 22.1377 26.0296 22.2334C26.1226 22.2522 26.2184 22.2522 26.3115 22.2334C26.961 21.9694 27.6606 21.8584 28.358 21.9085C29.2782 21.9412 30.1528 22.3247 30.809 22.9832C30.92 23.0892 30.9933 23.2298 31.0174 23.3829C31.0973 23.9921 31.1464 24.6051 31.1644 25.2195C31.1547 25.5635 31.1178 25.9062 31.0541 26.2441H31.0174ZM18.2722 21.034C16.9986 20.532 15.6258 20.3472 14.2681 20.495C12.9103 20.6428 11.6067 21.1188 10.4658 21.8837C10.4658 21.7337 10.4658 21.6087 10.3922 21.4838C9.97576 19.4443 8.8589 17.6233 7.2427 16.3486C7.08338 16.2362 6.92406 16.0613 6.70347 16.1612C6.48288 16.2612 6.53191 16.5111 6.51966 16.7235C6.55036 17.302 6.55036 17.8816 6.51966 18.4601C6.3405 20.2715 5.80268 22.0269 4.93876 23.6202C3.80012 25.6942 2.4083 27.6129 0.796567 29.3302C0.705526 29.4209 0.619605 29.5168 0.539213 29.6175C0.870098 29.6175 1.12746 29.7299 1.39707 29.7549C2.29922 29.8058 3.19981 29.6298 4.01964 29.2426C5.07357 28.7928 6.10298 28.2931 7.15691 27.8558C8.56666 27.2076 10.1568 27.0924 11.6422 27.5309C11.7285 27.5748 11.8282 27.5823 11.9199 27.552C12.0116 27.5216 12.0879 27.4557 12.1324 27.3685C13.42 25.4675 14.9581 23.7565 16.7036 22.2834C17.1937 21.8086 17.7085 21.4088 18.2722 21.034ZM46.2994 21.034L46.4587 21.1839C48.7973 22.8952 50.8253 25.0092 52.4514 27.431C52.483 27.4949 52.5378 27.5437 52.6042 27.5671C52.6705 27.5904 52.7432 27.5864 52.8068 27.5559C53.9197 27.1668 55.1246 27.1451 56.2504 27.4935C57.2431 27.8059 58.2112 28.2181 59.1794 28.6304C60.1598 29.137 61.2027 29.5068 62.2799 29.7299C62.8552 29.8231 63.4442 29.7716 63.9956 29.58L63.775 29.3427C62.4654 27.9366 61.2916 26.4052 60.27 24.7697C58.6752 22.3546 57.8807 19.4824 58.0029 16.5736C58.0092 16.5007 57.998 16.4273 57.9703 16.3598C57.9425 16.2923 57.899 16.2327 57.8436 16.1862C57.7739 16.1707 57.7018 16.1705 57.6321 16.1856C57.5624 16.2007 57.4966 16.2306 57.4391 16.2736C55.7842 17.5055 54.6324 19.3159 54.2038 21.3588C54.2038 21.5213 54.1303 21.6962 54.0813 21.8837C52.9409 21.1285 51.642 20.658 50.2899 20.5104C48.9379 20.3628 47.5707 20.5422 46.2994 21.034ZM26.4585 24.5698C27.5982 23.7577 28.7257 24.1325 29.8777 24.3949C29.8195 24.1955 29.7328 24.0061 29.6203 23.8327C29.2231 23.4422 28.7309 23.1669 28.1945 23.0352C27.6581 22.9034 27.0969 22.9199 26.5688 23.083C26.4719 23.107 26.3816 23.1534 26.3051 23.2186C26.2285 23.2839 26.1678 23.3661 26.1275 23.4592C26.0872 23.5522 26.0684 23.6534 26.0727 23.755C26.077 23.8567 26.1042 23.956 26.1521 24.0451C26.2432 24.2066 26.3456 24.361 26.4585 24.5074V24.5698ZM38.0763 24.5698C38.2222 24.4633 38.3339 24.3151 38.3972 24.1438C38.4605 23.9725 38.4724 23.7861 38.4316 23.6079C38.3336 23.2455 38.0272 23.133 37.7086 23.0705C37.5211 23.0521 37.3324 23.0521 37.1449 23.0705C36.7744 23.0447 36.4027 23.0944 36.0513 23.2167C35.6999 23.3389 35.3759 23.5313 35.0983 23.7826C35.0042 23.865 34.9452 23.9815 34.9338 24.1074C34.9224 24.2333 34.9594 24.3588 35.037 24.4574C36.0664 24.0576 37.0836 23.6953 38.0763 24.4824V24.5698Z" fill="#545454"/>
<path d="M35.5272 14.1621C34.5468 14.1621 33.5664 14.0122 32.586 13.9622C31.4335 13.935 30.2809 14.0146 29.1424 14.1997C29.0612 14.2128 28.9785 14.2128 28.8973 14.1997C28.9275 14.1202 28.9734 14.0479 29.0321 13.9872L32.1448 11.5509C32.186 11.5104 32.2409 11.4878 32.298 11.4878C32.3552 11.4878 32.4101 11.5104 32.4512 11.5509L35.564 13.9872C35.564 13.9872 35.6498 14.1372 35.6988 14.1997L35.5395 14.2745L35.5272 14.1621Z" fill="#545454"/>
<path d="M34.8164 30.917C34.4855 31.2793 34.1792 31.6416 33.836 31.9915C33.5366 32.3356 33.1352 32.5705 32.6928 32.6607C32.2504 32.7509 31.7912 32.6915 31.385 32.4913C31.0521 32.3076 30.7467 32.0761 30.4782 31.804C30.1963 31.5292 29.9389 31.2168 29.6693 30.9045C29.6693 30.7171 29.8777 30.7171 30.037 30.7546C31.0001 30.921 31.9785 30.9755 32.9537 30.917C33.4194 30.917 33.885 30.817 34.3507 30.7546C34.5591 30.7421 34.7429 30.6796 34.8164 30.917Z" fill="#545454"/>
<path d="M32.2796 29.6299L31.3115 29.3176C31.1522 29.3176 30.9929 29.2301 30.8458 29.1677C30.7705 29.1232 30.7138 29.052 30.6865 28.9677C30.6865 28.9677 30.6865 28.8428 30.7968 28.8053C30.945 28.6949 31.1144 28.6179 31.294 28.5791C31.4735 28.5403 31.6591 28.5408 31.8385 28.5805C32.1246 28.6491 32.4224 28.6491 32.7086 28.5805C32.8894 28.5337 33.0784 28.5296 33.2611 28.5686C33.4437 28.6076 33.6152 28.6885 33.7625 28.8053C33.9096 28.9052 33.9096 29.0677 33.7625 29.1301C33.2478 29.3176 32.7821 29.4675 32.2796 29.6299Z" fill="#545454"/>
<path d="M4.04506 75.9333C2.81956 75.6584 2.66025 75.4585 2.66025 75.3211C2.66025 74.8338 3.273 74.6215 3.88575 74.6215C4.20088 74.6001 4.51338 74.6922 4.76871 74.8817C5.02404 75.0712 5.20599 75.3461 5.28282 75.6584L5.38086 76.0583L6.98626 75.671L6.88822 75.2712C6.7159 74.6006 6.32458 74.0099 5.77876 73.5966C5.23294 73.1832 4.56523 72.9717 3.88575 72.9972C2.15779 72.9972 0.981311 73.9342 0.981311 75.3211C0.981311 76.7079 2.03524 77.1703 3.71418 77.5701C5.39311 77.9699 5.40536 78.1699 5.40536 78.3823C5.40536 78.8695 4.78036 79.2069 3.88575 79.2069C2.99113 79.2069 2.17005 78.7196 2.17005 77.9575V77.5451H0.515625V77.9575C0.515625 79.6442 1.91269 80.8186 3.88575 80.8186C5.8588 80.8186 7.10881 79.8315 7.10881 78.3197C7.10881 76.8079 5.92007 76.3831 4.04506 75.9333Z" fill="#545454"/>
<path d="M13.237 73.1104H7.33008V74.7221H9.42568V80.7318H11.1291V74.7221H13.237V73.1104Z" fill="#545454"/>
<path d="M15.6881 73.0967L12.5508 80.7306H14.389L15.1733 78.7564H17.6243L18.4087 80.7306H20.2347L17.0974 73.0967H15.6881ZM15.8106 77.1323L16.4111 75.6329L17.0116 77.1323H15.8106Z" fill="#545454"/>
<path d="M26.5329 75.284C26.5282 74.9711 26.4591 74.6626 26.3301 74.3786C26.2011 74.0947 26.0151 73.8414 25.7841 73.6353C25.5531 73.4292 25.2822 73.275 24.989 73.1823C24.6958 73.0897 24.3868 73.0608 24.0819 73.0975H20.7363V80.7315H22.4398V77.4705H23.2118L25.2339 80.7315H27.2437L25.1236 77.3081C25.535 77.1607 25.8915 76.8869 26.1439 76.5244C26.3963 76.1619 26.5322 75.7285 26.5329 75.284ZM22.4888 74.7217H24.131C24.4741 74.7217 24.8295 74.8717 24.8295 75.284C24.8295 75.6963 24.4741 75.8587 24.131 75.8587H22.4888V74.7217Z" fill="#545454"/>
<path d="M33.31 76.4452C33.5986 76.0949 33.7588 75.6533 33.7634 75.1958C33.7523 74.888 33.6783 74.586 33.5462 74.3091C33.414 74.0322 33.2265 73.7865 32.9957 73.5877C32.765 73.3889 32.4961 73.2415 32.2062 73.1548C31.9163 73.0682 31.6119 73.0441 31.3124 73.0844H27.9668V80.7183H31.7536C32.0683 80.7388 32.3838 80.6932 32.6805 80.5844C32.9772 80.4756 33.2489 80.3059 33.4786 80.0857C33.7084 79.8655 33.8914 79.5995 34.0163 79.3043C34.1411 79.0091 34.2052 78.6909 34.2046 78.3694C34.2137 77.9997 34.1375 77.6329 33.9821 77.2987C33.8267 76.9645 33.5965 76.6721 33.31 76.4452ZM31.3492 75.858H29.707V74.7586H31.3492C31.5207 74.7586 32.06 74.7585 32.06 75.3207C32.06 75.883 31.5207 75.858 31.3492 75.858ZM29.707 77.4699H31.8026C31.9113 77.462 32.0204 77.4784 32.1222 77.5181C32.224 77.5577 32.3161 77.6196 32.392 77.6994C32.4679 77.7791 32.5257 77.8748 32.5615 77.9797C32.5973 78.0847 32.6102 78.1963 32.5992 78.3069C32.6069 78.4161 32.5911 78.5258 32.5528 78.6281C32.5145 78.7304 32.4548 78.8229 32.3777 78.8991C32.3006 78.9753 32.208 79.0333 32.1066 79.0692C32.0051 79.105 31.8972 79.1177 31.7903 79.1065H29.707V77.4699Z" fill="#545454"/>
<path d="M39.6093 77.7695C39.6276 77.9596 39.605 78.1514 39.543 78.3317C39.481 78.5119 39.3812 78.6762 39.2505 78.813C39.1198 78.9499 38.9613 79.0559 38.7862 79.1239C38.6111 79.1918 38.4236 79.22 38.2367 79.2064C38.0484 79.2217 37.859 79.1948 37.6819 79.1278C37.5048 79.0608 37.3441 78.9553 37.2111 78.8185C37.0781 78.6817 36.9759 78.517 36.9118 78.3358C36.8476 78.1546 36.823 77.9614 36.8396 77.7695V73.0967H35.1362V77.7695C35.1234 78.1836 35.1957 78.5958 35.3483 78.9797C35.5009 79.3637 35.7305 79.711 36.0224 79.9992C36.3143 80.2874 36.6621 80.5101 37.0434 80.6533C37.4247 80.7965 37.8312 80.8568 38.2367 80.8305C38.6407 80.8552 39.0453 80.7934 39.4245 80.6493C39.8038 80.5052 40.1493 80.2819 40.4389 79.9937C40.7285 79.7054 40.9558 79.3588 41.1063 78.9758C41.2568 78.5927 41.3271 78.1819 41.3127 77.7695V73.0967H39.6093V77.7695Z" fill="#545454"/>
<path d="M47.9551 77.5572C47.8643 78.0224 47.618 78.4412 47.2582 78.7419C46.8984 79.0427 46.4474 79.2069 45.9821 79.2065C45.6951 79.2105 45.4107 79.1518 45.1479 79.0343C44.8851 78.9169 44.65 78.7433 44.4585 78.5255C44.2669 78.3077 44.1233 78.0507 44.0373 77.7716C43.9513 77.4925 43.925 77.1978 43.96 76.9075C43.9248 76.6177 43.9511 76.3236 44.0372 76.0451C44.1233 75.7666 44.2671 75.5104 44.4588 75.2935C44.6506 75.0767 44.8859 74.9044 45.1487 74.7884C45.4115 74.6724 45.6957 74.6153 45.9821 74.6211C46.4285 74.6156 46.8642 74.7609 47.2211 75.0344C47.578 75.3079 47.8361 75.6941 47.9551 76.1328L48.0409 76.4327H49.7321L49.6095 75.9205C49.4258 75.0898 48.9701 74.3476 48.3174 73.8162C47.6648 73.2848 46.8541 72.9958 46.0188 72.9968C45.5183 72.9814 45.0201 73.0734 44.5566 73.2667C44.0931 73.46 43.6745 73.7504 43.328 74.119C42.9814 74.4876 42.7147 74.9262 42.5449 75.4065C42.3751 75.8869 42.3061 76.3982 42.3423 76.9075C42.3043 77.4177 42.3719 77.9304 42.5409 78.4122C42.7099 78.894 42.9764 79.3343 43.3231 79.7043C43.6698 80.0743 44.089 80.3657 44.5535 80.5598C45.0179 80.7538 45.5171 80.8461 46.0188 80.8307C46.8929 80.8441 47.7431 80.5397 48.4169 79.9718C49.0906 79.404 49.5439 78.6099 49.6953 77.7321L49.7934 77.2323H48.1022L47.9551 77.5572Z" fill="#545454"/>
<path d="M55.0989 73.1104L52.3538 76.109V73.1104H50.6504V80.7318H52.3538V78.5703L53.1382 77.7207L55.2828 80.7318H57.3171L54.2779 76.4838L57.4151 73.1104H55.0989Z" fill="#545454"/>
<path d="M61.0548 75.9329C59.8293 75.6581 59.67 75.4582 59.67 75.3207C59.67 74.8335 60.2705 74.6211 60.8955 74.6211C61.2102 74.6022 61.5215 74.6952 61.7763 74.8844C62.0311 75.0735 62.2136 75.347 62.2926 75.6581L62.3906 76.058L63.996 75.6706L63.898 75.2709C63.7237 74.6014 63.3318 74.012 62.7865 73.599C62.2411 73.1859 61.5745 72.9736 60.8955 72.9968C59.1553 72.9968 57.9911 73.9339 57.9911 75.3207C57.9911 76.7076 59.0327 77.1699 60.7239 77.5698C62.2068 77.9071 62.4151 78.1695 62.4151 78.3819C62.4151 78.8692 61.7901 79.2066 60.8955 79.2066C60.0009 79.2066 59.1798 78.7193 59.1798 77.9572V77.5447H57.5254V77.9572C57.5254 79.6439 58.9102 80.8182 60.8955 80.8182C62.8808 80.8182 64.1186 79.8312 64.1186 78.3194C64.1186 76.8076 62.9298 76.3827 61.0548 75.9329Z" fill="#545454"/>
</svg>
