<svg width="51" height="50" viewBox="0 0 51 50" fill="none" xmlns="http://www.w3.org/2000/svg">
<path d="M0.5 6.8C0.5 3.04446 3.54446 0 7.3 0H43.7C47.4555 0 50.5 3.04446 50.5 6.8V43.2C50.5 46.9555 47.4555 50 43.7 50H7.3C3.54446 50 0.5 46.9555 0.5 43.2V6.8Z" fill="#06FFF2"/>
<path d="M13.7273 23.0206C11.7991 21.062 12.3578 18.5626 13.7758 17.2906C14.4989 16.6304 15.4472 16.2736 16.425 16.2939C17.4028 16.3141 18.3355 16.7099 19.0308 17.3995C20.4159 18.761 20.8038 21.1301 18.9784 22.9973C19.3721 23.178 19.7561 23.3793 20.1288 23.6002C20.4888 23.8638 20.8352 24.1455 21.1666 24.4444L22.2548 24.0709C20.9299 22.9253 20.2277 21.5113 20.3635 19.7608C20.4107 19.1249 20.5842 18.5048 20.8737 17.937C21.1631 17.3692 21.5628 16.8651 22.0492 16.4542C23 15.597 24.2484 15.1484 25.5258 15.2047C26.8031 15.2611 28.0074 15.8181 28.8794 16.7557C30.7397 18.7319 30.8522 21.9392 28.3614 24.0768L29.438 24.4658C29.7698 24.1653 30.1169 23.8823 30.4778 23.6178C30.8548 23.3955 31.2433 23.1936 31.6417 23.0129C30.7513 22.1318 30.2838 21.0503 30.4235 19.7647C30.5059 19.0473 30.7864 18.3673 31.2334 17.8011C31.6804 17.235 32.2762 16.8052 32.9536 16.5602C33.6311 16.3152 34.3633 16.2647 35.0678 16.4143C35.7723 16.564 36.4212 16.9079 36.9413 17.4073C38.2837 18.7027 38.7629 21.1242 36.8696 23.0479C37.6487 23.2959 38.3499 23.743 38.9045 24.3452C39.6679 25.1691 40.0938 26.251 40.0975 27.3755C40.0975 28.0174 40.0975 28.6612 40.0975 29.3031C40.1088 29.4382 40.0775 29.5735 40.0078 29.6897C39.9382 29.806 39.8338 29.8973 39.7095 29.9508C38.5881 30.5217 37.3875 30.9203 36.1479 31.1333C35.8453 31.1839 35.5524 31.1975 35.3565 30.8941C35.0985 30.4954 35.3565 30.0966 35.8803 29.9585C36.7939 29.7193 37.6921 29.4237 38.596 29.1591C38.6496 29.1492 38.7006 29.1285 38.7461 29.0984C38.7915 29.0682 38.8304 29.0292 38.8605 28.9836C38.8905 28.9381 38.9111 28.8869 38.921 28.8332C38.9309 28.7794 38.9299 28.7243 38.918 28.6709C38.8812 28.0544 38.9336 27.4281 38.8404 26.8232C38.7233 26.0644 38.3422 25.3716 37.7645 24.8676C37.1869 24.3635 36.45 24.0806 35.6843 24.069C34.6019 24.0476 33.5175 24.0476 32.437 24.1118C31.7261 24.1746 31.0655 24.5055 30.5884 25.0376C30.9201 25.4013 31.2479 25.7359 31.5467 26.0957C32.4673 27.2107 32.9459 28.6268 32.891 30.0733C32.891 30.8027 32.891 31.5321 32.9007 32.2614C32.9233 32.4214 32.8926 32.5845 32.8133 32.7251C32.734 32.8658 32.6106 32.9763 32.4623 33.0395C27.6773 35.4124 22.8963 35.402 18.1191 33.0083C18.0179 32.95 17.9307 32.8702 17.8637 32.7744C17.7966 32.6786 17.7514 32.5692 17.7311 32.454C17.702 31.4562 17.704 30.4526 17.7563 29.4548C17.8475 27.747 18.6021 26.3602 19.9057 25.2691C19.9445 25.236 19.9833 25.2049 20.0182 25.1718C20.0379 25.1468 20.0554 25.1201 20.0706 25.0921C19.7877 24.7818 19.4454 24.5317 19.0642 24.3566C18.683 24.1815 18.2705 24.085 17.8514 24.0729C16.8543 24.0418 15.8553 24.0398 14.8582 24.0729C14.0254 24.1125 13.2381 24.4652 12.6528 25.0606C12.0676 25.656 11.7275 26.4506 11.7002 27.2861C11.6885 27.7684 11.7002 28.2586 11.6905 28.7332C11.6737 28.8182 11.6906 28.9064 11.7377 28.979C11.7848 29.0517 11.8584 29.103 11.9426 29.1222C12.8835 29.4023 13.8223 29.6901 14.7651 29.9605C15.0464 30.0402 15.3199 30.1433 15.318 30.4604C15.3026 30.6823 15.2107 30.8921 15.058 31.0536C14.9131 31.143 14.7389 31.1716 14.5731 31.1333C13.2676 30.9407 12.0053 30.5222 10.8428 29.8963C10.7605 29.8484 10.6897 29.783 10.6354 29.7047C10.5811 29.6264 10.5446 29.5371 10.5285 29.4431C10.511 28.5678 10.4567 27.679 10.5692 26.8154C10.802 25.024 11.8243 23.8025 13.5003 23.1354C13.5566 23.112 13.6148 23.0907 13.671 23.0654C13.6912 23.0524 13.7101 23.0374 13.7273 23.0206ZM31.7038 30.5673H31.6805C31.6805 30.295 31.6805 30.0247 31.6805 29.7524C31.6741 28.5429 31.1961 27.3838 30.3485 26.5232C29.501 25.6625 28.3513 25.1684 27.1452 25.1465C25.9153 25.1297 24.6867 25.1297 23.4595 25.1465C21.3256 25.1738 19.3858 26.7395 19.0386 28.8538C18.8717 29.8535 18.9396 30.8941 18.9261 31.9172C18.9261 32.0125 19.0851 32.1486 19.1976 32.2031C21.1132 33.122 23.2103 33.5972 25.3338 33.5935C27.4573 33.5898 29.5528 33.1073 31.4652 32.1817C31.5305 32.1382 31.5854 32.0808 31.626 32.0135C31.6666 31.9463 31.6918 31.8709 31.6999 31.7927C31.7232 31.3842 31.7038 30.9816 31.7038 30.5673ZM25.3023 16.3687C24.5552 16.3675 23.8246 16.5887 23.2029 17.0041C22.5812 17.4196 22.0965 18.0107 21.81 18.7025C21.5236 19.3944 21.4484 20.1559 21.5938 20.8907C21.7393 21.6254 22.0989 22.3004 22.6272 22.8301C23.1555 23.3598 23.8287 23.7204 24.5615 23.8662C25.2943 24.0121 26.0538 23.9366 26.7438 23.6494C27.4338 23.3622 28.0233 22.8762 28.4377 22.2529C28.852 21.6295 29.0726 20.8969 29.0714 20.1478C29.0559 19.1521 28.6544 18.2016 27.9519 17.4976C27.2494 16.7936 26.3012 16.3915 25.3081 16.3764L25.3023 16.3687ZM16.3306 22.8261C16.86 22.8273 17.3779 22.6706 17.8184 22.3761C18.2588 22.0815 18.6021 21.6624 18.8045 21.1718C19.0069 20.6813 19.0594 20.1415 18.9553 19.621C18.8511 19.1005 18.595 18.6228 18.2196 18.2485C17.8441 17.8742 17.3662 17.6202 16.8464 17.5188C16.3267 17.4175 15.7887 17.4732 15.3006 17.679C14.8126 17.8849 14.3966 18.2315 14.1054 18.6749C13.8142 19.1182 13.661 19.6384 13.6652 20.1692C13.6713 20.8764 13.9552 21.5527 14.4552 22.0515C14.9552 22.5503 15.6311 22.8314 16.3364 22.8339L16.3306 22.8261ZM34.2256 22.8261C34.7549 22.8308 35.2737 22.6776 35.7161 22.386C36.1584 22.0945 36.5044 21.6777 36.7101 21.1886C36.9158 20.6995 36.9719 20.1602 36.8713 19.6391C36.7708 19.1179 36.518 18.6385 36.1452 18.2617C35.7724 17.8849 35.2963 17.6276 34.7774 17.5226C34.2585 17.4176 33.7202 17.4695 33.2307 17.6718C32.7413 17.8741 32.3229 18.2177 32.0286 18.6589C31.7343 19.1001 31.5773 19.619 31.5777 20.1498C31.5777 20.8576 31.8565 21.5368 32.3535 22.0395C32.8505 22.5422 33.5255 22.8278 34.2314 22.8339L34.2256 22.8261Z" fill="black"/>
</svg>
