<svg width="29" height="28" viewBox="0 0 29 28" fill="none" xmlns="http://www.w3.org/2000/svg">
<path d="M27.983 28C27.9891 27.8858 27.9975 27.8114 27.9975 27.7362C27.9975 24.1136 28.0136 20.4917 27.9914 16.869C27.9768 14.4792 26.9362 12.5847 24.9951 11.2276C22.9007 9.7632 20.3037 9.46879 17.9886 11.0582C17.3702 11.4829 16.8392 12.038 16.2675 12.5379V10.4141H10.4228V27.9931H16.2583V27.5246C16.2583 24.3612 16.2583 21.1981 16.2583 18.0352C16.2583 17.7806 16.266 17.5245 16.2905 17.2685C16.4545 15.5687 18.3427 14.3159 19.9688 14.825C21.3283 15.2513 22.1206 16.3584 22.1222 17.8581C22.1268 21.0848 22.1268 24.3116 22.1222 27.5384V27.9985L27.983 28ZM6.44332 28V10.4195H0.625449V27.9992L6.44332 28ZM7.04335 3.5368C7.04559 2.60182 6.67666 1.70422 6.01766 1.04129C5.35866 0.378366 4.46353 0.00437781 3.52902 0.0015349C1.59637 0.0015349 -0.0075271 1.61161 0.00396765 3.53757C0.00396765 4.47132 0.37471 5.36682 1.03464 6.02708C1.69456 6.68734 2.58961 7.05827 3.52289 7.05827C4.45617 7.05827 5.35122 6.68734 6.01115 6.02708C6.67107 5.36682 7.04182 4.47132 7.04182 3.53757L7.04335 3.5368Z" fill="black"/>
<path d="M27.983 28H22.126V27.54C22.126 24.3137 22.126 21.0869 22.126 17.8596C22.126 16.3591 21.3321 15.2528 19.9726 14.8265C18.348 14.3174 16.4598 15.5702 16.2943 17.27C16.2698 17.5238 16.2621 17.7798 16.2621 18.0367C16.2621 21.1996 16.2621 24.3628 16.2621 27.5262V27.9946H10.4228L10.4228 10.4141H16.2683V12.5394C16.843 12.0395 17.371 11.4844 17.9894 11.0597C20.3045 9.47032 22.9015 9.76474 24.9958 11.2291C26.9369 12.5862 27.9776 14.4807 27.9921 16.8705C28.0144 20.4932 27.9983 24.1151 27.9983 27.7378C27.9983 27.8114 27.9898 27.8858 27.983 28Z" fill="white"/>
<path d="M6.44409 27.9992H0.625449V10.4195H6.44332L6.44409 27.9992Z" fill="white"/>
<path d="M7.04412 3.53603C7.04412 4.46978 6.67337 5.36529 6.01345 6.02554C5.35352 6.6858 4.45847 7.05674 3.52519 7.05674C2.59191 7.05674 1.69686 6.6858 1.03693 6.02554C0.377005 5.36529 0.00626286 4.46978 0.00626286 3.53603C-0.00676452 1.61008 1.59714 0.000766703 3.53132 0C4.46569 0.00324845 5.36055 0.377523 6.01924 1.04057C6.67793 1.70362 7.04656 2.60119 7.04412 3.53603Z" fill="white"/>
</svg>
