<svg width="91" height="19" viewBox="0 0 91 19" fill="none" xmlns="http://www.w3.org/2000/svg">
<path d="M90.9946 6.53424C90.9946 6.36912 90.96 6.31726 90.7899 6.31726C89.4392 6.32545 88.0898 6.31726 86.7391 6.31726C86.6719 6.32915 86.6027 6.31963 86.541 6.28997L86.6952 6.13985C87.6568 5.20368 88.6184 4.26796 89.5801 3.33269C89.6771 3.23716 89.6824 3.1894 89.5801 3.08978C89.066 2.56028 88.5564 2.02532 88.0512 1.48491C87.9542 1.38119 87.905 1.3771 87.8039 1.48491C86.8875 2.45748 85.9667 3.4264 85.0414 4.39169C85.0002 4.43536 84.9696 4.50223 84.8885 4.51042V4.29616C84.8885 2.92465 84.8885 1.55451 84.8885 0.182997C84.8885 0.036976 84.8526 -0.00259938 84.7103 0.00012999C83.9508 0.00649852 83.1913 0.00649852 82.4317 0.00012999C82.2828 0.00012999 82.2429 0.034245 82.2442 0.189819C82.2442 1.56815 82.2442 2.94512 82.2442 4.32209C82.2442 4.38623 82.2682 4.45856 82.2615 4.47084C81.8933 4.11466 81.5117 3.77485 81.1554 3.40775C80.5333 2.77044 79.927 2.11676 79.3115 1.47126C79.2663 1.4235 79.2317 1.32251 79.132 1.42759C78.5723 2.02396 78.0073 2.61487 77.4383 3.21396L80.629 6.33364H80.496C79.1041 6.33364 77.7122 6.33364 76.3189 6.33364C76.1794 6.33364 76.1381 6.36776 76.1395 6.51514C76.1475 7.25071 76.1488 7.98627 76.1395 8.72047C76.1395 8.88287 76.1873 8.9088 76.3309 8.90743C77.7002 8.90743 79.0682 8.90743 80.4362 8.90743H80.617C80.5931 8.96964 80.5514 9.02294 80.4974 9.06028C79.5225 10.0347 78.5475 11.0072 77.5726 11.978C77.4769 12.0735 77.4583 12.1226 77.5726 12.2291C78.0725 12.7299 78.5684 13.2349 79.0549 13.7493C79.1879 13.8858 79.2464 13.8858 79.3806 13.7493C80.7367 12.3423 82.1007 10.9463 83.458 9.54202C83.5551 9.44103 83.6109 9.42602 83.704 9.54202C83.797 9.65801 83.922 9.77128 84.0337 9.88455C85.2957 11.1865 86.5569 12.4879 87.8172 13.7889C87.9063 13.8804 87.9502 13.9049 88.0525 13.7971C88.5591 13.2608 89.0749 12.7313 89.5934 12.2059C89.6891 12.1103 89.6771 12.0599 89.5867 11.9766C89.4338 11.8401 89.2903 11.6873 89.1427 11.5413L86.4918 8.90061H86.7311C88.0938 8.90061 89.4551 8.90061 90.8178 8.90061C90.9507 8.90061 91.0026 8.87059 90.9999 8.72047C90.9884 7.99264 90.9866 7.2639 90.9946 6.53424Z" fill="white"/>
<path d="M73.2799 7.49771C72.2628 6.72393 71.1022 6.40596 69.8486 6.37594C67.55 6.31999 65.5585 7.60415 64.6531 9.76582C63.9087 11.5495 63.8847 13.3768 64.463 15.2082C64.9589 16.7789 65.96 17.9048 67.4636 18.5257C68.5787 18.981 69.7945 19.1118 70.9773 18.9038C72.3572 18.6786 73.5484 18.0672 74.4763 16.9727C74.9847 16.3822 75.3222 15.6576 75.4508 14.8807C75.4748 14.7442 75.4508 14.691 75.2966 14.6923C74.5561 14.7005 73.8143 14.6923 73.0738 14.6923C72.9861 14.6923 72.9222 14.6923 72.885 14.807C72.7311 15.2862 72.4237 15.698 72.0129 15.9751C71.2631 16.521 70.4176 16.6725 69.5242 16.592C68.8826 16.556 68.2665 16.3225 67.7561 15.9219C67.0009 15.3064 66.6925 14.4562 66.5596 13.5132C66.537 13.3508 66.5596 13.299 66.7404 13.3004C68.1735 13.3085 69.608 13.3004 71.0424 13.3004H75.3631C75.4482 13.3004 75.5372 13.3331 75.5372 13.1748C75.5514 12.3953 75.4773 11.6168 75.3166 10.8548C75.0095 9.50653 74.3899 8.34245 73.2799 7.49771ZM66.7523 11.1537C67.0621 9.94187 68.0618 8.78597 69.6638 8.75459C71.2924 8.7232 72.4769 9.61707 72.8451 11.1537H66.7523Z" fill="white"/>
<path d="M60.5146 7.35306C59.5535 6.70174 58.4236 6.36268 57.2721 6.38003C54.9696 6.38003 53.2546 7.40218 52.2096 9.51062C51.412 11.125 51.3389 12.8405 51.7191 14.5818C52.0302 15.9997 52.7281 17.1747 53.9219 17.9935C54.7713 18.5659 55.7526 18.8982 56.7669 18.957C58.4487 19.0935 59.9842 18.684 61.303 17.5786C62.1538 16.8622 62.7175 15.9588 62.889 14.8234C62.9063 14.706 62.8757 14.6869 62.7747 14.6869C62.0089 14.6869 61.2432 14.6869 60.4787 14.6869C60.399 14.6869 60.3458 14.6978 60.3219 14.792C60.1334 15.3665 59.7356 15.8438 59.2118 16.1239C58.3304 16.6384 57.3878 16.7148 56.42 16.4951C55.944 16.4019 55.499 16.1859 55.1269 15.8674C54.7548 15.5489 54.4678 15.1384 54.2929 14.6746C54.1455 14.2901 54.0442 13.8887 53.9911 13.4791C53.9685 13.3317 53.9991 13.2949 54.1466 13.2963C55.5864 13.2963 57.0275 13.2963 58.4686 13.2963H62.8079C62.901 13.2963 62.9781 13.3113 62.9767 13.1598C62.9875 12.3441 62.9036 11.53 62.7268 10.7348C62.3811 9.34823 61.7045 8.17187 60.5146 7.35306ZM60.1052 11.1742C58.1894 11.1742 56.2737 11.1742 54.358 11.1742C54.1932 11.1742 54.1692 11.1414 54.2251 10.9831C54.6398 9.83133 55.3777 9.02889 56.5888 8.816C57.7614 8.60993 58.8169 8.87605 59.6345 9.82996C59.9536 10.2158 60.1759 10.6759 60.282 11.1701L60.1052 11.1742Z" fill="white"/>
<path d="M37.2641 6.87132C37.3053 6.82356 37.3439 6.77307 37.3864 6.71985C37.3545 6.70483 37.3439 6.69527 37.3346 6.69527C36.3455 6.69527 35.3564 6.69527 34.3686 6.69527C34.3301 6.69587 34.2924 6.70644 34.2589 6.726C34.2254 6.74556 34.1973 6.77349 34.1772 6.80718C33.8005 7.28118 33.4229 7.75427 33.0445 8.22646L29.588 12.558V12.3069C29.588 8.95247 29.588 5.59807 29.588 2.24367C29.588 2.08946 29.5468 2.04989 29.3979 2.05125C28.6817 2.05944 27.9647 2.05944 27.2468 2.05125C27.1059 2.05125 27.066 2.084 27.066 2.23412C27.066 7.65192 27.066 13.0697 27.066 18.4875C27.066 18.624 27.0939 18.6636 27.2335 18.6622C27.9567 18.654 28.68 18.654 29.4032 18.6622C29.5561 18.6622 29.588 18.6185 29.588 18.4671C29.5813 16.6698 29.588 14.8725 29.588 13.0738V12.8323C29.6624 12.9223 29.7076 12.9756 29.7515 13.0302L34.1466 18.5039C34.1715 18.5485 34.2073 18.5856 34.2504 18.6117C34.2935 18.6378 34.3425 18.6519 34.3925 18.6527C35.3511 18.6527 36.3096 18.6527 37.2681 18.6527C37.304 18.6527 37.3532 18.6786 37.3771 18.6172L37.308 18.5326C35.7127 16.6302 34.1174 14.7283 32.522 12.8268C32.4263 12.7122 32.433 12.6549 32.522 12.5443C34.1085 10.6574 35.6892 8.76642 37.2641 6.87132Z" fill="white"/>
<path d="M25.3923 9.49698C24.7648 7.52638 23.329 6.4046 21.3814 6.37595C20.3417 6.36093 19.3792 6.6134 18.5457 7.2821C18.2002 7.57427 17.8924 7.91041 17.6297 8.28241C17.6297 7.80886 17.6297 7.32713 17.6297 6.86041C17.6297 6.73349 17.6004 6.69256 17.4715 6.69392C16.7416 6.69392 16.0091 6.69392 15.2832 6.69392C15.1503 6.69392 15.1171 6.73486 15.1171 6.86996C15.1171 10.742 15.1171 14.6141 15.1171 18.4862C15.1171 18.6417 15.1676 18.6622 15.2992 18.6609C16.0104 18.6609 16.7217 18.6609 17.4263 18.6609C17.5805 18.6609 17.6244 18.6322 17.6244 18.4643C17.6244 16.4883 17.6244 14.5067 17.6244 12.5348C17.6199 12.1024 17.6555 11.6706 17.7307 11.2451C17.982 9.90775 18.7198 8.86377 20.2567 8.73685C21.5369 8.63041 22.5699 9.17491 23.0099 10.5519C23.1806 11.1315 23.2592 11.7357 23.2426 12.341C23.2426 14.3853 23.2426 16.4296 23.2426 18.4739C23.2426 18.6104 23.2598 18.6636 23.4127 18.6609C24.1479 18.6513 24.8831 18.6609 25.6183 18.6609C25.7299 18.6609 25.7512 18.6322 25.7512 18.5244C25.7512 16.2699 25.7512 14.0209 25.7419 11.7624C25.7409 10.9932 25.6229 10.2288 25.3923 9.49698Z" fill="white"/>
<path d="M9.65569 16.1662C7.39565 16.1662 5.12231 16.1662 2.85563 16.1758C2.67615 16.1758 2.61633 16.143 2.61766 15.941C2.62298 11.3921 2.62564 6.83903 2.62564 2.28189C2.62564 2.10857 2.60304 2.0417 2.40761 2.04579C1.67243 2.05944 0.935927 2.05671 0.200749 2.04579C0.0398873 2.04579 0.00531774 2.08537 0.00531774 2.2464C0.0124081 4.94757 0.0124081 7.64737 0.00531774 10.3458C-0.00177258 13.0442 -0.00177258 15.7563 0.00531774 18.4821C0.00531774 18.6117 0.023934 18.6567 0.167513 18.6567C3.34486 18.6513 6.52177 18.6513 9.69824 18.6567C9.83118 18.6567 9.85511 18.6199 9.85378 18.493C9.85378 17.7888 9.8458 17.0846 9.85378 16.3805C9.85777 16.2208 9.82852 16.1662 9.65569 16.1662Z" fill="white"/>
<path d="M43.9219 6.88634C43.9219 6.74987 43.8953 6.70074 43.7491 6.70211C42.869 6.70893 41.9889 6.7021 41.1088 6.70893C40.9759 6.70893 40.94 6.66935 40.94 6.53289C40.94 5.63765 40.94 4.74242 40.948 3.84718C40.948 3.67523 40.9001 3.64521 40.7459 3.64657C40.0227 3.65476 39.2995 3.65749 38.5763 3.64657C38.4074 3.64657 38.3848 3.69979 38.3848 3.854C38.3902 5.75637 38.3902 7.65874 38.3848 9.56112V14.9557C38.3706 15.567 38.4732 16.1753 38.6866 16.7462C39.1838 17.9976 40.149 18.564 41.4173 18.6417C42.1737 18.6881 42.9355 18.6554 43.6946 18.6649C43.8076 18.6649 43.8169 18.6185 43.8169 18.5285C43.8169 17.8243 43.8169 17.1201 43.8169 16.4173C43.8169 16.2808 43.7651 16.2726 43.66 16.2726C43.1482 16.2726 42.635 16.2808 42.1232 16.2726C41.497 16.2645 41.0836 15.9206 40.9693 15.3174C40.9495 15.1892 40.941 15.0595 40.944 14.9298C40.944 12.9606 40.944 10.9899 40.944 9.01934C40.944 8.88287 40.9732 8.83238 41.1195 8.83374C41.9996 8.84193 42.8797 8.83374 43.7597 8.84193C43.8927 8.84193 43.9273 8.80508 43.9246 8.66861C43.9166 8.07361 43.9157 7.47952 43.9219 6.88634Z" fill="white"/>
<path d="M51.3402 6.63114C51.3402 6.52197 51.3176 6.47011 51.2072 6.44691C50.4891 6.28912 49.7407 6.37236 49.0722 6.68436C48.4358 6.99754 47.9033 7.49584 47.5407 8.11728C47.5407 7.70788 47.5407 7.29028 47.5407 6.87815C47.5407 6.74168 47.5207 6.69801 47.3771 6.70074C46.6486 6.70893 45.9196 6.70893 45.1902 6.70074C45.0493 6.70074 45.0227 6.74304 45.024 6.87678C45.024 10.7489 45.024 14.6205 45.024 18.4916C45.024 18.6281 45.0626 18.6649 45.1955 18.6636C45.9134 18.6636 46.63 18.6554 47.3466 18.6636C47.5061 18.6636 47.5433 18.624 47.5433 18.4616C47.5362 16.622 47.5362 14.782 47.5433 12.9414C47.5268 12.1377 47.6623 11.3382 47.9421 10.5874C48.3011 9.68394 48.8887 9.03436 49.8645 8.8433C50.2975 8.75801 50.7423 8.75801 51.1753 8.8433C51.2883 8.8665 51.3442 8.86923 51.3428 8.71638C51.3322 8.02858 51.3349 7.32986 51.3402 6.63114Z" fill="white"/>
<path d="M13.4858 6.68982C12.7679 6.69801 12.0514 6.69937 11.3348 6.68982C11.1833 6.68982 11.1474 6.72804 11.1474 6.88225C11.1527 8.80827 11.1527 10.7343 11.1474 12.6603C11.142 14.5863 11.142 16.5251 11.1474 18.4766C11.1474 18.6131 11.1779 18.6595 11.3215 18.6581C12.0447 18.6499 12.7679 18.6581 13.4898 18.6581C13.6228 18.6581 13.6613 18.6349 13.6613 18.4903C13.656 14.6191 13.656 10.7479 13.6613 6.87678C13.6613 6.73486 13.6321 6.68846 13.4858 6.68982Z" fill="white"/>
<path d="M84.729 12.5798C83.9579 12.5862 83.1868 12.5862 82.4158 12.5798C82.2735 12.5798 82.2482 12.6262 82.2496 12.7586C82.2496 13.722 82.2496 14.6855 82.2496 15.6476C82.2496 16.6097 82.2496 17.5582 82.2496 18.5135C82.2496 18.6499 82.2855 18.6868 82.4197 18.6868C83.1908 18.6786 83.9619 18.6868 84.7316 18.6868C84.8646 18.6868 84.8925 18.6513 84.8912 18.523C84.8912 16.597 84.8912 14.671 84.8912 12.7449C84.8898 12.6194 84.8566 12.5798 84.729 12.5798Z" fill="white"/>
<path d="M12.4196 2.05125C12.2078 2.04873 11.9976 2.08911 11.801 2.17007C11.6044 2.25104 11.4253 2.37101 11.2739 2.52312C11.1225 2.67522 11.0018 2.85648 10.9187 3.05651C10.8357 3.25655 10.7918 3.47143 10.7897 3.68887C10.7887 4.13478 10.9602 4.56285 11.2666 4.87893C11.5731 5.195 11.9892 5.37318 12.4236 5.37426C12.858 5.37535 13.275 5.19925 13.5829 4.88472C13.8908 4.57018 14.0644 4.14297 14.0655 3.69706C14.0627 3.47806 14.0179 3.26176 13.9337 3.06052C13.8495 2.85928 13.7275 2.67704 13.5746 2.52421C13.4218 2.37138 13.2411 2.25095 13.043 2.1698C12.8448 2.08865 12.633 2.04836 12.4196 2.05125Z" fill="white"/>
</svg>
