<svg width="15" height="30" viewBox="0 0 15 30" fill="none" xmlns="http://www.w3.org/2000/svg">
<path d="M3.16907 30H9.29371V14.8744H13.5532C13.7046 13.1753 13.8514 11.5445 14.0039 9.84426H9.29025C9.29025 8.77648 9.29025 7.77251 9.29025 6.7674C9.29718 5.59933 9.61266 5.28595 10.7925 5.2586C11.1958 5.24948 11.6014 5.2586 12.0036 5.2586H13.9831V0.115678C12.8784 -0.112238 8.07803 0.0575513 6.97213 0.364098C4.64939 1.01024 3.32392 2.61477 3.21299 5.0227C3.14943 6.42096 3.18872 7.82493 3.18063 9.22661V9.88073H0.00390625V14.9655H3.16907V30Z" fill="black"/>
<path d="M3.16907 30V14.9576H0.00390625V9.87276H3.17832V9.21864C3.18641 7.81696 3.14712 6.413 3.21067 5.01474C3.32623 2.60681 4.64708 1.00228 6.96982 0.356135C8.07572 0.0495886 12.876 -0.125913 13.9808 0.107701V5.25062H12.0013C11.598 5.25062 11.1924 5.24379 10.7902 5.25062C9.61381 5.27569 9.29834 5.59251 9.28794 6.75944C9.281 7.76227 9.28794 8.76624 9.28794 9.8363H14.0016C13.8491 11.5366 13.7023 13.1673 13.5509 14.8664H9.29371V30H3.16907Z" fill="white"/>
</svg>
