<svg width="51" height="50" viewBox="0 0 51 50" fill="none" xmlns="http://www.w3.org/2000/svg">
<g opacity="0.8">
<path d="M0.5 6.8C0.5 3.04446 3.54446 0 7.3 0H43.7C47.4555 0 50.5 3.04446 50.5 6.8V43.2C50.5 46.9555 47.4555 50 43.7 50H7.3C3.54446 50 0.5 46.9555 0.5 43.2V6.8Z" fill="#06FFF2"/>
<path d="M38.0982 27.1032C38.0982 26.4395 37.9464 26.2777 37.2864 26.2373C35.9261 26.1527 34.8218 25.7207 33.9059 24.9173C33.8448 24.8743 33.7959 24.8161 33.7638 24.7485C33.7318 24.6808 33.7178 24.606 33.723 24.5312C33.7303 21.0272 33.7303 17.5237 33.723 14.0209V12.0943C33.723 11.175 33.3574 10.8074 32.4432 10.8074H13.7762C12.862 10.8074 12.4964 11.175 12.4964 12.0943V38.0161C12.4964 38.7882 12.9041 39.1963 13.6701 39.1963H32.5365C33.3245 39.1963 33.7285 38.7955 33.7322 38.005C33.7322 37.3671 33.7322 36.7935 33.7322 36.2126C33.7322 36.1776 33.7322 36.1629 33.7322 36.1611C33.7498 36.1496 33.7682 36.1392 33.787 36.1298C34.2605 35.9184 34.7706 35.6776 35.3447 35.3945C37.1603 34.5047 38.0872 33.0394 38.0872 31.0356C38.0872 30.1163 38.0872 29.1971 38.0872 28.2779L38.0982 27.1032ZM13.661 38.0344C13.661 37.9921 13.661 37.9388 13.661 37.8892V12.109C13.661 12.0612 13.661 12.0078 13.661 11.9656H32.5639V14.7379C32.5639 18.0164 32.5639 21.2943 32.5639 24.5716C32.5693 24.6359 32.5578 24.7005 32.5305 24.759C32.5032 24.8174 32.4611 24.8675 32.4085 24.9044C31.4779 25.7243 30.3626 26.16 29.0023 26.2373C28.3569 26.274 28.1997 26.4395 28.1997 27.0829V28.2283C28.1997 29.1677 28.1997 30.109 28.1997 31.0484C28.2107 33.0431 29.1285 34.5028 30.9294 35.3871C31.3846 35.6114 31.9258 35.8743 32.4908 36.1225C32.5639 36.1537 32.5639 36.1537 32.5621 36.2548C32.5474 36.9185 32.5474 37.4609 32.5621 37.9627C32.5642 37.9878 32.5642 38.013 32.5621 38.0381H32.4779C31.1506 38.0381 29.8068 38.0381 28.4813 38.0381H13.6555L13.661 38.0344ZM32.8253 34.9845C32.286 34.7418 31.7283 34.49 31.2073 34.2068C30.6528 33.9327 30.1868 33.5063 29.8633 32.9769C29.5397 32.4476 29.3718 31.837 29.379 31.2157C29.3552 30.2965 29.3607 29.3773 29.3662 28.4084C29.3662 28.0702 29.3662 27.7301 29.3662 27.3881C30.8782 27.2355 32.1214 26.7189 33.1526 25.8144C34.2145 26.7345 35.5428 27.2863 36.9409 27.3881C36.9409 27.7558 36.9409 28.1235 36.9409 28.4783C36.9409 29.3755 36.9536 30.3039 36.9299 31.212C36.8933 32.5725 36.2607 33.591 35.0467 34.2399C34.5165 34.523 33.9497 34.7749 33.4012 35.0194L33.2184 35.1058C33.1748 35.1186 33.1285 35.1186 33.085 35.1058L32.8253 34.9845Z" fill="black"/>
<path d="M16.6064 17.9974H29.6898C30.2383 17.9974 30.443 17.786 30.4449 17.2437V13.8555C30.4449 13.2672 30.262 13.0796 29.655 13.0778H16.5771C15.9848 13.0778 15.7946 13.2616 15.7928 13.861C15.7928 14.964 15.7928 16.0732 15.7928 17.1885C15.7873 17.8099 15.9793 17.9974 16.6064 17.9974ZM16.9721 16.8025V14.2783H29.251V16.8098L16.9721 16.8025Z" fill="black"/>
<path d="M27.3642 22.3159C27.4013 22.318 27.4385 22.318 27.4757 22.3159C27.5661 22.3199 27.6554 22.2941 27.7298 22.2424C27.8238 22.1905 27.9052 22.1184 27.9684 22.0314C28.0316 21.9444 28.075 21.8444 28.0955 21.7386C28.1174 21.5088 27.9127 21.3195 27.7298 21.2C27.6189 21.1371 27.4896 21.115 27.3642 21.1375H16.5406C16.4148 21.1131 16.2844 21.1367 16.1749 21.2036C16.0813 21.2564 16.0002 21.3289 15.9371 21.4162C15.8739 21.5035 15.8304 21.6034 15.8093 21.7092C15.7928 21.8931 15.9135 22.0769 16.1749 22.246C16.2853 22.3106 16.4152 22.3328 16.5406 22.3085H27.3057L27.3642 22.3159Z" fill="black"/>
<path d="M16.1091 20.6411C16.1638 20.6827 16.2264 20.7126 16.2931 20.7291C16.3597 20.7455 16.429 20.7481 16.4967 20.7367H23.5613C23.6494 20.7399 23.7366 20.7169 23.8117 20.6705C23.964 20.5818 24.0834 20.4456 24.1518 20.2826C24.1807 20.1789 24.1788 20.069 24.1463 19.9665C24.1138 19.8639 24.0522 19.7731 23.969 19.7053C23.8225 19.6127 23.6521 19.5654 23.479 19.5693C22.5673 19.5693 21.6531 19.5693 20.7365 19.5693H16.5954C16.576 19.5711 16.5564 19.5711 16.5369 19.5693C16.418 19.5505 16.2963 19.5705 16.1895 19.6263C16.0213 19.7274 15.8239 19.8947 15.8239 20.119C15.8348 20.2206 15.8656 20.3191 15.9145 20.4087C15.9635 20.4983 16.0296 20.5773 16.1091 20.6411Z" fill="black"/>
<path d="M16.4363 23.9043C16.4729 23.9043 16.5077 23.9043 16.5387 23.9043H23.3858C23.4046 23.9028 23.4236 23.9028 23.4424 23.9043C23.5685 23.9251 23.6978 23.9011 23.8081 23.8363C24.0458 23.6727 24.1738 23.4999 24.1738 23.3234C24.1738 23.1469 24.0586 22.9704 23.8282 22.8012C23.719 22.7335 23.5891 22.708 23.4626 22.7295H16.5204C16.3933 22.7095 16.2632 22.7369 16.1548 22.8068C16.0633 22.8638 15.9861 22.9412 15.9291 23.033C15.872 23.1248 15.8366 23.2286 15.8257 23.3362C15.8257 23.5201 15.9537 23.6819 16.1914 23.84C16.2653 23.8843 16.3503 23.9066 16.4363 23.9043Z" fill="black"/>
<path d="M21.8628 26.2023C21.7823 26.1214 21.7019 26.0405 21.6178 25.9652C21.5763 25.9314 21.528 25.9071 21.4762 25.8941C21.4244 25.881 21.3704 25.8796 21.3179 25.8898H16.4784C16.4196 25.8803 16.3595 25.8837 16.3021 25.8995C16.2447 25.9154 16.1914 25.9434 16.1457 25.9817L16.1054 26.0203C15.9555 26.1295 15.8522 26.2917 15.8165 26.4744C15.8001 26.6583 15.9262 26.8421 16.1822 27.0057C16.2933 27.0684 16.4223 27.0911 16.5479 27.0701H21.2156C21.2503 27.0701 21.2905 27.0701 21.3344 27.0701C21.4215 27.0735 21.5078 27.0518 21.583 27.0076C21.6909 26.938 21.7871 26.8518 21.8682 26.752L21.9487 26.6675C22.0002 26.6154 22.0291 26.545 22.0291 26.4717C22.0291 26.3983 22.0002 26.3279 21.9487 26.2759L21.8628 26.2023Z" fill="black"/>
<path d="M24.342 30.4454C23.9836 30.4041 23.6216 30.4041 23.2633 30.4454C23.1305 30.4771 23.0111 30.5502 22.9221 30.6542C22.8332 30.7582 22.7791 30.8878 22.7678 31.0245C22.7678 31.2746 23.0384 31.497 23.2285 31.5613C23.37 31.6009 23.518 31.6116 23.6637 31.5926C23.7075 31.5926 23.7514 31.5926 23.7935 31.5926C23.8355 31.5926 23.8776 31.5926 23.9215 31.5926C23.9653 31.5926 24.0311 31.5926 24.0878 31.5926C24.1783 31.594 24.2684 31.5809 24.3548 31.554C24.5376 31.4933 24.8137 31.2874 24.8265 31.0319C24.817 30.8954 24.7652 30.7653 24.6782 30.6601C24.5913 30.5549 24.4737 30.4798 24.342 30.4454Z" fill="black"/>
<path d="M20.5793 30.4417C20.2214 30.4023 19.8603 30.4023 19.5024 30.4417C19.2391 30.473 19.0417 30.8094 19.0252 31.0098C19.007 31.2598 19.2812 31.5007 19.4768 31.5613C19.6221 31.5972 19.7725 31.6071 19.9211 31.5908C19.9564 31.5889 19.9918 31.5889 20.0272 31.5908C20.0783 31.5908 20.1332 31.5908 20.188 31.5908C20.2429 31.5908 20.2959 31.5908 20.3544 31.5908C20.4457 31.5932 20.5366 31.5795 20.6232 31.5503C20.806 31.4841 21.0784 31.2598 21.0784 30.9988C21.062 30.8657 21.0053 30.7409 20.9161 30.6413C20.8268 30.5416 20.7092 30.472 20.5793 30.4417Z" fill="black"/>
<path d="M15.7288 31.5595C15.8743 31.5937 16.0245 31.6031 16.1731 31.5871H16.2828C16.334 31.5871 16.3852 31.5871 16.4382 31.5871C16.4912 31.5871 16.5461 31.5871 16.6046 31.5871C16.6958 31.5886 16.7866 31.5749 16.8733 31.5466C17.0562 31.4823 17.3231 31.258 17.3231 31.0061C17.3118 30.8704 17.2582 30.7417 17.1698 30.6383C17.0815 30.535 16.9631 30.4624 16.8313 30.4307C16.474 30.3912 16.1135 30.3912 15.7562 30.4307C15.493 30.462 15.2955 30.7984 15.2827 30.9969C15.2644 31.2635 15.535 31.5044 15.7288 31.5595Z" fill="black"/>
<path d="M27.4885 30.4215H27.1484C26.684 30.4215 26.5122 30.7157 26.5067 30.9933C26.5012 31.0715 26.5124 31.15 26.5395 31.2236C26.5666 31.2971 26.6091 31.364 26.6639 31.4198C26.728 31.479 26.8033 31.5246 26.8852 31.554C26.9672 31.5834 27.0542 31.5959 27.1411 31.5908H27.5068C27.585 31.5983 27.664 31.5891 27.7385 31.5638C27.813 31.5386 27.8814 31.4978 27.9392 31.4442C27.997 31.3906 28.0429 31.3254 28.0739 31.2528C28.1049 31.1801 28.1204 31.1017 28.1193 31.0227C28.1138 30.6605 27.8761 30.4307 27.4885 30.4215Z" fill="black"/>
<path d="M35.789 28.4176C35.7387 28.3587 35.6768 28.3109 35.6073 28.277C35.5378 28.2432 35.4621 28.2241 35.385 28.2209H35.374C35.2833 28.2253 35.1945 28.2481 35.1128 28.2879C35.0311 28.3277 34.9582 28.3837 34.8986 28.4526L34.2093 29.1438L33.1124 30.2469L32.3682 31.0043L32.2037 31.1734L32.105 31.0723C31.8673 30.8278 31.6406 30.598 31.4175 30.3645C31.2941 30.2216 31.1205 30.132 30.933 30.1145C30.8579 30.1162 30.7839 30.1334 30.7157 30.165C30.6474 30.1966 30.5864 30.242 30.5363 30.2983C30.4802 30.3506 30.4352 30.4137 30.4038 30.4838C30.3724 30.5539 30.3553 30.6296 30.3534 30.7065C30.358 30.7988 30.3811 30.8892 30.4214 30.9723C30.4616 31.0553 30.5181 31.1294 30.5875 31.19C30.9696 31.5724 31.3535 31.9548 31.7302 32.3408C31.79 32.4098 31.8632 32.4659 31.9452 32.5057C32.0272 32.5455 32.1164 32.5683 32.2074 32.5725C32.2985 32.5685 32.3878 32.5461 32.4702 32.5066C32.5525 32.4672 32.626 32.4114 32.6864 32.3427C33.698 31.3217 34.7103 30.3033 35.7232 29.2872C36.0523 28.9489 35.9718 28.618 35.789 28.4176Z" fill="black"/>
</g>
</svg>
