<svg width="204" height="51" viewBox="0 0 204 51" fill="none" xmlns="http://www.w3.org/2000/svg">
<path d="M177.928 0.648249C178.508 0.803216 179.065 1.03871 179.582 1.348C179.865 1.52683 180.099 1.7747 180.264 2.06925C180.429 2.3638 180.519 2.69567 180.526 3.03469C180.526 3.67189 180.416 4.28412 180.367 4.92133C180.183 6.93289 180.011 8.94441 179.84 10.956C179.693 12.5802 179.558 14.2045 179.423 15.8288C179.4 16.0376 179.33 16.2383 179.22 16.4158C179.11 16.5933 178.961 16.7428 178.786 16.8532C178.313 17.1533 177.768 17.3124 177.211 17.3124C176.654 17.3124 176.109 17.1533 175.636 16.8532C175.444 16.7351 175.283 16.5709 175.168 16.3749C175.053 16.1789 174.986 15.9571 174.974 15.7289C174.668 12.118 174.349 8.51965 174.031 4.90882C174.031 4.33408 173.933 3.75935 173.871 3.18461C173.839 2.85332 173.894 2.51925 174.03 2.21643C174.165 1.91361 174.377 1.65281 174.643 1.4604C175.126 1.0783 175.695 0.824983 176.298 0.723287C176.371 0.723287 176.457 0.723202 176.506 0.635742L177.928 0.648249Z" fill="#545454"/>
<path d="M10.6962 33.4206C12.1056 26.049 13.9316 18.7899 15.5982 11.4933C15.6595 11.2184 15.7576 11.1309 16.0394 11.1309C17.9022 11.1309 19.7159 11.1309 21.6277 11.1309C21.885 11.1309 21.9953 11.1309 22.0444 11.4683C23.2699 17.1781 24.4954 22.863 25.5615 28.5978C25.8189 30.0221 26.064 31.4591 26.2478 32.8959C26.2469 33.0447 26.2943 33.1896 26.3826 33.3081C26.5542 32.3336 26.7013 31.3965 26.8728 30.4594C27.6694 25.9365 28.613 21.4387 29.5444 16.9408C29.9121 15.1291 30.3042 13.305 30.6596 11.4933C30.6596 11.2059 30.8067 11.1184 31.0885 11.1184C32.841 11.1184 34.6057 11.1184 36.3704 11.1184C36.7013 11.1184 36.7504 11.1185 36.6646 11.5183C35.2266 16.9908 33.801 22.4715 32.3876 27.9606L29.4096 39.4679C29.3954 39.5964 29.3373 39.7157 29.2454 39.8048C29.1535 39.8939 29.0337 39.947 28.9072 39.955C27.8428 40.1836 26.7466 40.2133 25.6718 40.0425C24.8787 39.8986 24.1428 39.5252 23.5519 38.967C22.9609 38.4088 22.5397 37.6893 22.3385 36.894C21.8973 35.4821 21.6645 34.0204 21.3458 32.571C20.6105 29.1726 19.8507 25.7741 19.2257 22.3507C18.9806 21.0138 18.7845 19.677 18.6252 18.3276C18.6252 18.3276 18.6252 18.1901 18.5272 18.1276C18.4414 18.6399 18.3556 19.1398 18.2576 19.627C17.6081 23.3753 16.6031 27.1236 15.7208 30.8718C15.0345 33.7705 14.3237 36.6691 13.6252 39.6178C13.6136 39.7273 13.564 39.8291 13.4854 39.9047C13.4068 39.9803 13.3042 40.0247 13.1962 40.03C11.988 40.3052 10.7379 40.3306 9.51975 40.1049C9.00803 39.9903 8.52556 39.7677 8.1034 39.4514C7.68125 39.135 7.32879 38.732 7.06875 38.2683C6.52529 37.2659 6.14065 36.1822 5.92905 35.0574C4.06629 27.2526 2.19536 19.4438 0.316259 11.6307C0.230475 11.2559 0.316265 11.2058 0.647149 11.2183C2.49765 11.2183 4.32364 11.2183 6.21091 11.2183C6.50503 11.2183 6.60307 11.3058 6.65209 11.6057C7.87759 17.8528 9.10308 24.2124 10.206 30.547C10.3531 31.4466 10.5247 32.4335 10.6962 33.4206Z" fill="#545454"/>
<path d="M71.2359 21.2013C71.432 21.2013 71.4565 21.0013 71.5178 20.9013C72.1843 19.8614 73.1158 19.0259 74.2125 18.4845C75.3092 17.9431 76.5297 17.7161 77.7433 17.8278C78.7674 17.8173 79.7769 18.0763 80.6742 18.5797C81.5716 19.0831 82.3264 19.8139 82.8659 20.7015C83.0123 20.9252 83.1356 21.1638 83.2335 21.4136C83.3561 21.726 83.4541 21.6635 83.6134 21.4136C83.9214 20.9537 84.2836 20.5341 84.6919 20.1642C85.719 19.0895 87.0285 18.3399 88.4632 18.0053C89.8979 17.6706 91.3969 17.7651 92.7802 18.2775C93.7897 18.6444 94.6931 19.2631 95.408 20.0771C96.123 20.8911 96.6267 21.8745 96.8733 22.9379C97.25 24.1501 97.4402 25.4145 97.437 26.6861C97.437 30.9591 97.437 35.2322 97.437 39.4927C97.437 39.8175 97.339 39.8676 97.0572 39.8676H92.1552C91.812 39.8676 91.7385 39.7677 91.7385 39.4428C91.7385 35.6946 91.7385 31.9463 91.7385 28.198C91.7619 27.2298 91.6547 26.2628 91.4198 25.3243C91.3054 24.5673 90.9283 23.8773 90.357 23.3797C89.7858 22.8822 89.0584 22.61 88.3071 22.613C87.514 22.5918 86.7364 22.839 86.0956 23.316C85.4549 23.7929 84.9872 24.4728 84.7654 25.2494C84.5961 25.8715 84.5176 26.5155 84.5325 27.1609C84.5325 31.234 84.5325 35.2947 84.5325 39.3678C84.5325 39.7551 84.4223 39.8301 84.0791 39.8176H79.1771C78.834 39.8176 78.7359 39.7426 78.7359 39.3803C78.7359 35.4946 78.7359 31.6215 78.7359 27.7358C78.7669 26.7529 78.6301 25.772 78.3315 24.837C78.1553 24.3047 77.8481 23.8273 77.4393 23.4505C77.0306 23.0737 76.5339 22.81 75.9967 22.6847C75.4595 22.5594 74.8997 22.5766 74.3709 22.7347C73.8421 22.8928 73.3619 23.1864 72.9761 23.5876C72.5308 24.004 72.1747 24.5098 71.9301 25.0731C71.6854 25.6364 71.5576 26.245 71.5545 26.8611C71.5545 31.0258 71.5545 35.1615 71.5545 39.2679C71.5545 39.9176 71.6403 39.8301 70.9785 39.8426H66.0765C65.7824 39.8426 65.7089 39.7677 65.7089 39.4678V18.6149C65.7089 18.2901 65.7947 18.2152 66.101 18.2152H70.8192C71.1133 18.2152 71.2114 18.2151 71.1991 18.5899C71.2114 19.4895 71.2359 20.3392 71.2359 21.2013Z" fill="#545454"/>
<path d="M118.16 39.5553C118.025 38.5691 117.939 37.5767 117.903 36.5817C117.817 33.4581 117.903 30.3346 117.903 27.211C117.912 26.1758 117.821 25.1423 117.633 24.125C117.414 22.7009 116.786 21.3748 115.829 20.3142C114.871 19.2535 113.627 18.5057 112.253 18.1652C110.653 17.7513 108.993 17.6328 107.351 17.8153C105.33 17.9696 103.353 18.4989 101.518 19.3771C100.954 19.6645 100.954 19.6771 101.126 20.2643L101.714 22.3132C101.837 22.738 101.971 23.1628 102.094 23.5626L102.339 23.4252C104.297 22.3075 106.535 21.8035 108.773 21.976C109.594 21.9554 110.39 22.2626 110.993 22.8321C111.595 23.4016 111.955 24.1882 111.996 25.0245C111.996 25.5493 111.996 25.5493 111.518 25.5743H110.182C108.179 25.6561 106.203 26.0783 104.337 26.8238C103.052 27.2516 101.914 28.0445 101.057 29.1091C100.199 30.1737 99.6578 31.4657 99.4959 32.8334C99.3166 34.1468 99.535 35.4847 100.122 36.6681C100.709 37.8515 101.636 38.8241 102.78 39.4554C104.321 40.2084 106.054 40.4518 107.737 40.1516C109.42 39.8515 110.969 39.0226 112.168 37.7811C112.474 37.4187 112.474 37.4188 112.67 37.8811C112.885 38.406 113.219 38.8712 113.646 39.2384C114.072 39.6055 114.577 39.864 115.121 39.9926C116.074 40.1848 117.058 40.1376 117.989 39.8551C118.209 39.9051 118.185 39.7802 118.16 39.5553ZM112.131 31.1592C112.131 31.4966 112.131 31.8338 112.131 32.1712C112.12 33.1163 111.774 34.0256 111.157 34.7307C110.54 35.4359 109.693 35.8893 108.773 36.007C108.225 36.0907 107.667 36.0609 107.131 35.9194C106.628 35.7879 106.178 35.4969 105.848 35.0882C105.517 34.6795 105.323 34.1743 105.293 33.6455C105.172 32.7855 105.387 31.9115 105.891 31.2109C106.395 30.5103 107.148 30.0388 107.989 29.8973C109.251 29.5501 110.554 29.3819 111.861 29.3975C112.07 29.3975 112.131 29.3974 112.131 29.6723C112.119 30.2471 112.131 30.7218 112.131 31.2091V31.1592Z" fill="#545454"/>
<path d="M53.846 39.6177C53.7848 39.1929 53.7235 38.7681 53.6867 38.3683C53.4784 36.1818 53.5519 34.0078 53.5397 31.8214C53.5397 30.2596 53.5397 28.6978 53.5397 27.136C53.5519 26.1799 53.4656 25.2251 53.2823 24.2873C53.0698 22.7881 52.4065 21.393 51.3836 20.2943C50.3608 19.1955 49.0289 18.4472 47.5715 18.1526C45.7467 17.7492 43.8644 17.6942 42.02 17.9902C40.2453 18.2235 38.5218 18.7599 36.9219 19.577C36.8679 19.5928 36.818 19.6206 36.7758 19.6584C36.7337 19.6962 36.7002 19.7431 36.678 19.7957C36.6557 19.8483 36.6451 19.9053 36.6471 19.9625C36.649 20.0198 36.6633 20.0757 36.6891 20.1266C37.0199 21.1762 37.3263 22.2382 37.6082 23.3002C37.694 23.6501 37.7798 23.6501 38.0739 23.4877C40.0018 22.3999 42.2007 21.9133 44.3975 22.0883C44.8207 22.0748 45.2423 22.1488 45.6368 22.3058C46.0313 22.4628 46.3905 22.6997 46.6928 23.002C46.9951 23.3044 47.2342 23.666 47.3958 24.0651C47.5573 24.4642 47.6379 24.8925 47.6328 25.3243C47.6328 25.5742 47.6328 25.6867 47.3142 25.6867C46.5053 25.6867 45.6965 25.6866 44.8632 25.8116C43.1166 25.9442 41.4029 26.3662 39.7896 27.061C38.3934 27.5374 37.1818 28.4536 36.3294 29.6774C35.477 30.9013 35.0279 32.3694 35.0469 33.8703C35.0195 35.1523 35.3721 36.4129 36.0586 37.4874C36.7452 38.5618 37.7337 39.4001 38.895 39.8926C40.0936 40.3734 41.3892 40.5492 42.6695 40.4049C44.6413 40.2964 46.4912 39.3983 47.8166 37.906C48.0617 37.6062 48.123 37.7186 48.2333 38.0059C48.4408 38.5705 48.788 39.0707 49.241 39.4582C49.6941 39.8457 50.2377 40.1072 50.8191 40.2174C51.7403 40.3907 52.6884 40.3437 53.5887 40.08C53.8461 39.9051 53.8706 39.8052 53.846 39.6177ZM47.8043 31.2715C47.8339 31.8042 47.8339 32.3382 47.8043 32.8708C47.6842 33.4398 47.4462 33.9759 47.1063 34.4434C46.7665 34.911 46.3325 35.2992 45.8336 35.582C45.3347 35.8647 44.7822 36.0354 44.2133 36.0828C43.6444 36.1303 43.0721 36.0533 42.5347 35.857C41.9959 35.6183 41.5498 35.2044 41.2661 34.68C40.9823 34.1556 40.8768 33.5502 40.9661 32.9582C41.0209 32.3434 41.2491 31.758 41.6231 31.2724C41.9972 30.7869 42.501 30.4221 43.0739 30.2221C44.5286 29.6794 46.0725 29.429 47.6205 29.4848C47.8411 29.4848 47.8411 29.5974 47.8411 29.7598L47.8043 31.2715Z" fill="#545454"/>
<path d="M141.175 28.123C141.175 29.5224 141.175 30.9342 141.175 32.3336C141.183 32.9106 141.29 33.4817 141.494 34.0202C141.67 34.4991 142.003 34.9017 142.436 35.1609C142.868 35.4201 143.375 35.5202 143.871 35.4446C144.469 35.4405 145.064 35.3736 145.648 35.2448C145.844 35.2448 145.942 35.2447 145.955 35.4696C145.955 36.8065 145.955 38.1435 146.016 39.4679C146.016 39.6553 146.016 39.7801 145.795 39.8301C143.81 40.4624 141.695 40.5444 139.668 40.0676C138.656 39.8005 137.744 39.2346 137.046 38.4411C136.349 37.6476 135.896 36.6616 135.746 35.607C135.551 34.6284 135.452 33.6322 135.452 32.6334C135.452 25.5992 135.452 18.5525 135.452 11.5058C135.452 11.2434 135.452 11.1309 135.795 11.1309C137.429 11.1309 139.096 11.1309 140.795 11.1309C141.114 11.1309 141.151 11.2558 141.151 11.5307C141.151 13.5422 141.151 15.5414 141.151 17.553C141.151 17.8778 141.236 17.9527 141.543 17.9527C142.952 17.9527 144.374 17.9527 145.783 17.9527C146.089 17.9527 146.163 18.0277 146.163 18.3276C146.163 19.9144 146.163 21.5011 146.163 23.1003C146.163 23.3752 146.089 23.4627 145.808 23.4502C144.374 23.4502 142.952 23.4502 141.518 23.4502C141.224 23.4502 141.151 23.5252 141.151 23.8251C141.151 25.2744 141.151 26.7112 141.151 28.148L141.175 28.123Z" fill="#545454"/>
<path d="M62.4123 25.4993C62.4123 30.1471 62.4123 34.7825 62.4123 39.4304C62.4123 39.8177 62.302 39.8926 61.9466 39.8926C60.3167 39.8926 58.699 39.8926 57.0446 39.8926C56.7505 39.8926 56.6402 39.8926 56.6402 39.5053V11.5183C56.6402 11.1935 56.7382 11.1435 57.0201 11.156C58.6745 11.156 60.329 11.156 61.9221 11.156C62.253 11.156 62.3265 11.2559 62.3265 11.5807C62.3837 16.2119 62.4123 20.8514 62.4123 25.4993Z" fill="#545454"/>
<path d="M125.905 22.3882C126.101 22.2883 126.101 22.1134 126.163 21.9634C126.535 20.9267 127.166 20.0068 127.993 19.2947C128.821 18.5826 129.816 18.1029 130.881 17.9028C131.522 17.7965 132.176 17.7965 132.817 17.9028C133.026 17.9028 133.087 18.0277 133.087 18.2526V23.3128C133.087 23.5502 133.087 23.6001 132.793 23.5626C131.739 23.3347 130.645 23.3907 129.619 23.725C128.799 24.0078 128.079 24.5309 127.549 25.2287C127.02 25.9265 126.704 26.7682 126.641 27.6482C126.585 28.1417 126.561 28.6384 126.567 29.1351C126.567 32.5835 126.567 36.0318 126.567 39.4802C126.567 39.8051 126.494 39.9176 126.163 39.9051H121.003C120.697 39.9051 120.623 39.8176 120.623 39.5177C120.623 32.5709 120.623 25.6242 120.623 18.6775C120.623 18.3401 120.734 18.2776 121.028 18.2776H125.476C125.758 18.2776 125.856 18.2776 125.856 18.6525C125.856 19.7519 125.856 20.864 125.856 21.9634C125.831 22.1069 125.848 22.2547 125.905 22.3882Z" fill="#545454"/>
<path d="M198.884 15.4789C198.865 15.8951 198.726 16.2964 198.484 16.6321C198.242 16.9678 197.908 17.223 197.524 17.3655C193.904 19.0314 190.301 20.7348 186.715 22.4756C186.424 22.6406 186.09 22.71 185.758 22.6742C185.427 22.6384 185.115 22.4993 184.864 22.2758C184.461 21.9874 184.141 21.5944 183.936 21.1376C183.731 20.6808 183.65 20.1765 183.7 19.6769C183.709 19.4683 183.766 19.2647 183.866 19.0824C183.966 18.9002 184.106 18.7444 184.276 18.6275L194.46 11.3933C194.726 11.2015 195.037 11.0845 195.362 11.0538C195.687 11.0231 196.014 11.0798 196.31 11.2183C197.099 11.5968 197.762 12.2013 198.219 12.958C198.676 13.7146 198.907 14.5906 198.884 15.4789Z" fill="#545454"/>
<path d="M177.229 50.2004C176.327 50.2159 175.444 49.9404 174.705 49.4132C174.42 49.2173 174.193 48.9468 174.046 48.6302C173.899 48.3136 173.839 47.9625 173.871 47.614C174.092 45.29 174.288 42.9787 174.496 40.6548C174.656 38.8056 174.827 36.9064 174.974 35.1197C174.986 34.8548 175.069 34.5984 175.214 34.3781C175.358 34.1578 175.56 33.9821 175.795 33.8703C176.226 33.6308 176.708 33.5054 177.199 33.5054C177.689 33.5054 178.171 33.6308 178.602 33.8703C178.852 33.9964 179.063 34.1902 179.212 34.4304C179.361 34.6706 179.443 34.9481 179.447 35.2323C179.68 38.1934 179.95 41.1545 180.207 44.1157C180.318 45.3651 180.428 46.552 180.526 47.7764C180.537 48.0337 180.492 48.2903 180.395 48.5278C180.297 48.7654 180.15 48.9782 179.962 49.1509C179.217 49.8453 178.239 50.221 177.229 50.2004Z" fill="#545454"/>
<path d="M155.452 14.9916C155.507 14.2118 155.762 13.4606 156.193 12.8135C156.623 12.1664 157.213 11.6465 157.903 11.3059C158.238 11.1111 158.622 11.0225 159.006 11.0515C159.39 11.0804 159.757 11.2255 160.06 11.4683C163.328 13.8172 166.596 16.1536 169.864 18.4775C170.195 18.6763 170.451 18.9826 170.591 19.3474C170.731 19.7121 170.747 20.1141 170.636 20.4891C170.553 20.9214 170.374 21.3285 170.113 21.6793C169.851 22.0302 169.515 22.3154 169.129 22.5132C168.931 22.6204 168.71 22.6765 168.485 22.6765C168.261 22.6765 168.04 22.6204 167.842 22.5132C164.166 20.7765 160.489 19.0272 156.813 17.3155C156.376 17.1215 156.01 16.7931 155.766 16.3763C155.522 15.9595 155.413 15.4753 155.452 14.9916Z" fill="#545454"/>
<path d="M155.464 35.5447C155.462 35.1062 155.589 34.677 155.829 34.3135C156.07 33.9501 156.413 33.6694 156.813 33.5081C160.489 31.7964 164.166 30.0596 167.842 28.3105C168.044 28.209 168.266 28.1563 168.492 28.1563C168.717 28.1563 168.939 28.209 169.141 28.3105C169.685 28.5918 170.127 29.0427 170.403 29.5977C170.678 30.1527 170.773 30.7829 170.673 31.3965C170.606 31.7129 170.422 31.9906 170.158 32.1711C166.715 34.67 163.295 37.0688 159.852 39.4927C159.558 39.68 159.218 39.7793 158.871 39.7793C158.525 39.7793 158.185 39.68 157.891 39.4927C157.176 39.1178 156.573 38.5533 156.146 37.8585C155.719 37.1637 155.483 36.3644 155.464 35.5447Z" fill="#545454"/>
<path d="M198.884 36.0568C198.821 36.7636 198.588 37.4436 198.205 38.0365C197.822 38.6293 197.302 39.1168 196.69 39.4554C196.321 39.7017 195.885 39.8222 195.445 39.7997C195.004 39.7773 194.582 39.6129 194.239 39.3303C190.971 36.998 187.724 34.6825 184.497 32.3836C184.191 32.2071 183.947 31.9373 183.8 31.6123C183.653 31.2873 183.609 30.9236 183.675 30.572C183.732 30.1144 183.894 29.6768 184.147 29.2948C184.4 28.9128 184.738 28.597 185.134 28.373C185.351 28.2435 185.599 28.1752 185.851 28.1752C186.103 28.1752 186.35 28.2435 186.568 28.373L197.095 33.3707C197.208 33.4351 197.327 33.4895 197.45 33.5331C198.528 33.858 198.884 34.6575 198.884 36.0568Z" fill="#545454"/>
<path d="M201.629 36.8191C201.432 36.8004 201.233 36.8237 201.046 36.8877C200.858 36.9517 200.686 37.055 200.54 37.1908C200.393 37.3266 200.277 37.4921 200.197 37.6765C200.117 37.861 200.076 38.0604 200.076 38.2621C200.076 38.4637 200.117 38.6633 200.197 38.8477C200.277 39.0322 200.393 39.1975 200.54 39.3333C200.686 39.4692 200.858 39.5724 201.046 39.6364C201.233 39.7004 201.432 39.7239 201.629 39.7052C201.818 39.7136 202.006 39.683 202.182 39.6152C202.359 39.5474 202.52 39.4439 202.657 39.3108C202.793 39.1777 202.901 39.0177 202.975 38.8407C203.049 38.6637 203.088 38.4732 203.087 38.2808C203.089 38.0862 203.052 37.8934 202.979 37.7136C202.906 37.5338 202.799 37.3708 202.662 37.2344C202.526 37.098 202.365 36.9908 202.187 36.9195C202.01 36.8481 201.82 36.8141 201.629 36.8191ZM201.629 39.4303C201.475 39.4257 201.323 39.3893 201.184 39.3233C201.044 39.2572 200.918 39.1629 200.815 39.0462C200.712 38.9294 200.633 38.7925 200.584 38.6438C200.534 38.4951 200.514 38.3376 200.526 38.1809C200.524 38.0333 200.551 37.8867 200.605 37.7496C200.659 37.6125 200.739 37.4876 200.84 37.382C200.942 37.2765 201.062 37.1924 201.196 37.1343C201.329 37.0763 201.472 37.0455 201.617 37.0439C201.919 37.0439 202.209 37.1664 202.423 37.3843C202.636 37.6022 202.756 37.8978 202.756 38.2059C202.756 38.5141 202.636 38.8096 202.423 39.0275C202.209 39.2455 201.919 39.3678 201.617 39.3678L201.629 39.4303Z" fill="#545454"/>
<path d="M201.813 38.3056C201.872 38.2824 201.922 38.2411 201.957 38.1874C201.992 38.1337 202.01 38.0702 202.009 38.0057C202.007 37.9619 201.997 37.9189 201.979 37.8793C201.96 37.8396 201.934 37.8041 201.902 37.775C201.87 37.7458 201.833 37.7234 201.792 37.7094C201.751 37.6954 201.708 37.69 201.665 37.6934H201.187V38.7929H201.445V38.3056H201.543L201.825 38.7679H202.119L201.813 38.3056ZM201.445 37.9307H201.665C201.665 37.9307 201.751 37.9308 201.751 38.0057C201.751 38.0289 201.742 38.0511 201.726 38.0675C201.71 38.0839 201.688 38.0931 201.665 38.0931H201.445V37.9307Z" fill="#545454"/>
</svg>
