<svg width="55" height="75" viewBox="0 0 55 75" fill="none" xmlns="http://www.w3.org/2000/svg">
<path d="M0.744141 0.595325H17.9011L35.1194 31.9933C35.2029 32.1459 35.2452 32.3184 35.2419 32.4931C35.2419 40.4644 35.2419 48.4357 35.2419 56.407V56.6944H17.8521V56.4944C17.8521 48.2649 17.8521 40.0354 17.8521 31.8058C17.8507 31.6341 17.8041 31.4658 17.7173 31.3186L2.74171 4.15615L0.744141 0.595325Z" fill="#545454"/>
<path d="M54.2862 0.595325C54.2862 0.695279 54.2004 0.795208 54.1514 0.882668L36.492 29.282L36.3326 29.532L36.1978 29.307L29.237 16.8128C26.2304 11.4153 23.2239 6.00113 20.2173 0.570312L54.2862 0.595325ZM36.9086 17.2252L42.5582 7.22983H31.2346L36.9086 17.2252Z" fill="#545454"/>
<path d="M11.7365 66.3898L13.4522 61.542H16.1361L12.9498 69.1384V74.0612H10.4988V69.1384L7.3125 61.542H10.1066L11.7365 66.3898Z" fill="#545454"/>
<path d="M20.8177 61.542L22.5701 70.3878L24.3348 61.542H28.0113V74.0362H25.7687V64.0408L23.5873 74.0362H21.6265L19.4451 64.0408V74.0362H17.1289V61.542H20.8177Z" fill="#545454"/>
<path d="M34.7396 63.7784C34.6239 63.5722 34.4529 63.4039 34.2467 63.2932C34.0405 63.1826 33.8076 63.1342 33.5754 63.1537C33.2989 63.142 33.0281 63.2355 32.8156 63.416C32.5786 63.6357 32.412 63.9231 32.3376 64.2407C32.2056 64.7258 32.1275 65.2245 32.1048 65.7274C32.0557 66.3355 32.0312 67.0852 32.0312 67.9764C32.0189 68.7441 32.0516 69.5117 32.1293 70.2753C32.1644 70.7411 32.2634 71.1994 32.4234 71.6372C32.5105 71.9038 32.6832 72.1327 32.9136 72.2869C33.1297 72.3989 33.3697 72.4547 33.6121 72.4493C33.8214 72.4505 34.0291 72.4125 34.2249 72.3369C34.4317 72.2451 34.6038 72.0872 34.7151 71.8871C34.8756 71.5823 34.9873 71.2533 35.046 70.9126C35.1287 70.3712 35.1656 69.8235 35.1563 69.2757H37.6073C37.6094 69.9243 37.5602 70.572 37.4602 71.2124C37.3696 71.774 37.174 72.3127 36.8842 72.7992C36.5863 73.2707 36.1606 73.6439 35.6587 73.8737C35.0349 74.1564 34.3556 74.2888 33.6734 74.2609C32.9077 74.2994 32.1447 74.1404 31.4552 73.7986C30.9343 73.5152 30.5077 73.0804 30.2297 72.5492C29.9152 71.9084 29.7199 71.2137 29.6538 70.5003C29.4904 68.7509 29.4904 66.9895 29.6538 65.2401C29.7164 64.526 29.9119 63.8306 30.2297 63.1911C30.5028 62.6307 30.9282 62.1624 31.4552 61.8417C32.1417 61.4898 32.9061 61.3262 33.6734 61.367C34.3933 61.3259 35.1113 61.4766 35.7568 61.8042C36.2341 62.0593 36.6329 62.4442 36.9087 62.9162C37.1546 63.364 37.3127 63.8563 37.3744 64.3656C37.4356 64.8546 37.4683 65.3468 37.4725 65.8398H35.0215C35.082 65.1397 34.9856 64.4349 34.7396 63.7784Z" fill="#545454"/>
<path d="M44.4951 61.542L47.7549 74.0362H45.1691L44.6054 71.3874H41.3333L40.7696 74.0362H38.1348L41.3946 61.542H44.4951ZM44.1765 69.3509L43.0368 63.716L41.8113 69.3509H44.1765Z" fill="#545454"/>
</svg>
